P2
89 89
255
255 253 252 252 253 251 252 254 254 254 251 252 254 254 254 253 250
254 253 252 254 254 254 253 251 252 251 253 252 252 252 254 254 254
254 254 254 255 252 253 253 253 255 254 253 254 254 254 254 254 255
254 254 254 254 254 253 254 254 254 254 254 254 252 252 254 254 253
255 254 252 254 254 254 254 254 254 254 254 254 254 254 254 254 254
254 254 254 254 254 254 254 254 253 249 253 254 254 255 252 253 254
254 255 252 253 254 254 254 254 254 254 253 253 253 255 254 253 253
254 255 254 254 254 254 254 254 253 255 254 253 255 254 255 254 254
254 254 254 255 254 254 254 253 255 254 254 254 254 254 254 254 254
254 254 254 254 254 254 253 254 254 254 254 254 254 254 254 254 254
254 254 254 254 254 254 254 254 254 254 254 254 253 254 253 254 254
255 254 253 255 254 253 254 254 254 254 254 254 254 254 254 254 254
254 255 254 253 254 254 254 254 254 254 254 254 254 254 254 254 254
254 254 254 254 254 254 254 254 254 254 254 253 255 254 254 254 254
254 254 254 254 254 254 254 254 254 254 254 254 254 254 254 254 254
254 254 254 254 254 254 254 254 254 254 254 254 254 254 254 254 253
255 254 254 254 254 254 254 254 254 254 254 254 254 254 254 254 254
254 254 254 254 254 254 254 254 254 254 254 253 254 254 254 254 254
254 254 254 254 254 254 254 254 254 254 254 254 254 254 254 254 254
254 254 254 254 254 254 254 253 254 254 254 254 253 255 254 254 254
254 254 254 254 254 254 254 254 254 254 254 254 254 254 254 254 254
254 254 254 254 254 254 254 254 254 254 254 254 253 255 253 254 254
254 254 254 254 254 254 254 254 254 254 254 254 254 253 254 253 254
254 254 254 254 254 254 254 254 254 254 254 254 254 254 254 254 254
254 254 254 254 253 252 253 252 251 251 251 250 252 252 253 253 253
255 254 252 252 253 254 254 254 254 254 254 252 253 254 254 252 252
253 252 254 254 254 254 254 254 254 254 254 254 254 254 254 254 253
255 253 254 254 254 254 254 254 254 254 254 254 254 254 254 254 254
253 255 254 254 254 254 254 254 254 254 254 254 254 254 254 254 254
254 254 254 254 254 254 254 255 253 253 255 254 253 254 254 254 254
253 253 255 254 255 254 253 254 254 254 254 254 254 253 255 253 254
255 255 254 253 254 254 255 254 254 254 254 254 254 254 254 254 254
254 253 255 253 255 253 254 254 254 254 254 254 254 254 254 254 254
254 253 255 254 254 254 254 254 254 254 254 254 254 254 254 254 254
254 254 254 254 254 254 254 254 254 254 254 254 254 254 254 254 254
254 254 254 254 254 254 254 254 254 254 255 253 254 254 254 254 255
253 252 254 254 254 254 254 254 254 254 254 254 254 254 254 254 254
254 254 253 254 254 254 253 255 254 254 254 254 253 254 254 254 254
254 254 254 254 254 253 254 254 254 254 254 254 254 254 254 254 254
254 254 254 254 254 254 254 254 254 254 254 254 254 254 254 254 254
254 254 254 254 254 254 254 254 254 254 254 253 255 254 253 253 253
254 254 254 254 254 253 254 254 254 254 254 254 254 254 254 254 254
254 254 254 254 254 254 253 255 254 254 254 254 254 254 254 254 254
254 254 254 254 254 254 254 254 254 252 251 254 254 254 254 253 254
254 254 254 254 254 254 254 254 254 254 254 254 254 254 254 254 254
254 254 254 254 254 254 254 254 254 254 254 254 254 254 254 253 255
254 254 253 253 254 254 254 254 255 253 254 254 254 254 254 254 254
254 254 253 254 254 254 254 254 254 254 253 255 254 254 254 254 254
255 253 254 254 254 254 254 254 254 254 254 254 254 254 254 254 254
254 254 254 255 255 254 254 254 253 255 255 254 254 254 254 254 253
255 254 253 254 254 255 255 255 254 254 254 254 254 254 254 254 254
254 254 254 254 254 254 254 254 254 254 254 254 254 254 254 254 254
254 254 254 254 254 254 252 252 255 254 255 255 253 254 253 255 254
254 254 254 254 254 254 254 254 255 255 254 254 254 254 254 255 255
254 254 255 252 254 253 250 253 254 254 254 254 254 254 253 254 254
254 254 254 254 252 253 254 254 254 254 254 254 253 254 254 254 254
254 254 254 255 254 254 253 255 254 254 254 254 254 254 254 254 254
254 254 254 254 254 254 254 254 254 254 252 250 254 254 255 254 254
254 254 254 254 254 254 254 254 253 254 254 254 253 251 254 254 255
254 254 253 252 253 254 255 253 253 254 251 254 251 254 255 255 254
255 255 255 255 255 255 255 255 254 254 254 254 252 251 252 255 251
254 253 254 254 254 254 254 255 253 253 253 255 254 254 254 254 254
254 254 254 254 254 254 254 254 254 254 254 254 254 254 253 254 247
253 254 254 254 254 254 254 254 254 254 254 255 253 254 254 254 253
254 254 254 255 254 254 254 254 254 255 253 253 252 254 255 255 251
245 227 214 196 181 170 167 167 168 182 187 198 214 223 237 244 251
255 255 255 254 255 254 254 254 254 254 254 254 251 253 255 254 254
254 254 254 254 254 254 254 255 255 255 254 254 254 255 253 254 254
254 255 253 255 254 254 254 254 254 254 254 254 254 254 254 255 254
254 255 254 254 255 255 254 254 253 251 251 252 254 255 251 234 202
165 138 105 86 67 71 60 64 54 53 52 56 59 56 65 50 64 56 70 70 81 102
127 159 195 229 251 255 255 254 254 251 255 252 254 253 255 254 254
254 255 254 254 254 254 255 252 252 253 251 253 253 255 254 254 254
254 254 255 254 254 254 254 254 254 254 255 255 255 254 255 254 254
254 254 254 253 253 255 254 255 255 250 224 178 124 89 66 57 58 44 47
24 22 14 16 2 1 0 1 0 1 1 1 0 1 1 8 7 16 17 43 37 45 64 86 129 176
228 252 255 254 253 251 253 255 254 253 253 254 254 254 254 254 254
254 252 252 253 255 254 253 254 254 254 254 254 254 254 254 253 254
254 254 255 253 253 253 254 255 254 254 254 254 253 253 254 255 247
203 136 86 61 46 46 17 6 1 2 8 22 41 59 76 86 96 108 118 126 134 138
140 143 135 128 124 110 98 80 60 33 18 4 2 9 30 42 60 92 155 216 251
255 253 253 255 252 251 255 253 254 254 254 254 254 255 255 255 254
254 253 254 254 254 254 254 254 254 255 253 255 254 254 255 254 254
254 254 255 254 254 253 250 255 254 215 140 80 58 37 17 1 3 20 55 94
122 141 162 180 195 211 222 229 241 245 248 251 251 251 248 248 242
240 235 229 216 198 184 174 161 145 109 68 28 4 2 14 36 46 97 186 246
255 253 254 251 250 252 254 253 252 255 253 253 254 254 254 254 253
254 252 253 254 254 254 254 254 253 252 254 254 254 254 254 254 254
254 252 254 255 251 188 108 60 40 19 1 10 48 104 142 158 171 189 215
240 247 254 255 254 254 254 254 255 255 255 253 253 255 253 255 253
255 254 254 255 255 252 243 227 203 181 157 124 84 32 1 1 9 35 92 187
191 204 252 254 252 252 251 251 252 251 252 253 255 253 253 254 254
251 254 254 254 254 255 252 253 253 254 254 254 254 254 254 255 253
254 252 170 55 18 28 4 3 38 96 134 161 185 212 240 253 255 255 252
254 254 254 254 254 254 253 254 255 255 254 255 253 253 254 254 255
255 253 254 254 253 255 254 255 255 249 237 211 179 132 80 44 11 0 61
103 102 133 229 255 253 253 254 253 250 252 252 253 251 253 255 254
251 254 254 254 254 254 255 252 253 254 254 254 252 253 255 255 255
205 64 10 11 9 5 61 122 152 194 229 251 255 253 252 251 252 255 255
254 254 255 255 255 254 254 254 254 254 255 255 254 254 254 254 253
254 254 254 254 254 255 253 254 253 253 253 255 255 252 247 228 162
107 56 39 34 52 88 178 254 251 251 254 250 251 250 250 252 254 255
253 253 254 254 253 253 255 253 250 251 253 252 251 253 244 144 138
122 17 3 7 11 47 132 188 228 251 254 253 252 254 254 255 254 255 255
254 255 253 255 254 253 254 252 255 255 254 254 253 253 253 252 254
255 255 255 254 253 254 251 251 255 254 255 255 254 253 255 253 254
255 246 212 146 46 0 13 39 157 253 251 250 252 249 250 251 252 255
254 254 252 252 255 253 253 254 254 253 252 250 252 254 223 70 15 115
122 10 32 121 184 230 254 255 254 254 251 254 254 255 254 254 254 253
253 254 253 252 254 251 254 252 253 250 252 253 254 253 254 250 254
252 252 252 251 251 253 254 252 251 253 254 254 254 253 254 254 250
249 250 253 250 234 212 140 15 0 4 74 242 251 251 249 253 252 254 251
253 254 252 250 255 251 251 251 252 253 249 251 250 176 37 15 55 41
43 127 239 255 254 254 252 251 253 254 254 254 254 255 254 254 254
254 253 252 252 252 254 248 240 235 230 223 228 229 220 218 218 217
222 224 225 239 249 251 251 252 253 251 252 254 254 254 253 253 249
254 252 250 245 233 221 217 209 168 34 23 223 255 252 253 247 251 252
255 253 254 254 254 252 252 250 252 252 250 252 251 254 222 27 4 9 1
95 230 255 255 251 252 255 255 255 255 255 254 253 252 253 254 254
251 253 248 247 237 220 207 196 188 186 191 180 183 187 165 151 168
163 164 176 187 192 201 212 229 242 249 250 254 253 253 254 255 253
253 241 218 199 179 177 182 178 194 240 204 95 45 143 251 252 251 250
252 255 254 254 254 254 254 251 251 252 252 249 248 254 215 49 1 0 20
173 252 251 255 252 255 255 252 253 252 253 254 250 253 251 247 253
247 238 207 175 155 140 144 161 164 169 176 180 177 162 173 152 133
141 127 147 160 173 170 175 160 154 163 179 196 227 242 249 254 249
243 218 195 172 169 173 184 178 171 180 228 255 175 116 11 62 229 255
247 252 253 254 254 254 254 254 252 249 252 251 251 251 243 80 4 0 38
203 255 254 254 254 253 252 252 253 251 251 253 254 251 254 252 250
237 198 162 149 130 127 141 131 138 131 144 158 142 147 171 173 150
137 132 121 104 146 173 174 154 142 152 158 130 141 168 172 189 202
201 188 188 181 178 170 181 178 179 159 186 243 249 248 182 80 20 37
198 255 247 254 253 254 254 254 254 253 250 252 250 251 246 255 185
43 25 188 204 198 203 200 218 236 247 254 255 253 252 252 251 253 247
230 202 170 157 154 139 120 132 125 137 154 174 179 177 146 123 138
168 165 129 112 120 126 131 161 167 167 138 165 174 121 89 115 150
174 181 180 177 172 173 163 153 169 158 141 128 199 243 254 253 67 41
40 23 23 175 255 246 252 253 254 254 254 251 251 251 248 246 255 126
8 55 193 216 173 165 159 151 147 161 178 195 216 232 231 232 228 220
196 169 147 150 164 166 165 139 114 109 133 154 179 190 194 182 146
135 149 173 135 117 119 118 133 153 153 143 145 157 168 144 100 116
158 193 203 190 164 165 166 159 158 163 153 124 129 231 254 243 238
99 40 40 29 17 14 169 255 250 254 252 254 254 252 249 249 251 255 110
12 32 176 248 181 161 171 164 156 152 129 129 148 159 165 181 191 185
158 145 144 145 153 179 189 192 188 179 145 112 132 167 190 196 185
162 153 163 163 155 132 128 129 142 158 134 124 132 129 148 138 97
122 177 198 175 152 156 167 163 160 157 146 141 141 143 97 61 31 8 1
6 27 26 26 20 17 186 254 249 251 254 254 251 250 247 255 111 10 35 35
75 245 174 111 137 151 154 155 149 127 113 125 153 169 175 161 140
132 158 164 175 174 166 171 192 202 198 172 131 140 168 182 170 158
154 167 174 154 155 139 148 146 139 137 125 116 124 150 142 126 161
176 157 157 154 158 165 163 161 160 163 157 152 81 9 6 30 40 44 44 29
51 38 26 17 25 223 253 250 254 253 252 246 255 139 0 21 29 33 88 253
248 123 60 113 136 138 139 144 132 127 158 164 151 145 130 150 170
172 181 177 172 172 178 183 187 182 171 156 160 168 170 175 169 156
168 173 159 154 144 150 137 136 110 134 144 151 158 167 168 157 159
139 141 136 137 157 153 134 135 155 178 108 22 5 28 48 55 91 45 40 30
20 19 17 78 251 251 252 251 252 255 187 1 12 18 28 31 49 109 129 116
55 85 128 135 135 134 144 150 161 170 165 166 163 159 172 185 193 188
187 189 183 189 186 189 174 173 174 150 172 188 201 164 149 181 174
175 156 146 150 157 137 150 157 124 93 89 82 60 57 46 63 80 103 116
132 142 152 159 156 156 44 3 26 61 49 102 86 42 52 23 17 8 1 172 255
249 251 254 237 28 12 20 28 33 34 10 5 26 15 24 48 80 96 137 139 152
168 179 176 159 138 139 150 172 185 180 150 125 105 96 95 93 77 88 98
126 72 110 152 189 170 179 186 188 187 195 187 179 177 164 172 165
109 11 65 149 167 172 179 168 162 166 153 154 151 145 152 174 182 84
13 18 47 44 110 102 59 113 72 16 0 0 37 249 249 252 255 107 2 25 37
47 49 35 16 41 47 31 35 63 99 127 137 159 170 164 135 118 135 141 135
149 175 187 167 139 137 139 141 150 138 142 153 149 157 93 13 26 133
166 165 167 167 179 177 164 172 178 175 167 156 180 185 134 135 165
168 161 141 132 117 114 115 128 140 144 154 173 151 29 14 44 35 104
134 55 107 117 82 16 0 0 196 254 251 231 11 10 30 43 13 9 12 25 77 45
31 46 40 98 137 169 170 149 133 132 137 170 188 198 200 191 179 169
164 161 161 151 148 135 132 127 122 121 117 138 155 178 161 146 148
156 152 137 112 96 94 125 142 146 122 149 161 179 156 142 134 176 206
207 189 160 128 110 117 139 173 175 55 1 37 28 79 132 90 71 132 111
95 1 0 120 255 251 139 2 28 45 22 13 22 22 24 56 41 43 62 31 96 163
169 143 121 141 154 169 178 182 168 165 155 159 158 150 127 112 98 81
117 133 148 161 170 189 172 186 181 161 133 120 109 94 84 80 60 53 53
51 57 85 75 139 175 137 160 190 196 169 166 177 187 175 122 92 113
152 181 88 0 26 34 29 92 90 52 94 122 116 41 0 77 255 250 75 18 32 20
11 40 29 25 22 64 57 35 51 20 105 180 161 127 145 165 171 179 180 163
153 145 145 137 121 112 103 97 128 164 187 207 193 184 171 163 120
124 180 178 123 49 69 66 76 73 73 69 70 55 33 13 105 198 205 175 124
109 145 134 158 182 183 183 158 122 117 155 183 121 1 13 31 26 96 78
70 73 112 102 70 0 59 253 252 55 29 24 21 51 65 39 34 37 61 68 25 34
8 95 182 156 136 151 173 175 169 172 169 162 153 150 145 134 114 104
143 189 200 200 193 177 168 197 155 174 173 189 201 198 169 89 7 6 16
83 71 74 30 3 51 160 195 182 157 152 161 147 143 173 177 175 173 153
135 145 166 155 141 10 4 22 19 80 68 57 82 79 70 31 0 43 251 255 47
32 16 60 74 78 61 61 33 67 64 17 28 8 65 180 156 138 155 180 178 179
181 168 149 137 122 101 86 96 124 179 186 169 175 182 163 119 143 118
116 109 155 178 193 189 173 110 39 38 57 42 43 31 36 153 190 189 178
183 182 177 166 153 153 152 168 174 162 165 165 163 167 163 34 1 19
21 49 56 32 58 59 45 7 0 65 254 252 48 30 36 75 76 88 83 43 17 61 70
17 22 9 23 170 163 141 161 188 192 193 189 180 170 157 134 132 143
145 162 183 185 187 185 191 187 183 143 133 167 150 183 187 192 196
181 171 134 53 29 39 35 52 139 158 146 147 160 162 141 141 160 158
170 177 180 174 178 176 163 146 159 170 59 0 14 18 25 29 36 31 54 18
15 0 129 255 251 60 27 49 82 66 102 97 51 35 72 63 29 15 12 7 135 148
121 151 174 182 177 174 172 160 135 107 112 125 135 148 157 159 157
153 162 156 149 152 157 147 144 152 154 159 141 135 127 131 129 67 44
48 101 120 122 111 122 136 149 159 168 174 174 179 175 180 184 183
164 133 130 151 160 56 0 17 12 18 12 24 11 70 87 177 173 250 251 255
89 27 50 91 44 109 74 69 45 85 78 40 21 15 0 97 156 113 147 166 173
163 162 172 158 152 146 153 152 162 167 164 165 167 165 155 157 142
150 134 135 120 144 144 149 127 129 107 123 134 111 43 32 93 145 147
138 144 144 155 160 157 167 176 179 174 177 177 165 157 140 116 132
155 51 0 13 14 20 6 22 3 43 100 221 255 253 251 254 135 21 38 104 28
112 54 53 46 62 76 50 27 23 1 82 161 144 163 175 170 150 132 131 148
164 164 169 165 153 157 158 155 155 161 171 162 161 155 171 161 166
154 152 127 120 135 146 138 116 58 46 52 56 81 119 146 156 163 184
183 185 186 191 188 186 181 162 149 131 119 134 156 159 37 3 12 9 6 7
12 2 19 141 251 252 253 254 254 212 14 10 100 44 94 68 31 35 45 58 69
35 34 12 29 175 175 176 163 148 115 103 135 168 183 177 165 162 169
163 151 150 151 170 172 162 157 165 157 153 165 151 158 173 155 131
104 67 50 55 69 52 48 48 31 98 197 155 115 112 130 159 177 189 181
172 171 166 152 132 146 162 141 41 7 16 13 10 7 3 1 81 246 255 251
255 254 254 255 111 0 50 73 38 108 10 16 21 43 57 39 27 19 10 132 160
159 153 120 102 124 151 166 156 143 162 176 168 160 158 154 171 167
166 171 177 184 181 180 172 165 121 85 167 128 0 0 0 1 5 20 28 21 18
37 187 39 18 34 54 109 164 177 177 173 169 173 172 185 169 188 123 41
52 38 16 16 10 64 80 201 254 250 252 254 254 254 251 248 188 210 147
18 122 28 3 10 28 42 50 32 22 2 104 168 142 146 123 100 131 155 120
139 145 157 150 146 159 171 175 164 154 118 125 123 156 158 142 153
82 6 5 47 212 11 2 3 7 17 33 46 47 58 21 26 4 8 12 89 138 168 171 173
172 156 148 159 167 170 189 193 102 114 34 39 102 114 192 199 255 251
252 253 254 254 254 253 254 255 254 246 111 68 89 2 10 18 44 45 24 17
6 53 175 144 145 131 102 139 92 121 129 146 144 142 153 158 163 167
137 78 62 39 25 72 43 30 46 76 43 59 40 84 24 6 9 9 26 65 87 82 63 11
2 8 6 67 146 174 173 172 167 168 166 170 157 161 180 228 255 255 254
243 203 218 235 254 254 252 252 253 255 254 254 254 254 254 255 249
254 248 140 126 19 9 17 32 58 42 41 53 44 134 158 135 127 149 133 144
124 118 121 119 142 151 151 148 141 96 71 35 4 6 37 25 12 48 32 54 79
93 79 61 30 8 9 46 92 111 128 48 75 21 6 37 144 171 175 173 166 160
163 156 157 160 173 209 244 253 253 253 255 254 255 255 253 255 254
252 255 254 254 254 254 255 255 254 253 251 250 255 235 123 4 46 13
53 46 54 52 55 104 187 144 130 156 142 120 110 115 96 98 122 137 133
147 144 140 124 90 52 6 14 3 32 52 41 22 61 96 102 104 75 27 8 50 95
124 128 34 60 15 19 128 173 178 173 162 146 131 118 129 135 169 206
236 248 253 254 254 254 255 255 254 255 254 254 255 254 254 254 254
254 253 254 254 253 254 253 253 253 251 174 166 125 127 41 28 62 129
223 203 165 165 163 114 118 119 109 103 114 118 140 125 145 129 141
149 136 115 86 40 15 4 57 62 8 13 52 98 113 101 52 16 42 92 118 141
141 70 23 96 178 189 180 162 140 131 119 124 137 171 212 237 251 250
251 255 254 254 255 254 254 254 254 254 254 254 254 254 254 254 254
254 254 254 254 254 255 253 252 255 255 255 230 231 229 250 255 252
226 181 171 150 142 151 142 131 121 106 118 114 111 143 114 139 140
147 152 134 118 94 43 7 40 50 61 15 39 127 102 71 48 50 71 94 116 133
145 117 166 190 183 164 135 109 105 127 157 194 224 241 250 250 252
253 254 254 254 254 255 253 253 250 253 255 254 254 254 254 254 254
254 254 254 254 254 254 255 253 254 251 249 254 253 253 252 252 253
242 207 180 137 156 155 164 155 144 132 132 127 129 141 128 138 141
141 151 157 158 137 116 85 26 43 93 50 76 116 84 65 50 41 47 53 61 72
87 130 187 186 171 141 123 114 117 154 193 222 243 251 252 252 254
252 254 254 254 254 254 254 254 253 254 254 254 254 254 254 254 254
254 254 254 254 254 254 255 253 254 251 251 253 254 253 253 254 249
246 223 180 143 152 170 185 187 180 170 167 167 165 172 159 140 126
121 139 149 153 162 150 134 109 65 48 78 126 91 58 47 38 21 35 52 66
87 126 136 190 185 155 136 142 157 175 201 225 245 251 251 251 252
251 254 253 253 253 254 254 254 255 255 254 254 254 255 254 254 254
255 254 254 254 254 254 254 254 255 253 253 252 255 254 255 255 254
252 251 229 198 184 179 185 191 188 187 182 177 169 167 178 169 167
163 146 128 137 143 148 164 160 146 123 76 42 96 115 136 90 64 57 49
62 74 158 161 180 190 159 144 162 173 185 209 238 250 249 252 252 252
253 252 254 254 254 255 255 253 254 254 254 255 253 253 255 254 254
254 251 254 255 254 254 254 254 254 254 254 254 254 254 254 253 252
255 251 249 218 194 180 174 168 182 189 187 187 181 178 173 165 169
169 166 157 150 135 138 153 159 162 159 144 118 49 21 62 138 158 108
108 93 104 123 116 119 176 158 155 162 173 192 218 244 250 252 252
252 254 254 254 254 253 254 254 254 254 254 254 254 254 254 254 254
254 254 254 254 253 255 255 254 254 254 254 254 254 254 253 254 254
254 254 255 253 253 244 196 163 161 161 163 172 186 189 185 177 177
176 176 174 164 156 159 164 166 168 159 153 163 167 167 171 145 62 27
57 99 101 62 52 40 30 63 160 172 133 143 160 185 223 246 251 252 253
255 252 254 254 254 254 254 255 254 254 254 254 254 254 254 254 255
254 254 254 254 254 254 254 254 254 254 254 254 254 254 254 254 254
254 254 253 254 251 250 238 185 143 114 136 148 161 182 188 190 180
180 182 181 180 175 174 172 177 176 176 174 165 161 160 156 166 186
163 129 75 39 26 9 7 14 71 163 170 153 162 167 191 207 234 247 250
254 254 255 253 254 254 254 254 254 254 254 254 254 254 254 254 254
254 254 254 254 254 254 254 254 254 254 254 254 254 254 254 254 254
254 254 254 254 255 251 249 251 228 181 144 122 132 143 148 163 162
172 182 186 181 182 185 184 182 179 176 176 167 174 183 187 171 165
160 163 167 180 179 164 146 145 151 184 190 151 142 149 160 194 210
215 237 250 251 251 253 254 254 254 254 254 254 254 254 254 254 254
254 254 254 254 254 254 254 254 254 254 254 254 254 253 254 254 254
254 254 254 254 254 254 254 254 253 252 253 244 205 168 144 133 133
125 128 147 160 166 160 158 162 167 175 179 190 186 185 184 174 187
191 191 193 199 192 178 165 140 149 164 171 159 146 127 133 128 150
158 161 173 199 211 224 246 252 252 252 254 254 254 254 254 254 254
254 254 254 254 254 254 254 254 254 254 254 254 254 254 254 254 255
253 254 254 254 254 254 254 254 254 254 254 255 252 253 251 243 203
179 159 138 108 91 132 149 146 161 142 122 146 167 177 177 178 183
187 190 187 199 193 188 193 200 202 197 183 157 147 133 131 116 117
136 163 164 160 155 151 153 171 201 217 240 250 252 254 254 254 254
254 254 254 255 254 254 254 254 254 254 254 254 254 254 254 254 254
254 254 254 254 254 254 254 254 254 254 254 254 254 254 253 255 253
253 249 235 203 182 164 136 125 134 144 144 139 146 141 142 154 164
159 160 167 179 184 188 190 191 174 167 182 195 194 186 180 159 144
162 156 140 146 164 167 171 170 142 145 150 167 184 207 235 252 252
254 254 254 254 254 255 253 254 254 254 254 254 254 254 254 254 254
254 254 254 254 254 254 254 254 254 255 254 253 253 254 254 253 254
254 254 254 254 251 254 240 207 185 171 159 148 135 130 127 114 118
137 149 153 164 157 157 171 182 188 190 201 173 145 157 174 189 191
185 178 167 140 135 152 153 153 152 155 152 147 152 149 168 176 181
203 236 250 253 253 254 254 254 254 254 254 254 254 254 254 254 254
254 254 255 254 254 254 254 254 254 254 254 254 254 255 253 252 253
254 254 253 254 254 254 254 253 252 252 240 213 187 175 170 160 139
129 109 91 106 132 150 160 154 158 157 169 170 176 183 186 147 126
164 177 181 175 180 176 176 147 124 138 155 157 137 131 134 130 137
157 180 176 181 205 242 247 252 251 253 254 254 255 254 254 253 254
254 254 254 254 254 254 255 254 254 254 254 254 254 254 254 254 254
254 255 255 254 254 253 255 254 254 254 254 254 252 253 247 229 198
181 168 162 157 136 115 128 148 149 151 161 155 141 148 164 163 152
163 160 103 142 170 160 174 163 148 149 155 148 123 124 133 142 135
132 135 147 163 178 188 176 183 221 245 250 249 253 253 254 254 255
254 254 251 251 253 252 254 254 254 254 254 254 254 254 255 254 254
254 254 254 254 254 254 254 254 254 254 254 254 254 254 254 254 254
253 253 234 207 192 183 177 172 166 161 160 152 147 133 144 141 131
127 139 146 125 136 110 94 139 151 134 152 149 120 120 131 144 127
117 126 131 136 144 155 170 184 190 181 180 203 236 250 252 253 255
255 254 254 255 254 254 254 252 253 253 254 254 254 254 254 254 254
254 254 254 254 254 254 254 254 254 254 254 254 254 254 254 254 254
254 254 254 254 255 252 243 217 202 192 187 180 184 183 172 163 156
141 136 125 133 127 132 122 108 111 92 107 134 151 140 152 141 125
134 141 149 133 126 136 149 161 172 179 188 193 188 181 190 221 246
253 253 254 254 254 254 254 255 254 254 253 254 254 255 254 254 254
254 254 254 254 254 254 254 254 254 254 254 254 254 254 254 254 254
254 255 254 254 254 254 254 254 253 254 245 225 205 192 187 185 181
182 184 180 171 161 150 141 148 149 147 125 117 121 131 135 145 161
167 168 152 144 148 151 156 163 167 171 181 185 183 189 194 181 158
135 183 229 245 251 254 254 254 254 254 254 255 254 253 253 254 254
254 254 254 254 254 254 254 254 255 255 254 254 254 254 254 254 254
254 254 254 254 254 254 254 254 254 254 254 254 254 253 249 236 213
198 194 189 190 190 189 188 180 179 173 175 172 172 173 164 154 158
163 166 175 174 182 183 172 164 171 168 174 179 181 187 189 190 187
192 187 141 95 78 130 215 242 249 255 254 255 254 254 254 254 254 254
252 253 255 254 254 254 254 254 254 254 254 254 254 254 254 254 255
254 254 254 254 254 254 254 254 254 254 254 254 254 254 254 254 252
252 245 225 200 190 196 193 192 186 193 187 190 197 192 180 181 185
183 185 182 184 192 189 179 179 181 177 168 170 175 182 181 183 183
193 196 191 181 144 94 79 88 114 204 241 248 253 255 254 254 254 254
254 254 254 253 254 254 254 254 254 254 254 254 254 254 254 254 254
254 254 254 254 254 254 254 254 254 254 254 254 254 254 254 254 254
254 254 254 253 249 236 201 188 191 195 193 193 196 201 193 194 195
192 191 187 188 200 201 191 196 192 176 172 174 184 164 165 176 180
180 180 185 192 189 189 159 112 87 80 95 127 193 237 247 253 255 254
254 254 254 254 254 254 254 255 254 255 254 254 254 254 254 254 254
254 254 254 254 254 255 253 254 254 254 254 254 254 254 254 254 254
254 254 254 254 253 254 253 251 246 224 190 194 197 202 203 201 202
203 203 199 196 200 204 196 200 201 198 198 193 190 187 193 195 186
179 187 188 189 192 195 188 178 154 104 71 70 75 95 125 181 227 248
251 254 254 254 254 254 254 254 254 254 253 255 250 255 254 254 254
254 254 254 254 254 254 254 254 253 254 254 254 254 254 254 254 254
254 254 254 254 254 254 254 253 255 253 252 248 244 211 182 189 196
206 198 189 188 188 186 196 203 205 203 201 200 208 208 207 202 196
204 205 207 204 200 203 199 199 196 180 140 86 50 62 70 87 109 126
161 221 244 252 254 254 254 254 254 254 254 254 254 254 254 254 253
254 253 254 254 254 254 254 254 254 254 254 253 254 254 254 254 254
254 254 254 254 254 254 254 254 254 254 254 253 250 255 249 249 226
190 178 181 187 188 179 160 155 154 143 133 147 164 172 183 196 197
202 205 206 201 203 197 187 179 186 189 186 183 139 50 57 53 56 79
104 113 144 169 217 243 250 253 254 254 254 254 253 254 254 254 254
254 254 254 255 253 254 254 254 254 254 254 254 254 254 254 254 254
254 254 254 254 254 254 254 254 254 254 254 254 254 254 255 254 253
253 247 239 211 188 177 182 178 178 165 160 120 77 78 86 94 63 81 113
132 139 168 187 189 187 184 178 172 177 188 191 184 135 34 33 92 101
123 137 143 165 190 227 244 252 252 253 254 253 254 252 254 254 254
254 254 254 254 254 254 254 254 254 254 254 254 254 254 254 254 254
254 254 254 254 254 254 254 254 254 254 254 254 254 254 254 254 254
254 252 248 247 231 204 185 186 185 177 161 156 136 117 92 80 73 52
42 52 81 130 167 165 184 193 190 194 191 188 193 202 201 191 159 111
90 110 141 158 177 190 217 241 251 249 254 254 254 255 251 255 254
254 254 253 255 254 254 254 254 254 254 254 254 254 254 254 254 254
254 254 254 254 254 254 254 254 254 254 254 254 254 254 254 254 254
254 254 254 254 253 248 231 205 193 187 179 173 165 165 159 143 128
116 97 80 66 69 98 157 182 172 177 189 188 183 179 185 201 204 204
208 212 210 175 173 189 206 219 231 243 251 250 255 254 254 254 253
254 254 254 254 254 253 254 254 254 254 253 254 254 253 254 254 254
254 254 254 254 254 254 254 254 254 254 254 254 254 254 254 254 254
254 254 254 254 254 254 253 251 244 232 209 190 179 172 176 180 170
157 155 151 136 124 110 94 105 139 169 187 189 185 193 183 182 181
194 208 206 208 216 221 226 230 232 234 239 243 246 248 252 251 254
254 254 254 255 254 254 254 254 254 254 254 254 254 255 253 254 254
253 255 254 254 254 253 254 253 253 254 255 254 253 253 254 254 254
254 254 254 254 254 254 254 254 254 255 253 252 247 233 210 178 165
159 164 169 155 147 160 164 155 149 144 132 127 155 168 178 189 191
193 191 168 177 200 213 213 217 225 230 232 239 240 246 246 250 251
251 252 255 254 255 254 255 251 253 254 254 254 254 255 254 254 255
254 254 253 254 253 254 255 251 250 253 253 255 253 254 255 254 254
252 254 254 254 254 254 254 254 254 254 254 254 254 254 252 251 250
238 207 170 160 153 153 152 147 141 151 178 171 172 167 156 151 163
160 165 170 177 185 164 144 161 204 216 219 230 236 238 243 245 250
251 252 252 252 254 254 254 254 255 253 251 254 255 254 254 254 255
254 254 254 254 254 254 254 254 254 254 255 253 254 253 254 254 254
254 255 254 254 252 254 254 254 254 254 254 254 254 254 254 254 254
254 254 251 249 242 216 178 157 149 146 135 143 148 160 180 184 191
190 175 168 161 156 158 153 149 142 134 136 165 211 223 231 240 247
246 249 252 252 253 255 253 251 252 254 254 255 255 253 253 254 255
254 255 255 255 254 254 254 254 254 254 254 254 254 253 254 254 254
254 254 253 253 254 254 254 254 252 254 253 254 253 255 254 254 254
254 254 254 254 254 250 253 249 245 228 203 176 159 144 135 164 171
184 195 205 207 206 192 182 169 162 146 138 135 132 139 155 200 224
236 241 248 249 254 252 253 255 254 254 255 252 254 254 254 255 254
254 254 254 254 254 254 254 254 254 254 254 254 254 255 253 254 253
254 254 254 254 254 254 253 254 254 254 254 254 254 255 254 254 254
254 254 254 254 254 254 254 254 255 253 253 253 252 244 231 211 190
184 181 197 211 221 230 231 234 233 227 213 197 186 168 163 154 153
172 196 226 238 244 249 252 252 254 255 254 254 254 254 254 254 254
254 254 254 254 254 254 254 254 254 254 254 254 254 254 254 253 254
254 254 254 254 251 254 254 254 254 254 254 254 254 254 254 254 254
254 254 254 254 254 254 254 254 254 254 254 254 254 255 255 255 254
254 246 248 239 239 242 240 246 245 247 250 248 248 250 242 231 218
203 191 192 201 212 231 244 249 250 253 254 255 255 254 254 254 254
254 254 254 254 254 254 254 254 254 254 254 254 254 254 254 254 254
254 254 254 254 254 254 254 254 255 253 255 254 254 254 254 254 254
254 255 254 254 254 254 254 254 254 254 254 254 254 254 254 254 254
254 254 254 255 251 253 251 252 251 254 252 251 254 254 255 253 253
252 251 248 249 248 240 241 250 248 251 248 251 252 253 253 254 255
254 254 254 254 254 254 254 254 254 254 254 254 254 254 254 254 254
254 254 255 253 255 254 254 254 254 254 255 254 254 253 255 254 254
254 254 254 254 255 254 254 254 254 254 254 254 254 254 254 254 254
254 254 254 254 254 255 253 254 255 253 254 253 253 254 254 252 253
255 253 254 254 254 254 253 250 253 251 255 253 252 252 254 250 252
254 254 254 254 254 254 254 254 254 254 254 254 254 254 254 254 254
254 254 254 254 254 254 252 253 255 254 254 254 254 254 255 255 253
253 255 254 254 254 254 254 254 255 254 254 254 254 254 254 254 254
254 254 254 254 254 254 254 254 254 254 253 254 254 254 255 254 255
255 254 254 254 255 254 254 254 254 254 255 253 250 250 253 252 252
251 255 254 254 254 254 254 254 254 254 254 254 253 254 254 254 254
254 254 254 254 254 254 254 254 254 254 253 253 254 254 254 254 254
254 254 255 253 253 254 254 254 254 254 254 254 254 254 254 254 254
254 254 254 254 254 254 254 254 254 254 254 254 254 254 254 254 254
254 254 254 254 254 254 254 254 255 255 255 253 255 254 254 254 251
254 254 254 253 254 255 254 254 254 254 254 254 254 254 254 254 253
255 254 254 254 254 254 254 254 254 254 254 254 254 254 251 254 252
251 254 254 254 254 254 255 253 254 254 254 254 254 254 254 254 254
254 254 254 254 254 254 254 254 254 254 254 254 254 254 254 254 254
254 254 254 254 254 254 254 254 254 254 254 254 254 254 254 255 254
254 254 254 254 253 252 255 254 255 254 254 254 254 254 254 254 254
254 254 254 254 254 254 254 254 254 254 254 254 254 254 254 254 254
254 254 254 251 253 254 255 254 255 254 253 255 252 254 254 253 254
254 254 254 254 254 254 254 254 254 254 254 254 254 254 254 254 254
254 254 254 254 254 254 254 254 254 254 254 254 254 254 254 254 254
254 254 254 254 254 254 254 254 253 254 254 254 254 254 254 254 254
254 254 254 254 254 254 254 254 254 254 254 254 254 254 254 254 254
254 254 254 254 254 255 255 254 254 254 254 254 254 254 254 254 254
254 254 254 254
