P2
89 89
255
0 4 0 0 0 0 0 0 0 0 0 0 0 0 0 0 0 4 4 0 
0 0 0 0 4 4 4 0 0 4 4 0 0 0 0 0 4 0 0 0 
0 0 4 0 4 0 0 0 0 0 0 0 0 0 0 0 0 0 0 0 
0 0 0 0 0 0 0 0 0 0 0 0 0 0 0 0 0 0 0 0 
0 0 0 0 0 0 0 0 0 0 0 0 0 4 0 0 0 0 0 0 
0 0 0 0 0 0 0 0 0 0 0 0 0 0 0 0 0 0 0 0 
0 0 0 0 0 0 0 0 0 0 0 4 0 4 4 4 0 0 0 0 
0 4 0 0 0 0 0 0 4 4 0 0 0 0 0 0 0 0 0 0 
0 0 4 0 0 0 0 0 0 0 0 0 0 0 0 0 0 0 0 4 
0 0 0 0 0 0 0 0 0 0 0 0 0 0 0 0 0 0 0 0 
0 0 0 0 0 0 0 0 0 0 0 0 0 0 0 0 0 0 0 4 
0 0 0 0 0 0 0 0 0 0 4 0 0 0 0 0 0 0 0 0 
0 0 0 0 0 0 0 0 0 0 0 0 0 4 4 4 4 0 0 0 
0 0 0 0 0 0 0 0 4 0 0 0 0 0 0 4 4 0 0 0 
0 0 0 0 0 4 4 4 4 0 0 0 4 4 4 0 0 0 0 0 
0 0 0 0 0 0 4 4 0 0 0 0 0 0 0 0 0 0 0 0 
0 0 0 0 0 0 0 0 0 0 0 0 0 0 0 0 0 0 0 0 
0 0 0 0 0 0 0 0 0 0 0 0 0 0 0 0 0 0 0 0 
0 0 0 0 0 0 0 0 0 0 0 0 0 0 0 0 0 0 0 0 
0 0 0 0 0 0 0 0 0 0 0 0 4 0 0 0 0 0 0 0 
0 0 0 0 0 0 0 0 0 0 4 0 0 0 0 0 0 0 0 0 
0 0 0 0 4 0 0 0 0 0 0 0 0 0 0 0 0 0 0 0 
0 0 0 0 4 0 0 0 0 4 0 0 0 0 0 0 0 0 0 0 
0 0 0 0 0 4 0 0 0 0 0 4 0 0 0 0 0 0 0 0 
0 4 0 0 0 0 0 0 0 0 0 0 0 0 0 0 0 0 0 4 
0 0 0 0 0 0 0 0 0 0 0 0 0 4 0 0 0 0 0 0 
0 0 0 0 0 0 0 0 0 0 0 0 0 4 0 0 0 0 0 0 
4 0 0 0 0 0 0 0 0 0 0 0 0 0 0 0 0 0 0 0 
0 0 0 0 0 0 0 0 0 0 0 0 0 0 0 0 0 0 0 0 
0 0 0 0 0 0 0 0 0 4 0 0 0 0 0 0 0 0 0 0 
0 0 0 0 0 0 0 0 0 0 0 0 0 0 0 0 4 4 4 0 
0 4 0 0 0 0 0 0 0 0 0 0 0 0 0 0 0 4 0 0 
0 0 0 4 0 0 0 0 0 0 0 0 0 0 0 0 0 0 0 0 
0 0 0 4 0 0 0 0 0 4 0 0 0 0 0 4 0 0 0 0 
4 4 0 0 0 0 0 0 0 0 0 4 0 0 0 0 0 0 0 0 
4 0 0 0 0 0 0 4 4 4 4 0 0 0 0 0 0 0 0 0 
0 0 4 0 0 0 0 4 0 0 0 4 0 0 0 0 0 0 0 0 
0 0 0 0 0 0 0 4 4 0 0 0 0 0 0 0 0 0 0 0 
0 0 0 0 0 0 0 0 0 0 0 0 0 0 0 0 0 4 0 0 
4 0 4 0 0 0 0 0 0 4 0 0 0 0 0 0 0 0 0 0 
0 0 0 4 4 0 0 0 0 0 4 0 0 0 0 0 0 0 0 0 
4 0 0 0 0 0 0 0 0 0 0 0 0 0 0 0 0 0 0 0 
0 0 0 0 0 0 0 0 0 0 0 0 0 0 0 0 0 0 0 0 
0 0 4 0 0 0 0 0 0 0 0 4 4 0 0 0 0 0 0 4 
0 0 4 0 0 0 0 0 0 0 0 0 4 4 0 0 4 0 0 0 
0 0 0 0 0 0 0 0 0 0 0 4 0 0 0 0 0 0 0 0 
0 0 0 0 0 0 0 0 0 0 0 0 0 0 0 0 0 0 0 0 
0 0 0 0 0 0 0 0 0 0 0 0 0 0 0 4 0 0 0 0 
0 4 4 0 0 4 0 0 0 0 0 0 0 0 4 4 0 4 0 0 
0 0 0 4 0 4 0 0 0 0 0 0 0 0 0 0 0 0 0 0 
0 0 0 0 0 0 0 0 0 0 0 0 0 0 0 0 0 0 0 0 
0 0 0 0 0 0 0 0 0 0 0 0 0 0 0 0 0 0 0 0 
0 0 0 0 0 0 0 0 0 0 0 0 0 0 0 0 0 0 4 4 
0 0 0 0 0 0 0 0 4 0 0 0 0 4 0 0 0 0 0 0 
0 0 0 4 4 0 0 0 0 0 0 0 0 0 0 0 0 0 0 0 
0 0 0 0 255 255 255 255 255 255 255 255 255 255 255 255 255 255 255 255 
255 255 255 0 0 0 0 0 0 0 0 0 0 0 0 0 0 0 0 0 
0 0 0 0 0 0 0 4 0 0 0 0 0 0 0 0 0 4 0 0 
0 0 0 0 0 0 0 0 0 0 0 0 0 0 0 0 0 0 0 0 
0 0 0 0 0 0 0 255 255 255 255 255 255 0 0 0 0 0 0 0 
0 0 0 0 0 0 0 0 0 0 0 0 255 255 255 255 255 0 0 0 
0 0 0 0 0 0 0 0 0 0 0 0 0 0 0 4 0 0 0 0 
0 0 0 0 0 4 4 4 0 0 0 0 0 4 0 0 0 0 0 0 
0 0 0 0 0 0 0 0 0 0 0 0 255 255 255 255 0 0 0 0 
0 0 0 0 0 0 0 0 0 0 0 0 0 0 0 0 0 0 0 0 
0 0 0 0 0 0 255 255 255 255 0 0 0 0 0 0 0 0 0 0 
0 0 0 0 0 0 0 0 0 0 0 0 0 0 0 0 0 0 0 0 
0 0 4 0 0 0 0 0 0 0 0 0 0 0 0 0 0 0 255 255 
255 0 0 0 0 0 0 0 0 0 0 0 0 0 0 0 0 0 0 255 
255 0 0 0 0 0 0 0 0 0 0 0 0 0 0 0 0 0 0 255 
255 255 0 0 0 0 0 0 0 0 0 0 0 0 0 0 0 0 0 0 
0 0 0 0 0 0 0 4 0 0 0 0 4 0 0 0 0 0 0 0 
0 0 0 0 0 255 255 0 0 0 0 0 0 0 0 0 0 0 255 255 
255 255 255 255 255 255 255 255 0 0 255 255 255 255 255 255 255 255 255 255 
255 0 0 0 0 0 0 0 0 0 255 255 255 255 0 0 0 0 0 0 
0 0 0 0 0 0 0 0 0 0 0 0 0 0 0 0 0 0 0 0 
0 4 0 0 0 0 0 0 0 0 0 255 255 255 0 0 0 0 0 0 
0 0 255 255 255 255 255 0 0 0 0 0 0 0 0 0 0 0 0 0 
0 0 0 0 0 0 0 0 0 0 255 255 255 255 0 0 0 0 0 0 
0 0 0 255 255 0 0 0 0 0 0 0 4 4 4 4 0 0 0 0 
0 0 0 4 0 0 0 0 0 0 0 0 0 0 0 0 0 0 255 255 
255 0 0 0 0 0 0 0 255 255 255 0 0 0 0 0 0 0 0 0 
0 0 0 0 0 0 0 0 0 0 0 0 0 0 0 0 0 0 0 0 
0 0 0 255 255 255 255 0 0 0 0 0 0 0 255 255 0 0 0 0 
0 0 0 4 4 0 0 0 0 0 0 0 0 0 0 0 0 0 0 0 
0 0 0 0 0 255 255 255 0 0 0 0 0 0 255 255 255 0 0 0 
0 0 0 0 0 0 0 0 0 0 0 0 0 0 0 0 0 0 0 0 
0 0 0 0 0 0 0 0 0 0 0 0 0 0 0 0 255 255 255 0 
0 0 0 0 255 255 255 0 0 0 0 0 0 4 0 0 0 0 4 4 
0 0 0 0 0 0 0 0 0 0 0 255 255 255 0 0 0 0 0 0 
255 255 255 0 0 0 0 0 0 0 0 0 0 0 0 0 0 0 0 0 
0 0 0 0 0 0 0 0 0 0 0 0 0 0 0 0 0 0 0 0 
0 0 0 0 0 0 0 0 255 255 255 0 0 0 0 255 255 0 0 0 
0 0 0 4 0 0 0 4 0 0 0 4 4 0 0 0 0 0 0 255 
255 0 0 0 0 0 0 255 255 0 0 0 0 0 0 0 0 0 0 0 
0 0 0 0 0 0 0 0 0 0 0 0 0 0 0 0 0 0 0 0 
0 0 0 0 0 0 0 0 0 0 0 0 0 0 0 0 0 0 0 255 
255 255 0 0 0 255 255 0 0 0 0 4 4 0 0 0 4 0 4 4 
4 0 0 0 0 0 0 255 255 0 0 0 0 0 255 255 0 0 0 0 
0 0 0 0 0 0 0 0 0 0 0 0 0 0 0 0 0 0 0 0 
0 255 255 255 0 0 0 0 0 0 0 0 0 0 0 0 0 0 0 0 
0 0 0 0 0 0 0 0 0 0 255 255 0 255 0 255 255 0 0 0 
0 0 0 0 0 4 4 4 0 4 0 0 0 0 0 255 255 0 0 0 
255 255 255 0 0 0 0 0 0 0 0 0 0 0 0 0 0 0 0 0 
0 0 255 255 255 255 255 255 255 255 0 0 0 255 255 255 255 255 255 255 
255 255 0 0 0 0 0 0 0 0 0 0 0 255 255 255 255 0 0 0 
255 255 0 0 0 255 0 0 0 0 0 0 0 0 0 0 0 0 0 0 
0 0 0 255 255 0 0 255 255 255 0 0 0 0 0 0 0 0 0 0 
0 0 0 0 0 0 255 255 255 255 255 0 0 0 0 0 0 0 0 0 
0 0 0 0 0 0 0 0 0 0 0 255 255 255 0 0 0 0 0 0 
255 255 255 0 0 0 255 0 255 0 255 255 0 0 255 255 0 0 0 0 
0 0 0 0 0 0 0 0 0 0 0 255 255 0 0 255 255 0 0 0 
0 0 0 0 0 0 0 0 0 0 0 0 255 255 255 255 0 0 0 0 
0 0 0 0 0 0 0 0 0 0 0 0 0 0 0 0 0 0 0 0 
0 0 0 255 255 255 255 255 255 0 0 0 0 0 0 0 255 0 0 0 
0 255 255 0 255 255 0 0 0 0 0 0 0 0 0 0 0 0 0 0 
255 0 0 0 255 0 0 255 0 255 0 0 0 0 0 0 0 0 0 0 
255 255 0 0 0 0 0 0 0 0 0 0 0 0 0 0 0 0 0 255 
0 0 0 0 0 0 0 0 0 0 0 0 0 0 0 0 0 0 0 0 
0 0 0 0 0 255 255 0 0 255 255 0 0 0 255 255 0 0 0 0 
0 0 0 0 0 0 0 0 255 255 0 0 255 0 0 0 255 255 0 255 
255 255 255 255 255 255 255 255 255 0 0 0 0 0 0 255 0 0 0 255 
255 0 0 0 0 0 0 0 255 0 0 0 0 0 0 0 0 0 0 0 
0 0 0 0 0 0 0 0 0 0 0 0 0 0 0 0 0 255 255 0 
0 0 0 0 255 255 0 0 0 0 0 0 0 0 0 0 255 255 0 0 
255 255 0 0 0 0 0 0 0 0 0 0 0 0 0 0 0 0 0 0 
0 0 255 255 255 255 255 255 255 0 0 0 0 0 0 0 0 255 255 0 
0 0 0 0 0 0 0 0 0 0 0 0 0 0 0 0 0 0 0 0 
0 0 0 0 255 255 0 0 0 0 0 0 0 0 255 255 0 0 0 0 
0 0 0 0 255 255 0 0 255 255 0 0 0 0 0 0 0 0 0 0 
0 0 0 0 0 0 0 0 0 0 0 0 0 0 0 255 0 0 255 255 
0 0 0 0 0 0 0 255 0 0 0 0 255 0 0 0 0 0 0 0 
255 255 255 255 255 255 0 0 0 0 0 0 0 255 0 0 0 0 0 0 
0 0 0 0 255 255 0 0 0 0 0 0 0 255 0 0 0 0 255 255 
0 255 255 255 0 0 0 0 0 0 0 0 0 0 0 0 0 0 0 0 
0 0 0 0 0 0 0 0 0 0 0 0 0 0 0 0 0 255 255 255 
255 255 0 0 0 0 0 0 0 0 0 0 0 0 255 255 255 0 0 0 
0 255 0 0 0 0 0 0 255 255 0 0 0 0 255 255 0 0 0 0 
0 255 255 0 0 0 0 0 255 255 255 0 255 255 0 0 0 0 0 0 
0 0 0 0 0 0 0 0 0 0 255 255 255 255 255 255 255 255 255 255 
255 0 0 0 0 0 0 0 0 0 0 255 255 255 255 255 0 0 0 0 
0 0 0 0 0 0 255 0 0 0 0 255 0 0 0 255 255 0 255 255 
0 0 0 0 255 0 0 0 0 255 255 0 0 0 0 0 0 0 0 0 
0 0 0 0 0 0 0 0 0 0 0 0 0 255 0 0 0 0 255 255 
0 0 0 0 0 0 0 0 0 255 255 0 0 0 0 0 0 0 0 0 
0 0 0 255 0 0 0 0 0 0 0 0 0 0 0 0 0 0 0 0 
255 0 0 0 255 0 0 0 255 255 0 0 0 255 255 0 0 255 255 0 
0 0 0 0 0 0 0 0 0 0 0 255 0 0 0 0 0 0 0 0 
255 255 255 0 0 0 255 255 0 0 0 0 0 0 0 255 0 0 0 0 
0 0 0 0 0 0 0 0 0 0 0 0 0 0 0 255 255 255 255 255 
255 255 255 0 0 0 0 0 0 255 0 0 0 255 0 0 0 0 255 255 
0 0 0 255 0 0 255 0 0 0 0 0 0 0 0 0 0 0 0 0 
255 0 0 0 0 0 0 0 255 255 0 0 0 0 0 255 0 0 0 0 
0 0 0 0 255 255 255 255 0 0 0 255 255 255 255 255 255 255 255 255 
0 0 0 255 255 0 0 0 0 0 0 0 255 0 0 0 0 0 0 255 
0 0 255 255 0 0 0 0 255 0 0 0 255 0 0 0 0 0 0 0 
0 0 0 0 0 0 0 0 0 255 0 0 0 0 0 255 255 255 0 0 
0 0 0 255 255 0 0 0 0 255 255 255 255 0 0 0 0 0 0 0 
0 255 0 0 0 0 0 0 0 255 255 255 255 0 0 0 0 0 0 0 
0 255 255 0 0 0 0 0 255 0 0 0 255 0 0 0 0 0 255 0 
0 255 0 0 0 0 0 0 0 0 0 0 0 0 0 0 0 0 255 0 
0 0 0 255 255 0 0 0 0 0 255 255 255 0 255 0 0 255 255 0 
0 0 0 0 0 0 0 0 255 255 0 0 0 0 0 0 0 0 0 0 
255 0 0 0 0 0 0 0 0 0 0 255 255 0 255 0 0 255 0 0 
0 255 255 0 0 0 0 255 0 0 255 0 0 0 0 0 0 255 255 255 
0 0 0 0 0 0 0 255 0 0 0 0 255 0 0 0 0 0 255 255 
0 0 0 0 255 255 255 0 0 0 0 255 0 0 0 0 0 0 255 255 
0 0 0 0 0 0 0 0 255 255 0 0 0 0 0 0 0 0 0 0 
0 255 255 255 0 0 255 0 0 0 0 255 255 0 255 255 0 0 0 255 
0 0 0 0 0 255 255 0 255 0 0 0 0 255 0 0 255 0 0 0 
0 255 0 0 0 0 0 255 0 0 0 0 255 255 0 0 0 0 0 255 
255 0 0 255 255 0 0 0 255 255 0 0 0 0 0 0 255 255 0 0 
0 0 0 0 0 0 0 0 0 0 0 0 0 0 0 0 255 0 0 0 
0 255 255 0 0 0 0 0 255 0 0 0 0 0 255 0 0 255 255 0 
0 0 255 0 0 255 0 0 0 255 255 0 0 0 0 0 255 0 0 0 
255 255 0 0 0 255 255 255 255 0 0 0 0 255 0 0 0 0 255 255 
255 0 0 0 0 255 0 0 0 0 0 0 0 0 0 0 0 16 0 0 
0 0 0 0 0 255 0 0 0 0 0 255 255 0 0 0 255 255 0 0 
0 0 0 255 0 0 255 0 0 0 0 255 0 0 0 0 0 0 0 0 
255 0 255 255 0 255 255 0 255 255 0 0 255 255 0 0 0 0 0 0 
0 255 0 255 255 0 0 0 0 255 0 0 0 0 255 0 0 0 0 0 
0 0 0 0 0 0 0 0 0 0 0 0 0 0 255 0 0 0 0 0 
0 0 0 0 255 255 0 0 0 0 0 0 255 0 0 255 0 0 0 0 
255 0 0 0 255 0 0 0 0 0 0 255 0 0 0 255 255 0 0 0 
0 0 0 0 0 0 0 0 0 0 0 0 0 0 0 0 0 0 255 0 
0 0 0 255 0 0 0 0 0 0 0 0 0 0 0 0 0 0 0 0 
0 0 0 255 0 0 0 0 0 0 0 0 255 255 0 0 0 0 0 0 
0 0 0 0 0 0 0 0 0 255 0 0 0 0 0 0 0 0 255 255 
0 0 0 0 0 0 0 0 0 0 0 0 0 0 0 0 0 0 0 0 
0 0 0 0 0 0 0 255 255 0 0 0 255 255 0 0 0 0 0 0 
0 0 0 0 0 0 0 0 0 0 0 0 255 0 0 0 0 0 0 0 
255 255 0 0 0 0 0 255 0 0 0 0 0 255 255 255 255 0 255 255 
0 0 0 255 0 0 0 255 0 0 255 0 0 0 0 0 0 0 0 0 
0 0 0 0 0 0 0 0 0 0 0 0 0 0 0 255 255 255 255 255 
0 0 255 255 0 0 255 255 255 0 0 0 0 0 0 0 0 0 0 0 
0 255 0 0 0 0 0 0 0 255 0 0 0 0 0 0 255 255 255 0 
0 0 0 0 0 0 255 0 255 0 0 0 255 0 0 255 255 0 0 255 
255 0 0 0 0 0 0 0 0 0 0 0 0 0 0 0 0 0 255 255 
255 255 0 255 255 0 0 0 0 0 0 0 0 255 255 0 0 255 0 0 
0 0 0 0 0 0 0 0 0 0 255 0 0 0 0 0 255 255 255 0 
0 0 0 0 0 0 0 255 255 255 0 0 0 0 0 0 0 0 0 0 
0 255 0 0 0 255 0 0 0 255 255 0 0 0 0 0 0 0 0 0 
255 255 255 255 0 255 255 255 0 0 0 0 255 0 0 0 0 0 0 0 
0 0 0 0 0 0 255 0 0 0 0 0 0 0 0 0 0 255 255 255 
255 255 255 255 255 255 0 0 0 0 0 0 0 0 0 0 0 0 255 255 
255 0 0 0 0 0 0 0 0 0 255 0 0 0 0 0 0 0 0 0 
255 255 0 0 0 0 0 0 255 255 0 0 0 255 0 0 0 0 0 0 
0 255 0 0 0 0 255 255 0 0 0 0 0 0 255 255 0 0 0 0 
0 255 0 0 0 0 0 0 0 0 0 0 0 0 0 0 0 0 0 0 
0 4 0 0 0 0 0 0 0 255 255 0 0 0 0 0 0 0 0 0 
0 0 0 0 0 0 0 0 0 0 255 255 255 0 255 0 0 255 0 0 
0 0 0 0 0 0 0 255 0 0 0 255 0 0 255 255 0 255 255 0 
0 0 255 255 0 0 0 0 255 255 0 0 0 255 255 255 0 0 0 0 
0 0 0 0 0 0 0 0 0 0 0 0 0 0 0 0 0 0 0 255 
255 255 0 0 0 0 0 0 255 255 0 0 0 0 0 0 0 0 0 0 
0 255 255 0 0 0 255 255 255 0 0 0 0 0 0 0 0 255 0 0 
255 255 0 255 0 0 0 255 255 0 255 255 0 0 0 0 255 0 255 0 
0 255 255 0 0 0 0 0 0 0 0 0 0 0 0 0 0 0 0 0 
0 0 0 0 0 0 0 0 0 0 0 255 255 255 255 255 255 255 255 255 
0 0 0 0 0 0 0 0 0 0 0 0 0 0 0 0 0 255 255 255 
0 0 0 0 0 0 255 0 0 0 255 0 0 0 0 0 0 0 255 255 
0 0 0 0 255 0 0 0 0 255 255 0 0 0 0 0 0 0 0 0 
0 0 0 0 0 0 0 0 0 0 0 0 0 0 0 0 0 0 0 0 
0 0 0 0 0 0 0 0 255 255 0 0 0 0 0 0 0 0 0 0 
0 0 0 0 0 0 0 0 255 255 0 0 0 0 0 255 0 0 0 255 
0 0 255 255 0 0 0 255 255 0 0 0 255 0 0 0 0 255 255 0 
0 0 0 0 0 0 0 0 0 0 0 0 0 0 0 0 0 0 0 0 
0 0 0 4 0 0 0 0 0 0 0 0 0 0 0 0 0 0 255 0 
0 255 255 255 255 255 255 0 0 0 0 0 0 0 0 0 0 0 255 255 
255 0 0 0 255 0 0 0 255 0 0 0 255 0 0 255 255 0 0 0 
255 255 0 0 255 255 255 0 0 0 0 0 0 0 0 4 4 0 0 0 
0 0 0 0 0 0 0 0 0 0 4 0 0 0 0 0 0 0 0 0 
0 0 0 0 0 0 0 255 0 0 0 0 0 0 0 0 255 255 255 255 
255 0 0 0 0 0 0 0 0 255 255 0 0 0 0 0 0 255 255 0 
0 0 0 0 255 0 0 0 0 0 0 0 255 255 0 0 0 0 0 0 
0 0 0 0 0 0 0 4 0 0 0 4 0 0 0 0 0 0 0 0 
0 0 0 0 0 0 0 0 0 0 0 0 0 0 0 0 255 0 0 0 
0 0 0 0 0 0 0 0 0 255 255 255 0 0 0 0 0 0 0 255 
255 0 0 0 0 0 0 255 0 0 0 0 255 255 0 0 0 0 0 0 
255 255 0 0 0 0 0 0 0 0 0 0 0 4 4 0 0 0 0 0 
0 0 0 0 0 0 0 0 0 0 0 0 0 0 0 0 0 0 0 0 
0 0 0 0 0 255 0 0 0 0 0 0 0 0 0 0 0 0 0 0 
255 255 0 0 0 0 0 0 0 255 255 0 0 0 0 0 255 0 0 0 
0 255 0 0 0 0 0 0 255 255 0 0 0 0 0 0 0 0 0 0 
4 4 0 0 0 0 0 0 0 0 0 0 0 0 0 0 0 0 0 0 
0 0 0 0 0 0 0 0 0 0 0 0 0 0 255 255 0 0 255 0 
0 0 0 0 0 0 0 0 0 0 0 255 255 255 0 0 0 0 0 255 
255 0 0 0 0 0 0 0 0 255 255 0 0 0 0 0 255 255 0 0 
0 0 0 0 0 0 0 0 4 4 0 0 0 0 0 0 0 0 0 0 
0 0 0 0 0 0 4 0 0 0 0 0 0 0 0 0 0 0 0 0 
0 0 0 255 0 0 255 255 255 0 0 0 0 0 0 0 0 0 0 0 
0 0 0 255 255 255 0 0 0 255 255 255 0 0 0 0 0 0 255 0 
0 0 0 0 0 255 0 0 0 0 0 0 0 0 0 4 4 0 0 0 
0 0 0 0 0 0 0 0 0 0 0 0 0 0 0 0 0 4 0 0 
0 4 0 0 0 0 0 0 0 0 0 0 255 0 0 0 0 255 255 0 
0 0 0 0 0 0 0 0 0 0 0 0 0 0 0 0 0 0 0 0 
255 255 255 255 255 255 255 255 0 0 0 0 0 0 255 0 0 0 0 0 
0 0 0 4 4 0 0 0 0 0 0 0 0 0 0 0 0 0 0 0 
0 0 4 0 0 0 0 4 0 0 0 0 0 0 0 0 0 0 0 0 
0 255 0 0 0 0 0 255 255 255 255 255 0 0 0 0 0 0 0 0 
0 0 0 0 0 0 0 0 0 0 0 0 0 0 0 0 0 0 0 0 
0 0 0 255 0 0 0 0 0 0 0 4 0 0 0 0 0 0 0 0 
0 0 0 0 0 0 0 0 0 0 0 0 4 0 0 0 0 0 0 0 
0 0 0 0 0 0 0 0 0 0 255 0 0 0 0 0 0 0 255 0 
255 255 255 255 0 0 0 0 0 0 0 0 0 0 0 0 0 255 0 0 
0 0 0 0 0 0 0 0 0 0 0 0 255 0 0 0 0 0 0 0 
0 0 0 0 0 0 0 0 0 0 0 0 0 0 0 0 0 0 0 0 
0 0 4 4 0 0 0 0 0 0 0 0 0 0 0 0 0 0 0 255 
0 0 0 0 0 0 0 0 0 0 0 0 255 255 0 0 0 0 0 0 
0 0 0 0 0 0 255 0 0 0 0 0 0 0 0 0 0 0 0 0 
0 0 0 0 0 0 0 0 0 0 0 0 0 0 0 0 0 0 0 0 
0 0 0 0 0 0 0 0 0 0 0 0 4 0 0 0 0 0 0 0 
0 0 0 0 0 0 0 0 255 0 0 0 0 0 0 0 0 0 0 0 
0 0 255 0 0 0 0 0 255 0 0 0 0 0 0 0 255 0 0 0 
0 0 0 0 0 0 0 0 0 0 0 255 0 0 0 0 0 0 0 0 
0 4 0 0 0 0 0 4 0 0 0 0 0 0 0 0 0 0 0 0 
0 0 4 0 0 0 0 0 0 0 0 0 0 0 0 0 0 255 0 0 
0 0 0 0 0 0 255 0 0 0 0 255 255 255 0 0 0 255 255 255 
255 255 255 255 255 255 0 0 0 0 0 0 0 0 0 0 255 0 0 0 
255 0 0 0 0 0 0 0 0 0 0 0 0 0 0 0 0 0 0 0 
0 0 0 0 0 0 0 0 0 0 0 4 4 0 0 0 0 0 0 0 
0 0 0 0 0 0 255 0 0 255 255 255 0 0 0 255 0 0 0 255 
255 255 255 255 255 255 0 0 0 0 0 0 0 0 0 0 0 0 0 0 
0 0 0 255 255 255 0 0 0 255 0 0 0 0 0 4 0 0 0 0 
0 0 0 0 0 0 0 0 0 0 0 0 0 0 0 0 0 0 0 0 
0 4 4 0 4 4 0 4 4 0 0 0 0 0 0 255 0 0 0 0 
255 255 255 255 0 0 0 0 0 0 0 0 0 0 0 0 0 0 0 0 
0 0 0 0 0 0 0 0 0 0 255 255 255 0 0 0 0 255 255 0 
0 0 0 0 0 0 0 0 0 0 0 0 0 0 0 0 0 0 0 0 
0 0 0 0 0 0 0 0 0 0 0 0 0 0 0 0 0 4 4 0 
0 0 0 0 255 0 0 0 0 0 0 0 0 0 0 0 0 0 0 0 
0 0 0 0 0 0 255 0 0 0 0 0 0 0 0 0 0 255 255 255 
0 0 0 0 0 0 255 0 0 0 0 0 0 0 0 0 4 0 0 0 
0 0 0 4 0 0 0 0 0 0 0 0 0 0 0 0 0 0 0 0 
0 0 0 0 0 0 0 4 0 0 0 0 0 255 255 0 0 0 0 0 
0 255 255 255 0 0 0 0 0 0 0 0 0 0 255 255 255 0 0 0 
255 255 255 255 255 255 0 0 0 0 0 0 0 255 255 255 0 0 0 0 
0 0 0 0 0 4 0 0 0 0 4 0 0 0 0 0 0 0 0 0 
0 0 0 0 0 0 0 0 0 0 0 0 0 0 0 0 0 0 0 0 
0 0 0 255 0 0 0 0 0 0 0 0 255 255 255 255 255 255 255 255 
255 255 255 0 0 0 255 0 255 0 0 0 0 0 0 0 0 0 0 0 
255 255 0 255 255 0 0 0 0 0 0 0 0 0 0 0 0 0 0 0 
0 0 0 0 0 0 0 0 0 0 0 0 0 0 4 0 0 0 0 0 
0 0 0 0 0 0 0 0 0 0 0 0 255 0 0 0 0 0 0 0 
0 0 0 0 0 0 0 0 0 0 0 0 0 0 0 0 0 0 0 0 
0 0 0 0 0 0 0 0 255 255 0 0 0 255 0 0 0 0 0 0 
0 0 0 0 0 0 0 0 4 0 0 0 0 0 0 0 0 0 0 0 
0 0 4 4 0 0 0 0 0 0 0 0 0 0 0 0 0 0 0 0 
0 255 255 0 0 0 0 0 0 0 0 0 0 0 0 0 0 0 0 0 
0 0 0 0 0 0 0 0 0 0 0 0 0 0 0 0 255 255 0 0 
0 0 255 0 0 0 0 0 0 0 0 4 0 0 0 0 0 0 0 0 
0 0 4 0 0 0 0 0 0 0 4 0 0 0 0 0 0 0 0 0 
0 0 0 0 0 0 0 0 0 0 0 255 0 0 0 0 0 0 0 0 
0 0 0 0 0 0 0 0 0 0 0 0 0 0 0 0 0 0 0 0 
0 0 0 0 255 255 0 0 0 0 255 255 0 0 0 0 0 0 4 0 
0 0 0 0 0 0 0 0 0 0 0 0 0 0 0 0 0 0 0 0 
0 0 0 0 0 0 0 0 0 0 0 0 0 0 0 0 0 0 0 0 
255 255 0 0 0 0 0 0 0 0 0 0 0 0 0 0 0 0 0 0 
0 0 0 0 0 0 0 0 0 0 0 0 255 255 0 0 0 0 0 255 
0 0 0 0 0 0 0 0 0 0 0 0 0 0 0 0 0 0 0 0 
0 0 0 0 0 0 0 0 0 0 0 4 0 0 0 0 0 0 0 0 
0 0 0 0 0 0 0 0 0 0 255 0 0 0 0 0 0 0 255 255 
255 255 255 255 255 255 0 0 0 0 0 0 0 0 0 0 0 0 0 0 
255 0 0 0 0 0 0 0 255 0 0 0 0 0 0 0 0 0 0 0 
0 0 0 0 0 0 0 0 0 0 4 0 0 0 0 0 0 0 0 0 
4 0 0 0 0 0 0 0 0 0 0 4 0 0 0 0 0 0 0 255 
255 0 0 0 0 0 0 0 0 0 0 0 0 0 0 255 255 0 0 0 
0 0 0 0 8 0 0 0 0 255 255 0 0 0 0 0 255 255 0 0 
0 0 0 0 0 0 0 0 0 0 0 0 0 4 4 0 0 0 0 0 
0 4 0 0 0 0 0 0 0 0 0 0 0 0 0 0 0 0 0 0 
0 4 4 0 0 0 0 0 0 255 0 0 0 0 0 0 0 255 0 0 
0 0 0 0 0 255 0 0 0 0 0 0 0 0 0 0 0 0 0 255 
255 0 255 255 255 255 0 0 0 0 0 0 0 0 0 0 0 0 0 0 
0 0 0 0 0 0 0 0 0 0 0 0 4 0 0 0 0 0 0 4 
0 0 0 4 0 0 0 0 0 0 0 0 4 0 0 0 0 0 0 255 
0 0 0 0 0 0 255 255 255 255 0 0 0 0 255 0 0 0 0 0 
0 0 0 0 0 0 0 0 0 0 255 0 0 0 0 0 0 0 0 0 
0 0 0 0 0 0 0 0 0 0 4 0 0 0 0 0 0 0 0 0 
0 0 0 0 0 0 4 0 0 0 0 0 0 0 0 0 0 0 0 0 
0 0 0 0 0 0 0 0 255 0 0 0 0 0 0 0 0 0 255 255 
0 0 255 255 0 0 0 0 0 0 0 0 0 0 0 0 0 0 0 0 
0 0 0 0 0 0 0 0 0 0 0 0 0 0 0 4 4 0 0 0 
0 0 4 0 0 0 0 0 0 0 0 0 0 0 0 4 0 0 0 0 
0 0 4 0 0 0 0 0 0 0 0 0 0 0 0 0 0 255 0 0 
0 0 0 0 0 0 0 0 0 255 255 0 0 0 0 255 0 0 255 0 
0 0 255 0 0 0 0 0 0 0 0 0 0 0 0 0 0 0 0 0 
0 0 0 4 4 0 0 0 0 0 0 4 0 0 0 0 0 0 0 0 
0 0 0 0 4 0 0 0 0 0 0 0 4 0 0 0 0 0 0 0 
0 0 0 0 0 0 255 0 0 0 0 0 0 0 0 0 0 0 0 0 
0 0 0 0 255 255 255 0 0 0 255 255 0 0 0 0 0 0 0 0 
0 0 0 0 0 0 0 0 0 0 0 4 4 0 0 0 0 0 0 0 
0 0 0 0 0 0 0 0 0 0 0 0 0 4 0 0 0 0 0 0 
0 0 0 0 0 0 0 0 0 0 0 0 0 0 0 0 255 0 0 0 
0 0 0 0 0 0 0 0 0 0 0 0 0 0 0 0 0 0 0 255 
0 0 0 0 0 0 0 0 0 0 0 0 0 0 0 0 0 0 0 0 
4 0 0 0 0 0 0 0 0 4 0 0 0 0 0 0 0 0 0 0 
0 0 0 0 0 0 0 0 0 0 0 0 0 0 0 0 0 0 0 0 
0 0 0 0 0 255 255 0 0 0 0 0 0 255 255 0 0 255 255 0 
0 0 0 0 0 0 0 255 255 0 0 0 0 0 0 0 0 0 0 0 
0 0 0 0 0 0 4 0 0 0 0 0 0 0 0 0 4 0 0 0 
0 0 0 0 0 0 0 0 0 0 0 0 0 4 0 0 0 0 0 0 
0 0 0 0 0 0 0 4 0 0 0 0 0 0 0 255 255 255 255 255 
255 255 0 0 0 0 0 255 255 255 0 0 0 0 255 255 255 0 0 0 
0 0 0 0 0 0 0 0 0 0 0 0 0 0 0 4 4 4 0 0 
0 0 0 0 0 0 0 0 0 4 0 0 0 0 0 4 0 0 0 0 
4 0 0 0 0 4 4 0 4 0 0 0 0 0 0 0 0 0 0 0 
0 0 0 0 0 0 0 0 0 0 0 0 0 0 0 0 0 0 255 255 
255 255 255 255 0 0 0 0 0 0 0 0 0 0 0 0 0 0 0 0 
4 0 0 0 0 0 0 0 0 4 4 0 4 0 0 0 0 0 0 4 
4 0 0 0 0 0 0 4 4 0 0 0 0 0 0 0 0 0 0 0 
0 0 0 0 0 0 0 0 0 0 0 0 0 0 0 0 0 0 0 0 
0 0 0 0 0 0 0 0 0 0 0 0 0 0 0 0 0 0 0 0 
0 0 0 4 4 0 0 0 4 0 0 0 0 0 0 0 0 0 4 0 
0 0 0 0 0 0 0 0 0 4 0 0 0 0 0 0 0 0 0 0 
0 0 0 0 0 0 0 0 0 0 0 0 0 0 0 0 0 4 0 0 
0 0 0 0 0 0 0 0 0 0 0 0 0 0 0 0 0 0 0 0 
0 0 0 0 0 0 0 0 0 0 0 0 4 0 0 0 4 0 0 0 
0 0 0 0 0 0 0 0 0 0 0 0 0 0 0 0 0 0 0 0 
0 0 4 0 0 0 0 0 0 0 0 0 0 0 0 0 0 0 0 0 
0 0 0 0 0 4 4 0 0 0 0 0 0 0 0 0 0 0 0 0 
0 0 0 0 0 0 0 0 0 0 0 0 0 0 0 0 0 0 0 0 
0 0 0 0 0 4 0 0 0 0 0 0 0 0 0 0 0 0 0 0 
0 0 0 0 0 0 0 4 0 0 0 4 0 4 0 0 0 0 0 0 
0 0 0 0 0 0 0 0 0 0 0 0 0 0 4 0 0 0 4 4 
0 0 0 0 0 0 0 0 0 0 0 0 0 0 0 0 0 0 0 0 
0 0 0 0 0 4 4 0 0 0 0 0 0 0 0 0 0 0 0 0 
0 0 0 0 0 0 0 0 0 0 0 0 4 0 0 0 4 0 0 0 
0 0 0 0 0 0 0 0 0 0 0 0 0 0 0 0 0 0 0 0 
0 0 0 4 0 0 4 4 0 0 0 0 0 0 0 0 0 0 0 0 
0 0 0 0 0 0 0 0 0 4 4 0 0 0 0 0 0 0 0 0 
0 0 4 0 0 0 0 0 0 0 0 0 0 0 4 0 0 0 0 0 
0 4 0 0 0 0 0 0 0 0 0 0 0 0 0 0 0 0 0 0 
0 0 0 0 0 0 0 0 0 0 0 0 0 0 0 0 0 0 0 0 
0 0 0 0 0 0 0 0 0 0 0 4 0 0 0 0 0 4 0 0 
0 0 0 0 0 0 0 0 4 0 4 4 0 0 0 0 0 0 0 0 
0 0 0 0 0 0 4 4 0 0 0 0 0 0 0 0 0 0 0 0 
0 