P2
89 89
255
225 220 219 223 230 237 240 241 240 240 239 240 241 242 241 240 239 240 241 241 
237 233 231 235 237 230 221 219 224 228 228 226 231 238 238 230 223 221 227 234 
237 237 237 236 234 225 214 208 211 221 229 233 232 228 223 223 226 230 231 231 
229 225 223 222 224 226 227 226 225 225 227 232 237 239 234 228 224 225 230 227 
218 212 216 221 221 213 203 193 184 227 222 218 219 225 233 238 240 240 239 240 
240 242 241 238 235 234 236 239 239 235 231 230 234 238 233 223 219 223 229 230 
227 228 232 234 229 221 218 222 228 232 232 233 232 231 227 220 217 219 225 230 
234 232 228 223 223 227 232 234 233 228 220 213 211 213 215 216 216 214 214 219 
227 234 237 232 227 226 230 235 231 222 214 214 221 224 217 208 203 202 231 226 
221 218 220 227 234 238 239 240 240 240 240 238 233 229 228 231 236 237 233 230 
230 234 239 236 226 220 222 228 233 230 227 228 228 224 218 216 219 225 229 229 
230 230 230 229 226 225 226 227 230 232 230 226 222 223 226 232 235 235 230 222 
216 213 215 217 218 217 215 216 220 228 234 234 229 227 229 234 238 235 227 218 
215 217 220 215 210 212 220 235 232 225 219 217 221 228 235 239 240 240 238 236 
233 227 224 224 227 233 234 232 229 229 234 239 238 229 222 221 227 234 235 231 
227 224 217 213 214 219 225 228 228 230 231 232 231 229 229 229 229 228 229 226 
222 219 220 224 228 230 232 231 228 225 225 225 227 227 227 226 226 229 233 234 
231 227 228 233 237 239 238 233 226 219 215 210 206 207 215 227 238 235 229 221 
216 217 225 233 239 240 238 235 232 228 225 223 223 226 230 232 230 228 230 235 
240 240 232 224 220 226 234 238 236 231 224 215 209 211 218 225 229 229 231 234 
235 234 231 230 230 229 227 226 222 218 216 217 221 224 225 227 229 232 234 235 
236 237 237 237 237 236 236 235 231 226 224 227 233 237 238 238 236 233 226 213 
201 195 200 213 226 238 237 232 224 217 216 223 231 235 235 232 229 228 226 226 
225 225 226 228 228 227 227 230 235 239 239 230 221 217 222 232 240 239 237 230 
217 209 209 217 225 229 229 232 236 237 235 231 229 228 227 226 225 221 217 215 
217 220 222 221 223 225 229 233 236 237 238 239 239 239 237 235 231 225 220 220 
225 229 233 235 237 238 236 229 213 196 190 198 213 223 238 238 234 227 219 217 
223 230 230 227 225 225 226 226 227 227 227 227 227 226 224 224 226 230 233 232 
224 214 209 215 226 235 237 237 232 220 208 205 214 225 230 231 232 234 234 231 
227 225 224 223 224 224 222 218 217 219 222 224 223 223 224 227 231 234 237 238 
238 239 238 235 231 224 218 215 216 219 224 228 233 237 237 233 224 209 195 192 
202 216 226 239 239 237 231 224 221 225 228 226 222 220 223 226 227 227 227 227 
227 227 226 223 220 221 223 226 226 219 209 204 208 219 229 232 232 228 218 206 
203 210 221 227 228 227 227 226 224 222 221 220 220 221 222 222 220 219 222 225 
226 226 225 225 227 230 234 236 237 237 238 238 236 230 221 214 212 213 216 220 
226 231 234 232 227 220 207 198 198 209 223 233 240 239 237 233 227 225 227 228 
226 222 221 224 226 227 227 227 227 227 227 225 222 218 216 219 224 226 222 214 
207 208 216 225 228 226 222 214 207 205 209 216 220 222 221 220 218 217 216 216 
217 216 216 217 216 217 219 223 227 228 228 227 227 228 231 234 235 235 236 237 
237 236 230 222 215 213 216 218 221 225 228 229 227 224 220 210 203 205 216 230 
239 240 238 236 232 229 228 228 228 227 225 225 226 227 227 227 227 227 227 226 
224 220 217 218 222 227 231 231 224 216 214 219 227 229 224 219 215 213 214 213 
213 213 215 216 217 216 215 214 215 216 215 215 213 212 212 216 222 226 228 227 
227 227 229 232 234 235 235 235 236 237 236 231 224 220 220 222 223 223 224 225 
225 225 225 223 215 208 210 221 235 241 240 237 234 231 229 228 227 228 228 227 
227 227 227 227 227 227 227 226 224 221 220 221 224 229 234 237 239 232 224 220 
223 230 232 226 221 221 224 226 222 217 213 212 215 219 220 219 218 217 217 218 
217 214 212 211 215 219 224 226 226 227 227 228 230 233 234 235 236 237 238 237 
232 227 225 225 227 225 224 223 225 226 228 230 227 217 210 212 224 236 241 237 
234 231 228 226 225 223 223 224 224 224 225 226 226 227 227 225 223 221 221 223 
227 232 235 238 239 240 235 226 221 224 232 235 230 227 229 232 234 231 226 220 
216 216 221 224 225 223 222 222 222 223 220 216 215 217 220 223 222 223 223 224 
224 226 228 230 231 233 234 234 233 229 225 224 225 226 226 226 228 230 233 234 
235 229 217 210 213 225 237 241 231 229 227 224 222 221 219 219 219 219 219 220 
222 224 225 225 223 221 221 224 229 234 237 238 239 239 239 233 223 216 219 229 
233 231 229 232 235 237 236 234 230 223 220 221 225 228 229 228 226 226 227 225 
222 221 222 225 225 221 219 219 220 221 222 223 224 226 228 230 230 227 223 219 
216 216 218 220 224 229 232 234 236 236 230 218 210 212 224 237 241 227 224 220 
217 215 215 214 213 213 213 214 215 217 220 221 220 219 221 225 231 235 238 240 
240 239 239 238 231 220 212 215 225 230 228 227 230 235 237 237 237 235 229 223 
219 222 228 232 232 231 230 231 228 225 225 228 230 230 223 219 217 219 223 222 
221 221 223 226 227 226 223 218 214 211 210 213 217 222 225 227 228 228 229 224 
214 207 210 222 235 240 224 219 215 212 212 213 212 211 211 211 211 211 212 214 
215 216 219 225 232 236 239 240 241 240 240 239 237 232 220 211 214 223 228 226 
224 229 235 238 238 239 238 235 229 223 221 225 230 233 232 231 232 229 226 226 
229 233 233 226 222 220 223 228 227 223 222 225 228 230 228 224 219 215 213 215 
217 219 221 222 221 221 221 220 215 206 200 203 214 226 231 223 218 216 216 217 
217 215 214 215 215 214 212 210 208 209 213 221 230 236 239 239 239 240 239 239 
238 238 234 224 215 215 221 225 224 223 227 234 238 238 239 240 238 235 229 224 
224 226 230 232 233 234 231 227 226 229 233 234 229 225 224 227 232 230 227 226 
230 234 235 232 228 223 221 222 225 227 226 225 224 223 222 221 217 209 199 193 
196 207 217 222 223 222 223 226 227 225 222 221 221 221 216 212 207 203 203 208 
217 226 231 232 233 233 234 235 235 235 234 232 226 218 215 218 220 221 221 226 
232 237 239 240 240 239 237 234 229 224 221 223 229 234 235 232 228 227 230 235 
235 231 227 224 226 228 226 224 225 230 234 236 234 230 227 227 231 235 236 234 
232 231 230 229 228 224 213 200 193 196 205 214 217 225 227 231 235 234 230 226 
224 223 221 215 211 206 201 200 203 210 218 223 222 221 220 221 223 225 227 228 
229 227 221 216 215 216 218 220 224 231 236 238 239 240 239 238 236 231 224 218 
219 225 232 234 231 227 228 233 238 238 234 228 224 223 223 220 219 221 225 229 
229 226 222 219 221 226 233 236 236 236 237 237 238 238 234 222 208 200 203 212 
219 221 228 231 235 238 235 229 224 220 218 216 212 209 205 202 199 200 204 210 
213 212 209 207 209 211 213 214 216 219 221 218 213 212 214 217 220 225 231 235 
236 236 238 238 237 235 230 224 220 218 220 223 225 224 224 228 234 240 240 236 
231 225 223 221 218 215 218 222 225 224 218 212 209 211 216 224 228 231 232 233 
234 236 239 237 225 212 206 211 222 229 230 232 234 235 235 229 221 214 210 209 
210 210 210 208 205 203 203 206 210 212 210 205 203 203 203 202 202 205 211 217 
215 209 207 209 214 221 227 232 235 233 233 235 236 236 232 227 224 223 222 215 
209 208 211 216 222 228 233 234 231 227 224 222 219 215 213 215 219 223 222 216 
209 205 206 212 219 224 227 227 229 230 232 233 231 220 209 206 214 226 233 235 
230 230 229 225 217 208 202 201 203 207 209 210 210 209 209 210 212 216 218 216 
211 209 209 206 201 198 201 208 212 211 205 201 202 209 218 228 234 236 233 232 
233 235 234 230 225 224 227 225 212 197 191 196 206 215 221 225 225 223 222 221 
221 218 213 211 213 218 223 225 221 215 211 212 217 223 225 227 227 228 229 230 
230 225 213 203 202 211 222 229 229 220 218 213 206 198 193 192 197 205 211 213 
214 214 214 215 216 217 220 222 221 218 216 216 212 207 203 205 211 214 212 204 
199 197 201 211 223 232 237 236 234 233 234 232 228 224 225 230 227 213 196 187 
191 202 212 218 221 221 220 219 219 220 217 214 212 214 218 225 230 229 225 221 
223 228 232 231 232 231 231 232 232 231 225 212 201 200 208 218 223 222 212 207 
200 192 187 186 192 201 211 217 218 217 218 219 220 220 220 222 223 222 221 220 
220 218 214 210 211 213 215 214 209 203 197 196 201 213 225 235 237 237 234 234 
231 227 223 226 230 230 220 207 198 198 206 216 224 226 224 224 223 223 224 220 
216 214 216 221 228 233 233 231 229 232 237 240 238 237 236 236 237 238 235 227 
213 203 201 209 216 220 220 207 203 196 190 188 192 199 210 220 224 224 224 225 
227 227 226 225 225 225 224 222 221 220 219 218 217 217 219 220 219 216 210 202 
196 197 204 215 227 234 236 235 234 231 226 224 227 231 233 229 221 214 211 215 
223 231 233 231 230 230 230 231 226 221 217 217 221 227 230 230 227 225 228 233 
235 235 236 236 236 237 239 238 230 215 206 205 213 221 225 225 212 209 204 199 
199 203 210 219 226 229 229 229 232 233 232 231 231 230 228 226 225 224 223 222 
220 219 219 219 220 220 218 213 204 198 195 199 207 216 225 231 233 234 230 226 
224 227 232 235 234 230 224 220 222 229 236 236 235 235 234 235 234 229 222 217 
216 218 223 225 226 223 221 223 226 228 229 230 230 229 229 232 234 228 215 206 
209 220 229 233 233 221 218 213 210 210 213 216 221 224 227 230 233 237 238 237 
237 237 236 234 232 231 229 227 225 223 222 222 222 222 222 219 212 204 198 196 
198 200 206 213 221 227 231 230 226 223 226 231 235 235 232 227 224 226 231 236 
236 235 235 234 235 234 228 221 215 212 213 215 217 218 217 216 216 218 219 221 
222 221 217 216 221 228 225 214 208 213 226 235 238 238 228 222 216 214 214 214 
215 216 218 221 225 229 234 236 237 238 240 240 239 239 238 236 234 232 230 228 
226 226 225 224 219 212 206 202 200 198 198 198 203 209 217 224 226 224 222 223 
228 233 235 231 226 225 228 234 237 234 232 232 232 233 231 226 220 216 215 215 
214 213 213 212 211 212 213 212 216 217 215 208 205 212 223 223 215 210 217 230 
239 240 240 224 218 214 213 214 213 212 210 212 214 217 222 228 231 232 233 234 
235 236 237 237 237 237 236 235 232 228 226 225 223 216 209 206 206 205 200 195 
193 193 197 203 211 217 220 220 221 224 230 234 231 226 225 230 235 237 233 230 
228 227 228 225 220 214 213 215 216 214 211 209 209 210 212 215 214 217 217 215 
208 206 212 223 221 215 212 220 232 239 240 239 220 218 215 216 215 214 212 210 
209 209 212 218 224 226 227 228 228 229 230 231 232 232 233 234 232 227 220 215 
215 214 209 205 206 210 212 208 199 191 189 190 193 199 207 215 220 220 221 226 
230 228 225 226 232 237 237 233 229 226 222 219 214 206 201 201 206 211 213 211 
208 207 210 213 217 218 221 222 222 219 218 222 226 221 214 213 222 233 240 240 
240 219 217 217 216 216 216 214 211 210 210 215 222 226 226 225 225 225 225 225 
225 225 226 226 226 223 216 207 200 199 199 198 197 200 207 216 217 209 198 191 
188 189 194 204 214 221 220 218 220 222 222 222 227 234 238 236 231 227 221 214 
207 200 192 187 185 190 200 207 210 209 209 211 214 216 216 217 219 221 222 224 
226 224 216 209 211 222 234 240 240 241 224 223 221 219 218 218 215 211 211 216 
225 232 232 229 226 225 227 228 228 227 226 225 223 219 211 201 191 185 185 187 
187 189 194 203 215 221 218 208 200 195 193 197 206 216 220 218 214 213 214 216 
221 228 233 234 229 222 217 210 202 196 192 189 185 181 183 192 204 213 216 215 
216 216 215 212 211 212 216 221 224 224 218 208 203 207 219 230 235 236 238 232 
229 226 223 220 218 213 211 213 223 234 241 238 231 226 225 230 235 236 235 234 
233 228 220 208 197 190 186 186 186 186 187 193 203 215 221 220 215 209 203 200 
201 207 214 217 215 211 210 210 213 220 225 226 221 214 206 202 199 196 196 197 
200 198 191 186 189 200 213 221 220 218 213 207 201 198 200 205 209 214 215 210 
202 199 204 216 226 230 232 233 236 233 229 224 220 216 212 213 219 229 239 244 
238 229 222 223 232 241 244 243 242 241 237 228 217 208 204 203 202 200 196 194 
198 208 218 221 217 212 209 207 204 202 203 207 211 212 211 209 209 210 212 215 
211 205 198 194 194 197 201 206 212 217 218 207 194 189 196 212 224 225 219 208 
199 194 193 195 199 203 208 212 209 203 201 207 217 225 228 230 231 235 233 227 
220 215 213 214 219 225 233 241 244 237 226 217 219 230 240 244 244 244 245 242 
237 230 225 223 223 221 219 212 206 207 215 225 225 212 201 198 200 203 201 196 
199 202 208 209 206 202 200 201 202 200 197 196 197 202 209 216 222 227 231 230 
219 202 189 191 207 223 227 220 208 199 197 197 200 203 206 211 216 214 209 207 
214 224 230 232 233 234 232 229 222 214 211 214 220 225 230 236 242 244 237 225 
217 219 230 240 244 244 244 244 243 241 239 237 236 235 235 233 225 217 215 222 
233 232 214 197 190 197 205 205 198 195 195 198 199 195 191 190 192 198 201 204 
208 213 219 225 230 234 235 236 234 224 207 190 188 202 219 226 221 212 207 207 
210 213 216 218 222 225 220 214 213 221 231 237 237 238 239 226 221 215 211 214 
221 226 228 231 237 243 244 237 225 218 220 231 241 244 244 244 244 243 242 242 
241 241 240 241 240 232 222 219 226 236 236 220 204 198 203 212 212 204 196 190 
186 185 184 185 190 197 206 214 221 225 229 232 234 236 237 235 233 230 224 211 
193 186 194 211 223 225 222 220 220 222 225 228 229 231 229 220 213 214 224 235 
241 241 242 243 220 214 211 214 223 230 230 229 231 237 243 244 237 225 218 221 
231 241 244 244 244 243 241 239 237 235 235 237 240 240 231 222 220 227 237 237 
228 217 212 214 218 220 212 201 185 175 172 179 189 199 208 219 227 233 236 236 
236 235 234 233 231 227 225 221 211 193 179 180 195 211 220 222 222 224 228 233 
237 239 238 231 218 210 212 224 235 240 240 241 241 213 209 212 221 233 237 233 
228 230 236 243 244 237 225 219 222 232 241 244 244 243 241 238 234 229 227 228 
233 240 239 230 221 221 229 237 237 230 224 220 220 222 224 219 206 186 171 169 
182 198 211 219 226 232 237 238 237 236 235 232 228 224 219 215 209 200 184 168 
163 173 192 206 212 212 214 219 224 229 231 229 222 211 207 214 226 235 238 238 
239 238 205 207 216 229 240 241 234 228 229 235 242 244 237 226 219 222 232 241 
244 242 239 235 230 225 220 219 224 232 239 237 227 219 220 227 233 230 225 220 
217 217 220 223 222 213 194 177 172 184 202 214 220 224 229 235 237 237 236 233 
227 220 214 207 201 194 187 178 165 156 160 176 194 204 205 207 210 214 217 219 
217 210 204 207 217 228 233 235 236 237 236 203 210 221 233 242 243 235 228 228 
234 241 243 236 225 218 220 230 238 240 236 231 225 219 215 212 215 221 229 235 
231 222 215 217 221 223 219 214 210 209 212 216 221 223 219 203 185 175 180 194 
205 212 218 225 231 233 232 229 223 215 207 200 193 187 182 182 183 177 166 163 
171 188 202 207 209 209 210 211 212 209 204 203 209 220 227 229 230 231 232 232 
210 217 226 235 242 244 236 229 227 232 239 240 232 221 214 216 223 229 229 225 
219 214 209 206 207 211 217 223 225 220 214 211 214 217 216 211 206 205 207 211 
217 222 225 224 213 195 179 174 182 193 202 212 219 223 222 217 211 204 198 193 
191 186 182 184 191 199 197 188 179 179 187 199 208 214 215 215 215 216 212 209 
209 215 223 228 227 227 228 229 228 222 224 229 236 242 244 237 229 225 227 231 
231 223 214 209 210 215 219 219 216 212 209 207 206 208 211 214 216 214 209 206 
207 211 214 213 210 208 208 212 217 222 226 228 227 221 206 188 176 174 182 193 
203 208 207 203 198 193 189 187 188 189 187 186 192 203 212 214 209 201 193 191 
195 203 212 218 222 223 224 221 218 218 222 228 231 229 229 229 228 227 233 229 
231 237 242 244 237 228 220 219 220 219 214 208 206 207 209 211 211 211 212 213 
214 214 215 214 214 214 210 206 204 207 211 215 214 213 212 214 219 224 230 231 
231 230 226 218 203 185 174 176 183 192 193 190 187 187 188 190 190 190 189 186 
186 192 202 212 218 218 214 207 197 191 192 199 209 219 226 229 227 224 224 229 
234 236 234 234 234 232 230 234 230 232 238 243 243 236 224 215 210 210 211 209 
208 208 208 210 211 212 215 219 223 226 226 225 223 222 220 216 211 208 211 216 
219 218 217 217 219 223 228 233 234 233 231 230 226 215 199 184 179 180 183 182 
182 186 193 200 206 205 197 187 179 175 179 189 202 212 218 219 216 210 200 192 
190 195 205 214 221 221 222 225 232 239 241 239 239 239 237 235 231 231 234 239 
242 239 230 219 210 207 209 212 214 215 215 215 217 218 221 224 229 233 236 237 
236 235 234 232 226 219 217 220 225 226 224 222 221 221 222 225 228 229 229 228 
227 226 220 210 199 191 186 183 184 189 199 210 218 221 215 202 187 175 169 172 
183 197 208 213 216 218 217 211 201 192 190 193 200 207 210 213 220 229 237 240 
240 241 241 240 239 234 234 237 238 237 231 222 214 210 212 217 222 224 225 224 
225 227 229 232 233 235 237 239 240 240 239 239 236 229 223 222 225 230 230 228 
227 224 221 219 218 220 221 220 218 215 214 213 211 206 200 193 189 192 202 214 
223 225 221 212 202 191 182 176 179 187 197 204 208 209 211 214 212 206 198 190 
186 187 189 193 198 206 217 228 234 238 240 240 240 239 238 239 238 234 228 219 
214 213 216 223 229 233 234 234 234 235 237 239 240 238 236 233 232 233 234 234 
235 232 226 221 222 226 230 229 229 228 224 219 215 214 215 216 213 208 203 201 
204 207 207 203 199 196 199 209 219 224 220 214 209 207 204 200 197 195 195 198 
199 201 202 203 204 206 205 202 196 189 183 180 180 184 190 198 211 222 233 238 
239 239 240 236 237 234 227 217 211 211 217 225 234 239 240 239 239 240 242 243 
244 244 240 234 228 225 226 227 228 228 225 219 215 215 218 221 220 221 221 218 
212 209 208 211 211 207 200 195 195 201 206 208 206 202 199 203 209 217 219 216 
212 211 211 210 210 208 203 198 195 195 198 199 199 198 198 199 200 200 196 190 
184 181 182 184 186 194 205 218 227 230 232 235 227 228 226 218 210 209 215 225 
235 241 242 241 240 241 242 244 244 243 241 235 227 221 218 219 221 221 220 216 
212 208 208 210 211 210 211 212 211 206 203 205 208 209 204 197 193 195 202 209 
212 212 208 205 206 208 212 214 215 214 212 210 210 211 210 206 200 197 198 202 
205 204 200 198 198 200 202 201 200 196 194 194 194 191 188 191 199 208 214 218 
222 215 217 216 212 210 215 225 234 240 243 243 241 239 240 241 243 244 242 239 
232 224 217 214 213 214 213 212 210 208 206 207 209 210 209 211 213 212 208 207 
208 211 210 205 200 197 200 206 213 217 218 216 212 210 208 207 209 211 212 209 
206 208 212 214 212 208 206 207 210 211 210 207 202 200 200 202 203 203 203 205 
209 212 208 198 189 188 192 198 205 211 207 209 209 210 215 224 234 240 243 243 
242 240 239 239 241 243 244 241 237 230 222 215 210 209 210 209 208 207 207 209 
214 217 219 218 220 222 223 221 220 220 221 218 212 207 205 207 212 216 219 221 
220 216 211 207 204 205 206 206 206 208 215 222 226 225 223 221 220 219 217 216 
213 209 205 203 203 204 204 204 208 217 226 225 213 199 191 191 196 202 206 202 
204 207 213 223 233 240 243 243 242 241 239 239 239 241 243 241 237 231 225 218 
212 210 210 212 211 210 209 211 217 225 230 232 232 233 234 235 234 233 233 233 
230 224 217 214 214 217 219 219 219 217 213 209 206 206 206 204 203 207 214 224 
232 236 235 234 231 227 223 219 216 214 210 206 203 204 206 206 203 207 217 230 
233 222 209 202 203 207 211 211 199 200 206 216 229 239 243 242 240 237 236 236 
237 238 239 239 235 228 221 216 213 213 215 218 222 222 220 218 220 227 235 240 
242 241 241 241 241 240 240 240 241 239 234 227 222 220 223 225 224 221 217 212 
209 209 211 213 212 210 213 222 233 240 241 240 238 235 232 227 221 217 215 212 
209 207 210 214 214 209 207 214 227 232 224 213 210 217 223 224 222 198 198 204 
215 229 239 242 239 234 230 229 231 233 234 234 230 224 215 209 208 213 220 226 
231 235 235 233 229 229 232 238 242 243 243 243 243 242 241 240 240 239 239 236 
232 227 225 228 231 231 226 221 218 216 216 218 222 223 220 219 225 233 240 241 
239 238 237 235 230 223 218 214 212 210 211 215 222 224 218 211 211 220 227 220 
211 211 220 231 233 231 199 199 203 212 223 232 234 231 225 221 220 222 225 226 
223 218 211 204 202 206 217 228 235 238 239 238 235 231 228 230 233 238 241 242 
242 242 241 241 240 239 237 235 235 233 230 227 227 230 230 227 225 226 225 222 
222 226 229 227 222 223 230 237 240 239 238 238 238 235 228 221 217 215 214 215 
220 228 231 226 214 208 212 218 214 208 210 220 232 238 237 201 203 207 212 218 
221 222 219 215 212 212 214 215 214 211 207 204 202 204 212 223 232 235 234 233 
231 229 227 224 223 226 231 237 241 241 240 240 240 239 236 231 227 227 231 233 
230 226 224 224 226 227 231 230 225 222 225 230 231 225 222 225 232 237 237 237 
238 238 235 227 220 216 215 216 217 222 230 234 230 219 209 206 209 207 205 208 
219 230 238 239 202 207 213 217 218 216 213 210 208 207 207 207 207 205 204 204 
208 210 214 219 225 229 230 227 226 223 221 219 217 216 218 225 233 239 240 239 
238 238 236 230 219 212 213 223 231 231 225 221 222 226 230 233 232 227 222 223 
228 232 230 224 223 226 231 234 235 236 235 232 226 220 217 217 217 218 222 230 
234 232 224 215 209 206 201 200 204 213 222 228 228 203 210 219 225 225 220 215 
211 209 208 208 208 207 205 205 209 217 223 225 225 225 225 224 222 220 218 217 
216 216 215 216 221 229 236 239 239 237 236 233 224 208 197 198 212 224 228 225 
224 226 230 233 234 234 229 224 222 226 231 233 229 225 224 225 228 231 233 232 
229 224 221 220 219 219 220 223 229 232 232 228 224 218 210 200 197 199 206 213 
217 217 204 212 223 232 234 230 225 221 218 217 216 217 217 214 213 217 226 232 
233 228 225 223 222 221 218 214 211 212 216 219 221 223 227 233 237 238 236 234 
231 221 204 192 193 206 220 225 226 228 231 233 234 234 235 231 225 222 223 229 
233 233 231 226 223 222 225 228 228 227 226 226 227 227 226 226 228 231 232 231 
230 230 226 217 203 196 197 204 209 213 214 205 214 226 236 240 239 237 234 231 
229 228 229 230 227 223 223 228 232 233 229 226 224 224 223 220 214 210 210 217 
225 228 227 224 226 230 232 230 228 225 218 205 195 196 207 218 223 225 227 228 
228 229 230 233 232 228 223 222 227 233 236 235 230 224 219 219 221 223 224 225 
228 230 232 233 234 235 236 233 230 230 232 231 222 207 200 202 210 216 220 222 
205 215 228 237 242 242 241 238 236 234 233 233 233 231 227 222 220 223 226 227 
228 227 225 221 215 208 202 203 211 222 228 227 221 219 220 223 222 221 219 216 
208 203 206 214 221 223 222 222 222 222 223 227 231 233 230 225 222 225 230 234 
233 230 225 221 218 218 218 219 222 226 229 232 233 235 237 236 232 229 229 233 
232 222 209 204 211 221 228 232 235 205 216 229 238 242 242 240 237 234 232 232 
230 230 229 224 216 208 208 216 225 230 227 222 215 208 203 200 201 207 216 222 
223 218 212 209 211 213 213 211 209 206 205 208 215 220 219 216 213 212 212 216 
222 229 234 233 228 223 223 226 228 227 225 224 223 221 218 215 214 216 221 225 
229 231 233 234 233 229 225 226 229 226 216 206 205 216 229 238 241 243 204 215 
228 237 241 240 236 232 228 226 225 223 222 223 220 210 199 198 209 224 231 229 
221 213 206 203 202 204 206 211 217 220 217 210 205 206 207 207 205 204 204 206 
209 213 217 216 213 210 208 209 214 222 230 235 235 230 224 220 220 222 221 219 
220 223 223 221 216 213 214 219 224 229 230 231 232 229 225 222 223 223 218 206 
199 202 215 228 236 238 239 202 214 227 236 239 235 230 226 225 225 224 221 220 
221 219 209 198 196 206 221 228 226 220 214 210 210 212 214 215 217 220 223 220 
215 210 209 208 206 204 205 208 210 211 214 218 219 217 213 211 213 217 224 231 
235 235 230 223 218 218 219 219 216 216 219 221 222 219 216 217 222 228 234 236 
235 235 231 226 222 223 221 213 199 193 198 211 223 230 233 233 203 212 224 235 
237 231 223 221 224 227 228 225 223 224 222 214 204 200 205 214 219 219 217 216 
216 218 219 219 220 223 226 228 227 224 222 219 215 210 210 213 218 219 220 222 
225 226 225 223 221 222 225 229 233 234 232 227 222 219 220 221 220 215 211 213 
218 221 221 218 219 225 233 239 242 241 240 235 229 225 226 224 215 200 192 195 
205 215 222 226 228 205 210 221 232 235 228 219 217 223 231 234 233 231 230 226 
218 209 204 205 208 211 211 212 214 218 221 221 221 221 225 230 233 233 232 231 
228 221 216 218 223 227 227 227 229 232 233 233 231 230 229 231 233 233 231 227 
224 223 222 224 223 220 213 209 210 217 221 222 219 219 224 232 240 245 245 244 
238 232 229 231 231 223 208 199 197 202 208 214 219 223 209 210 216 227 233 229 
219 215 220 230 237 239 237 234 227 218 210 206 205 205 205 206 206 208 211 213 
214 212 213 218 226 231 234 235 235 231 225 224 228 233 235 234 233 234 235 236 
237 237 236 236 236 235 231 227 224 225 226 225 223 220 216 211 208 211 218 222 
223 220 219 222 230 237 243 244 242 237 231 230 234 236 232 221 213 207 206 206 
208 212 217 216 211 212 221 230 230 222 216 218 228 238 242 243 238 229 217 208 
204 203 203 203 203 204 204 205 207 207 206 208 213 220 225 226 227 227 224 222 
225 231 235 235 233 232 231 231 232 233 235 236 237 236 233 227 223 224 229 230 
225 219 214 210 208 208 212 219 224 224 221 218 220 227 235 242 245 242 236 231 
230 235 238 235 229 224 219 216 211 209 209 211 223 214 209 213 224 229 225 216 
214 222 233 240 242 240 231 220 210 205 204 204 204 204 204 204 204 204 204 204 
207 211 215 216 216 217 217 216 217 221 228 231 230 226 225 226 227 227 228 230 
234 236 234 228 222 222 227 232 232 226 217 211 207 206 208 213 220 226 225 222 
218 219 224 232 238 242 239 234 230 231 236 239 237 233 232 229 226 220 216 211 
210 228 217 208 206 215 224 225 218 212 216 227 237 242 241 236 225 214 207 204 
204 204 204 204 204 204 204 203 205 208 211 212 210 207 208 209 210 211 215 221 
223 218 213 212 216 222 223 223 225 229 230 226 221 220 225 231 234 232 226 220 
214 210 207 208 213 221 227 226 223 218 217 220 227 232 236 232 227 225 228 233 
235 233 233 234 235 235 231 227 222 218 232 221 208 202 206 217 223 218 212 211 
220 231 239 242 239 231 220 211 205 204 204 204 204 204 204 204 204 206 209 211 
210 206 204 204 205 206 207 209 213 214 208 200 200 208 218 221 221 221 223 223 
219 218 222 229 234 234 231 228 224 221 217 213 211 214 220 226 227 224 219 216 
218 223 227 229 225 220 220 222 227 227 225 227 231 235 237 237 236 233 231 230 
221 210 200 200 208 216 217 212 209 214 225 235 241 241 235 226 215 207 204 204 
204 204 204 204 204 204 206 209 210 208 206 204 204 204 204 205 206 208 208 202 
196 197 204 213 217 218 218 218 217 218 221 227 233 236 235 231 229 227 226 224 
219 216 215 219 224 227 224 220 216 217 221 226 226 223 217 217 220 223 222 220 
221 227 232 237 238 239 238 237 225 219 211 201 197 200 208 213 212 208 209 218 
229 238 240 235 227 216 208 204 204 204 204 204 204 204 204 206 207 208 207 205 
204 204 204 204 204 205 206 205 203 200 200 205 210 212 213 214 216 219 223 228 
232 235 237 236 233 230 228 228 227 225 221 218 218 221 225 224 221 218 217 221 
227 229 226 221 220 222 224 221 218 219 225 231 235 236 237 239 239 216 214 210 
203 197 197 202 209 211 208 207 212 222 231 234 230 222 213 207 204 204 204 204 
204 204 204 204 205 206 206 205 204 204 204 204 204 204 204 204 204 204 204 205 
206 207 208 208 210 216 223 231 236 238 239 240 239 237 233 231 229 229 228 226 
222 219 219 221 221 220 218 217 221 227 231 231 227 226 226 225 218 214 217 224 
231 234 235 236 237 238 208 209 208 205 200 198 200 205 208 207 206 208 214 221 
224 220 214 208 205 204 204 204 204 204 204 204 204 204 204 204 204 204 204 204 
204 204 204 204 204 204 204 205 205 206 206 205 205 208 215 224 232 235 235 235 
236 235 234 231 228 226 226 227 227 226 222 219 217 216 215 215 215 217 223 228 
229 228 228 228 222 213 209 215 225 232 235 236 236 236 236 208 207 207 205 203 
201 201 203 205 205 205 205 208 212 213 210 207 205 204 204 204 204 204 204 204 
204 204 204 204 204 204 204 204 204 204 204 204 204 204 204 204 204 204 204 205 
204 204 206 212 218 223 224 223 222 223 224 225 224 220 218 220 224 227 228 225 
221 216 212 210 211 211 213 218 222 223 224 225 223 216 207 204 212 223 231 235 
236 237 236 233 217 212 208 206 205 204 203 203 203 204 204 204 205 206 206 205 
204 204 204 204 204 204 204 204 204 204 204 204 204 204 204 204 204 204 204 204 
204 204 204 204 204 204 204 204 204 205 205 206 208 211 211 209 207 207 210 214 
217 218 215 213 216 222 227 229 227 225 219 213 208 207 208 210 214 218 219 221 
223 222 217 209 208 214 223 228 231 233 234 232 228 228 221 214 208 205 205 204 
203 203 203 203 203 204 204 204 204 204 204 204 204 204 204 204 204 204 204 204 
204 204 204 204 204 204 204 204 204 204 204 204 204 204 204 204 204 204 204 204 
205 205 205 203 200 198 199 204 212 217 220 218 217 220 224 228 229 228 227 223 
218 211 208 208 210 215 217 219 221 225 226 224 219 218 221 225 227 227 229 230 
229 225 234 229 222 213 207 205 204 203 203 203 203 203 203 204 204 204 204 204 
204 204 204 204 204 204 204 204 204 204 204 204 204 204 204 204 204 204 204 204 
204 204 204 204 204 204 204 204 204 204 204 203 201 198 197 199 205 214 222 227 
228 228 229 230 230 229 229 228 226 223 217 212 211 212 215 217 219 222 228 231 
231 228 228 228 229 229 228 228 229 229 227 231 232 229 221 212 206 204 204 203 
203 203 203 203 203 204 204 204 204 204 204 204 204 204 204 204 204 204 204 203 
203 203 203 203 204 204 204 204 204 204 204 204 204 204 204 204 204 204 204 204 
204 203 202 202 203 208 214 222 229 234 237 237 236 234 232 230 229 228 226 223 
219 216 214 213 213 216 222 230 236 236 232 230 230 231 232 232 232 233 233 233 
223 231 234 229 218 209 205 204 204 204 203 203 203 203 203 204 204 204 204 204 
204 204 204 204 204 204 204 204 202 201 199 199 199 199 200 200 201 202 203 204 
204 204 204 204 204 204 204 204 204 204 204 204 204 204 205 208 214 220 228 234 
238 239 238 235 232 230 229 228 227 224 220 215 211 207 209 215 224 232 233 228 
224 221 224 229 233 236 238 238 238 217 228 235 233 224 213 206 204 204 204 204 
203 203 203 203 203 204 204 204 204 204 204 204 204 204 204 204 204 202 199 196 
195 195 195 196 195 196 198 201 203 204 204 204 204 204 204 204 204 204 204 204 
204 204 203 203 203 205 209 216 223 231 236 239 239 236 233 231 230 229 227 224 
219 212 205 204 210 218 226 226 219 210 205 209 220 231 238 242 241 241 217 226 
235 235 227 216 207 204 204 204 204 204 203 203 203 203 203 204 204 204 204 204 
204 204 204 204 204 204 202 199 196 194 194 194 194 193 193 196 199 202 204 204 
204 204 204 204 204 204 204 204 204 204 204 204 204 203 203 203 206 212 218 226 
232 235 234 231 228 227 228 228 226 223 216 209 206 210 217 223 222 214 204 196 
198 210 223 233 238 239 240 218 225 233 235 229 217 208 204 204 204 204 204 204 
203 203 203 203 203 203 204 204 204 204 204 204 204 204 204 203 201 199 198 197 
197 197 196 195 197 200 203 204 204 204 204 204 204 204 204 204 204 204 204 204 
204 204 204 202 201 201 202 205 210 217 222 224 222 220 221 225 228 228 227 222 
215 211 214 221 228 226 219 210 202 201 208 218 225 230 232 233 219 225 232 234 
229 218 209 204 204 204 204 204 204 204 203 203 203 203 203 204 204 204 204 204 
204 204 204 204 204 203 203 202 202 202 201 201 200 200 202 203 204 204 204 204 
204 204 204 204 204 204 204 204 204 204 204 204 203 201 199 197 197 199 203 208 
211 212 213 216 223 228 230 231 227 220 216 219 227 235 235 231 225 218 214 213 
215 219 223 225 226 224 228 233 234 229 220 210 205 204 204 204 204 204 204 204 
203 203 203 203 204 204 204 204 204 204 204 204 204 204 204 204 204 204 204 204 
204 204 204 204 204 204 204 204 204 204 204 204 204 204 204 204 204 204 204 204 
204 203 201 199 197 197 198 200 203 206 210 213 218 224 229 233 234 231 223 218 
220 229 237 239 238 236 233 228 221 218 218 220 223 224 230 232 235 235 231 222 
213 207 204 204 204 204 204 204 204 204 203 203 203 203 203 204 204 204 204 204 
204 204 204 204 204 204 204 204 204 204 204 204 204 204 204 204 204 204 204 204 
204 204 204 204 204 204 204 204 204 204 203 202 201 201 201 203 205 206 210 214 
220 225 229 232 235 237 234 226 218 219 226 232 234 234 234 234 230 225 221 221 
224 228 230 230 234 237 237 233 225 216 209 205 205 206 206 206 205 204 204 202 
201 200 201 202 204 204 204 204 204 204 204 204 204 204 204 204 204 204 204 204 
204 204 204 204 204 204 204 204 204 204 204 204 204 204 204 204 204 204 204 204 
204 204 205 206 208 211 213 216 220 226 232 235 235 238 238 235 227 219 218 223 
227 228 225 222 223 223 224 224 226 231 236 238 224 232 238 239 235 227 218 210 
206 207 208 209 208 206 204 204 201 197 196 198 201 203 204 204 204 204 204 204 
204 204 204 204 204 204 204 204 204 204 204 204 204 204 204 204 204 204 204 204 
204 204 204 204 204 204 204 204 204 204 206 206 206 207 211 214 218 220 226 232 
238 239 239 237 233 227 220 219 222 226 225 219 211 209 212 217 222 227 233 240 
244 