P2
89 89
255
255 255 255 255 255 255 255 255 255 255 255 255 255 255 255 255 255 255 255 255 255 255 255 255 255 255 255 255 255 255 255 255 255 255 255 255 255 255 255 255 255 255 255 255 255 255 255 255 255 255 255 255 255 255 255 255 255 255 255 255 255 255 255 255 255 255 255 255 255 255 255 255 255 255 255 255 255 255 255 255 255 255 255 255 255 255 255 255 255 
255 255 255 255 255 255 255 255 255 255 255 255 255 255 255 255 255 255 255 255 255 255 255 255 255 255 255 255 255 255 255 255 255 255 255 255 255 255 255 255 255 255 255 255 255 255 255 255 255 255 255 255 255 255 255 255 255 255 255 255 255 255 255 255 255 255 255 255 255 255 255 255 255 255 255 255 255 255 255 255 255 255 255 255 255 255 255 255 255 
255 255 255 255 255 255 255 255 255 255 255 255 255 255 255 255 255 255 255 255 255 255 255 255 255 255 255 255 255 255 255 255 255 255 255 255 255 255 255 255 255 255 255 255 255 255 255 255 255 255 255 255 255 255 255 255 255 255 255 255 255 255 255 255 255 255 255 255 255 255 255 255 255 255 255 255 255 255 255 255 255 255 255 255 255 255 255 255 255 
255 255 255 255 255 255 255 255 255 255 255 255 255 255 255 255 255 255 255 255 255 255 255 255 255 255 255 255 255 255 255 255 255 255 255 255 255 255 255 255 255 255 255 255 255 255 255 255 255 255 255 255 255 255 255 255 255 255 255 255 255 255 255 255 255 255 255 255 255 255 255 255 255 255 255 255 255 255 255 255 255 255 255 255 255 255 255 255 255 
255 255 255 255 255 255 255 255 255 255 255 255 255 255 255 255 255 255 255 255 255 255 255 255 255 255 255 255 255 255 255 255 255 255 255 255 255 255 255 255 255 255 255 255 255 255 255 255 255 255 255 255 255 255 255 255 255 255 255 255 255 255 255 255 255 255 255 255 255 255 255 255 255 255 255 255 255 255 255 255 255 255 255 255 255 255 255 255 255 
255 255 255 255 255 255 255 255 255 255 255 255 255 255 255 255 255 255 255 255 255 255 255 255 255 255 255 255 255 255 255 255 255 255 255 255 255 255 255 255 255 255 255 255 255 255 255 255 255 255 255 255 255 255 255 255 255 255 255 255 255 255 255 255 255 255 255 255 255 255 255 255 255 255 255 255 255 255 255 255 255 255 255 255 255 255 255 255 255 
255 255 255 255 255 255 255 255 255 255 255 255 255 255 255 255 255 255 255 255 255 255 255 255 255 255 255 255 255 255 255 255 255 255 255 255 255 255 255 255 255 255 255 255 255 255 255 255 255 255 255 255 255 255 255 255 255 255 255 255 255 255 255 255 255 255 255 255 255 255 255 255 255 255 255 255 255 255 255 255 255 255 255 255 255 255 255 255 255 
255 255 255 255 255 255 255 255 255 255 255 255 255 255 255 255 255 255 255 255 255 255 255 255 255 255 255 255 255 255 255 255 255 255 255 255 255 255 255 255 255 255 255 255 255 255 255 255 255 255 255 255 255 255 255 255 255 255 255 255 255 255 255 255 255 255 255 255 255 255 255 255 255 255 255 255 255 255 255 255 255 255 255 255 255 255 255 255 255 
255 255 255 255 255 255 255 255 255 255 255 255 255 255 255 255 255 255 255 255 255 255 255 255 255 255 255 255 255 255 255 255 255 255 255 255 255 255 255 255 255 255 255 255 255 255 255 255 255 255 255 255 255 255 255 255 255 255 255 255 255 255 255 255 255 255 255 255 255 255 255 255 255 255 255 255 255 255 255 255 255 255 255 255 255 255 255 255 255 
255 255 255 255 255 255 255 255 255 255 255 255 255 255 255 255 255 255 255 255 255 255 255 255 255 255 255 255 255 255 255 255 255 255 255 255 255 255 255 255 255 255 255 255 255 255 255 255 255 255 255 255 255 255 255 255 255 255 255 255 255 255 255 255 255 255 255 255 255 255 255 255 255 255 255 255 255 255 255 255 255 255 255 255 255 255 255 255 255 
255 255 255 255 255 255 255 255 255 255 255 255 255 255 255 255 255 255 255 255 255 255 255 255 255 255 255 255 255 255 255 255 255 255 255 255 255 255 255 255 255 255 255 255 255 255 255 255 255 255 255 255 255 255 255 255 255 255 255 255 255 255 255 255 255 255 255 255 255 255 255 255 255 255 255 255 255 255 255 255 255 255 255 255 255 255 255 255 255 
255 255 255 255 255 255 255 255 255 255 255 255 255 255 255 255 255 255 255 255 255 255 255 255 255 255 255 255 255 255 255 255 255 255 255 254 254 254 253 251 247 244 241 239 239 240 243 247 250 253 254 254 254 254 255 255 255 255 255 255 255 254 254 254 254 254 255 255 255 255 255 255 255 255 255 255 255 255 255 255 255 255 255 255 255 255 255 255 255 
255 255 255 255 255 255 255 255 255 255 255 255 255 255 255 255 255 255 255 255 255 255 255 255 255 255 255 255 255 255 255 255 254 254 254 252 248 242 237 231 226 221 217 215 215 216 220 225 230 236 241 247 251 254 254 254 255 255 255 255 255 254 253 252 252 252 253 254 254 255 255 255 255 255 255 255 255 255 255 255 255 255 255 255 255 255 255 255 255 
255 255 255 255 255 255 255 255 255 255 255 255 255 255 255 255 255 255 255 255 255 255 255 255 255 255 255 255 255 255 254 254 254 251 246 238 228 217 209 203 199 195 193 191 191 192 195 198 202 208 216 226 236 245 250 254 254 254 255 255 255 254 250 242 235 235 241 250 254 254 255 255 255 255 255 255 255 255 255 255 255 255 255 255 255 255 255 255 255 
255 255 255 255 255 255 255 255 255 255 255 255 255 255 255 255 255 255 255 255 255 255 255 255 255 255 255 255 255 254 254 252 246 237 224 211 200 191 184 181 181 182 183 183 182 182 181 180 181 183 189 198 209 223 236 246 251 254 254 255 254 254 245 224 203 200 216 238 251 254 255 255 255 255 255 255 255 255 255 255 255 255 255 255 255 255 255 255 255 
255 255 255 255 255 255 255 255 255 255 255 255 255 255 255 255 255 255 255 255 255 255 255 255 255 255 255 254 254 254 250 241 228 211 196 186 180 177 176 175 177 179 179 179 179 179 179 177 176 176 176 179 185 195 210 227 241 250 254 254 254 252 235 200 165 157 183 222 247 254 255 255 255 255 255 255 255 255 255 255 255 255 255 255 255 255 255 255 255 
255 255 255 255 255 255 255 255 255 255 255 255 255 255 255 255 255 255 255 255 255 255 255 255 255 255 254 254 252 247 236 220 201 187 178 175 176 178 180 182 182 182 181 179 178 178 178 179 179 180 179 177 175 177 186 200 219 236 247 253 252 243 216 173 135 131 166 213 244 254 255 255 255 255 255 255 255 255 255 255 255 255 255 255 255 255 255 255 255 
255 255 255 255 255 255 255 255 255 255 255 255 255 255 255 255 255 255 255 255 255 255 255 255 255 254 254 252 244 231 212 193 181 175 175 179 183 186 188 189 187 182 178 174 173 173 174 176 179 182 183 183 180 176 174 181 194 214 233 246 245 227 190 151 127 140 177 219 245 254 255 255 255 255 255 255 255 255 255 255 255 255 255 255 255 255 255 255 255 
255 255 255 255 255 255 255 255 255 255 255 255 255 255 255 255 255 255 255 255 255 255 255 255 254 254 251 242 226 205 187 177 174 178 183 186 188 189 189 188 187 184 181 178 177 175 174 173 173 175 179 183 185 183 179 175 178 190 210 232 233 207 167 139 143 173 208 235 249 254 255 255 255 255 255 255 255 255 255 255 255 255 255 255 255 255 255 255 255 
255 255 255 255 255 255 255 255 255 255 255 255 255 255 255 255 255 255 255 255 255 255 255 254 254 251 242 224 201 183 174 175 181 186 189 190 189 189 189 188 188 187 186 185 184 182 179 176 174 173 173 177 183 186 185 181 176 176 189 211 215 189 153 142 166 208 236 248 253 254 255 255 255 255 255 255 255 255 255 255 255 255 255 255 255 255 255 255 255 
255 255 255 255 255 255 255 255 255 255 255 255 255 255 255 255 255 255 255 255 255 255 254 254 251 242 224 200 181 173 176 181 183 184 184 184 186 187 188 189 189 189 190 190 190 189 187 185 182 177 173 173 175 182 186 187 183 177 178 192 194 174 150 154 189 232 251 254 254 254 255 255 255 255 255 255 255 255 255 255 255 255 255 255 255 255 255 255 255 
255 255 255 255 255 255 255 255 255 255 255 255 255 255 255 255 255 255 255 255 255 254 254 252 243 225 200 181 173 177 182 184 182 178 176 176 178 181 185 187 189 190 188 187 185 184 184 184 183 179 173 167 167 171 178 183 183 178 171 174 169 155 147 164 203 242 254 254 254 255 255 255 255 255 255 255 255 255 255 255 255 255 255 255 255 255 255 255 255 
255 255 255 255 255 255 255 255 255 255 255 255 255 255 255 255 255 255 255 255 255 254 252 244 227 202 182 173 177 183 187 185 180 175 172 172 173 174 177 180 183 184 183 180 177 175 175 176 177 176 173 167 163 165 170 176 178 175 169 163 150 138 144 173 214 246 255 255 255 255 255 255 255 255 255 255 255 255 255 255 255 255 255 255 255 255 255 255 255 
255 255 255 255 255 255 255 255 255 255 255 255 255 255 255 255 255 255 255 255 254 253 247 231 206 184 173 177 183 187 188 186 182 178 176 175 171 168 167 169 173 176 176 173 170 167 167 169 172 173 172 169 167 166 168 172 174 173 170 160 140 128 143 182 224 250 255 255 255 255 255 255 255 255 255 255 255 255 255 255 255 255 255 255 255 255 255 255 255 
255 255 255 255 255 255 255 255 255 255 255 255 255 255 255 255 255 255 255 254 254 249 235 212 188 174 176 183 187 189 188 188 186 183 181 177 171 165 161 163 167 171 173 171 167 165 166 171 175 176 177 176 175 175 175 176 177 178 176 164 140 129 148 193 233 253 255 255 255 255 255 255 255 255 255 255 255 255 255 255 255 255 255 255 255 255 255 255 255 
255 255 255 255 255 255 255 255 255 255 255 255 255 255 255 255 255 255 254 254 251 239 217 192 177 176 182 187 189 189 188 187 185 183 179 176 172 168 165 166 171 175 178 174 170 168 171 178 183 183 183 184 184 184 184 183 184 184 182 168 144 136 158 201 239 254 255 255 255 255 255 255 255 255 255 255 255 255 255 255 255 255 255 255 255 255 255 255 255 
255 255 255 255 255 255 255 255 255 255 255 255 255 255 255 255 255 254 254 252 242 222 196 179 175 181 186 189 188 187 185 182 178 175 173 173 173 174 175 177 180 183 184 179 173 173 178 185 190 189 189 189 189 189 189 189 190 188 183 168 150 145 169 206 239 253 255 255 255 255 255 255 255 255 255 255 255 255 255 255 255 255 255 255 255 255 255 255 255 
255 255 255 255 255 255 255 255 255 255 255 255 255 255 255 255 255 254 253 245 227 200 181 174 180 186 188 189 187 184 180 175 173 173 174 176 179 182 184 186 188 189 186 179 173 174 180 186 189 189 189 189 189 189 188 189 188 183 176 164 155 157 176 207 236 250 255 255 255 255 255 255 255 255 255 255 255 255 255 255 255 255 255 255 255 255 255 255 255 
255 255 255 255 255 255 255 255 255 255 255 255 255 255 255 255 255 254 251 236 209 184 172 176 185 188 189 189 187 182 177 174 174 177 180 183 186 188 189 189 189 187 181 174 173 177 184 188 189 189 189 189 189 188 189 188 185 178 169 166 167 172 185 206 230 246 255 255 255 255 255 255 255 255 255 255 255 255 255 255 255 255 255 255 255 255 255 255 255 
255 255 255 255 255 255 255 255 255 255 255 255 255 255 255 255 255 254 251 232 202 177 171 178 187 189 188 188 187 183 179 178 180 184 187 188 189 189 189 188 186 182 175 172 175 182 187 189 189 189 189 189 188 189 188 185 179 174 171 172 181 185 192 205 223 242 255 255 255 255 255 255 255 255 255 255 255 255 255 255 255 255 255 255 255 255 255 255 255 
255 255 255 255 255 255 255 255 255 255 255 255 255 255 255 255 255 254 251 236 209 184 171 176 184 188 189 188 187 185 184 185 187 188 189 189 188 189 189 188 184 177 173 174 180 185 188 189 189 189 189 188 189 188 185 180 174 177 180 185 193 196 199 205 219 239 254 255 255 255 255 255 255 255 255 255 255 255 255 255 255 255 255 255 255 255 255 255 255 
255 255 255 255 255 255 255 255 255 255 255 255 255 255 255 255 255 254 253 244 226 200 181 173 178 183 187 189 188 188 188 188 189 189 188 189 189 189 189 187 183 178 175 179 184 188 189 189 189 189 189 189 188 185 179 174 179 188 194 195 203 205 205 206 217 238 254 255 255 255 255 255 255 255 255 255 255 255 255 255 255 255 255 255 255 255 255 255 255 
255 255 255 255 255 255 255 255 255 255 255 255 255 255 255 255 255 254 254 251 242 224 199 182 173 177 182 186 188 189 189 189 189 189 189 189 189 189 189 187 184 182 182 184 187 188 189 189 188 189 188 187 183 178 174 180 193 204 203 201 210 215 213 208 217 237 253 255 255 255 255 255 255 255 255 255 255 255 255 255 255 255 255 255 255 255 255 255 255 
255 255 255 255 255 255 255 255 255 255 255 255 255 255 255 255 255 255 254 254 251 242 224 201 184 175 175 180 184 187 189 189 189 189 189 189 189 189 189 188 187 187 187 188 188 189 188 189 189 188 185 181 176 174 182 197 213 214 205 205 219 227 220 211 218 236 252 255 255 255 255 255 255 255 255 255 255 255 255 255 255 255 255 255 255 255 255 255 255 
255 255 255 255 255 255 255 255 255 255 255 255 255 255 255 255 255 255 255 254 254 251 242 227 206 189 179 175 177 181 184 187 189 189 189 188 188 189 188 189 189 189 189 189 189 189 189 188 185 182 178 175 177 186 202 219 223 212 204 209 229 236 226 214 218 234 250 255 255 255 255 255 255 255 255 255 255 255 255 255 255 255 255 255 255 255 255 255 255 
255 255 255 255 255 255 255 255 255 255 255 255 255 255 255 255 255 255 255 255 254 254 251 244 232 214 197 185 178 176 177 179 182 184 187 189 190 190 189 189 189 190 190 190 188 186 183 180 178 176 177 183 193 209 226 232 222 206 204 219 240 244 230 217 217 231 248 255 255 255 255 255 255 255 255 255 255 255 255 255 255 255 255 255 255 255 255 255 255 
255 255 255 255 255 255 255 255 255 255 255 255 255 255 255 255 255 255 255 255 255 254 254 253 248 238 224 208 195 185 180 177 176 178 180 182 182 181 180 180 180 180 181 182 181 179 177 176 178 183 191 203 220 234 239 230 212 203 211 232 248 248 233 218 216 229 246 255 255 255 255 255 255 255 255 255 255 255 255 255 255 255 255 255 255 255 255 255 255 
255 255 255 255 255 255 255 255 255 255 255 255 255 255 255 255 255 255 255 255 255 255 254 254 254 251 245 235 222 209 198 189 184 181 180 179 176 175 174 174 174 174 175 177 179 180 182 186 194 204 217 231 242 245 237 218 204 206 224 243 252 250 234 219 215 227 244 255 255 255 255 255 255 255 255 255 255 255 255 255 255 255 255 255 255 255 255 255 255 
255 255 255 255 255 255 255 255 255 255 255 255 255 255 255 255 255 255 255 255 255 255 255 255 254 254 253 250 244 236 225 215 207 200 194 188 184 182 181 181 181 181 183 186 190 196 203 211 221 232 241 248 249 241 223 205 203 218 238 250 254 251 235 219 214 226 243 255 255 255 255 255 255 255 255 255 255 255 255 255 255 255 255 255 255 255 255 255 255 
255 255 255 255 255 255 255 255 255 255 255 255 255 255 255 255 255 255 255 255 255 255 255 255 255 254 254 254 254 251 247 241 234 226 219 213 209 207 206 206 206 206 208 210 216 222 230 237 244 249 253 251 242 225 205 201 212 233 247 254 254 251 236 219 213 225 243 255 255 255 255 255 255 255 255 255 255 255 255 255 255 255 255 255 255 255 255 255 255 
255 255 255 255 255 255 255 255 255 255 255 255 255 255 255 255 255 255 255 255 255 255 255 255 255 255 255 255 255 255 255 254 252 248 243 239 236 235 235 234 234 235 236 237 241 245 250 253 254 254 251 242 225 206 199 208 228 244 252 254 255 251 236 219 214 225 243 255 255 255 255 255 255 255 255 255 255 255 255 255 255 255 255 255 255 255 255 255 255 
255 255 255 255 255 255 255 255 255 255 255 255 255 255 255 255 254 254 254 253 251 247 244 242 243 245 248 251 253 254 254 254 254 254 255 254 254 254 253 253 253 254 254 254 254 254 254 254 254 250 241 225 206 199 206 226 242 251 254 254 255 251 235 219 214 226 244 255 255 255 255 255 255 255 255 255 255 255 255 255 255 255 255 255 255 255 255 255 255 
255 255 255 255 255 255 255 255 255 255 255 255 255 255 254 254 254 251 245 237 228 218 211 208 209 213 219 225 231 237 244 250 253 254 254 254 255 255 255 255 255 255 255 255 255 254 254 253 249 239 223 206 199 206 225 242 251 254 254 255 255 250 234 219 216 228 245 255 255 255 255 255 255 255 255 255 255 255 255 255 255 255 255 255 255 255 255 255 255 
255 255 255 255 255 255 255 255 255 255 255 255 255 254 254 252 246 235 218 199 183 171 163 160 161 165 171 178 187 198 212 227 239 247 252 254 254 254 255 255 255 255 255 254 254 254 252 245 235 220 205 201 208 226 242 251 254 254 255 255 255 248 232 218 217 230 247 255 255 255 255 255 255 255 255 255 255 255 255 255 255 255 255 255 255 255 255 255 255 
255 255 255 255 255 255 255 255 255 255 255 255 254 254 251 242 224 199 172 150 133 123 119 117 118 120 123 128 136 148 164 183 203 223 238 248 253 254 254 255 255 255 254 254 253 249 241 228 214 204 203 211 228 242 251 254 254 255 255 255 255 246 229 216 218 232 249 255 255 255 255 255 255 255 255 255 255 255 255 255 255 255 255 255 255 255 255 255 255 
255 255 255 255 255 255 255 255 255 255 255 254 254 251 240 217 185 153 127 110 100 96 95 95 95 95 95 96 101 108 119 134 155 179 206 228 244 252 254 254 254 254 254 250 244 234 221 208 203 205 216 232 244 251 254 254 255 255 255 255 255 243 225 213 218 235 251 255 255 255 255 255 255 255 255 255 255 255 255 255 255 255 255 255 255 255 255 255 255 
255 255 255 255 255 255 255 255 255 255 254 254 251 240 216 179 142 114 98 92 90 89 90 91 91 90 89 88 89 91 95 101 113 133 159 190 220 241 251 254 254 251 245 236 225 213 205 203 209 222 236 247 252 254 254 255 255 255 255 255 255 240 221 210 217 236 253 255 255 255 255 255 255 255 255 255 255 255 255 255 255 255 255 255 255 255 255 255 255 
255 255 255 255 255 255 255 255 255 255 254 253 243 219 180 140 108 95 91 91 92 93 92 92 92 93 93 93 92 91 90 90 93 101 118 146 181 216 239 246 244 236 226 215 208 204 206 215 229 241 249 253 254 254 255 255 255 255 255 255 254 239 218 207 217 237 254 255 255 255 255 255 255 255 255 255 255 255 255 255 255 255 255 255 255 255 255 255 255 
255 255 255 255 255 255 255 255 255 254 254 248 227 189 145 110 94 91 92 92 92 92 93 93 93 93 93 93 93 92 92 91 90 91 96 110 140 176 209 224 224 215 208 205 207 213 224 236 246 251 254 254 254 255 255 255 255 255 255 255 254 237 217 206 217 238 254 255 255 255 255 255 255 255 255 255 255 255 255 255 255 255 255 255 255 255 255 255 255 
255 255 255 255 255 255 255 255 255 254 252 238 204 158 117 95 91 92 93 92 93 93 93 93 93 93 93 93 93 91 90 89 89 89 89 92 104 133 167 193 204 206 207 213 223 234 244 250 253 254 254 255 255 255 255 255 255 255 255 254 252 236 216 208 220 240 255 255 255 255 255 255 255 255 255 255 255 255 255 255 255 255 255 255 255 255 255 255 255 
255 255 255 255 255 255 255 255 255 254 247 223 178 132 100 91 91 93 92 93 93 93 93 93 93 93 93 93 93 90 86 83 84 86 85 83 86 99 129 163 193 211 224 234 243 249 253 254 254 254 255 255 255 255 255 255 255 255 255 254 249 232 215 212 225 244 255 255 255 255 255 255 255 255 255 255 255 255 255 255 255 255 255 255 255 255 255 255 255 
255 255 255 255 255 255 255 255 255 254 240 205 156 114 93 91 92 92 93 93 93 93 93 93 93 93 93 93 93 89 84 79 78 80 82 80 80 85 106 144 189 223 242 249 253 254 254 254 255 255 255 255 255 255 255 255 255 255 255 254 245 226 212 214 231 248 255 255 255 255 255 255 255 255 255 255 255 255 255 255 255 255 255 255 255 255 255 255 255 
255 255 255 255 255 255 255 255 255 252 231 188 138 102 90 92 92 93 93 93 93 93 93 93 93 93 93 93 93 89 83 76 74 77 81 82 83 84 97 132 180 224 248 254 254 254 255 255 254 254 254 254 252 248 243 239 236 234 234 235 224 209 202 214 234 252 254 254 255 255 255 255 255 255 255 255 255 255 255 255 255 255 255 255 255 255 255 255 255 
255 255 255 255 255 255 255 255 255 248 220 173 125 97 90 92 92 93 93 93 93 93 93 93 93 93 93 93 93 90 85 79 75 76 82 86 88 89 94 119 163 210 243 254 255 255 255 254 254 253 249 242 232 220 209 201 195 192 191 193 185 176 177 196 222 244 250 254 254 254 255 255 255 255 255 255 255 255 255 255 255 255 255 255 255 255 255 255 255 
255 255 255 255 255 255 255 255 255 243 210 162 118 94 91 93 92 93 93 93 93 93 93 93 93 93 93 93 93 91 88 83 79 79 83 89 92 92 91 106 143 194 235 253 255 255 254 254 252 244 230 211 191 174 161 151 144 140 139 141 137 135 141 161 188 215 232 244 251 254 254 254 255 255 255 255 255 255 255 255 255 255 255 255 255 255 255 255 255 
255 255 255 255 255 255 255 255 255 239 202 153 112 93 92 93 93 93 93 93 93 93 93 93 93 93 93 93 92 92 91 88 85 84 85 89 91 93 89 98 130 180 226 251 255 254 254 251 241 221 193 165 142 127 117 112 107 104 103 103 100 100 106 121 143 168 193 218 237 248 253 254 254 255 255 255 255 255 255 255 255 255 255 255 255 255 255 255 255 
255 255 255 255 255 255 255 255 255 237 198 148 109 93 93 93 93 93 93 93 93 93 93 93 93 93 93 93 92 93 92 91 89 88 88 90 92 93 89 95 123 170 217 247 254 254 251 241 217 183 148 121 105 98 94 93 91 90 90 87 84 82 86 95 108 124 146 175 206 231 246 253 254 254 255 255 255 255 255 255 255 255 255 255 255 255 255 255 255 
255 255 255 255 255 255 255 255 255 236 197 147 109 92 93 92 93 93 93 93 93 93 93 93 93 93 93 93 93 92 93 92 92 91 91 91 92 93 91 95 118 162 210 243 254 253 243 220 182 143 112 97 91 90 91 91 91 91 91 87 83 81 82 87 92 97 109 131 163 199 228 246 253 254 255 255 255 255 255 255 255 255 255 255 255 255 255 255 255 
255 255 255 255 255 255 255 255 255 238 200 151 111 93 92 92 93 93 93 93 93 93 93 93 93 93 93 93 93 93 93 93 93 93 93 93 93 92 91 95 117 159 207 242 254 248 228 190 146 111 95 91 91 92 93 91 88 87 86 83 82 83 86 90 90 90 93 102 124 159 198 230 248 254 254 255 255 255 255 255 255 255 255 255 255 255 255 255 255 
255 255 255 255 255 255 255 255 255 242 207 158 116 94 91 92 93 93 93 93 93 93 93 93 93 93 93 93 93 93 93 93 93 93 93 93 93 92 91 95 117 160 208 242 252 239 206 159 118 96 91 92 93 93 92 91 87 83 80 78 78 80 84 87 88 89 90 92 100 123 162 205 236 251 254 254 255 255 255 255 255 255 255 255 255 255 255 255 255 
255 255 255 255 255 255 255 255 255 246 216 168 122 95 90 93 93 93 93 93 93 93 93 93 93 93 93 93 93 93 93 93 93 93 93 93 93 92 90 95 120 165 213 245 248 224 181 134 101 91 91 92 92 93 93 91 87 83 78 75 75 78 81 83 85 87 90 91 92 102 130 173 216 243 253 254 255 255 255 255 255 255 255 255 255 255 255 255 255 
255 255 255 255 255 255 255 255 255 250 226 180 131 99 89 92 92 93 93 93 93 93 93 93 93 93 93 93 93 93 93 93 93 93 93 93 93 93 89 96 125 174 220 248 241 207 158 115 94 91 92 92 93 93 93 92 90 86 81 77 77 78 80 82 84 88 91 92 91 93 108 145 191 231 250 254 255 255 255 255 255 255 255 255 255 255 255 255 255 
255 255 255 255 255 255 255 255 255 253 235 195 145 106 91 91 93 93 93 93 93 93 93 93 93 93 93 93 93 93 93 93 93 93 93 93 93 92 90 101 135 185 229 250 233 191 141 104 90 92 93 93 93 93 92 92 92 90 87 84 82 83 83 85 87 90 92 92 92 91 96 122 167 214 244 254 255 255 255 255 255 255 255 255 255 255 255 255 255 
255 255 255 255 255 255 255 255 255 254 243 212 164 120 95 91 92 93 93 93 93 93 93 93 93 93 93 93 93 93 93 93 93 93 93 92 93 91 92 110 150 200 238 250 225 179 129 98 89 92 92 93 93 93 93 92 93 92 91 90 89 88 89 90 91 92 92 93 93 91 91 108 147 197 237 254 255 255 255 255 255 255 255 255 255 255 255 255 255 
255 255 255 255 255 255 255 255 255 254 250 229 187 140 105 92 91 92 92 93 93 93 93 93 93 93 93 93 93 93 93 93 93 93 93 93 92 91 97 125 170 217 245 247 218 170 123 95 89 93 92 93 93 93 93 93 92 93 93 93 93 93 93 93 93 93 93 93 92 92 89 100 134 185 229 252 255 255 255 255 255 255 255 255 255 255 255 255 255 
255 255 255 255 255 255 255 255 255 254 253 242 212 166 123 98 91 92 92 92 93 93 93 93 93 93 93 93 93 93 93 93 93 93 93 92 91 93 109 147 195 233 251 245 213 165 120 95 90 92 92 93 93 93 93 93 93 93 93 92 92 92 92 92 93 93 93 93 93 93 88 96 126 176 223 250 255 255 255 255 255 255 255 255 255 255 255 255 255 
255 255 255 255 255 255 255 255 255 254 254 250 232 196 151 113 95 91 92 92 93 93 93 93 93 93 93 93 93 93 93 93 93 93 92 91 92 102 132 176 219 245 254 244 211 164 119 95 91 93 93 93 93 93 93 93 93 93 93 93 93 93 93 93 93 93 93 93 93 92 89 95 123 171 219 248 255 255 255 255 255 255 255 255 255 255 255 255 255 
255 255 255 255 255 255 255 255 255 255 254 253 245 223 185 143 110 95 91 91 92 93 92 92 93 93 93 93 93 93 93 92 93 92 91 92 100 124 164 207 237 251 254 245 214 166 121 95 90 93 93 93 93 93 93 93 93 93 93 93 93 93 93 93 93 93 93 93 93 92 89 95 123 170 218 247 255 255 255 255 255 255 255 255 255 255 255 255 255 
255 255 255 255 255 255 255 255 255 255 254 254 252 241 218 181 143 113 98 92 91 91 92 93 93 93 93 93 93 92 93 92 92 91 92 100 122 158 199 231 249 254 254 248 219 172 124 96 89 93 93 93 93 93 93 93 93 93 93 93 93 93 93 93 93 93 93 93 93 93 89 95 124 173 220 249 255 255 255 255 255 255 255 255 255 255 255 255 255 
255 255 255 255 255 255 255 255 255 255 255 254 254 251 240 218 185 150 123 104 95 91 90 91 92 93 93 93 93 92 91 90 90 94 105 127 160 197 228 246 253 254 255 251 226 181 131 99 89 92 92 93 93 93 93 93 93 93 93 93 93 93 93 93 93 93 93 93 93 93 88 97 128 178 225 251 255 255 255 255 255 255 255 255 255 255 255 255 255 
255 255 255 255 255 255 255 255 255 255 255 255 254 254 251 242 223 195 165 139 118 104 97 93 91 90 88 88 89 91 93 96 103 116 139 169 202 229 245 252 254 254 255 253 234 193 143 105 91 92 93 93 93 93 93 93 93 93 93 93 93 93 93 93 93 93 93 93 92 92 89 101 136 187 231 253 255 255 255 255 255 255 255 255 255 255 255 255 255 
255 255 255 255 255 255 255 255 255 255 255 255 255 254 254 252 245 231 211 185 161 141 126 116 108 103 100 99 102 106 113 123 137 158 185 212 234 247 253 254 254 255 255 254 242 209 160 117 94 91 92 92 93 93 93 93 93 93 93 93 93 93 93 93 93 93 93 93 93 91 92 110 151 200 238 254 255 255 255 255 255 255 255 255 255 255 255 255 255 
255 255 255 255 255 255 255 255 255 255 255 255 255 255 254 254 253 249 241 227 209 190 174 159 147 139 135 134 137 144 155 169 186 206 226 241 250 254 254 254 255 255 255 254 249 225 182 135 102 91 91 93 92 93 93 93 93 93 93 93 93 93 93 93 93 93 93 93 92 91 97 124 170 216 245 254 255 255 255 255 255 255 255 255 255 255 255 255 255 
255 255 255 255 255 255 255 255 255 255 255 255 255 255 255 254 254 254 253 249 242 232 220 208 198 191 188 187 189 195 205 217 229 240 248 253 254 254 254 255 255 255 255 254 253 239 206 159 118 95 91 92 93 92 93 93 93 93 93 93 93 93 93 93 93 93 93 92 91 93 108 145 193 232 251 254 255 255 255 255 255 255 255 255 255 255 255 255 255 
255 255 255 255 255 255 255 255 255 255 255 255 255 255 255 255 255 254 254 254 254 252 248 242 237 234 232 232 233 236 241 246 251 254 254 254 254 255 255 255 255 255 255 254 254 248 228 189 144 109 94 91 92 93 92 93 93 93 93 93 93 93 93 93 93 93 92 91 92 100 128 171 216 244 254 254 255 255 255 255 255 255 255 255 255 255 255 255 255 
255 255 255 255 255 255 255 255 255 255 255 255 255 255 255 255 255 255 255 255 255 255 255 255 254 254 254 254 254 254 254 254 254 254 254 255 255 255 255 255 255 255 255 255 254 253 243 218 178 137 106 94 91 91 92 93 92 93 93 93 93 93 93 92 93 92 91 91 97 118 157 201 235 251 254 255 255 255 255 255 255 255 255 255 255 255 255 255 255 
255 255 255 255 255 255 255 255 255 255 255 255 255 255 255 255 255 255 255 255 255 255 255 255 255 255 255 255 255 255 255 255 255 255 255 255 255 255 255 255 255 255 255 255 254 254 251 239 214 175 137 109 95 91 91 91 92 93 93 93 93 93 93 92 91 91 92 98 117 151 192 227 247 254 254 255 255 255 255 255 255 255 255 255 255 255 255 255 255 
255 255 255 255 255 255 255 255 255 255 255 255 255 255 255 255 255 255 255 255 255 255 255 255 255 255 255 255 255 255 255 255 255 255 255 255 255 255 255 255 255 255 255 255 255 254 254 250 238 214 179 144 118 102 94 90 89 89 90 91 91 90 89 89 91 95 104 124 154 190 223 244 253 254 254 255 255 255 255 255 255 255 255 255 255 255 255 255 255 
255 255 255 255 255 255 255 255 255 255 255 255 255 255 255 255 255 255 255 255 255 255 255 255 255 255 255 255 255 255 255 255 255 255 255 255 255 255 255 255 255 255 255 255 255 255 254 254 250 239 219 189 160 136 117 105 99 96 95 95 95 95 96 99 106 119 139 166 197 225 243 252 254 254 255 255 255 255 255 255 255 255 255 255 255 255 255 255 255 
255 255 255 255 255 255 255 255 255 255 255 255 255 255 255 255 255 255 255 255 255 255 255 255 255 255 255 255 255 255 255 255 255 255 255 255 255 255 255 255 255 255 255 255 255 255 255 254 254 251 243 228 207 183 161 143 131 124 120 118 118 120 124 131 144 163 186 211 232 246 252 254 254 255 255 255 255 255 255 255 255 255 255 255 255 255 255 255 255 
255 255 255 255 255 255 255 255 255 255 255 255 255 255 255 255 255 255 255 255 255 255 255 255 255 255 255 255 255 255 255 255 255 255 255 255 255 255 255 255 255 255 255 255 255 255 255 255 254 254 253 248 240 226 209 194 181 172 165 161 161 165 171 181 194 211 228 241 250 253 254 254 255 255 255 255 255 255 255 255 255 255 255 255 255 255 255 255 255 
255 255 255 255 255 255 255 255 255 255 255 255 255 255 255 255 255 255 255 255 255 255 255 255 255 255 255 255 255 255 255 255 255 255 255 255 255 255 255 255 255 255 255 255 255 255 255 255 255 254 254 254 253 249 243 235 227 219 213 209 209 213 219 227 235 243 249 253 254 254 254 255 255 255 255 255 255 255 255 255 255 255 255 255 255 255 255 255 255 
255 255 255 255 255 255 255 255 255 255 255 255 255 255 255 255 255 255 255 255 255 255 255 255 255 255 255 255 255 255 255 255 255 255 255 255 255 255 255 255 255 255 255 255 255 255 255 255 255 255 255 254 254 254 254 253 251 248 245 243 243 245 248 251 253 254 254 254 254 255 255 255 255 255 255 255 255 255 255 255 255 255 255 255 255 255 255 255 255 
255 255 255 255 255 255 255 255 255 255 255 255 255 255 255 255 255 255 255 255 255 255 255 255 255 255 255 255 255 255 255 255 255 255 255 255 255 255 255 255 255 255 255 255 255 255 255 255 255 255 255 255 255 255 255 255 255 255 255 255 255 255 255 255 255 255 255 255 255 255 255 255 255 255 255 255 255 255 255 255 255 255 255 255 255 255 255 255 255 
255 255 255 255 255 255 255 255 255 255 255 255 255 255 255 255 255 255 255 255 255 255 255 255 255 255 255 255 255 255 255 255 255 255 255 255 255 255 255 255 255 255 255 255 255 255 255 255 255 255 255 255 255 255 255 255 255 255 255 255 255 255 255 255 255 255 255 255 255 255 255 255 255 255 255 255 255 255 255 255 255 255 255 255 255 255 255 255 255 
255 255 255 255 255 255 255 255 255 255 255 255 255 255 255 255 255 255 255 255 255 255 255 255 255 255 255 255 255 255 255 255 255 255 255 255 255 255 255 255 255 255 255 255 255 255 255 255 255 255 255 255 255 255 255 255 255 255 255 255 255 255 255 255 255 255 255 255 255 255 255 255 255 255 255 255 255 255 255 255 255 255 255 255 255 255 255 255 255 
255 255 255 255 255 255 255 255 255 255 255 255 255 255 255 255 255 255 255 255 255 255 255 255 255 255 255 255 255 255 255 255 255 255 255 255 255 255 255 255 255 255 255 255 255 255 255 255 255 255 255 255 255 255 255 255 255 255 255 255 255 255 255 255 255 255 255 255 255 255 255 255 255 255 255 255 255 255 255 255 255 255 255 255 255 255 255 255 255 
255 255 255 255 255 255 255 255 255 255 255 255 255 255 255 255 255 255 255 255 255 255 255 255 255 255 255 255 255 255 255 255 255 255 255 255 255 255 255 255 255 255 255 255 255 255 255 255 255 255 255 255 255 255 255 255 255 255 255 255 255 255 255 255 255 255 255 255 255 255 255 255 255 255 255 255 255 255 255 255 255 255 255 255 255 255 255 255 255 
255 255 255 255 255 255 255 255 255 255 255 255 255 255 255 255 255 255 255 255 255 255 255 255 255 255 255 255 255 255 255 255 255 255 255 255 255 255 255 255 255 255 255 255 255 255 255 255 255 255 255 255 255 255 255 255 255 255 255 255 255 255 255 255 255 255 255 255 255 255 255 255 255 255 255 255 255 255 255 255 255 255 255 255 255 255 255 255 255 
