P2
89 89
255
254 253 253 252 252 252 252 253 253 253 252 252 253 253 253 252 252 252 253 253 253 253 253 253 252 252 252 252 252 252 253 253 253 254 254 254 253 253 253 253 253 253 253 254 253 253 253 254 254 254 254 254 254 253 253 253 253 253 253 254 254 253 253 253 253 253 253 253 253 253 253 253 253 254 254 254 254 254 254 254 254 254 254 254 254 254 254 254 254 
254 253 253 253 252 252 252 253 253 253 253 253 253 253 253 253 253 253 253 253 253 253 253 253 253 253 253 253 253 253 253 253 253 254 253 254 253 253 253 253 253 253 254 254 254 253 253 254 254 254 254 254 254 253 253 253 253 253 253 254 254 253 253 253 253 253 253 253 253 253 253 253 253 254 254 254 254 254 254 254 254 254 254 254 254 254 254 254 254 
254 253 253 253 253 253 253 253 253 253 253 253 253 253 253 253 253 253 253 253 253 253 253 253 253 253 253 253 253 253 253 253 253 253 253 253 253 253 253 253 253 253 254 254 254 254 254 254 254 254 254 254 253 253 253 253 253 253 253 253 253 253 253 253 253 253 253 253 253 253 253 253 253 253 253 253 254 254 253 253 253 253 253 253 253 253 253 253 253 
254 254 253 253 253 253 253 253 254 254 253 253 253 253 253 253 253 253 253 254 254 253 253 253 253 253 254 254 253 253 253 253 253 253 253 253 253 253 253 253 254 254 254 254 254 254 254 254 254 254 254 254 253 253 253 253 253 253 253 253 253 253 253 253 253 253 253 253 253 253 253 253 253 253 253 253 253 253 253 253 253 253 253 253 253 253 253 253 253 
254 254 253 253 253 253 253 254 254 254 254 253 253 253 253 253 253 253 254 254 254 254 254 254 254 254 254 254 253 253 253 253 253 253 253 253 254 254 254 254 254 254 254 254 254 254 254 254 254 254 254 254 253 254 253 253 253 253 253 253 253 252 252 252 253 253 253 253 253 254 253 253 253 253 253 253 253 253 253 253 253 253 253 253 253 253 253 253 253 
254 254 253 253 253 254 254 253 253 253 253 253 253 253 253 253 253 253 253 253 253 254 254 254 254 254 253 253 253 253 253 253 253 253 253 253 254 254 254 254 254 254 254 254 254 254 254 254 254 254 254 254 254 254 254 253 253 253 253 253 253 253 253 253 253 253 253 253 254 254 253 253 253 253 253 253 254 253 253 253 253 253 253 253 253 253 253 253 254 
254 254 254 254 254 254 253 253 253 253 253 253 253 253 253 253 253 253 253 253 253 254 254 254 254 254 253 253 253 253 253 253 253 253 253 253 253 254 254 254 254 254 254 254 254 254 254 254 254 254 254 254 254 254 254 253 253 253 253 253 253 253 253 253 253 253 253 253 254 254 253 253 253 253 253 253 254 253 253 253 253 253 254 254 253 253 253 253 254 
253 253 253 254 254 254 253 253 253 253 253 253 253 254 254 253 253 253 253 253 253 254 254 254 254 254 253 253 253 253 253 253 253 253 253 254 254 254 254 253 254 254 254 254 254 254 253 253 253 253 253 253 253 254 254 254 254 254 253 253 253 253 253 253 253 253 253 253 254 254 253 253 253 253 253 253 254 253 253 253 253 253 254 254 254 253 253 254 254 
253 253 253 254 254 254 253 253 253 253 254 254 253 254 254 254 253 253 253 254 254 254 254 254 254 254 253 253 253 253 253 253 253 253 253 253 254 254 254 253 253 254 254 254 254 254 253 253 253 253 253 253 253 254 254 254 254 254 254 253 254 254 254 254 254 254 253 253 253 254 253 253 253 253 253 253 254 254 253 253 253 253 254 254 254 254 254 254 254 
253 253 253 254 254 254 253 253 253 254 254 254 253 254 254 254 253 253 253 254 254 254 254 254 254 254 253 253 253 253 253 253 253 253 253 253 253 254 254 254 254 254 254 254 254 254 254 254 253 253 253 253 253 253 254 254 254 253 253 253 253 253 254 254 254 254 253 253 253 254 254 253 253 253 253 253 254 254 253 253 253 253 254 254 254 254 254 254 254 
252 252 253 253 254 254 253 253 253 254 254 254 254 254 253 253 253 253 253 253 253 253 254 254 254 254 253 253 253 253 253 253 253 253 253 253 253 252 251 249 248 246 245 245 245 245 246 247 248 249 250 251 252 253 253 253 253 253 253 253 253 253 254 254 254 254 253 253 253 254 254 254 253 253 253 253 254 254 254 254 254 254 254 254 254 253 253 253 254 
252 252 253 253 254 254 254 253 253 254 254 254 254 254 253 253 253 253 253 253 253 253 254 254 253 253 253 253 253 253 252 250 247 244 240 237 234 231 227 223 219 216 213 212 212 213 215 217 220 223 226 229 231 234 237 240 243 247 250 252 253 253 254 254 253 253 253 253 253 254 254 254 254 254 254 254 254 254 254 254 253 253 253 253 253 253 253 253 254 
253 252 253 253 253 254 254 253 253 254 254 254 254 254 254 254 253 253 253 253 253 253 254 254 253 253 251 248 245 240 234 227 219 211 203 195 188 182 176 169 163 158 154 153 153 155 157 160 163 167 171 176 181 186 193 200 209 217 226 234 240 245 249 252 253 253 253 253 253 254 254 254 254 254 254 254 254 254 254 253 253 253 253 253 253 253 253 253 254 
253 253 253 253 253 253 253 254 254 254 254 254 254 254 254 254 254 254 253 253 253 253 253 251 246 240 233 223 212 200 188 176 164 153 142 133 125 119 114 109 104 100 98 97 99 101 103 105 107 110 113 116 120 125 131 140 149 160 173 186 200 213 224 234 242 247 250 252 253 253 253 253 253 253 254 254 254 254 254 253 253 253 253 253 253 253 253 253 254 
254 253 253 253 253 253 253 254 254 254 254 254 254 254 254 254 254 253 253 253 251 247 241 231 218 203 186 170 155 140 126 116 107 100 94 90 87 86 86 86 85 85 86 87 89 91 93 93 93 93 93 93 92 92 93 96 100 106 114 125 139 154 171 189 205 221 233 243 249 252 253 253 253 253 253 253 253 253 253 253 253 253 253 253 253 253 253 253 253 
254 254 254 254 253 253 253 253 254 254 254 254 254 254 254 254 253 252 250 244 234 221 203 184 163 143 125 111 101 93 88 87 88 91 94 98 103 108 113 117 121 125 128 131 133 135 135 135 133 130 127 123 117 112 106 101 96 92 89 89 92 99 111 126 145 166 189 211 229 240 246 249 250 252 253 253 253 253 253 253 253 253 253 253 253 253 253 253 253 
254 254 254 253 253 253 253 253 254 254 254 253 253 254 254 252 249 241 228 211 191 167 144 122 105 92 86 85 88 94 101 111 121 133 143 152 160 168 174 180 184 189 192 194 196 197 197 196 194 192 188 184 177 169 161 152 142 130 117 105 95 87 84 85 92 107 128 155 183 205 219 229 238 245 250 252 253 253 253 253 253 253 253 253 253 253 253 253 253 
254 254 254 253 253 253 253 253 253 254 253 253 254 253 250 242 227 205 179 153 129 107 92 83 81 86 97 110 126 141 155 169 182 193 202 210 216 222 226 230 233 236 238 239 240 240 240 239 238 237 234 231 227 222 216 209 201 190 176 160 144 127 111 97 88 86 92 108 131 153 171 187 204 223 239 248 251 252 252 252 252 252 253 253 253 253 253 253 253 
253 253 254 253 253 253 253 253 253 253 252 249 245 240 228 208 179 145 115 93 81 78 82 93 110 129 149 168 185 199 211 221 229 236 241 245 247 249 250 251 252 253 253 253 253 253 253 252 252 252 251 251 249 248 246 243 239 233 225 215 203 188 171 152 134 119 109 105 109 117 124 134 151 178 208 232 245 251 251 251 251 251 252 252 253 253 253 253 253 
253 253 253 253 253 252 252 252 252 249 241 229 217 204 185 156 121 91 75 73 83 101 123 146 168 188 206 219 230 237 243 246 249 251 252 253 254 254 253 253 253 253 254 254 254 253 253 253 253 253 253 253 253 253 253 252 251 250 248 245 240 233 223 211 197 182 165 148 135 123 111 102 104 124 157 194 223 241 249 251 251 251 251 252 253 253 253 253 252 
253 253 253 253 253 252 252 251 247 235 213 186 166 152 135 112 90 83 90 108 132 158 183 203 219 231 240 245 249 251 252 253 253 253 253 253 253 253 252 251 250 250 250 250 250 250 249 249 249 250 251 251 252 252 253 253 252 252 253 253 252 251 248 244 238 230 219 204 187 165 139 113 92 87 107 147 192 228 246 250 250 250 251 252 253 253 253 252 252 
253 253 252 252 252 252 251 246 231 203 163 127 110 106 107 107 112 126 149 172 194 214 229 239 245 249 252 253 253 253 253 253 253 252 251 249 247 245 243 241 240 239 239 238 237 235 235 235 236 238 240 243 245 248 249 251 251 252 252 253 253 253 253 253 251 248 243 234 221 203 179 150 118 92 87 113 161 209 239 249 250 251 251 252 253 253 253 252 252 
253 252 252 252 251 251 247 232 200 153 106 77 78 97 122 145 167 189 209 224 236 244 249 252 253 253 253 253 253 252 250 247 244 240 237 234 231 228 225 223 221 220 218 216 212 209 208 209 211 215 220 224 229 232 236 239 243 246 249 251 252 253 252 250 247 242 235 229 222 212 199 182 159 130 108 110 139 183 220 239 247 250 252 252 253 253 253 253 252 
252 251 251 251 251 248 235 204 154 101 66 64 92 131 169 199 220 234 244 249 251 253 253 253 253 252 252 251 249 245 238 230 222 214 209 205 203 200 199 198 197 196 194 190 185 179 175 176 181 187 195 201 204 208 211 216 222 228 234 240 244 246 245 241 234 226 216 208 202 198 194 191 187 174 153 134 132 151 182 213 235 246 251 252 253 253 253 253 253 
251 251 251 250 250 244 220 172 114 69 61 89 134 178 211 232 244 250 252 253 253 253 253 253 252 251 248 244 237 227 214 201 189 180 175 173 173 175 176 176 175 174 173 170 163 154 148 148 153 163 174 179 181 181 183 186 190 197 206 217 225 229 229 224 215 205 195 187 183 181 179 184 196 204 195 166 133 118 132 166 204 231 245 251 253 253 253 253 253 
251 251 250 250 248 235 200 145 92 70 89 131 173 204 222 232 238 242 246 248 249 250 250 249 247 242 236 226 215 202 187 171 158 149 146 149 154 161 165 165 162 160 160 159 152 142 133 131 136 148 159 165 164 162 162 161 160 162 173 188 201 208 208 203 194 185 178 173 171 168 167 176 197 218 217 184 133 93 85 111 154 197 228 245 251 253 253 253 253 
251 251 250 248 240 217 174 124 95 99 129 164 187 199 204 208 213 220 227 232 236 238 239 237 232 223 212 200 189 179 169 157 145 136 134 139 148 160 168 167 161 155 154 155 150 140 129 125 130 141 151 156 154 152 152 148 140 137 146 165 182 190 189 184 178 172 168 165 162 158 157 166 186 207 205 172 120 74 53 64 100 147 194 227 245 252 253 253 253 
251 250 248 240 219 180 135 107 109 133 160 174 177 178 177 178 181 187 195 204 212 217 218 214 206 196 185 176 171 168 166 160 152 144 139 140 149 162 172 173 165 157 154 154 152 143 132 127 130 139 146 147 145 145 146 143 134 129 137 156 173 179 176 171 168 165 163 160 157 150 145 148 157 166 160 132 92 57 38 40 58 95 145 195 230 247 252 253 253 
250 249 240 219 180 131 93 90 120 156 173 169 159 155 156 156 155 157 163 173 183 191 193 187 178 169 164 163 165 168 170 170 167 160 153 149 152 162 173 176 170 162 157 157 156 149 140 134 135 140 142 140 137 137 141 141 136 134 142 157 169 170 166 163 162 161 159 156 153 147 137 125 115 108 98 82 62 45 35 33 37 55 96 150 202 235 249 252 253 
250 243 222 182 130 81 57 72 116 157 169 154 138 136 141 143 142 140 143 151 162 170 172 166 159 156 158 163 169 173 176 178 178 176 169 161 157 161 169 173 172 167 163 162 161 157 150 145 143 143 141 137 133 133 137 139 137 137 142 149 153 151 148 148 151 153 153 152 151 148 134 107 78 59 51 50 49 46 42 37 32 35 57 104 162 213 241 251 252 
246 228 189 135 81 46 38 58 97 133 142 127 112 114 125 134 137 136 139 146 155 161 161 156 152 154 161 169 174 174 173 173 174 174 170 163 157 155 158 162 166 167 168 167 166 164 161 157 153 150 146 141 137 137 136 133 129 129 133 136 136 133 132 135 141 145 148 148 151 150 136 104 64 37 30 40 51 56 55 48 38 31 36 64 119 180 226 246 251 
236 202 147 89 48 31 31 45 70 93 101 92 84 90 108 124 134 139 144 150 156 158 156 152 151 156 166 173 175 170 164 160 159 159 157 153 150 147 145 143 147 156 163 167 169 170 170 167 163 159 155 151 149 147 141 130 121 119 124 128 129 127 126 129 133 138 141 144 148 152 144 114 74 42 32 43 60 70 70 64 53 41 32 39 80 142 203 238 250 
218 167 105 55 32 28 29 35 46 58 63 61 61 74 96 118 134 144 150 153 155 155 153 152 154 161 170 175 172 163 154 148 144 142 140 138 138 136 131 124 126 138 154 164 168 170 172 171 167 163 158 156 155 153 145 132 120 119 126 134 136 136 136 137 138 139 139 140 144 150 149 129 91 54 36 42 61 77 82 80 71 60 44 33 54 108 175 226 248 
186 128 72 37 28 28 28 29 33 39 42 43 49 66 92 119 138 148 152 151 151 151 154 157 161 166 172 173 167 157 146 139 135 132 130 130 132 133 127 119 119 131 148 159 163 162 163 161 156 149 144 143 144 144 139 131 126 129 137 145 149 151 152 153 151 148 144 139 138 143 148 138 107 68 40 38 57 76 86 89 86 79 64 43 44 84 150 211 244 
146 93 50 29 27 27 25 27 32 38 41 41 46 65 95 124 144 151 150 148 149 153 159 163 166 168 169 166 159 149 139 133 130 130 132 136 140 140 136 130 129 137 149 155 151 144 140 136 130 122 116 114 115 117 117 120 129 141 152 156 157 159 163 165 165 161 154 144 135 134 142 142 119 79 44 33 48 69 83 89 91 90 83 61 48 72 132 197 239 
105 66 38 27 28 27 25 28 35 42 46 44 47 65 98 130 148 150 148 149 154 160 166 168 168 165 161 156 148 140 133 130 133 139 147 153 156 157 154 149 148 153 159 157 144 127 113 103 96 90 86 85 84 83 86 99 123 147 160 159 155 155 160 165 168 169 165 152 138 132 138 143 127 89 49 30 38 58 73 82 86 90 89 72 53 66 119 187 235 
71 49 33 29 33 34 32 33 39 45 47 43 43 62 97 131 149 150 149 155 163 169 171 169 163 157 150 143 134 127 126 131 141 153 162 167 168 165 161 157 156 160 166 163 148 125 100 81 70 66 67 66 62 58 63 85 121 153 167 164 157 154 156 161 167 172 171 161 147 138 141 147 133 97 54 28 29 47 62 71 77 82 83 70 51 62 112 181 232 
51 40 34 37 45 48 45 42 44 47 47 40 36 54 92 128 148 152 154 163 171 175 173 167 159 149 140 132 124 122 128 141 156 169 177 178 174 167 160 154 152 157 167 170 162 140 111 82 63 56 57 57 53 50 62 92 131 161 171 167 159 154 154 157 162 169 171 167 157 149 149 152 140 104 60 29 23 37 51 59 64 68 68 57 43 58 110 180 232 
44 39 40 48 59 63 57 50 48 49 47 37 30 45 82 120 145 153 158 168 176 178 175 168 158 146 135 126 122 125 137 154 169 178 181 178 172 163 154 147 147 153 165 173 173 158 132 102 77 61 55 52 52 58 78 109 141 161 168 165 161 157 156 159 163 168 171 170 165 159 156 155 143 111 67 31 20 28 39 45 50 54 56 50 47 70 125 190 236 
47 43 47 58 70 74 67 57 52 52 48 37 25 36 69 109 137 150 158 168 177 179 176 169 158 145 134 127 127 135 148 161 170 175 175 172 166 157 150 145 145 150 160 169 171 163 146 123 98 76 60 52 55 71 97 123 142 153 157 159 160 160 162 164 167 171 173 173 169 162 155 152 142 113 71 34 17 21 27 31 36 42 51 60 74 107 157 208 241 
57 51 53 63 74 78 71 62 56 55 51 39 25 29 58 96 128 146 156 166 174 174 171 165 157 146 138 135 137 145 154 161 166 168 167 166 162 155 150 145 145 148 153 158 158 153 144 132 116 94 72 57 60 80 107 127 138 145 151 156 160 163 167 170 173 175 175 173 168 158 149 146 137 112 72 34 16 15 19 20 24 34 56 85 121 160 198 229 247 
76 62 56 63 74 77 70 62 57 57 54 44 28 27 49 86 122 145 156 163 166 163 159 157 155 152 148 147 149 153 157 160 161 162 163 162 160 156 153 150 149 149 151 151 148 142 135 128 117 100 77 61 62 79 101 120 132 142 149 155 159 164 170 175 178 178 176 171 163 152 143 141 133 109 70 33 14 12 13 13 17 31 67 117 169 208 232 244 251 
106 77 59 60 70 72 65 57 52 54 54 47 33 28 44 78 117 145 157 159 155 148 145 148 153 157 157 157 157 158 158 158 158 160 162 162 161 159 157 156 154 152 150 147 142 135 125 114 101 85 68 57 55 65 81 102 121 136 143 143 145 153 164 173 179 179 175 169 160 150 144 143 135 109 69 34 15 12 12 12 18 41 88 149 204 236 249 252 253 
147 107 77 68 73 71 61 50 43 44 48 46 37 29 39 71 112 145 158 153 144 135 134 142 152 158 161 162 162 161 160 158 158 160 161 161 161 160 161 161 159 153 144 135 131 126 114 94 73 56 48 43 45 50 59 78 100 116 118 113 114 129 149 166 176 177 173 167 160 154 152 152 142 115 76 42 24 20 21 27 41 72 124 181 225 247 252 253 253 
189 151 119 101 93 81 63 46 34 32 39 42 38 30 34 61 103 138 153 146 134 126 127 136 146 152 156 158 159 160 160 159 158 156 152 147 145 147 150 151 149 140 124 110 108 107 96 71 44 28 27 31 37 42 46 57 71 80 78 73 81 106 136 160 172 174 171 166 162 160 162 165 158 137 104 74 56 51 56 68 90 126 171 212 240 251 253 253 254 
224 199 176 154 134 108 79 52 33 25 30 38 38 31 32 53 91 128 145 141 130 124 126 132 138 142 146 150 153 156 158 159 155 146 132 118 112 113 117 119 117 108 94 81 81 86 78 55 28 14 17 28 41 50 51 51 49 46 43 47 67 101 135 158 169 170 168 165 163 164 170 179 181 172 152 129 114 109 115 132 155 184 213 236 249 253 253 253 254 
244 235 224 207 182 151 114 76 46 28 27 34 38 35 34 50 83 118 139 140 132 128 127 128 128 130 134 139 144 149 154 154 148 132 110 88 75 72 74 76 77 73 66 60 65 72 70 52 29 15 19 35 55 67 67 56 41 29 30 48 80 119 147 161 165 164 162 160 160 165 177 193 206 210 203 191 180 176 181 194 211 227 240 248 252 253 253 253 254 
252 251 248 240 222 196 162 121 82 52 41 43 45 42 42 55 85 119 142 145 139 134 130 126 122 121 123 128 134 142 147 147 140 124 101 76 56 45 41 42 45 46 48 50 59 69 73 62 43 27 28 46 71 87 86 68 46 34 42 72 111 143 160 162 159 154 152 153 159 170 188 208 226 237 238 234 229 227 230 236 243 248 251 252 253 253 254 254 254 
254 253 253 251 243 230 208 175 136 103 85 79 75 70 69 81 109 139 156 157 149 141 134 127 121 116 115 119 126 134 139 140 135 125 109 89 68 50 38 32 33 37 41 46 55 68 77 75 60 43 38 53 79 98 100 85 64 56 72 105 140 159 162 155 147 143 144 152 166 184 205 225 239 248 252 253 252 251 251 252 253 253 253 253 253 254 254 254 254 
254 253 253 253 251 248 239 219 193 166 148 137 128 120 119 131 154 174 181 174 160 148 140 132 126 120 116 117 121 127 132 134 134 132 125 114 98 80 63 50 43 40 41 43 50 64 79 84 75 57 47 56 77 96 104 97 86 86 107 136 159 163 154 143 136 137 146 162 183 204 223 238 246 251 253 253 254 254 254 254 253 253 253 253 254 254 254 254 254 
253 253 253 253 253 253 251 244 233 219 207 197 189 181 180 189 203 211 206 190 170 154 146 142 139 134 128 126 126 129 132 135 136 136 136 133 125 114 99 82 68 56 49 47 51 62 78 86 81 64 51 53 67 84 96 100 103 115 137 158 166 159 145 135 135 145 163 185 206 225 238 246 250 252 253 253 254 254 254 253 253 253 253 253 254 254 254 254 254 
254 253 253 253 253 254 253 252 250 246 242 237 232 229 229 233 237 236 225 203 180 162 155 155 156 153 147 142 139 140 141 142 142 141 139 140 139 136 129 116 100 83 70 61 60 67 80 87 83 67 54 50 57 70 86 101 118 138 157 167 165 154 144 141 149 166 189 211 228 240 247 250 252 252 253 253 253 254 254 253 253 253 253 253 254 254 254 254 254 
253 253 254 254 254 254 254 254 253 253 252 251 251 251 251 252 251 246 233 212 189 171 165 167 171 170 166 161 157 155 155 154 152 148 144 142 142 143 143 139 130 115 99 83 74 74 82 89 87 75 62 55 56 67 84 105 127 149 164 168 162 155 154 160 175 194 215 231 242 248 251 252 252 253 253 253 253 253 254 253 253 253 253 253 254 254 254 254 254 
253 253 254 254 254 254 254 254 253 253 253 253 253 253 253 253 252 247 235 216 194 177 171 173 178 180 179 175 171 168 166 165 162 157 151 146 144 145 148 150 148 140 127 109 91 81 81 87 91 86 75 65 63 70 87 109 134 153 163 164 162 164 172 187 204 221 234 243 249 251 252 252 253 253 253 253 253 254 254 254 254 254 254 254 254 254 254 254 254 
253 253 254 254 254 254 254 254 253 253 253 253 253 253 253 253 252 246 233 212 190 174 169 172 178 182 184 182 178 175 173 171 168 164 159 154 151 150 152 155 156 154 147 133 114 96 85 86 91 90 81 70 65 71 88 113 138 155 161 162 166 177 193 211 227 239 246 250 251 252 253 253 253 253 253 254 254 254 254 254 254 254 254 254 254 254 254 254 254 
253 253 254 254 254 254 254 254 253 253 253 253 253 253 253 253 251 244 227 203 178 163 159 163 171 178 182 182 180 178 176 175 173 170 166 163 161 160 160 161 162 161 158 151 138 120 104 96 95 93 85 74 69 75 92 117 140 154 159 164 175 192 211 228 241 248 251 252 253 253 253 253 253 253 254 254 254 254 254 253 254 254 254 254 254 254 254 254 254 
253 253 254 254 254 254 254 254 253 253 253 253 253 253 253 252 250 240 220 192 165 149 146 152 161 170 176 178 178 178 177 177 176 174 172 171 170 169 169 169 169 168 167 164 157 146 131 118 110 103 95 86 83 90 106 126 143 154 161 171 185 204 222 237 246 251 252 253 253 253 253 253 254 254 254 254 254 254 254 254 254 254 254 254 254 254 254 254 254 
253 253 253 253 253 254 254 254 253 253 253 253 253 253 253 252 248 236 214 184 157 140 136 140 149 159 167 171 171 172 173 175 177 178 178 178 177 176 176 177 177 177 176 175 172 166 155 143 132 123 115 109 108 114 126 139 148 155 163 175 191 209 226 240 248 251 252 253 253 253 253 254 254 254 254 254 254 254 254 254 254 254 254 254 254 254 254 254 254 
254 253 253 253 253 254 254 254 254 254 253 254 253 253 253 251 246 232 209 181 155 138 130 132 139 149 157 160 161 162 165 170 174 177 179 181 181 181 182 183 183 184 184 184 182 176 168 158 149 142 136 132 132 137 144 149 152 155 162 173 189 207 224 238 247 251 252 253 253 254 254 254 254 254 254 254 254 254 254 254 254 254 254 254 254 254 254 254 254 
254 253 253 253 253 253 253 253 253 253 253 253 253 253 253 251 244 229 207 182 158 141 130 129 134 141 147 149 150 152 157 163 169 173 177 181 183 185 185 184 183 184 186 189 188 182 172 161 154 149 146 143 144 147 152 155 154 154 158 167 181 199 218 234 245 251 252 253 253 254 254 254 254 254 254 254 254 254 254 254 254 254 254 254 254 254 254 254 254 
254 254 254 253 253 253 253 253 253 253 253 253 253 253 253 251 244 229 208 185 164 147 136 131 132 134 136 138 141 146 152 159 164 168 173 178 183 186 185 180 176 177 182 188 189 184 173 161 152 146 144 144 145 148 152 154 153 152 155 163 176 193 212 230 243 250 252 253 253 254 254 254 254 254 254 254 254 254 254 254 254 254 254 254 254 254 254 254 254 
254 254 254 254 253 253 253 253 253 253 253 253 253 253 253 251 244 230 211 190 171 156 145 137 131 128 127 130 137 145 152 156 159 163 168 174 180 181 177 170 165 167 175 181 183 180 172 161 150 144 143 144 146 148 149 150 150 151 156 165 176 191 210 229 243 250 252 253 253 254 254 254 253 253 253 253 253 253 253 254 254 254 254 254 254 254 254 254 254 
254 254 254 254 253 253 253 253 253 253 253 253 253 253 253 251 246 234 216 196 179 166 155 145 135 128 126 130 138 146 151 153 154 157 161 166 170 169 163 155 152 158 167 172 172 169 163 155 146 140 139 142 144 144 144 145 148 155 162 171 180 193 212 231 244 250 252 253 253 254 254 254 253 253 253 253 253 253 253 254 254 254 254 254 254 254 254 254 254 
254 254 254 254 254 253 253 253 253 253 253 253 253 253 253 252 248 238 222 203 187 174 165 155 145 138 135 137 142 146 148 147 147 148 151 154 155 150 143 139 142 150 159 162 159 155 152 147 141 136 134 136 140 142 143 147 154 163 171 178 186 200 218 235 246 251 252 253 253 254 254 254 253 253 253 253 253 253 253 254 254 254 254 254 254 254 254 254 254 
254 254 254 254 254 254 253 253 253 254 254 254 253 253 253 253 250 242 228 211 195 183 175 167 160 155 152 150 149 147 145 142 141 141 141 141 138 132 127 128 136 146 153 153 149 145 142 142 140 136 135 137 142 147 152 158 166 172 177 181 190 206 225 241 249 252 253 253 254 254 254 254 253 253 253 253 253 253 253 254 254 254 254 254 254 254 254 254 254 
254 254 254 254 254 254 254 254 254 254 254 254 254 253 253 253 252 246 234 218 203 191 183 178 174 171 168 163 158 152 146 143 141 141 139 135 130 125 124 129 138 148 154 153 148 143 142 144 145 144 145 148 154 160 166 172 175 174 171 174 188 209 231 244 251 253 253 254 254 254 254 254 253 253 253 253 253 253 253 254 254 254 254 254 254 254 254 254 254 
254 254 254 254 254 254 254 254 254 254 254 254 254 254 253 253 252 248 239 225 210 197 189 185 183 181 178 174 168 162 156 153 151 150 147 142 137 134 136 142 150 158 161 160 155 151 151 153 156 158 160 164 169 174 178 179 174 163 152 155 175 205 231 246 251 253 254 254 254 254 254 253 253 253 253 253 254 254 254 254 254 254 254 254 254 254 254 254 254 
254 254 254 254 254 254 254 254 254 254 254 254 254 254 253 253 253 250 243 231 216 202 193 189 188 187 185 183 179 175 171 168 167 165 162 159 155 155 157 162 166 169 171 169 165 162 161 164 167 170 173 177 181 184 183 176 161 142 127 132 159 196 228 245 251 253 254 254 254 254 254 253 253 253 253 253 254 254 254 254 254 254 254 254 254 254 254 254 254 
254 254 254 253 254 254 254 254 254 254 254 254 254 254 253 253 253 251 246 237 222 207 197 192 191 191 190 190 188 187 185 183 181 179 178 177 176 176 178 179 179 178 178 176 173 170 170 172 175 179 181 184 187 186 178 163 141 118 105 114 146 187 222 243 251 253 254 254 254 254 254 253 253 253 253 253 254 254 254 254 254 254 254 254 254 254 254 254 254 
254 254 253 253 254 254 254 254 254 254 254 254 254 254 253 253 253 252 249 242 229 213 201 194 193 194 194 194 194 193 192 191 190 189 189 190 190 191 191 190 188 185 183 182 181 178 178 179 182 184 186 186 185 177 162 140 116 98 93 107 139 181 217 240 250 253 254 254 254 254 254 253 253 253 253 253 253 253 253 253 253 253 254 254 254 254 254 254 254 
253 253 253 253 254 254 254 254 254 254 254 254 254 254 253 253 253 253 251 246 236 221 206 196 193 194 195 195 194 192 190 189 189 189 191 192 194 196 197 196 194 191 190 189 188 186 185 185 187 188 188 184 175 158 135 111 93 85 90 108 139 177 212 237 248 252 253 254 253 253 253 253 253 253 253 253 253 253 253 253 253 253 254 254 254 254 254 254 254 
253 253 253 253 254 254 254 254 254 254 254 254 254 254 253 253 253 253 252 249 242 229 213 199 193 192 193 192 188 184 179 175 173 173 175 177 181 184 188 191 193 193 194 194 194 192 189 188 189 190 188 178 157 130 104 87 80 84 95 114 142 177 210 234 247 252 253 253 253 253 253 253 253 253 253 253 253 253 253 253 253 253 254 254 254 254 254 254 254 
253 253 253 253 254 254 254 254 254 254 254 254 254 254 253 253 253 253 252 251 246 236 221 205 194 189 188 186 181 174 165 156 148 144 144 146 148 153 161 171 179 186 191 194 195 193 190 188 188 190 187 172 144 111 86 77 82 94 109 129 153 183 212 235 247 252 253 253 253 253 253 253 253 253 253 253 253 253 253 253 253 253 254 254 254 254 254 254 254 
253 253 253 254 254 254 254 254 254 254 254 254 254 254 253 253 253 253 253 252 249 242 229 212 198 189 185 181 175 167 155 141 128 119 114 111 111 114 125 142 159 174 184 189 191 190 187 186 187 189 188 175 148 117 96 92 101 117 134 152 172 197 220 238 248 252 253 253 253 253 253 253 253 253 253 253 254 254 253 253 253 253 253 253 253 254 254 254 254 
253 253 253 254 254 254 254 254 254 254 254 254 254 254 254 254 253 253 253 253 251 246 235 220 204 191 184 179 173 165 154 140 124 112 102 94 87 87 99 120 145 165 178 184 187 187 185 185 187 192 193 186 169 148 132 128 136 149 165 180 197 215 232 243 250 252 253 253 253 253 253 253 253 253 253 253 254 254 253 253 253 253 253 253 253 254 253 253 253 
253 253 253 254 253 253 253 253 253 254 254 254 254 254 254 254 254 254 253 253 252 248 239 225 208 193 183 177 172 166 158 147 135 124 112 100 90 87 96 118 144 165 177 183 186 186 185 186 190 196 200 200 194 185 177 173 176 186 198 209 221 232 242 248 251 253 253 253 253 253 253 253 253 253 253 253 254 254 253 253 253 253 253 253 253 253 253 253 253 
253 253 253 254 253 253 253 253 253 254 254 254 254 254 254 254 254 254 253 253 252 248 240 226 209 191 179 172 169 165 160 154 148 141 133 122 111 107 114 131 153 170 179 184 185 183 182 185 192 201 207 211 213 213 211 210 212 217 225 232 238 244 248 251 253 253 253 253 253 253 253 253 254 254 254 254 254 254 253 253 253 253 253 253 253 253 253 253 253 
253 253 254 254 253 253 253 253 253 254 254 254 254 254 254 254 254 254 253 253 252 249 241 227 208 188 173 165 162 160 156 155 155 155 152 146 138 133 136 146 160 170 177 180 178 175 175 181 193 206 214 219 224 228 231 233 235 238 242 245 247 250 251 253 253 254 253 253 253 253 253 254 254 254 254 254 254 254 254 253 253 253 253 253 253 253 253 253 253 
253 253 254 254 253 253 253 253 253 253 253 254 254 254 254 254 254 254 253 253 252 249 243 229 209 187 170 160 155 153 152 155 160 166 169 167 161 156 154 157 161 165 168 169 166 164 167 179 196 212 222 228 233 237 241 243 246 248 249 250 251 252 253 253 254 254 253 253 253 253 254 254 254 254 254 254 254 254 254 253 253 253 253 253 253 253 253 253 253 
253 253 253 254 253 253 253 253 253 253 253 254 254 254 254 254 254 254 253 253 252 250 245 233 214 193 174 161 154 153 155 162 171 180 186 187 183 177 170 166 163 160 158 157 155 156 165 183 203 220 230 236 241 244 247 249 250 251 252 252 252 253 253 254 254 254 253 253 253 254 254 254 254 254 254 254 254 254 254 253 253 253 253 253 253 253 253 253 253 
253 253 253 254 253 253 253 253 253 253 253 254 254 254 254 254 254 254 253 253 252 251 247 239 225 207 189 175 168 167 172 181 190 199 205 207 204 198 189 180 171 164 158 155 155 162 176 196 216 230 239 244 247 249 251 252 252 253 253 253 253 253 253 254 254 254 253 253 253 254 254 254 254 254 254 254 253 253 253 253 253 253 253 253 253 253 253 253 253 
253 253 253 254 253 253 253 253 253 253 253 254 254 254 254 254 254 254 253 253 253 252 250 245 236 224 211 200 194 194 199 206 214 220 225 226 224 219 210 200 190 180 173 170 173 182 198 215 230 240 245 249 251 252 253 253 253 253 253 253 253 253 253 254 254 254 254 253 253 254 254 254 254 254 254 254 253 253 253 254 253 253 253 253 253 253 254 254 254 
253 253 253 254 254 254 254 254 253 253 253 254 254 254 254 254 254 254 254 254 253 253 252 250 246 239 232 226 222 223 226 230 235 238 240 241 240 236 230 222 214 206 200 198 202 210 221 233 241 247 250 252 253 253 254 254 254 254 254 253 253 253 253 254 254 254 254 254 254 254 254 254 253 253 253 254 253 253 253 254 254 254 253 253 253 253 254 254 254 
253 254 254 254 254 254 254 254 254 254 254 254 254 254 254 254 254 254 254 254 254 254 253 253 251 249 246 244 243 243 244 246 247 249 250 250 249 247 244 240 235 230 227 226 229 234 239 244 248 250 252 253 253 254 254 254 254 253 253 253 253 254 254 254 254 254 254 254 254 254 254 253 253 253 253 253 254 254 253 254 254 254 254 253 253 253 254 254 254 
254 254 254 254 254 254 254 254 254 254 254 254 254 254 254 254 254 254 254 254 254 254 253 253 253 252 252 252 252 252 252 252 252 253 253 253 253 252 251 249 247 245 244 244 245 247 249 250 251 252 253 253 254 254 254 254 253 253 253 253 253 254 254 254 254 254 254 254 254 254 254 253 253 253 253 253 253 253 253 254 254 254 254 253 253 253 254 254 254 
254 254 254 254 254 254 254 254 254 254 254 254 254 254 254 254 254 254 254 254 254 253 253 253 253 253 253 253 253 253 253 253 253 254 254 254 253 253 253 253 252 251 251 251 252 252 252 253 253 253 253 253 253 254 254 254 253 253 253 253 254 254 254 254 254 254 254 254 254 254 254 253 253 253 253 253 253 253 253 254 254 254 254 253 253 253 253 254 253 
254 254 254 254 254 254 254 254 254 254 254 254 254 254 254 254 254 254 254 254 253 253 253 253 253 254 254 254 254 254 254 254 254 254 254 254 254 254 254 253 253 252 252 253 253 253 253 253 253 253 253 253 254 254 254 254 253 253 253 253 254 254 254 254 254 254 254 254 254 254 254 253 253 253 253 253 253 253 253 254 254 254 253 253 253 253 253 253 253 
254 254 254 254 254 254 254 254 254 254 254 254 254 254 254 254 254 254 254 254 253 253 253 253 254 254 254 254 254 254 254 254 254 254 254 254 254 254 254 253 253 253 253 253 253 253 253 254 254 254 254 254 254 254 254 254 253 253 253 253 254 254 254 254 254 254 254 254 254 254 254 253 253 253 253 253 253 253 254 254 254 254 253 253 253 253 253 253 253 
254 254 254 254 254 254 254 254 254 254 254 254 254 254 254 254 254 254 254 254 254 254 254 254 254 254 254 254 254 254 254 254 254 254 254 254 254 254 254 253 253 253 253 253 253 254 254 254 254 254 254 254 254 254 254 254 253 253 253 254 254 254 254 254 254 254 254 254 254 254 254 254 254 254 254 253 253 253 254 254 254 254 253 253 253 253 253 253 253 
