P2
89 89
255
224 220 219 222 230 236 240 240 240 239 239 239 240 241 241 240 239 240 241 241 236 232 231 234 236 230 220 218 224 228 227 226 230 237 238 230 222 221 226 233 237 237 237 236 233 225 214 207 211 220 229 233 231 227 223 222 225 230 231 230 228 225 222 222 224 225 226 226 224 224 227 232 236 238 234 228 224 225 230 226 217 212 215 221 221 212 202 192 184 
226 222 218 219 224 232 237 239 239 239 239 240 241 240 238 235 234 236 238 239 234 230 230 234 237 233 223 219 223 228 230 227 227 232 234 228 220 218 221 228 231 232 232 232 231 226 220 216 219 224 229 233 231 227 223 223 226 232 233 233 227 219 213 211 212 215 216 215 213 214 219 226 234 237 232 227 226 229 234 231 221 213 214 220 224 217 208 202 202 
231 226 220 217 220 226 233 237 238 239 239 240 240 237 232 228 227 231 235 237 233 229 229 234 238 236 226 219 221 228 232 230 227 227 228 223 217 215 219 225 228 228 229 230 230 228 226 224 225 227 229 232 230 226 222 222 226 232 234 234 229 221 215 213 214 216 217 216 215 215 220 227 233 234 229 227 228 233 237 235 227 218 215 217 220 215 210 211 219 
235 231 224 218 216 220 228 235 238 240 240 238 236 232 227 223 223 227 232 234 231 228 229 234 239 238 229 221 220 226 233 235 230 227 223 217 213 213 218 224 227 227 229 231 231 231 229 228 228 228 228 228 226 222 219 219 223 228 230 231 230 227 225 224 225 226 227 227 226 226 229 232 234 230 227 227 232 237 239 237 232 225 219 214 210 206 206 214 227 
237 235 229 221 215 217 224 233 238 240 238 234 231 228 225 223 223 225 230 231 229 228 230 235 240 240 232 223 220 225 233 238 235 231 224 214 209 211 218 225 228 228 231 234 235 233 231 229 229 228 226 225 222 218 216 217 220 223 224 226 229 231 233 235 235 236 237 237 236 235 236 235 231 225 224 227 233 236 237 237 236 232 225 213 201 194 200 212 225 
238 237 232 224 216 215 222 231 235 234 231 229 227 226 225 225 225 225 228 228 227 226 229 234 238 238 230 221 216 222 232 239 239 237 229 217 208 208 216 225 229 229 232 235 236 234 231 228 227 227 226 224 220 217 215 216 219 221 221 222 225 229 233 236 237 238 239 239 238 236 234 230 224 220 220 224 229 232 235 237 238 235 228 212 195 189 197 212 223 
238 237 234 227 219 217 223 229 230 227 224 224 226 226 226 226 226 226 227 226 224 223 226 229 232 231 223 213 209 214 225 234 236 237 231 219 207 205 213 224 230 230 232 234 233 231 227 224 223 223 224 224 221 218 217 218 222 223 222 222 223 226 230 234 236 237 238 238 238 235 231 224 218 214 216 219 223 228 233 236 236 232 224 209 194 191 201 216 226 
239 239 236 230 223 220 224 228 226 221 220 223 226 226 226 226 226 226 227 225 222 220 220 222 225 225 219 209 204 208 219 228 231 232 228 217 206 202 209 220 226 227 227 227 225 223 221 220 220 219 221 222 221 219 219 221 225 226 225 225 225 226 230 233 235 236 237 237 237 235 229 221 214 211 213 216 219 225 231 233 232 226 219 207 198 197 208 222 232 
240 239 237 232 227 225 227 228 226 221 221 223 226 226 226 226 226 226 227 225 221 217 216 219 223 225 222 213 207 208 216 224 227 226 221 214 207 205 208 215 220 221 221 220 218 216 216 216 216 215 216 216 216 216 219 223 227 228 227 227 226 228 230 233 235 235 235 236 237 235 229 221 215 213 215 218 220 224 227 228 226 223 219 210 203 204 216 230 239 
240 237 235 231 228 227 228 228 227 224 224 225 226 226 226 226 227 226 226 223 220 217 217 221 227 231 230 223 216 213 219 226 228 224 218 215 213 213 212 213 213 214 216 217 216 214 214 215 215 215 214 212 211 212 216 221 226 227 227 226 226 228 231 234 235 235 235 235 237 236 230 224 220 219 222 222 222 223 224 225 224 225 223 215 208 210 221 234 241 
239 236 233 230 228 227 227 227 227 227 227 227 227 227 226 227 226 225 223 221 219 220 224 229 233 237 238 232 224 219 223 230 232 225 221 221 223 225 222 216 212 212 215 218 219 218 217 216 217 217 217 214 211 210 214 219 224 225 226 226 226 227 230 233 234 235 235 236 238 236 232 227 224 225 226 225 223 223 224 226 227 230 226 217 210 212 223 236 241 
237 234 231 228 226 224 223 223 223 223 224 225 225 226 226 226 225 223 221 220 222 226 232 235 237 239 240 234 226 221 224 232 235 230 227 228 232 234 231 225 219 215 216 220 224 224 223 221 221 222 222 219 216 214 216 220 222 222 223 223 223 224 225 227 229 231 232 233 234 232 228 225 223 224 225 225 226 227 229 232 234 235 229 217 209 212 224 236 241 
231 229 226 223 222 220 219 218 218 218 219 220 222 224 225 224 222 220 221 224 228 234 237 238 238 238 238 232 222 216 219 228 233 230 228 231 235 237 236 234 229 222 219 220 224 227 228 227 226 226 226 224 221 220 222 224 224 221 219 219 219 221 221 222 223 226 228 229 229 227 222 219 216 216 217 219 224 228 231 234 235 236 229 217 209 212 224 236 241 
226 223 220 216 215 215 214 213 212 213 213 214 216 219 221 220 219 221 224 230 235 238 239 240 239 238 237 231 219 211 215 225 230 228 226 230 234 237 237 237 235 229 222 219 222 227 231 232 231 229 230 228 225 224 227 230 229 222 218 217 219 222 222 220 220 223 225 227 226 222 218 213 210 210 212 216 221 225 227 228 228 228 224 214 206 209 222 234 240 
224 219 214 212 212 213 212 211 210 210 210 210 211 213 214 216 219 224 231 236 238 239 240 240 239 238 237 231 219 211 213 223 227 225 223 228 234 237 237 238 238 235 229 222 221 224 230 232 232 231 231 229 226 225 229 232 232 226 221 220 223 227 226 223 222 224 228 230 227 223 218 214 213 214 216 218 220 221 221 221 221 220 215 205 199 202 213 225 231 
222 218 215 215 216 216 214 214 214 215 213 212 209 208 208 212 220 229 235 238 239 239 239 239 238 238 237 233 223 214 214 221 224 223 222 227 234 237 238 239 239 237 234 229 224 223 226 229 231 233 233 230 227 226 229 233 233 228 224 223 226 231 230 226 226 229 233 235 232 227 222 220 222 225 226 225 225 223 222 222 220 217 209 198 193 196 206 216 221 
222 222 222 226 226 224 221 221 221 220 216 211 207 203 202 208 216 226 231 232 232 233 234 234 234 234 234 232 225 217 215 217 220 220 220 225 232 236 238 239 239 238 237 234 228 223 221 223 228 234 235 231 227 227 230 234 234 230 226 224 225 228 226 223 224 229 234 236 234 230 227 227 230 235 235 233 232 230 229 229 228 223 212 199 192 195 205 213 216 
224 227 230 234 233 229 225 223 222 220 215 210 205 201 200 203 210 218 222 222 220 220 221 223 224 226 227 228 226 220 216 215 216 218 220 224 231 235 237 239 239 238 237 235 231 224 218 218 224 232 234 231 227 228 232 238 238 233 228 223 222 222 220 218 220 225 228 229 225 221 218 220 226 232 235 236 236 236 237 237 238 234 222 207 199 202 212 219 220 
227 231 234 237 234 229 223 220 217 216 212 208 205 201 199 199 203 209 213 212 208 207 208 211 212 213 216 218 220 217 213 211 213 216 220 224 230 234 235 236 237 237 237 235 229 224 219 217 219 223 224 224 224 227 233 240 240 236 230 225 223 220 217 215 217 221 225 223 218 212 209 210 216 223 228 230 231 232 234 236 238 236 225 212 206 211 222 229 230 
231 233 235 234 229 221 213 209 209 209 209 209 208 205 203 203 205 210 212 210 205 202 203 203 201 201 205 211 216 214 209 207 208 213 220 227 232 234 233 233 234 235 235 232 226 223 223 221 215 209 207 210 215 221 228 233 233 230 227 223 222 219 215 212 214 219 222 221 215 209 204 206 211 218 223 226 227 228 230 231 233 230 219 208 206 214 226 233 234 
230 230 228 224 216 207 202 200 202 206 209 210 209 209 209 209 211 215 217 215 211 209 208 205 200 197 200 207 212 210 204 201 201 208 218 227 233 235 233 232 233 234 234 229 224 224 227 224 211 197 190 195 206 214 220 225 224 223 222 220 220 217 213 211 212 217 223 225 221 215 210 212 217 222 225 227 227 227 228 229 229 225 213 203 202 210 222 228 229 
219 217 213 206 197 193 192 197 204 210 213 213 213 214 214 215 217 220 221 220 217 216 215 212 206 203 205 210 214 211 204 199 196 200 210 223 232 236 235 234 233 233 232 227 223 225 229 227 213 196 186 190 201 211 218 221 220 219 219 219 219 217 213 211 213 218 225 229 228 224 221 223 228 231 231 231 230 230 231 232 231 224 211 201 200 208 217 222 222 
211 207 200 192 186 185 191 201 211 216 218 217 217 219 220 219 220 221 222 222 220 220 219 217 213 210 210 213 215 214 209 202 196 196 201 212 225 234 236 236 234 233 231 226 223 225 230 229 219 206 197 197 206 215 223 225 224 223 223 223 223 220 216 214 215 221 228 233 233 230 229 232 237 239 238 237 236 236 236 237 235 227 213 202 201 208 216 220 219 
207 202 195 190 188 192 199 210 219 223 224 223 225 227 226 225 225 225 225 223 221 221 220 219 218 216 217 218 219 219 215 209 201 196 196 204 215 226 233 235 234 234 230 226 223 226 231 233 228 221 213 210 214 223 230 232 231 230 229 230 230 226 220 216 217 221 227 230 229 226 225 227 233 235 235 235 235 236 237 239 237 229 215 205 205 213 220 224 224 
211 208 203 199 199 203 210 219 225 228 228 228 231 233 232 231 230 229 228 226 224 224 222 221 220 219 219 219 219 220 218 212 204 197 195 198 206 215 224 231 233 234 230 226 223 227 231 235 233 229 223 220 222 229 235 236 235 234 234 234 234 229 222 216 215 218 222 225 225 223 221 222 226 227 229 229 230 228 228 231 233 227 214 206 208 219 228 233 233 
220 217 212 209 210 212 216 220 224 227 229 232 236 238 237 237 236 235 233 231 230 229 227 224 223 221 221 221 222 221 218 212 204 198 196 198 200 205 212 220 226 231 229 225 223 225 230 234 235 231 226 223 226 231 236 235 234 234 234 235 234 228 220 214 212 213 215 217 218 217 215 216 218 218 221 222 221 216 215 220 227 224 214 207 212 225 235 238 238 
227 222 216 213 214 214 214 215 217 221 224 228 233 236 236 238 239 239 239 238 237 236 234 231 229 227 226 225 225 224 219 212 205 201 199 198 197 198 202 209 217 224 226 224 221 222 227 232 234 230 226 224 228 233 236 233 232 231 231 233 231 226 219 216 214 214 214 213 212 211 211 211 213 212 215 216 214 207 205 212 223 222 214 209 216 229 238 240 239 
223 218 214 213 214 212 211 210 211 213 216 221 227 230 231 232 234 235 236 236 237 237 236 236 234 231 228 226 225 223 216 209 206 206 205 200 194 192 193 197 203 211 216 219 220 220 223 230 233 230 226 225 230 235 236 232 229 228 227 228 225 219 214 213 214 215 214 211 209 208 210 212 214 213 216 217 215 208 206 212 222 221 214 211 219 231 239 239 239 
220 217 215 215 215 213 212 209 209 209 211 217 223 225 226 227 228 229 230 231 231 232 232 233 231 226 220 215 214 213 209 205 205 209 212 207 198 191 189 189 193 199 207 215 219 219 220 225 229 227 224 225 231 237 237 232 229 225 221 219 213 206 200 200 205 211 212 210 207 207 209 213 216 217 220 222 221 218 218 221 226 220 213 212 222 233 239 239 239 
218 216 216 216 215 215 214 211 209 210 214 221 225 225 225 224 224 225 225 225 225 225 226 226 223 215 206 199 198 199 198 196 199 207 216 216 208 197 190 188 189 194 203 213 221 219 218 219 221 221 222 226 233 237 236 231 227 221 213 206 199 192 186 185 190 199 206 209 209 209 211 213 215 215 216 218 220 221 224 225 224 215 209 211 222 233 239 240 241 
224 222 220 219 217 217 214 211 211 215 224 231 232 228 225 225 226 228 228 227 226 225 223 218 210 200 191 185 184 186 187 188 193 203 215 221 217 208 200 194 192 196 206 215 220 218 214 213 213 216 221 227 233 234 229 222 216 209 201 195 191 188 184 180 182 192 204 212 215 215 216 216 215 212 210 212 216 220 223 223 218 207 202 206 218 229 235 236 237 
231 228 225 222 220 218 213 210 213 223 234 240 238 231 225 225 230 234 236 235 233 232 228 219 208 197 189 186 185 186 186 186 192 203 214 220 219 215 209 203 199 201 207 214 216 214 211 209 210 213 219 225 225 221 213 206 202 198 196 195 197 199 198 191 185 188 200 213 220 220 218 213 206 201 198 199 204 209 213 214 210 202 198 204 215 225 230 231 233 
236 233 228 224 219 215 212 213 218 229 239 243 238 228 221 223 231 240 243 243 242 241 236 227 216 207 203 202 202 200 195 193 198 208 217 220 216 212 209 206 204 201 203 207 210 212 211 209 208 209 212 214 210 204 198 194 194 196 200 205 211 217 217 207 194 188 196 211 223 224 218 208 199 193 192 194 199 203 208 211 208 203 200 206 217 225 228 229 231 
235 232 227 220 214 212 214 218 224 233 240 243 237 225 217 219 229 240 244 244 244 244 242 237 230 225 223 222 221 218 211 205 206 215 225 224 212 201 197 200 202 200 196 198 202 207 208 205 201 200 200 202 199 196 195 197 202 209 215 222 227 231 230 219 201 188 190 206 223 227 219 207 199 196 197 200 203 205 211 216 213 208 206 213 223 230 231 232 233 
231 228 221 214 211 214 219 225 229 236 242 243 236 225 217 219 229 240 244 244 244 244 243 241 239 237 236 235 234 233 225 217 215 222 232 231 214 196 190 197 205 204 197 194 195 198 199 195 190 190 192 197 201 204 207 212 219 225 230 233 235 235 233 224 206 190 188 201 219 225 221 211 206 206 209 213 215 218 221 224 220 213 212 220 231 237 237 238 238 
225 221 214 210 214 220 226 228 231 237 242 243 236 225 217 220 230 240 244 244 243 243 243 242 241 241 240 240 240 239 231 222 219 225 235 235 220 204 197 202 211 211 204 196 189 186 184 183 184 189 196 206 214 220 225 228 231 234 236 236 235 233 230 224 210 193 185 194 211 223 225 222 219 220 222 225 227 229 230 228 220 213 213 223 234 240 241 242 242 
219 214 210 214 223 229 230 228 231 237 243 243 236 225 218 220 231 241 244 243 243 242 241 239 237 235 234 236 240 239 231 222 220 227 236 237 227 217 211 213 218 219 212 200 185 175 172 179 188 199 208 218 227 233 235 236 236 235 234 232 230 227 224 220 210 192 179 179 194 211 219 221 222 224 228 233 237 239 238 231 218 209 212 223 234 239 239 240 240 
212 209 211 221 233 237 232 228 229 236 243 243 236 225 218 221 231 241 244 243 242 240 237 233 229 226 228 233 239 239 229 220 220 228 236 236 230 224 219 219 222 223 219 206 186 171 169 181 198 211 218 225 231 236 237 237 236 234 231 228 224 219 214 209 199 184 167 162 173 192 206 211 211 214 218 224 228 230 229 221 210 207 214 226 235 238 238 238 238 
205 207 215 228 239 241 233 227 228 234 242 243 236 225 218 222 232 241 243 241 239 235 230 224 220 219 223 231 239 237 227 218 219 226 232 230 224 219 217 217 220 222 221 212 193 176 172 184 202 214 219 224 229 234 236 236 235 232 227 220 213 207 200 193 186 177 164 155 159 176 194 203 205 207 209 213 217 219 216 209 204 206 216 227 233 235 235 236 236 
203 210 221 233 241 242 234 228 227 233 241 243 235 224 217 220 230 238 239 235 231 225 219 214 212 214 220 229 234 230 221 215 216 221 223 219 213 210 209 211 216 221 223 218 203 185 174 180 193 205 211 218 225 231 233 231 228 222 214 207 200 193 186 182 182 183 177 166 162 171 187 201 206 208 209 210 210 212 208 203 202 209 219 227 229 230 231 232 231 
209 216 225 235 242 243 236 229 227 231 238 239 231 220 213 215 223 229 229 224 219 213 209 206 207 211 217 222 224 220 213 211 213 216 215 210 206 205 207 211 217 222 225 224 213 194 179 174 181 192 202 211 219 222 221 217 211 204 197 193 190 186 182 183 190 198 197 188 179 178 186 198 207 213 215 215 215 215 212 208 208 215 222 227 226 227 228 228 227 
222 224 229 236 242 243 237 229 224 226 231 231 222 213 208 209 215 219 219 215 211 208 206 206 207 210 213 215 214 209 205 206 210 213 212 209 207 208 211 216 222 225 227 227 220 205 188 175 173 181 192 202 208 206 202 198 193 189 187 187 188 186 186 192 202 212 214 209 200 193 191 194 202 211 218 221 223 224 220 217 217 222 227 230 228 228 228 228 226 
232 229 231 236 242 243 237 227 220 218 219 219 213 208 206 206 209 211 211 210 211 212 213 214 214 214 214 213 210 205 204 206 211 214 214 212 212 214 218 224 229 231 230 229 226 217 202 185 174 176 183 191 192 189 186 187 187 190 190 190 188 186 185 191 201 212 217 218 214 206 197 191 191 198 209 218 225 229 227 224 224 228 233 236 234 233 233 232 229 
233 230 232 237 243 242 235 224 214 210 210 210 209 207 207 208 209 210 212 214 219 223 225 225 225 223 221 220 215 210 208 211 216 218 218 217 216 218 222 228 232 233 232 230 229 225 215 198 183 178 180 182 182 182 185 193 200 205 204 197 187 178 174 179 189 202 212 217 218 216 209 199 191 189 195 204 214 220 221 221 225 232 238 240 239 239 238 237 234 
231 230 233 239 242 239 230 219 209 206 208 212 214 214 214 215 216 218 220 224 228 233 236 236 236 234 234 231 225 219 217 219 224 225 223 221 220 220 222 224 227 229 228 227 226 225 220 210 198 190 185 183 183 188 198 210 218 220 214 201 186 174 168 172 182 197 207 213 215 217 216 210 200 192 189 192 200 206 209 213 219 229 236 239 240 240 241 240 238 
233 234 236 238 236 230 222 214 209 211 217 222 224 224 224 224 227 229 231 233 235 236 238 239 239 239 239 236 229 222 221 225 229 230 228 226 223 221 219 218 219 221 220 218 215 214 213 211 206 199 193 189 192 201 213 222 224 220 212 201 190 181 176 178 186 196 204 207 208 211 213 212 206 197 190 186 186 189 192 197 205 217 227 234 238 240 240 239 238 
237 238 238 234 227 219 213 212 215 222 229 233 234 233 233 234 236 238 239 238 235 233 232 233 234 234 235 231 225 221 221 225 229 229 229 227 224 219 215 213 215 216 213 207 202 201 203 206 206 203 198 195 199 208 219 223 220 213 209 206 203 200 196 195 195 197 199 200 201 202 204 205 204 201 196 188 183 179 179 183 189 198 210 222 232 237 239 239 240 
236 237 234 226 217 210 210 216 225 233 238 239 239 239 240 241 242 243 243 240 233 227 224 225 226 227 228 224 219 214 215 218 220 219 220 220 218 212 208 207 210 211 206 199 194 194 200 205 207 205 201 199 202 209 216 218 216 212 210 210 210 210 207 203 198 195 195 197 199 198 197 197 198 200 199 195 189 183 181 182 184 186 193 204 218 226 230 232 234 
226 228 225 218 210 208 215 225 234 240 242 241 240 240 242 244 244 243 240 235 227 220 217 219 220 220 220 216 211 208 208 210 211 209 211 212 210 206 203 204 208 208 203 196 192 195 202 209 212 211 208 205 205 208 211 214 214 214 211 209 209 210 209 205 199 196 197 201 204 203 200 197 197 199 201 201 199 195 193 194 194 190 188 190 199 207 213 218 222 
214 217 215 211 209 214 224 234 240 243 242 240 239 239 241 243 243 242 238 232 224 217 213 213 213 213 212 210 207 205 206 208 209 208 210 212 212 208 206 207 211 209 205 199 197 199 206 212 216 218 215 212 210 207 207 209 211 211 208 206 207 212 214 211 208 206 207 209 211 210 206 202 199 200 201 202 203 202 204 209 212 208 198 189 187 191 198 205 211 
206 208 209 210 214 224 234 240 242 243 242 240 238 239 241 243 243 241 236 229 221 214 210 209 209 208 208 206 207 209 213 217 218 218 220 222 222 220 219 220 221 218 212 206 204 207 211 216 219 220 219 215 210 206 204 204 205 205 205 208 214 222 225 225 223 221 219 218 217 215 212 208 204 202 203 204 204 204 208 217 225 224 213 198 190 190 195 201 206 
202 204 207 213 222 233 240 242 242 241 240 239 238 239 241 242 241 237 231 224 217 212 209 210 211 211 210 209 211 217 224 229 231 231 232 234 234 233 232 233 233 230 223 217 213 214 216 218 219 218 216 212 208 205 205 205 204 203 206 214 223 232 235 235 233 230 227 223 218 216 213 209 205 203 203 206 205 203 206 217 229 232 222 209 202 203 207 210 211 
199 200 205 216 229 239 242 241 239 237 236 236 236 238 239 238 234 227 220 215 213 213 214 218 221 221 220 217 220 227 235 240 241 241 241 241 241 240 240 240 240 239 234 226 221 220 222 224 224 220 216 212 209 209 211 212 211 209 212 222 232 240 241 240 238 235 231 226 220 217 214 211 208 207 209 214 213 208 207 214 226 232 223 212 210 216 222 224 222 
198 198 203 215 229 239 241 238 233 230 229 230 232 234 233 230 223 215 209 208 212 219 226 231 235 235 232 228 228 232 238 241 243 243 243 242 241 241 240 239 239 238 236 231 226 225 227 231 230 225 220 217 216 216 218 221 222 219 218 224 233 239 240 239 237 236 234 230 223 217 214 211 210 210 214 221 224 218 210 210 220 226 219 210 210 220 230 233 230 
199 199 203 212 223 231 233 230 225 220 220 222 224 225 223 218 211 203 202 206 217 228 235 238 239 238 234 230 228 229 233 237 240 242 242 241 241 240 239 238 237 235 234 233 230 227 227 229 230 227 225 225 224 222 222 226 229 226 221 222 229 237 239 238 237 238 238 235 227 221 216 214 214 215 219 227 231 225 214 207 211 217 214 208 209 220 231 237 237 
201 203 207 211 217 221 222 219 215 212 212 213 214 214 211 207 204 202 204 212 223 231 235 233 232 231 229 227 224 223 225 231 237 240 241 240 239 239 238 235 230 226 227 231 233 230 226 224 223 225 227 231 229 225 222 225 229 230 225 222 224 232 236 237 236 237 237 234 227 220 216 215 215 217 221 229 234 230 218 208 206 209 207 205 208 219 230 237 238 
202 207 213 217 217 215 213 210 208 206 207 207 206 205 203 204 207 210 213 218 225 229 229 227 225 223 221 219 217 215 217 224 232 238 240 238 238 237 236 229 219 211 213 222 230 230 224 221 222 226 230 233 231 226 221 222 228 231 229 224 222 225 231 234 235 235 235 231 225 220 217 216 216 218 222 229 233 231 223 215 209 206 201 200 204 213 222 228 227 
202 210 219 225 225 219 214 211 209 208 208 208 207 204 204 208 217 223 225 224 225 225 224 222 220 218 216 216 215 215 216 221 229 236 239 238 237 236 233 223 207 196 198 211 224 227 224 223 226 230 232 234 233 229 223 221 225 231 232 228 225 223 224 228 231 233 231 228 224 221 219 219 219 220 223 229 232 231 227 223 217 210 199 196 198 206 212 216 216 
203 212 223 231 233 230 225 221 218 216 215 216 216 214 213 216 225 232 232 228 224 223 222 220 217 214 211 212 215 219 220 222 226 232 237 237 236 234 231 220 203 191 192 205 219 225 225 228 231 233 234 234 234 231 225 221 223 228 233 233 230 226 223 222 224 227 228 227 226 226 226 226 226 226 227 231 231 230 229 230 226 217 203 196 197 203 209 212 213 
204 214 226 235 239 238 236 233 231 229 228 229 229 227 223 222 227 232 232 228 226 224 224 223 219 214 209 210 216 225 228 226 223 225 229 231 229 228 225 217 204 194 196 207 217 222 224 226 228 228 229 230 232 232 227 222 222 226 232 235 234 230 223 219 219 221 223 223 225 227 230 231 232 233 234 235 233 230 229 232 231 221 206 199 202 209 215 219 221 
205 215 227 237 241 241 240 238 235 233 232 232 233 231 226 221 220 222 225 227 228 226 224 221 214 207 202 203 211 221 228 227 221 218 220 222 222 220 219 215 208 203 205 214 221 223 222 221 222 221 222 226 230 233 230 224 222 224 230 233 233 229 224 220 217 218 218 219 221 225 229 231 233 235 236 236 232 228 229 232 231 221 208 204 210 220 228 232 234 
204 215 228 237 242 242 240 236 233 232 231 230 230 228 224 215 208 208 216 225 229 227 221 214 207 202 199 201 206 215 221 223 217 211 209 211 212 212 210 209 206 204 208 215 219 219 215 213 212 212 215 222 229 234 233 227 223 222 225 228 227 224 223 222 220 218 215 214 216 220 224 228 230 232 234 233 228 225 225 228 226 215 205 205 215 228 237 241 242 
203 215 228 237 241 239 236 231 228 226 225 223 222 222 219 209 199 198 209 223 231 228 221 212 205 202 202 203 206 211 216 220 217 210 205 205 207 207 204 204 204 205 208 213 216 216 213 210 208 209 213 221 229 234 234 229 223 219 219 221 221 219 219 222 222 220 216 213 214 218 223 228 230 230 231 229 224 221 223 223 218 206 199 202 214 227 235 238 238 
202 213 226 236 239 235 229 226 224 225 223 221 219 221 218 209 198 196 206 221 228 226 220 213 209 209 212 213 214 216 220 222 220 214 210 208 207 205 204 205 207 209 211 214 217 218 216 213 211 212 217 224 231 234 234 229 222 217 217 219 218 216 215 218 221 221 219 216 216 222 228 233 235 235 235 230 225 221 222 220 212 198 192 197 210 222 230 232 232 
202 211 224 234 236 230 223 221 223 227 227 224 222 224 221 213 204 200 205 214 219 218 216 215 215 217 219 219 220 223 226 228 226 224 221 219 214 210 209 213 217 219 219 222 225 226 225 222 220 221 224 229 232 233 231 226 221 218 220 221 220 214 211 213 218 220 220 218 219 225 232 238 241 240 240 234 228 225 226 224 214 199 192 195 204 214 222 226 228 
204 210 220 231 234 228 219 217 222 230 234 233 231 230 225 217 209 204 204 208 210 211 212 214 217 220 221 220 221 225 230 233 233 232 231 227 220 216 217 223 226 227 227 229 231 232 232 231 229 229 230 232 232 231 227 224 222 222 223 223 219 213 208 210 217 220 221 218 218 223 232 239 244 244 243 237 231 228 231 230 222 208 199 197 202 207 213 219 222 
209 209 216 226 232 228 219 214 219 230 237 238 237 234 227 218 209 205 204 205 205 205 206 207 210 212 213 212 213 218 226 231 233 234 234 230 225 224 227 232 234 234 233 233 234 235 236 237 236 236 236 235 231 226 224 224 226 225 222 219 215 210 208 210 217 221 223 219 218 221 229 237 242 244 242 236 231 230 234 236 231 220 212 207 206 205 208 212 216 
215 211 212 220 229 230 222 215 217 227 237 242 242 238 229 217 208 203 203 203 203 203 203 204 205 206 206 205 207 213 220 224 226 227 227 224 222 224 230 235 235 233 231 231 231 231 232 234 236 236 236 232 226 222 223 228 229 225 219 213 210 208 208 212 219 223 224 221 218 220 226 235 241 245 241 235 230 230 234 237 234 229 223 219 215 211 208 209 210 
222 214 209 213 223 228 224 216 214 221 233 240 242 239 231 220 209 204 203 203 203 203 203 203 204 204 204 204 206 211 215 216 215 216 217 216 216 221 227 231 229 226 224 225 226 227 227 230 234 235 233 227 222 221 227 232 231 225 217 210 207 205 207 212 220 225 225 222 218 218 223 231 237 242 238 233 230 231 236 238 236 233 232 229 226 220 215 211 209 
228 217 208 206 215 224 225 217 212 216 226 236 241 241 235 225 214 206 204 203 204 204 204 203 203 203 203 204 208 211 211 209 207 208 209 209 211 215 220 222 218 212 211 216 222 223 222 224 229 230 226 221 220 224 230 233 231 226 219 213 209 207 208 213 220 226 226 223 218 216 220 227 232 235 231 227 225 227 232 234 232 232 234 234 234 230 226 222 218 
231 220 208 201 206 216 222 218 211 211 219 231 239 241 238 231 220 210 205 203 203 204 204 204 203 203 203 205 208 210 209 206 203 204 204 205 207 209 213 213 207 200 200 208 217 220 220 221 223 222 219 218 222 228 233 234 231 227 224 220 217 212 210 213 220 226 227 223 218 215 217 223 227 228 224 220 219 222 226 227 225 226 230 234 237 236 235 233 230 
230 221 209 200 199 207 216 217 211 208 213 224 235 240 240 235 225 215 207 204 203 204 204 204 204 203 203 205 208 209 208 205 203 203 203 204 204 205 208 207 202 196 197 203 213 217 217 217 218 217 217 220 226 232 235 234 231 228 227 225 223 219 215 215 219 224 227 224 220 216 217 221 225 226 222 217 216 219 222 222 219 221 226 232 236 237 238 238 236 
224 219 210 201 196 199 208 213 211 208 209 218 229 237 239 235 226 216 207 204 203 204 204 204 204 203 203 205 207 208 206 204 203 203 203 203 204 204 205 205 202 199 200 204 209 212 213 213 215 218 223 228 232 235 237 236 232 229 228 227 227 224 221 218 218 221 224 223 221 217 217 220 226 228 226 220 219 221 223 221 217 219 225 231 234 236 237 238 238 
215 214 210 203 197 196 202 208 210 208 206 212 221 230 234 229 221 213 207 204 203 204 204 204 204 203 204 204 205 205 205 204 203 204 204 203 203 203 204 204 204 204 205 205 207 208 208 210 215 223 231 235 237 238 239 239 236 233 230 229 228 227 225 222 219 218 220 220 219 217 217 220 227 231 230 227 225 226 224 217 213 216 224 230 233 234 236 237 238 
208 208 207 204 200 197 200 204 208 207 205 207 214 221 223 220 213 208 205 204 203 204 204 204 204 203 204 204 204 204 204 204 203 204 204 204 204 203 203 203 204 204 205 205 205 205 205 207 214 224 231 234 235 235 235 235 234 231 228 225 225 226 227 225 222 218 216 215 215 214 214 216 222 227 228 227 228 227 222 213 209 215 225 232 234 235 236 236 235 
208 207 206 205 203 201 201 203 205 205 204 205 208 211 212 210 206 204 204 203 203 204 204 204 204 204 203 203 203 203 203 203 204 204 204 204 204 204 203 203 203 204 204 204 204 204 204 205 211 218 223 223 222 222 222 224 225 223 220 218 219 223 227 227 225 221 216 212 210 210 211 212 217 221 223 223 224 223 216 206 204 212 223 230 234 236 236 235 233 
216 212 208 205 204 204 203 202 203 203 203 204 204 205 205 204 204 203 203 203 204 204 204 204 204 204 204 204 204 204 204 204 204 204 204 204 204 204 204 204 204 203 203 204 204 204 205 205 208 210 211 209 207 207 210 214 217 217 214 213 216 222 226 228 227 224 218 213 208 207 207 210 214 217 219 220 223 222 217 209 208 214 222 228 230 232 233 231 228 
228 221 213 207 205 204 203 203 202 202 202 203 203 203 203 203 203 203 204 204 204 204 204 204 204 204 204 204 204 204 204 204 204 204 204 204 204 204 204 204 204 204 203 203 203 204 204 204 205 205 202 199 197 198 204 211 217 219 218 216 219 224 227 228 228 226 223 217 211 207 207 210 214 217 218 221 224 225 223 218 218 221 225 226 227 229 230 228 225 
233 229 221 213 207 204 203 203 203 202 202 203 203 203 203 203 203 204 204 204 204 204 204 204 204 204 203 203 204 204 204 204 204 204 204 204 204 203 203 203 204 204 204 204 203 203 203 204 204 203 201 198 197 199 205 213 221 226 227 227 228 230 230 229 228 228 226 222 217 212 210 211 215 216 219 222 227 231 231 228 227 228 229 229 227 228 229 228 227 
230 232 228 221 212 206 204 203 203 203 202 202 203 203 203 203 203 204 204 204 204 204 204 204 204 204 203 203 203 203 202 203 203 203 203 203 204 204 204 204 204 204 204 204 204 204 203 203 203 203 203 202 202 203 207 214 221 229 234 236 237 236 234 231 229 228 227 226 223 218 215 213 213 213 215 221 230 235 236 232 229 229 230 231 231 232 233 233 232 
222 230 233 228 218 209 204 203 203 203 203 202 202 203 203 203 203 203 204 204 204 204 204 204 204 204 204 203 202 200 199 198 198 199 199 200 200 201 202 203 203 204 204 204 204 204 204 204 203 204 204 204 203 204 205 208 213 220 227 233 237 238 237 235 232 229 228 227 227 224 220 215 210 206 208 214 224 231 232 228 223 221 223 228 233 236 238 237 237 
217 227 234 233 223 212 205 203 203 203 203 203 202 202 202 203 203 203 203 204 204 204 204 204 204 204 204 203 201 198 196 194 194 195 195 195 196 197 200 202 203 204 204 204 204 204 204 204 204 203 204 204 203 203 203 203 204 209 215 223 230 236 239 239 236 233 230 229 229 227 224 218 211 205 204 209 218 225 225 218 210 205 208 219 230 237 241 241 241 
217 226 234 235 227 215 207 203 203 203 203 203 203 202 202 202 203 203 203 203 204 204 204 204 204 204 204 203 201 199 196 194 193 193 193 193 193 195 199 202 203 204 204 204 204 204 204 204 204 204 204 203 204 203 203 203 202 203 206 211 218 225 231 234 234 231 228 227 227 227 226 223 215 208 205 209 216 223 222 214 203 195 198 209 223 232 238 239 240 
217 224 232 234 228 217 207 203 203 204 203 203 203 203 202 202 202 203 203 203 203 204 204 204 204 204 204 203 202 201 199 197 197 197 196 195 195 196 199 202 203 204 204 204 204 204 204 204 204 204 204 204 203 203 203 203 202 201 200 201 204 210 216 222 223 221 220 221 224 227 228 227 221 214 210 214 221 227 226 219 210 202 200 207 217 225 230 231 232 
219 224 231 234 228 217 208 204 203 204 204 203 203 203 203 202 202 202 203 203 203 203 204 204 204 204 204 203 203 203 202 202 201 201 201 200 200 200 201 203 203 204 204 204 204 204 204 204 204 204 204 204 204 204 203 204 202 200 198 197 197 199 203 207 211 212 212 216 222 227 230 230 226 219 215 218 227 234 234 230 225 218 214 212 215 219 222 224 225 
224 227 232 234 229 219 210 205 203 203 203 203 203 203 203 203 203 203 203 203 203 203 203 204 204 204 203 203 204 204 204 204 204 204 204 204 203 203 203 203 204 204 204 204 204 204 204 204 204 204 204 204 204 204 204 204 203 201 198 197 197 198 199 202 206 209 213 218 224 229 232 234 231 223 217 220 229 237 239 237 236 233 227 221 218 218 220 222 223 
229 232 235 235 230 222 213 206 204 204 204 204 204 204 203 203 203 202 202 202 203 203 203 204 204 204 204 204 204 204 204 204 204 204 204 204 204 204 204 204 204 204 204 204 204 204 204 204 204 204 204 204 204 204 204 204 203 202 200 200 201 203 205 206 209 213 219 225 229 231 235 236 234 225 218 218 225 232 234 233 233 233 230 224 220 221 224 228 229 
229 234 237 237 233 225 216 208 205 205 205 206 205 204 204 203 202 200 199 200 202 203 203 204 204 204 204 204 204 204 204 204 204 204 204 204 204 204 204 204 204 204 204 204 204 204 204 204 204 204 204 204 204 204 204 204 203 203 204 204 205 207 211 213 215 219 226 231 234 235 237 237 234 226 219 218 223 227 227 224 222 223 223 223 223 226 230 235 238 
223 232 238 238 234 227 217 210 206 206 208 208 207 205 204 203 200 197 195 197 201 203 203 204 204 204 204 204 204 204 204 204 204 204 204 204 204 204 204 204 204 204 204 204 204 204 204 204 204 204 204 204 204 204 204 203 203 204 205 206 206 207 210 214 217 220 225 232 237 238 239 237 233 226 220 218 222 225 224 219 211 209 211 217 222 227 233 240 244 
