P2
89 89
255
28 27 26 23 60 56 130 176 205 184 171 197 198 188 162 194 186 199 205
190 181 161 204 159 161 185 174 156 163 129 149 120 141 141 152 123
141 121 111 104 95 78 100 98 83 74 119 85 95 32 8 7 5 5 5 4 3 4 4 5 5
5 6 2 0 2 2 2 2 2 2 2 2 2 2 2 2 2 2 2 2 2 2 2 2 2 2 2 2 28 28 27 28
55 96 170 192 204 173 181 206 202 150 198 180 202 209 200 194 168 189
186 172 167 196 170 167 151 148 146 129 153 152 149 140 143 124 118
114 112 87 99 114 92 72 83 122 83 81 8 10 4 5 5 5 4 3 4 5 5 5 5 4 2 2
2 2 2 2 2 2 2 2 2 2 2 2 2 2 2 2 2 2 2 2 2 2 1 27 28 26 37 74 130 173
204 202 174 192 212 161 169 207 190 199 215 201 184 168 203 178 177
189 190 163 183 142 170 144 140 164 166 148 146 149 124 124 124 115
83 117 119 107 82 84 103 107 89 36 9 4 5 5 5 5 6 3 2 6 5 5 5 2 2 2 2
2 2 2 2 2 2 2 2 2 2 2 2 2 2 2 2 2 2 2 2 1 27 28 22 60 111 150 185 209
197 182 205 200 134 201 189 205 203 209 198 157 183 196 185 178 203
189 166 180 152 167 143 147 173 161 158 147 157 133 129 139 120 91
121 114 110 101 79 88 121 85 71 13 8 5 5 5 5 5 3 3 5 5 5 5 2 2 2 2 2
2 3 3 3 2 1 1 0 4 3 3 3 3 3 3 2 1 1 1 1 26 29 36 77 122 175 185 212
198 189 213 159 159 212 190 203 213 210 189 149 207 196 193 180 208
177 195 157 178 161 141 163 175 163 160 151 167 135 139 154 119 103
127 123 115 112 82 83 101 114 95 38 8 7 4 6 6 4 3 3 3 3 4 3 2 2 2 2 3
2 1 1 1 1 1 1 1 1 1 1 1 1 1 1 1 1 1 1 1 46 26 46 104 143 174 187 220
196 192 214 133 188 208 192 199 214 207 156 182 209 198 183 199 203
189 198 163 182 154 151 170 179 165 165 157 173 141 147 158 129 109
127 135 123 115 98 78 100 116 96 78 11 6 5 4 4 4 4 3 3 2 1 2 2 2 2 2
0 1 1 1 1 1 1 1 1 1 1 1 1 1 1 1 1 1 1 1 1 25 28 72 129 158 177 191
222 194 198 186 149 199 198 198 201 211 198 136 208 210 197 176 214
202 198 195 173 183 149 163 180 175 177 171 158 171 147 155 163 130
113 133 138 132 119 107 82 93 104 116 97 29 7 5 1 3 5 5 3 3 1 2 2 2 2
2 2 1 1 1 1 1 1 1 1 1 1 1 1 1 1 1 1 1 1 1 1 1 25 47 93 138 172 186
196 219 189 206 169 179 206 197 196 212 203 180 156 215 200 192 191
218 205 207 183 181 184 159 174 189 178 192 174 164 182 149 163 165
127 120 137 139 141 126 116 83 92 104 121 99 70 2 3 2 3 5 5 5 2 1 2 2
2 2 2 2 1 1 1 1 1 1 1 1 1 1 1 1 1 1 1 1 1 1 1 1 1 28 64 91 148 181
187 197 215 195 205 170 193 204 200 197 210 201 151 186 210 206 186
209 214 207 209 184 187 173 165 186 188 189 187 178 170 183 152 174
161 128 124 141 143 147 137 121 102 77 109 115 106 100 25 3 5 4 5 5 5
4 2 1 2 2 2 2 2 1 1 1 1 1 1 1 1 1 1 1 1 1 1 1 1 1 1 1 1 1 32 74 111
170 190 185 197 204 201 198 170 200 202 201 191 212 195 143 210 210
204 186 217 214 209 208 185 184 166 176 197 186 194 190 169 179 172
159 176 157 129 136 149 145 152 142 123 106 87 94 109 121 95 74 5 5 5
5 5 5 6 2 3 2 2 2 2 2 1 1 1 1 1 1 1 1 1 1 1 1 1 1 1 1 1 1 1 1 1 43 94
117 183 194 183 203 192 201 191 174 201 198 197 195 208 190 167 213
208 201 193 216 214 210 205 180 180 166 188 199 190 202 182 167 187
164 165 183 145 132 155 142 150 152 149 129 107 109 92 102 125 110 58
40 2 5 5 5 5 5 3 4 2 2 2 2 2 1 1 1 1 1 1 1 1 1 1 1 1 1 1 1 1 1 1 1 1
1 66 72 139 199 184 187 205 193 201 187 180 199 199 195 202 198 183
184 203 216 186 208 212 217 205 203 169 183 170 195 197 192 201 176
173 185 164 177 176 145 136 163 136 152 152 150 136 104 111 104 81
125 111 80 49 2 7 4 5 5 5 5 4 1 2 2 2 2 2 1 1 1 1 1 1 1 1 1 1 1 1 1 1
1 1 1 1 1 1 72 86 176 193 182 202 208 193 204 180 187 194 204 191 204
192 178 195 210 206 183 213 212 217 205 197 157 190 181 194 195 196
195 173 182 179 161 184 168 139 141 169 133 155 158 146 138 97 112
109 79 105 119 93 46 15 5 6 5 5 5 5 4 4 2 2 2 2 2 1 1 1 1 1 1 1 1 1 1
1 1 1 1 1 1 1 1 1 1 81 115 172 198 191 210 204 197 198 186 194 194
200 188 206 187 178 204 212 199 189 219 208 210 208 184 161 190 180
200 190 198 184 170 182 173 165 189 155 134 152 164 135 166 162 142
139 102 115 113 93 93 126 100 65 26 7 5 4 5 5 5 4 3 2 2 2 2 2 1 1 1 1
1 1 1 1 1 1 1 1 1 1 1 1 1 1 1 1 68 143 176 196 195 212 197 205 183
185 188 195 202 190 205 184 185 202 214 186 202 211 206 212 206 161
165 184 182 202 187 201 175 173 182 172 179 180 149 132 169 159 140
173 163 139 136 107 118 114 108 110 127 98 94 11 4 5 5 5 5 5 4 3 3 2
1 2 2 1 1 1 1 1 1 1 1 1 1 1 1 1 1 1 1 1 1 1 1 75 153 185 193 214 191
200 205 175 184 187 197 199 186 202 180 189 206 213 180 209 205 205
211 199 142 180 171 188 200 191 192 165 190 167 171 189 165 145 130
182 155 148 177 157 136 125 124 119 102 86 133 112 99 113 7 5 5 5 5 5
5 4 3 3 3 2 2 2 2 2 1 1 1 1 1 1 1 1 1 1 1 1 1 1 1 1 1 1 86 164 186
208 186 191 204 210 179 202 187 192 199 184 201 177 198 210 198 186
212 193 206 204 197 136 185 175 190 192 194 174 173 185 160 168 195
153 142 148 188 149 160 182 140 144 123 132 76 38 86 128 101 87 126 9
4 5 5 5 5 5 4 3 3 3 2 2 2 2 2 1 1 1 1 1 1 1 1 1 1 1 1 1 1 1 1 1 1 103
176 182 213 175 197 203 212 192 203 186 189 199 183 199 179 202 214
187 200 205 190 208 197 186 138 187 173 192 190 189 164 202 135 175
183 176 147 143 160 182 145 174 174 143 138 113 62 49 122 129 119 74
95 131 19 4 6 4 5 5 5 5 5 3 3 3 1 2 2 2 1 1 1 1 1 1 1 1 1 1 1 1 1 1 1
1 2 2 115 176 184 212 175 202 208 208 199 205 179 186 199 176 198 176
210 210 189 198 203 182 203 190 169 140 170 165 194 188 178 188 156
148 167 192 160 145 138 177 174 149 193 162 147 88 29 62 115 122 137
96 51 103 137 33 7 6 4 5 5 5 5 5 3 3 2 1 2 2 2 2 2 1 1 1 1 1 1 1 1 1
1 1 1 1 0 0 0 129 170 201 205 180 198 219 204 204 204 179 184 195 179
195 182 211 208 194 190 192 183 195 188 172 101 141 165 184 184 172
176 133 160 175 181 137 145 141 192 165 173 187 157 100 56 65 108 106
135 102 60 60 105 134 65 1 5 4 5 5 5 5 6 3 3 2 2 2 2 2 2 2 1 1 1 1 1
1 1 1 1 0 0 0 1 1 0 0 125 172 207 201 181 198 214 204 206 194 178 188
193 177 197 183 207 201 201 178 186 188 184 185 168 111 145 167 168
191 148 136 97 159 200 138 131 137 161 184 160 187 182 125 101 100 97
97 130 80 41 60 36 109 131 96 1 6 4 5 5 4 3 5 4 3 2 2 2 2 2 2 2 1 1 1
1 1 1 1 2 0 0 0 0 0 0 0 0 112 195 207 196 187 192 190 218 201 177 174
190 194 181 196 178 207 194 195 174 190 168 180 183 172 124 165 172
181 172 110 86 134 184 170 103 124 137 174 174 174 185 166 120 95 80
73 77 46 4 44 42 21 104 126 106 9 4 4 5 5 5 4 3 2 2 2 2 2 2 2 2 2 1 1
1 1 1 1 1 1 0 0 0 0 0 0 0 0 148 197 208 210 175 184 172 205 191 168
182 189 194 181 194 175 207 189 198 178 191 168 176 166 161 136 133
121 115 109 88 104 165 189 146 148 139 146 171 171 186 167 155 103 27
40 4 8 29 20 19 46 52 108 120 109 15 4 5 5 5 5 5 4 2 3 2 2 2 2 2 2 2
1 1 1 1 1 1 1 1 0 0 0 0 0 0 0 0 156 205 208 197 181 176 164 166 192
194 192 186 198 180 191 174 205 188 198 185 190 159 173 167 132 81 82
90 87 78 57 63 93 147 163 163 156 157 164 177 175 168 126 26 16 15 83
146 36 2 39 64 85 112 117 113 24 7 5 5 5 5 3 2 2 2 1 2 2 2 2 2 2 1 1
0 1 1 3 2 1 0 0 0 0 0 0 0 0 169 205 199 202 179 180 168 164 194 200
201 188 196 181 193 173 199 191 194 178 186 165 156 132 74 96 64 33
39 60 79 57 133 137 148 161 168 162 165 175 164 149 99 19 77 14 93
182 137 49 134 67 89 121 108 120 13 8 5 6 5 4 3 3 3 2 2 2 2 2 2 2 2 1
0 2 0 36 47 7 1 0 0 0 0 0 0 0 0 190 194 206 209 184 181 159 176 194
214 194 187 199 183 197 175 197 186 188 184 185 161 108 96 92 35 48
54 52 121 174 124 85 160 151 162 173 176 178 183 166 136 96 49 63 69
109 127 72 109 144 89 87 126 109 116 6 6 2 4 5 3 3 3 3 2 1 2 2 2 2 2
2 2 0 5 17 17 44 31 0 0 0 0 0 0 0 0 0 186 191 211 212 186 181 171 171
209 214 187 173 199 184 193 179 193 183 178 186 186 149 105 71 57 90
146 96 52 114 169 161 110 124 184 177 183 184 189 192 177 131 119 86
97 90 90 85 135 138 149 109 87 126 104 111 4 6 1 3 3 5 2 2 3 2 2 2 2
2 2 2 1 4 102 63 23 39 14 15 0 0 0 0 0 0 0 0 0 145 198 212 210 184
195 172 187 219 215 177 151 197 177 191 180 191 177 175 188 191 173
135 139 110 93 117 127 138 132 157 150 154 158 196 197 190 191 194
198 183 135 146 150 140 139 143 150 152 157 152 129 81 127 98 109 5 5
1 1 1 2 3 2 3 2 2 2 2 2 2 1 0 52 142 109 4 165 99 3 0 0 0 0 0 0 0 0 0
142 201 215 209 191 199 177 198 208 201 172 139 195 188 188 177 181
180 179 200 195 187 193 191 183 183 172 167 161 162 173 178 184 195
197 203 198 197 196 200 194 141 139 148 150 151 154 158 163 163 158
154 82 119 103 112 5 5 1 0 1 2 2 3 0 0 2 2 2 1 1 1 3 0 22 49 22 72 33
2 1 0 0 0 0 0 0 0 0 160 203 210 210 195 206 173 205 201 195 164 139
194 194 185 174 182 175 184 202 201 208 213 210 206 199 200 197 192
190 186 190 193 201 204 208 206 200 199 204 200 152 133 149 157 159
163 165 167 166 161 163 97 113 111 99 9 3 3 2 1 0 2 3 1 1 2 2 2 1 1 1
2 2 0 2 8 7 3 1 2 0 0 0 0 0 0 0 0 129 206 208 210 197 211 174 210 208
182 179 143 193 191 187 174 190 162 192 208 208 215 216 216 214 211
209 206 201 199 198 200 201 207 212 213 210 206 203 205 206 171 136
149 157 163 164 170 171 170 166 165 107 107 119 87 4 6 3 2 1 0 2 4 1
1 2 2 2 1 1 1 1 1 0 2 2 6 1 1 1 0 0 0 0 0 0 0 0 151 201 205 210 197
212 174 216 207 173 200 145 187 189 188 177 186 165 194 207 211 216
219 219 220 217 214 211 208 206 206 206 208 210 212 212 212 211 207
207 208 183 141 148 157 165 169 172 173 173 168 165 116 104 113 73 2
9 3 3 1 2 2 3 1 1 2 2 2 1 1 1 1 1 1 1 1 1 0 0 0 0 0 0 0 0 0 0 0 132
201 201 212 200 213 182 222 205 192 217 146 180 189 187 183 175 162
190 209 212 217 218 221 223 222 219 218 214 212 212 212 212 215 214
215 213 213 208 209 211 195 150 147 158 165 170 174 174 174 169 167
121 98 115 77 1 4 6 3 3 1 2 2 1 1 2 2 2 1 1 1 1 1 1 1 0 0 0 0 0 0 0 0
0 0 0 0 0 123 207 204 211 201 214 192 221 207 217 222 153 173 188 186
180 179 151 182 207 212 214 214 217 219 219 217 217 214 212 212 212
211 215 216 215 214 211 209 209 211 202 167 142 155 159 170 175 178
175 168 163 119 96 113 73 0 3 4 4 3 1 2 2 2 3 2 2 2 1 1 1 1 1 0 0 0 0
0 0 0 0 0 0 0 0 0 0 0 110 207 207 210 201 214 193 221 206 218 207 157
167 195 187 174 173 150 172 206 208 213 213 213 215 215 214 215 212
211 210 210 211 211 215 214 212 213 210 212 214 207 180 139 146 157
168 173 175 175 167 160 109 93 119 62 6 5 4 4 3 3 3 1 2 1 2 2 2 2 2 2
1 1 0 0 0 0 0 0 0 0 0 0 0 0 0 0 0 102 201 206 211 204 216 194 222 206
216 198 155 167 200 190 174 175 148 146 202 205 209 208 210 209 211
212 212 210 207 206 206 208 208 209 211 214 215 214 213 213 208 192
148 133 148 161 171 174 172 164 156 97 93 122 57 2 6 4 3 2 3 3 3 1 3
2 2 2 2 2 2 2 1 1 0 0 0 0 0 0 0 0 0 0 0 0 0 0 99 200 207 211 204 214
199 222 204 216 195 185 163 203 189 185 179 151 135 200 205 204 204
203 202 208 210 209 208 205 203 202 204 203 205 210 216 215 216 213
213 215 196 159 126 141 155 167 167 166 159 141 90 91 120 62 5 6 4 2
1 4 3 3 3 4 2 2 2 2 2 2 2 1 1 0 0 0 0 0 0 0 0 0 0 0 0 0 0 106 200 207
210 202 216 204 221 207 220 208 198 168 202 189 190 180 150 124 188
202 200 200 202 202 203 205 204 202 203 202 199 200 199 198 213 217
216 217 214 213 212 201 169 137 135 151 160 163 159 156 124 92 92 122
64 2 6 2 1 1 2 2 4 4 2 2 2 2 2 2 2 2 1 1 0 0 0 0 0 0 0 0 0 0 0 0 0 0
73 205 208 211 202 214 208 223 206 219 239 190 171 199 188 196 174
148 123 165 197 197 198 199 198 199 200 202 202 201 201 200 198 199
200 216 221 218 210 207 209 209 197 190 145 130 143 153 156 155 153
103 95 99 122 54 2 4 2 1 2 2 2 2 2 2 2 2 2 2 2 2 2 1 1 0 0 0 0 0 0 0
0 0 0 0 0 0 0 60 208 204 212 200 216 211 223 202 219 232 174 174 201
188 196 172 166 127 141 194 196 196 196 198 198 198 200 200 199 199
199 196 197 197 211 207 211 189 199 196 196 191 153 141 139 141 149
151 148 142 82 97 101 126 44 2 5 3 1 2 1 2 2 1 2 2 2 2 2 2 2 1 1 1 1
1 1 1 1 0 0 0 0 0 0 0 0 0 44 203 201 211 204 217 215 221 201 219 216
169 173 194 198 192 175 172 139 125 183 196 197 196 198 198 197 198
198 196 196 195 193 200 205 201 171 122 94 128 174 181 174 141 151
144 143 145 150 155 106 92 99 103 131 27 5 4 1 1 2 2 4 3 4 2 2 2 2 2
2 3 1 1 1 1 1 1 1 1 1 1 0 0 0 0 0 0 0 50 202 200 211 203 218 219 218
201 216 201 226 178 195 204 183 188 167 138 128 168 192 196 197 198
198 196 198 198 197 196 193 198 207 218 217 192 180 191 175 165 165
150 151 154 150 143 145 146 151 73 101 106 106 134 17 9 7 4 3 3 4 5 3
3 2 1 1 1 3 4 3 1 1 1 1 1 1 1 1 1 1 0 0 0 0 0 0 0 75 185 196 213 202
220 217 214 204 218 205 233 185 193 211 183 196 178 150 143 148 195
197 200 199 199 200 196 197 198 195 196 206 212 215 217 218 213 202
196 172 160 156 156 155 150 144 142 150 112 71 103 111 106 128 6 8 7
7 4 5 6 4 3 3 3 2 2 2 2 3 4 0 1 1 1 1 1 1 1 1 1 1 0 0 0 0 0 0 93 178
197 211 204 221 219 216 205 217 218 222 187 194 206 191 201 178 162
134 143 182 198 201 203 203 199 196 196 196 195 199 209 211 216 218
217 212 209 200 185 185 164 157 152 151 141 144 159 81 79 107 119 112
111 0 6 8 7 8 6 7 7 5 4 3 2 3 4 3 3 4 2 2 2 1 1 1 1 1 1 1 1 0 0 0 0 0
0 72 172 198 213 207 222 221 217 206 213 220 212 179 190 204 191 191
189 170 113 152 172 198 202 203 204 201 197 195 194 195 204 208 209
215 216 215 215 212 205 194 198 188 161 158 135 129 145 143 74 86 110
121 125 76 2 9 8 7 8 7 6 7 8 8 7 7 7 6 5 5 2 3 3 3 2 1 1 1 1 1 1 1 0
0 0 0 0 0 71 164 200 215 209 220 220 220 208 214 220 201 176 196 205
194 187 197 178 87 137 162 195 202 204 203 201 198 194 193 196 202
203 205 210 212 215 221 225 220 213 216 182 146 134 100 135 153 110
91 88 112 120 139 46 8 10 8 8 8 8 8 9 7 7 7 7 7 7 7 7 4 5 6 3 2 2 2 2
2 1 1 1 1 1 1 0 0 0 71 167 192 214 211 221 222 216 211 209 221 204
204 188 206 194 188 199 192 120 71 164 179 203 204 206 202 199 197
198 194 197 201 201 214 220 213 190 169 153 155 142 117 111 116 147
138 164 72 106 92 116 120 140 30 13 12 10 11 11 11 11 10 10 9 5 6 7 6
7 8 8 7 7 5 5 2 2 1 2 2 2 2 2 2 1 1 0 0 77 156 184 214 214 223 224
213 213 211 221 226 208 194 201 196 194 189 199 144 49 145 172 195
204 205 203 200 198 193 188 151 89 156 161 145 135 135 142 137 133
118 101 124 142 149 147 142 66 120 94 116 126 141 27 14 15 13 12 13
13 13 11 13 10 10 11 10 8 8 8 8 7 7 7 8 6 4 3 1 2 2 2 2 2 1 1 1 1 42
156 174 214 214 225 225 214 217 209 227 217 197 184 205 203 193 196
195 170 62 86 157 187 201 205 201 200 198 187 174 157 180 152 131 158
184 162 133 115 108 125 136 127 150 158 156 97 76 123 102 118 127 152
46 12 17 14 12 13 13 15 14 13 13 12 11 12 11 10 10 10 9 8 7 7 8 4 5 3
2 2 2 2 2 2 1 1 1 37 133 184 213 213 225 226 216 215 211 228 220 194
198 204 208 194 194 191 195 80 56 129 166 201 204 201 200 196 187 182
187 195 203 192 170 192 213 195 162 155 143 128 137 159 156 161 35 85
121 115 120 129 146 74 9 18 17 14 13 15 17 16 16 15 12 13 13 14 13 13
13 11 10 10 7 7 6 6 6 2 2 2 2 3 2 2 1 1 38 102 186 213 214 225 227
220 219 214 227 217 213 194 205 210 198 190 201 188 122 40 97 129 183
196 200 201 198 194 195 199 200 199 193 189 166 154 148 137 133 128
140 165 162 161 122 19 79 115 130 115 133 141 100 22 18 18 15 15 17
17 16 17 16 16 17 15 14 14 14 13 13 13 14 13 9 8 9 6 4 5 3 4 3 2 2 2
1 41 115 187 214 215 227 228 221 220 218 224 216 218 190 207 213 207
193 200 180 176 43 71 121 128 188 200 202 201 200 200 203 203 203 199
188 169 160 149 140 140 153 164 168 161 179 50 42 71 109 150 121 136
150 137 31 17 17 15 16 16 15 16 15 15 18 18 17 15 16 16 15 15 15 14
14 10 8 6 7 7 5 3 3 3 1 2 2 2 82 101 188 214 214 226 228 222 220 221
227 220 215 189 209 207 216 191 196 184 191 78 68 94 135 126 190 202
200 205 204 203 207 207 209 202 201 192 180 172 177 176 177 168 170
133 12 50 66 101 155 138 134 156 143 68 16 20 18 18 18 16 15 17 17 17
18 17 16 12 11 11 14 15 16 13 13 13 11 9 8 7 5 3 3 1 1 2 2 51 103 196
214 214 229 231 228 225 223 226 224 216 202 207 209 216 201 187 196
199 131 82 93 123 138 130 185 202 200 205 207 209 211 214 216 217 215
210 200 194 196 185 173 180 43 33 53 65 93 148 156 141 154 140 147 9
21 20 20 18 16 17 17 17 16 10 16 22 36 44 43 32 13 3 12 14 13 12 12 9
9 7 5 4 2 1 2 1 63 103 181 216 218 230 231 232 229 222 228 229 216
210 207 209 219 212 188 194 194 164 93 97 109 139 142 129 167 201 201
207 210 212 215 217 216 217 212 204 199 195 184 183 129 22 47 44 58
90 126 177 143 160 150 166 56 17 21 23 22 21 19 15 21 27 60 81 100
113 120 127 129 127 104 41 2 12 12 15 10 8 8 6 5 2 2 3 2 81 86 175
216 220 234 232 233 231 225 229 229 219 218 201 210 216 221 196 193
184 192 117 95 107 128 149 153 138 145 185 207 209 211 211 214 213
213 206 198 195 188 180 170 63 43 63 37 64 85 126 167 168 150 150 159
122 26 29 25 23 26 33 50 71 95 109 124 132 136 144 146 148 146 143
151 114 16 8 13 12 10 7 8 7 4 1 2 3 89 83 165 218 221 233 234 234 228
229 229 232 222 215 195 217 214 224 207 190 193 195 152 116 109 122
146 159 158 149 136 146 185 208 208 203 203 201 194 188 185 188 164
115 95 76 59 54 68 77 120 147 187 152 164 136 182 58 36 38 53 63 79
102 114 125 137 143 149 155 156 160 159 159 157 151 151 149 25 10 13
13 11 9 6 5 4 3 3 104 74 160 213 222 233 237 235 230 228 229 232 227
214 211 212 214 224 211 192 183 193 195 131 118 119 144 162 170 166
162 150 134 143 171 190 190 189 185 179 170 146 130 127 103 90 60 51
88 97 114 148 174 182 151 164 143 178 93 83 82 90 103 122 129 140 150
157 161 166 169 167 169 168 167 163 159 154 155 17 17 15 13 10 8 8 6
6 5 108 90 151 208 227 235 236 237 232 228 232 235 228 226 221 208
215 218 222 204 189 184 195 150 144 127 136 167 173 177 175 170 163
152 137 133 152 150 153 145 140 149 148 142 115 98 68 85 88 121 120
140 156 187 174 167 157 160 172 117 115 127 133 146 153 160 168 171
173 174 175 176 176 175 174 171 167 159 158 142 10 18 15 12 7 8 7 7 6
104 95 162 197 230 236 236 238 233 229 231 236 230 231 227 208 215
216 224 207 203 189 196 174 129 133 141 159 178 183 182 179 174 167
158 145 152 170 164 164 158 159 159 156 140 106 100 106 102 130 144
149 155 169 193 179 178 159 162 181 149 135 145 157 167 176 181 180
183 181 180 179 179 180 177 174 170 168 164 164 139 20 13 14 14 11 6
7 7 99 106 146 188 231 236 240 237 234 226 231 235 233 234 228 209
217 213 221 219 195 198 192 191 143 141 155 157 174 186 188 188 182
173 165 152 138 168 176 178 171 170 170 165 149 124 122 117 132 136
159 170 172 169 179 191 175 184 171 174 183 183 172 166 169 177 183
184 187 186 185 184 183 182 180 179 174 172 169 165 161 141 60 28 17
10 11 6 7 98 115 148 160 232 237 239 238 236 228 230 237 234 238 225
217 213 219 213 228 211 202 195 194 163 143 149 160 172 187 193 194
184 191 191 186 165 143 162 181 182 182 176 176 158 142 142 147 150
164 172 179 183 180 178 184 186 176 185 184 183 185 189 189 183 178
177 180 181 185 186 182 183 182 182 183 180 176 174 169 164 161 97 56
45 19 18 7 7 95 131 138 158 231 238 240 238 235 227 231 237 235 238
228 222 196 222 212 224 222 207 203 197 183 152 162 159 162 188 191
193 206 209 209 205 201 188 159 152 163 169 187 181 177 167 166 169
170 178 184 184 188 187 183 181 187 188 182 187 190 189 191 189 192
191 187 189 184 184 184 182 180 182 180 181 179 176 173 171 168 168
164 44 45 69 15 7 8 92 131 123 148 224 241 238 239 233 230 234 238
238 238 230 232 204 226 214 221 222 221 207 206 196 168 175 169 165
171 191 202 210 215 216 216 212 205 201 190 188 187 189 185 180 182
185 184 184 187 192 191 191 189 189 182 179 186 180 187 195 195 194
193 195 194 193 195 192 192 193 192 188 184 183 183 181 181 179 175
174 171 163 163 100 56 74 16 0 97 126 126 142 211 240 241 242 231 235
234 235 243 237 233 232 221 216 223 214 226 218 215 208 210 191 174
198 180 177 199 208 211 215 215 217 215 213 209 205 204 203 203 204
197 197 197 194 194 194 194 197 195 194 193 190 186 183 190 179 180
193 195 196 198 198 197 199 198 196 197 197 194 192 190 189 189 183
179 176 168 166 158 143 148 126 81 90 45 102 100 157 141 212 239 241
241 233 234 238 238 238 236 234 231 236 207 218 208 226 217 223 217
210 207 189 188 208 191 205 212 213 217 216 218 218 217 215 214 212
210 207 206 205 205 205 205 203 201 200 203 202 197 196 194 196 189
183 190 183 180 190 197 200 199 201 203 200 200 201 201 198 197 194
195 192 191 185 180 175 171 169 154 126 116 143 111 110 98 101 148
157 203 234 240 239 231 234 238 238 237 235 235 231 237 213 212 218
214 223 217 223 213 207 209 194 212 207 207 211 216 219 219 218 218
218 218 217 216 214 212 212 210 209 210 209 206 205 205 202 206 206
201 197 197 198 191 184 190 189 182 190 200 200 200 202 202 202 201
200 202 200 202 201 196 194 190 188 183 180 171 160 149 140 121 113
137 98 106 128 175 190 233 238 236 229 231 238 234 237 230 233 229
239 219 207 218 218 219 221 221 222 218 206 206 208 221 208 214 217
220 222 219 219 221 221 219 218 218 218 214 213 213 212 212 211 210
207 207 200 208 209 207 203 193 198 196 190 191 192 183 179 195 200
198 199 199 196 191 186 191 189 194 200 204 203 195 191 182 176 168
164 150 136 141 83 101 115 142 166 193 228 235 231 230 228 237 233
237 227 233 233 234 226 231 205 226 216 227 219 224 224 217 198 218
220 217 213 217 222 224 222 220 221 222 220 220 218 218 218 218 216
214 215 214 212 211 210 208 202 203 209 207 209 201 202 197 190 192
195 180 173 178 195 195 195 194 185 181 174 168 160 172 163 145 158
187 200 184 174 166 158 162 136 143 98 117 133 164 195 227 233 231
231 229 237 232 236 225 229 235 226 224 242 203 221 225 220 224 225
223 222 215 212 218 218 216 216 221 222 225 221 220 221 221 219 217
218 218 218 216 213 214 214 214 215 214 210 205 203 210 203 204 209
206 206 201 192 185 192 185 178 168 177 190 190 186 179 175 175 147
55 75 133 135 83 124 186 186 181 169 152 153 150 101 125 108 170 197
217 231 230 230 227 234 231 233 225 228 235 226 212 236 230 210 226
221 224 224 225 225 221 214 215 219 217 216 221 222 223 224 222 222
222 220 221 219 218 218 217 215 215 216 215 215 215 215 212 205 201
212 209 208 205 204 208 206 189 187 191 188 182 172 164 176 184 193
175 146 146 151 66 42 81 150 88 91 160 183 180 170 149 147 125 111
130 153 192 223 229 227 227 225 230 229 230 223 231 232 215 207 219
242 220 218 228 223 225 222 223 224 218 215 218 219 213 218 225 223
222 223 221 222 224 223 221 219 220 218 217 217 216 215 215 215 215
214 215 210 200 212 213 208 204 203 205 205 190 189 191 194 187 159
50 81 114 186 188 171 151 161 102 53 92 156 73 70 143 170 174 173 153
102 117 141 165 205 220 226 227 225 223 226 227 225 222 231 225 211
209 209 238 232 227 225 229 226 225 226 227 220 216 218 220 214 217
222 225 225 223 224 223 224 224 222 222 220 217 217 218 217 215 215
216 214 215 215 215 210 198 207 210 205 204 202 205 208 193 188 195
193 194 151 42 88 84 132 206 178 161 155 100 19 86 162 82 58 131 156
167 171 125 149 183 209 223 226 226 227 225 225 225 227 224 225 228
218 210 216 212 230 239 236 225 222 231 226 222 227 224 220 218 220
221 216 215 224 226 224 224 224 225 225 224 223 221 218 217 215 217
214 213 214 215 217 216 218 217 210 204 214 212 203 204 204 204 211
189 196 196 193 194 174 56 47 74 67 203 177 158 169 105 46 79 146 75
43 147 145 163 143 192 225 221 226 229 227 227 226 226 224 226 224
225 225 219 213 220 218 219 243 232 242 217 223 228 225 220 228 223
220 222 222 218 215 221 225 224 223 223 223 223 223 223 221 218 216
216 215 213 213 215 215 215 219 226 233 217 180 153 200 204 205 203
205 208 204 189 196 199 193 199 152 31 35 71 53 179 195 132 178 90 37
97 106 74 5 138 134 226 224 220 223 226 230 230 230 227 227 225 225
224 224 224 220 213 221 224 212 236 240 235 238 223 227 230 218 224
227 220 219 219 221 219 215 221 227 224 223 223 223 224 223 220 218
216 215 212 209 212 215 224 228 203 168 123 86 87 84 107 219 202 211
208 207 209 208 193 199 192 185 202 122 43 65 43 58 141 198 115 189
114 56 74 85 61 4 138 228 220 223 224 226 228 228 229 227 226 224 225
224 223 223 222 222 222 224 217 223 240 236 239 238 229 228 227 223
228 226 214 220 220 219 218 214 221 224 225 224 224 223 223 220 217
216 215 216 219 219 181 147 112 87 87 87 83 70 75 73 113 232 182 216
207 204 209 206 197 195 191 180 201 85 52 34 11 40 120 200 114 175 64
87 70 68 50 24 226 221 226 227 228 228 229 229 228 225 224 225 223
224 224 222 221 222 222 227 212 237 235 238 239 235 231 229 228 225
224 222 217 221 215 221 215 213 224 224 224 225 223 221 219 216 224
222 197 147 105 83 88 86 87 88 79 70 79 75 35 19 172 207 171 221 204
205 207 201 199 197 188 177 204 30 68 20 32 38 103 188 115 172 76 85
69 48 48 234 225 229 230 231 231 233 231 228 226 225 225 224 225 225
221 221 222 223 224 219 224 241 238 239 238 235 230 232 228 219 229
222 222 219 221 224 214 220 223 225 226 226 231 230 206 154 103 80 82
90 92 91 87 81 80 87 78 38 41 66 45 36 221 186 156 220 206 204 204
203 201 191 182 185 177 26 70 21 35 29 97 176 109 173 112 50 71 30
237 228 232 235 235 235 234 233 229 227 221 224 223 224 226 223 218
221 223 226 223 219 232 238 239 237 239 235 229 232 227 222 228 220
224 215 224 218 212 223 232 228 219 177 122 79 80 88 89 91 89 88 83
81 91 78 38 27 53 49 36 22 6 107 222 161 180 216 205 205 205 203 199
189 175 193 108 54 33 23 21 38 106 176 110 170 129 25 63 236 232 234
235 236 236 236 235 232 226 220 223 229 227 228 227 221 223 223 226
224 223 222 234 239 238 237 238 235 233 230 228 227 233 217 219 224
220 207 189 184 150 101 88 86 87 96 91 91 85 79 82 94 75 33 18 36 33
20 17 26 44 56 43 156 213 143 204 207 204 206 204 204 197 184 173 197
74 61 25 30 23 34 98 173 95 165 112 50 239 227 234 239 240 240 240
237 231 233 222 220 233 228 229 231 217 223 223 227 228 216 226 222
236 240 236 238 237 235 233 230 230 234 224 223 220 220 222 143 99
105 120 109 90 94 90 85 82 81 96 71 25 17 25 25 24 31 45 59 60 48 37
23 9 195 184 136 212 207 205 204 198 206 191 177 176 165 71 38 25 29
20 56 71 183 70 173 106 244 239 233 235 234 231 228 245 239 221 228
218 231 236 229 237 211 226 225 226 229 221 221 230 229 238 236 236
237 237 234 230 231 234 232 218 216 222 215 181 87 106 111 112 121 79
77 83 91 68 23 11 18 26 37 51 67 59 40 28 12 6 10 10 9 72 212 132 168
208 207 205 194 206 200 183 177 193 97 68 31 19 25 17 50 77 167 92
143 254 244 219 170 131 153 159 153 181 224 233 227 225 236 230 234
232 216 233 230 233 230 218 230 228 234 235 236 236 236 235 232 230
231 237 223 217 224 216 221 100 107 104 75 83 124 85 66 19 8 22 36 51
57 46 33 17 13 8 9 12 20 28 40 44 37 131 211 116 176 207 207 202 186
206 193 178 174 187 55 45 30 16 17 41 18 107 120 135 142 103 103 111
126 115 106 142 158 196 232 235 226 229 235 234 241 222 233 234 235
235 226 228 230 230 236 238 237 236 235 232 230 230 234 231 220 219
220 225 117 84 98 92 88 46 59 8 32 43 45 40 24 13 10 11 10 19 25 34
42 46 47 48 45 55 57 146 194 94 197 205 205 191 192 207 181 175 175
122 64 37 31 15 22 50 21 120 133 110 109 119 112 72 103 91 73 123 123
176 233 235 227 232 236 236 235 228 235 235 234 229 229 231 231 230
235 237 236 234 232 230 228 231 234 226 216 219 213 187 66 105 37 21
31 39 88 25 19 8 10 13 20 27 33 44 48 49 50 49 45 46 48 48 46 48 47
176 160 89 207 205 206 185 199 196 182 174 191 46 64 31 25 19 41 20
38 138 116 88 51 65 87 53 47 113 49 121 136 218 238 231 227 236 239
237 232 235 235 235 231 229 227 228 228 234 235 236 233 230 228 225
228 234 225 213 217 211 217 76 65 31 37 26 10 9 59 20 30 38 44 53 52
52 52 48 51 50 46 44 46 49 48 51 45 58 51 209 137 120 204 204 196 186
205 191 174 173 142 29 45 43 21 37 23 5 81 34 53 91 56 45 92 112 77
69 131 107 140 246 235 227 235 239 238 236 231 238 235 235 233 219
218 225 233 237 237 232 230 229 222 227 230 229 218 212 212 213 142
66 19 32 43 53 51 61 81 53 54 56 53 51 50 50 49 50 53 49 49 50 48 49
51 49 56 35 88 213 125 144 203 201 182 195 200 182 175 183 78 33 16
39 58 8 24 15 81 77 54 94 106 110 98 96 94 99 125 113 172 247 232 235
236 238 238 236 227 233 237 236 227 205 225 231 229 236 235 230 227
225 223 228 228 225 212 213 199 182 81 30 57 57 53 54 52 66 68 62 52
52 50 52 51 51 52 52 52 50 51 49 49 49 51 52 58 46 109 205 134 156
206 197 172 202 200 179 168 170 49 41 9 37 48 22 3
