P2
89 89
255
2 2 1 2 1 0 2 2 0 1 2 2 1 0 1 2 2 2 1 0 0 0 0 1 2 2 2 2 2 2 1 0 2 1 1 1 2 0 0 0 0 1 2 1 2 1 2 2 0 0 0 0 2 2 0 0 0 0 2 2 2 2 0 0 0 0 0 0 0 0 0 0 2 2 0 0 0 0 0 0 0 0 0 0 0 0 0 0 0 
2 2 1 2 2 2 2 1 0 1 1 1 1 0 1 1 2 1 1 0 0 0 0 1 1 2 2 2 2 1 1 0 1 1 2 1 1 0 0 0 0 1 2 1 2 2 2 1 0 0 0 1 2 1 0 0 0 0 1 2 2 1 0 0 0 0 0 0 0 0 0 0 1 2 2 1 1 1 1 2 2 2 2 2 2 2 2 2 2 
1 2 1 1 1 2 1 1 1 1 1 0 0 0 0 0 0 0 1 1 1 1 0 0 0 1 1 1 1 0 0 0 1 1 1 1 1 0 0 1 1 2 1 0 1 1 1 1 0 0 0 1 2 1 0 0 0 0 1 1 1 1 0 0 0 0 0 0 0 0 0 0 1 1 2 2 2 2 2 2 2 2 2 2 2 2 2 2 2 
1 2 1 0 0 0 1 2 2 2 2 1 0 0 0 0 0 1 2 2 2 2 2 2 2 2 2 2 1 0 0 0 0 0 0 1 1 2 2 2 2 1 1 0 0 0 0 0 0 0 0 2 1 1 1 0 0 0 0 0 1 1 2 1 1 0 0 0 1 1 1 0 0 0 0 1 1 1 1 0 0 0 0 0 0 0 0 0 0 
0 2 2 0 1 1 1 1 1 1 1 1 0 0 0 0 0 1 1 1 1 1 2 2 2 1 1 2 1 0 0 0 0 0 0 1 2 2 2 1 1 0 0 0 0 0 0 0 0 0 0 1 1 2 2 1 0 0 0 0 1 1 0 1 1 0 0 1 2 1 1 0 0 0 0 1 1 1 0 0 0 0 0 0 0 0 0 1 1 
0 1 2 2 2 1 1 1 2 2 1 1 0 0 0 0 0 1 1 2 2 1 0 0 0 1 2 1 1 0 0 0 0 0 0 1 2 1 0 0 0 0 0 0 0 0 0 0 0 0 0 1 1 1 2 1 0 0 0 0 1 1 2 1 1 0 0 1 2 1 2 0 0 0 0 1 1 1 0 0 0 1 1 1 1 0 0 1 2 
2 1 0 1 1 1 2 1 0 0 0 0 1 1 1 1 0 0 0 0 2 2 0 0 0 2 2 0 0 0 0 0 0 0 1 1 1 1 1 1 1 0 0 0 0 1 1 2 2 2 2 2 1 1 1 2 2 1 1 0 0 0 0 0 0 0 0 2 2 2 2 0 0 0 0 2 0 2 0 0 0 1 2 2 2 1 1 2 1 
2 2 2 1 0 2 2 0 0 1 1 1 1 2 2 2 1 0 1 1 2 1 0 0 0 2 2 0 0 0 0 0 0 0 1 1 1 1 1 1 2 1 0 0 0 1 2 2 2 2 2 2 2 1 1 1 2 2 2 1 1 2 2 2 2 1 1 1 2 1 2 0 0 0 0 2 1 2 1 0 0 2 2 1 2 2 2 2 1 
0 0 2 2 0 2 2 0 1 2 2 2 1 2 1 2 1 0 1 2 1 1 0 0 0 2 2 0 0 0 0 0 0 0 1 2 2 1 1 1 1 1 0 0 0 1 2 1 1 0 0 0 1 2 1 0 1 1 1 0 1 1 1 2 2 2 1 1 2 0 2 1 0 0 0 2 1 2 1 0 0 2 2 0 1 1 1 1 0 
2 1 2 2 1 2 2 0 1 2 1 1 1 1 1 2 1 0 1 2 2 1 1 0 0 2 2 0 0 0 0 0 0 0 0 1 2 4 6 8 10 14 17 17 17 16 14 11 9 8 6 4 3 3 2 2 2 2 1 1 1 2 1 0 0 2 2 0 2 1 2 2 1 0 0 2 2 1 2 2 2 2 1 0 1 1 2 1 1 
2 2 2 2 1 1 2 1 2 2 0 1 1 1 2 1 1 0 1 1 2 2 1 1 1 2 1 0 0 1 3 7 12 18 24 30 36 44 51 59 66 72 76 79 79 77 74 69 63 57 51 46 41 37 32 27 20 13 7 3 1 2 2 1 1 2 1 0 2 2 1 2 2 2 2 2 1 1 1 1 1 1 1 2 2 2 2 2 1 
1 1 2 1 2 0 2 1 2 2 0 0 0 1 2 1 1 0 0 0 0 2 2 1 2 3 6 10 16 26 37 51 65 80 95 110 122 133 142 152 160 166 171 173 173 170 168 164 160 155 149 142 134 126 114 100 85 69 53 38 26 17 11 5 2 1 1 0 2 2 0 1 1 2 2 1 1 0 1 2 2 2 2 2 1 1 0 2 2 
2 1 1 1 2 2 1 1 2 1 0 0 0 1 1 2 2 1 1 0 0 1 2 8 16 26 41 59 80 102 123 142 159 174 187 197 206 211 214 216 218 218 218 216 214 212 211 212 213 214 214 213 210 206 200 191 179 166 148 127 103 80 59 40 24 13 7 3 2 2 2 2 2 1 1 0 0 0 1 2 1 0 0 0 0 0 0 2 2 
2 1 1 0 1 1 1 1 1 1 0 0 0 0 0 1 1 1 1 1 6 13 27 48 72 98 126 151 173 192 205 212 214 212 207 200 191 181 170 158 148 138 130 125 122 121 122 127 133 140 148 157 168 179 189 199 207 212 213 208 195 175 151 124 94 66 42 23 11 5 2 2 2 2 2 2 2 2 2 1 0 0 0 0 0 0 0 1 2 
2 2 2 1 1 0 1 2 1 0 0 0 0 0 0 1 3 5 9 21 41 67 100 133 164 190 208 215 213 205 190 170 145 119 92 67 43 21 2 15 32 46 56 63 65 64 60 56 48 38 26 12 6 25 48 74 102 131 160 186 206 218 219 209 189 159 123 86 53 29 16 9 5 3 2 2 2 2 1 1 0 0 0 0 0 0 0 1 1 
1 1 1 1 1 0 1 2 1 0 1 1 1 1 1 5 14 29 54 86 123 160 192 213 220 214 193 163 128 89 48 10 27 62 92 117 138 154 167 177 187 195 200 202 202 200 197 194 191 186 180 171 160 146 128 106 79 45 7 38 84 128 168 199 219 222 208 178 137 98 69 47 31 18 8 3 1 0 0 0 0 0 0 0 0 0 0 0 0 
0 0 1 2 1 0 0 1 2 1 2 1 1 3 12 30 60 100 144 181 209 223 218 196 159 109 55 5 48 91 127 157 179 194 205 212 215 215 215 213 212 210 207 204 201 199 198 197 199 201 203 205 208 209 208 205 199 187 166 137 100 54 3 56 111 159 194 209 200 175 147 121 93 63 35 15 6 2 2 2 2 1 1 0 0 0 0 0 0 
2 1 1 2 0 0 0 1 2 2 5 9 16 31 58 99 149 196 225 231 214 175 120 56 10 71 122 160 186 202 210 211 206 197 187 177 165 154 144 135 128 122 116 111 108 106 106 107 109 114 120 128 138 150 162 174 186 198 208 212 208 194 168 129 78 24 51 111 153 174 183 183 170 140 96 52 22 8 4 4 4 4 3 1 1 0 0 0 0 
2 2 1 1 1 1 2 2 4 12 28 49 72 100 138 184 222 232 207 155 87 13 61 123 169 199 212 212 202 186 169 149 130 112 96 83 72 61 52 44 38 33 30 28 26 25 25 26 28 31 36 42 50 60 71 83 98 117 140 164 187 205 217 220 208 180 134 74 22 59 113 160 194 203 178 125 71 31 10 3 2 3 3 3 1 0 0 1 1 
0 1 1 1 1 2 2 6 18 47 87 125 152 172 192 205 190 134 55 29 102 160 198 215 214 201 179 152 126 102 81 63 47 34 24 17 12 8 4 0 3 5 6 6 6 6 7 6 5 3 1 1 5 9 14 20 27 38 55 74 97 123 151 178 200 212 209 187 147 97 45 44 112 182 215 194 136 72 25 5 2 2 3 3 2 0 1 2 2 
0 1 1 2 2 2 5 21 58 114 170 200 203 185 155 112 51 64 138 192 220 225 211 185 154 123 93 68 47 32 21 14 8 2 2 8 13 17 20 22 25 26 28 30 32 34 34 33 32 29 24 20 15 11 7 3 1 4 9 16 27 41 60 82 106 130 153 168 171 167 150 114 46 62 155 202 182 119 51 12 2 1 3 4 2 0 1 2 1 
1 2 2 2 3 5 21 61 125 195 231 213 163 100 23 61 140 200 229 227 207 173 135 99 70 46 28 16 8 2 4 11 18 25 31 36 42 47 51 53 55 57 60 65 71 76 77 75 71 66 59 52 45 38 33 26 18 13 8 4 0 4 9 15 23 32 45 63 87 115 142 159 148 86 39 138 186 159 90 35 11 4 3 3 2 0 1 2 1 
3 3 2 2 4 17 55 124 201 241 210 120 54 88 138 181 207 209 187 153 116 81 51 30 16 7 1 4 9 18 31 45 60 72 79 83 84 84 83 82 81 82 86 92 99 106 111 110 104 97 88 82 78 76 72 66 57 46 36 26 19 15 17 26 36 48 55 55 48 46 65 105 149 162 114 66 130 167 141 88 43 17 6 3 2 0 1 2 2 
4 3 2 3 8 37 102 185 236 208 98 49 150 194 198 181 155 123 89 59 36 20 9 3 2 6 11 20 34 53 73 91 106 114 116 115 109 101 93 89 87 86 86 89 96 105 111 114 110 102 93 88 91 96 100 101 100 94 83 68 54 46 46 54 66 76 81 81 74 61 38 20 77 140 157 97 30 136 183 163 107 55 23 7 2 0 0 1 1 
1 1 2 3 17 66 147 215 207 104 49 165 207 187 139 90 53 28 14 6 5 5 6 8 14 22 35 52 71 90 107 119 125 124 117 106 91 76 66 64 66 67 64 63 69 76 79 84 87 84 75 71 77 85 94 105 117 123 119 104 86 74 71 76 82 83 78 69 61 56 47 35 38 77 126 133 80 100 186 220 189 125 65 27 8 1 0 0 0 
0 1 3 10 39 104 181 204 134 53 150 190 159 100 57 54 60 58 49 40 33 29 28 32 42 57 74 89 98 101 100 98 92 85 75 65 52 37 20 20 29 34 34 32 40 45 41 42 53 59 53 46 50 55 61 74 93 111 119 111 91 77 76 78 76 68 56 46 42 43 42 59 70 28 68 149 158 115 148 219 239 203 135 71 28 7 1 0 0 
1 3 11 34 87 157 195 150 54 115 160 127 70 59 83 101 107 105 97 85 72 64 62 69 81 93 101 100 88 72 57 49 40 25 13 26 37 35 17 17 22 13 10 11 27 38 27 7 31 42 36 32 35 33 32 41 51 62 83 88 70 57 60 61 54 43 33 28 31 36 44 73 101 99 122 179 189 134 95 160 225 244 209 138 69 25 5 1 0 
3 11 35 85 158 211 187 76 56 124 103 39 47 78 91 99 110 119 121 115 103 92 89 97 105 105 94 73 48 24 17 35 48 48 35 26 38 41 23 19 32 23 9 7 24 40 35 16 23 28 22 27 31 27 21 24 23 11 50 66 47 36 43 41 33 25 21 20 25 32 44 83 136 177 200 203 174 114 52 79 155 224 247 208 132 60 19 4 1 
7 31 83 157 224 232 157 78 115 104 32 39 69 75 70 68 76 88 100 104 100 91 88 93 91 76 52 26 8 10 20 35 51 61 57 38 28 36 24 5 26 28 19 16 24 39 42 33 25 15 8 20 22 22 17 12 15 15 40 50 43 49 52 43 33 24 20 18 18 30 51 91 147 192 197 163 111 61 24 15 71 155 229 248 199 115 46 12 3 
22 74 151 224 249 201 109 117 154 107 60 91 89 76 61 44 37 40 51 61 63 59 60 61 50 28 13 19 20 14 9 8 16 30 38 30 8 24 32 23 13 16 19 20 23 35 44 42 33 20 13 14 7 6 10 14 15 15 33 47 59 67 63 53 41 30 22 14 8 31 71 107 125 133 119 77 28 23 36 29 3 71 166 240 245 179 90 30 7 
53 136 216 251 215 129 62 118 159 141 124 127 104 88 73 44 19 8 20 30 29 24 29 30 15 15 28 27 12 6 21 32 34 32 31 27 20 28 45 52 44 23 4 8 16 27 38 42 38 33 31 31 29 23 11 21 30 34 39 41 44 45 41 39 37 30 23 16 6 25 82 128 120 70 29 34 32 41 53 56 45 4 81 187 253 232 146 60 14 
94 198 250 226 143 58 36 88 131 144 141 127 98 88 82 57 28 21 26 24 16 10 15 11 8 28 33 18 7 28 39 48 55 59 57 49 40 40 53 68 73 60 36 14 5 12 21 28 30 29 29 30 32 31 32 34 23 19 23 12 1 7 7 12 15 16 17 18 17 9 72 134 142 88 15 49 54 43 51 65 72 57 7 105 217 255 200 101 28 
140 240 240 166 73 17 18 50 84 102 104 91 71 80 87 71 46 30 19 10 9 10 4 9 22 32 27 4 24 40 43 43 46 50 50 43 35 32 40 45 55 65 52 29 16 14 13 17 22 25 23 16 11 17 34 39 21 22 36 36 38 44 47 44 33 19 5 10 22 14 42 114 148 112 30 45 64 40 30 50 70 81 66 23 151 242 234 145 47 
172 244 196 102 28 6 9 23 37 41 40 37 48 82 99 85 55 26 6 8 10 7 13 22 25 23 12 17 37 46 42 34 28 22 14 7 5 12 25 16 22 50 48 29 33 48 59 67 74 79 80 78 75 67 53 27 13 44 54 47 42 45 50 52 49 42 31 14 15 27 13 80 138 131 58 32 72 55 23 18 42 67 88 52 80 205 245 181 67 
173 209 138 54 8 4 4 14 22 19 8 9 43 91 112 93 51 13 4 3 12 23 26 22 14 6 19 35 46 47 37 21 3 15 32 43 45 47 55 56 54 55 38 6 42 70 93 109 115 114 111 110 113 111 94 61 43 52 46 28 15 14 19 24 32 41 46 40 17 19 16 47 122 143 87 14 72 71 44 19 2 28 68 74 30 163 240 204 81 
146 152 85 21 9 13 13 20 27 22 10 4 40 97 122 95 41 3 2 17 31 34 25 10 8 24 38 49 54 47 28 4 27 48 58 59 53 49 51 51 50 49 34 26 52 69 87 105 112 106 96 94 101 106 100 92 89 69 33 16 7 11 19 15 9 20 41 55 40 9 19 27 107 149 111 22 61 76 58 41 29 14 36 66 5 132 231 218 91 
99 92 40 16 32 37 36 29 27 17 4 12 39 103 131 99 39 6 16 34 38 29 13 13 27 38 46 52 51 33 11 33 56 64 59 47 34 25 22 15 10 24 19 36 70 86 80 69 66 62 57 55 59 57 67 106 120 83 28 23 19 2 16 22 20 7 23 49 52 32 27 26 98 151 129 46 43 71 61 50 46 42 45 66 23 121 227 226 96 
49 41 13 39 51 51 47 32 21 10 13 23 35 107 140 109 48 13 25 38 32 17 14 25 35 40 42 41 27 7 39 63 69 58 38 22 20 25 27 22 18 30 23 23 69 107 116 94 53 19 21 25 18 21 81 128 126 74 14 20 22 9 7 16 22 15 7 32 45 38 28 27 92 151 142 69 22 61 59 54 54 53 51 54 12 129 229 225 95 
13 14 28 51 53 47 46 33 17 9 22 33 24 102 145 123 65 26 28 35 23 8 19 31 41 43 37 24 7 35 60 64 50 26 3 18 30 36 33 21 17 34 36 10 36 86 117 121 96 55 22 7 15 61 109 124 98 52 23 17 13 12 15 18 20 16 6 19 31 28 14 23 83 144 149 88 12 46 53 55 55 48 27 13 68 167 233 209 87 
26 24 35 49 41 28 39 33 18 13 28 42 11 87 142 134 84 42 34 35 19 7 20 32 42 42 32 22 30 49 54 44 28 21 24 27 32 32 25 11 10 29 38 32 28 50 78 99 105 88 56 20 38 83 106 92 61 41 31 17 2 11 20 23 22 17 9 12 23 27 20 28 74 133 149 100 24 31 42 48 50 45 40 83 157 216 225 173 70 
52 38 27 41 29 9 31 29 15 13 30 49 18 64 130 138 98 54 36 33 24 29 33 31 32 35 34 36 42 43 35 24 21 23 22 21 23 22 19 12 7 16 26 33 42 47 49 58 78 88 72 29 42 84 88 65 44 33 24 17 11 15 20 23 21 14 7 15 30 38 30 30 67 125 147 105 35 18 28 34 41 62 104 160 213 225 187 120 47 
87 66 17 32 27 13 31 27 12 4 24 48 32 41 113 139 113 64 33 23 34 47 46 31 12 22 35 39 37 29 17 11 14 14 10 9 12 16 18 19 16 8 7 20 33 43 48 53 64 76 68 26 34 77 90 77 55 38 27 27 30 29 24 18 12 7 12 24 36 38 22 20 62 121 144 105 39 7 12 16 38 97 169 215 217 179 120 65 25 
133 122 55 22 19 16 35 35 26 22 16 37 36 21 96 140 127 76 26 19 43 52 44 31 15 11 22 26 23 16 6 2 6 7 4 3 7 11 16 20 18 11 17 30 37 45 60 81 98 98 76 44 43 74 99 103 87 66 62 76 82 75 58 36 14 7 18 27 33 29 19 26 67 124 142 103 45 17 18 33 75 150 220 235 186 112 54 23 8 
167 183 130 79 45 33 43 42 35 37 27 23 31 5 80 139 140 87 22 33 48 43 35 38 31 17 7 3 3 4 5 3 2 9 19 27 28 22 15 11 19 38 58 67 65 64 83 110 123 111 81 53 43 55 83 108 114 111 121 127 121 111 89 57 25 11 19 24 25 24 32 43 79 130 149 122 87 77 88 114 158 214 244 216 141 62 18 5 2 
166 209 197 163 122 94 78 58 34 32 34 16 23 6 61 131 147 100 31 40 43 25 24 38 37 34 30 24 17 10 4 4 12 32 58 79 89 88 84 80 83 95 106 102 92 81 96 119 112 82 56 36 26 21 34 68 101 126 135 120 109 115 100 65 28 13 17 17 14 19 36 52 90 144 180 183 173 171 183 206 233 247 226 167 92 32 6 2 2 
126 178 205 204 185 165 142 106 60 10 26 18 12 11 43 113 143 107 37 30 31 9 13 26 36 42 43 38 30 23 14 14 33 63 94 115 130 140 143 141 136 130 119 97 81 66 75 98 82 33 27 45 51 46 31 6 53 85 81 67 100 123 100 58 22 17 19 15 3 18 42 60 94 148 199 226 234 235 239 245 240 213 163 102 47 13 1 2 2 
67 106 143 172 191 202 202 177 129 66 27 21 14 20 34 94 130 106 39 16 29 19 6 12 28 39 45 44 40 33 24 26 48 78 98 103 110 127 140 143 134 116 90 61 49 30 38 77 75 33 43 75 81 70 61 54 44 20 37 101 146 139 88 34 16 28 29 21 14 35 61 76 91 124 166 199 215 220 216 201 173 133 87 46 17 4 1 2 1 
23 38 62 97 139 181 217 229 207 158 113 87 73 67 69 101 129 110 55 33 38 30 19 13 16 25 36 42 42 38 30 29 45 68 83 78 58 50 66 79 79 67 47 34 38 26 20 68 84 58 51 85 88 64 66 86 76 56 104 158 162 115 47 7 32 38 31 21 35 64 85 88 79 76 94 117 133 138 130 111 84 55 30 14 5 3 2 1 1 
4 6 14 36 72 120 175 221 240 228 203 179 160 149 147 159 165 133 82 58 52 39 31 26 19 10 13 27 35 36 30 23 27 50 79 99 100 82 52 21 2 13 17 27 42 41 19 50 81 67 41 76 82 44 41 82 90 100 145 166 129 57 7 39 43 30 22 45 72 92 96 82 57 37 30 37 46 49 44 34 21 11 5 3 3 2 1 0 0 
2 1 1 9 26 55 102 157 203 227 231 225 217 211 209 208 190 144 97 76 64 47 37 36 38 36 25 16 18 21 17 8 9 31 62 95 120 130 123 99 68 39 17 16 38 51 34 23 62 62 22 55 76 53 4 43 74 112 146 133 71 6 41 43 21 22 58 88 103 102 86 59 34 17 6 2 3 5 5 2 1 0 0 1 2 1 0 0 0 
1 1 0 1 5 15 39 76 119 155 178 190 199 204 204 192 161 119 92 87 76 53 39 45 57 63 58 47 36 28 21 16 16 20 32 56 85 113 131 131 114 88 59 35 33 49 42 7 45 58 21 33 67 69 41 17 62 106 116 79 18 34 41 16 31 73 105 116 109 88 61 35 17 8 2 1 2 1 1 2 1 0 0 2 2 0 0 0 0 
1 1 1 2 2 3 10 23 43 66 86 103 118 129 130 117 92 71 77 91 83 57 40 48 59 69 72 67 58 50 43 36 30 24 18 21 36 60 90 114 126 120 100 71 45 43 39 10 38 56 35 8 43 61 57 55 75 90 73 29 18 34 28 48 85 114 123 110 86 58 34 17 7 3 1 1 2 2 1 2 0 0 0 2 2 0 0 0 0 
1 1 2 2 1 1 2 5 8 14 22 31 39 44 43 37 30 38 66 85 81 53 32 36 42 52 61 63 60 53 48 43 39 33 24 15 12 20 40 69 98 116 117 98 61 31 27 12 28 55 51 29 26 52 69 79 84 71 38 2 18 25 54 91 116 122 107 80 52 29 14 6 3 2 1 0 1 2 1 2 2 2 2 2 1 0 0 0 0 
0 2 2 0 0 0 0 2 2 1 2 3 4 4 3 3 12 33 61 80 74 43 10 17 19 23 34 41 41 38 35 33 34 35 33 25 18 16 20 32 55 81 103 108 86 45 14 15 11 40 50 35 21 48 75 89 84 56 23 5 11 45 82 107 113 99 74 47 25 12 5 3 2 1 1 1 2 2 1 1 2 2 2 1 1 0 0 0 0 
0 2 2 0 0 0 0 2 2 0 0 0 0 0 0 2 14 38 68 86 78 48 23 25 23 12 5 16 20 20 20 21 25 30 33 34 32 28 25 23 29 46 71 96 104 85 48 22 11 25 41 33 13 45 79 93 78 44 17 13 37 69 92 97 85 63 40 22 11 5 3 1 1 1 2 2 1 1 1 1 1 0 0 0 0 0 0 0 0 
0 2 2 0 0 0 0 2 2 0 0 0 0 0 1 4 18 47 81 100 88 59 43 44 41 31 17 8 7 8 10 13 18 23 28 33 35 35 32 28 25 30 45 71 96 106 92 63 40 35 44 41 34 56 83 89 69 37 21 34 60 80 84 73 53 31 16 8 4 2 1 1 1 2 2 1 0 0 1 0 1 0 0 0 0 0 0 0 0 
0 1 2 2 1 1 0 2 2 0 0 0 0 0 1 7 24 58 93 107 89 56 43 50 52 45 32 22 17 11 6 1 8 16 23 28 30 30 30 30 29 31 37 52 74 97 104 93 75 66 67 69 72 82 89 79 55 34 32 48 67 75 69 52 31 14 6 3 1 0 1 2 2 1 1 0 0 0 1 1 1 0 0 0 0 0 0 0 0 
1 0 1 2 2 1 0 1 2 1 1 1 1 0 2 10 31 65 98 107 84 46 30 44 53 51 42 35 32 29 23 15 6 5 13 18 21 23 25 26 27 30 33 40 52 67 81 84 81 80 83 87 91 92 83 61 37 28 35 51 64 67 60 43 23 9 4 2 1 1 2 2 1 0 0 0 0 0 0 0 0 0 0 0 0 0 0 0 0 
2 1 0 0 1 2 2 1 1 1 0 0 1 0 3 14 37 69 95 101 81 47 15 26 41 46 43 41 40 37 33 28 20 13 8 7 11 16 16 14 12 14 19 26 33 42 50 51 51 55 61 64 66 65 55 36 18 18 34 52 66 69 62 46 26 10 4 2 1 2 1 1 0 0 0 0 0 0 0 0 0 0 0 0 0 0 0 0 0 
1 2 1 1 1 1 2 2 2 1 1 1 1 0 4 16 40 69 89 93 78 54 24 6 25 36 40 41 38 34 32 30 25 21 18 12 8 8 5 7 11 12 10 7 17 32 40 36 27 20 19 21 24 26 22 11 2 11 29 48 65 73 69 53 33 14 4 2 2 2 0 0 0 0 0 0 0 0 0 0 0 0 0 0 0 0 0 0 0 
1 1 2 2 1 0 0 0 0 0 0 0 0 0 4 17 41 67 83 85 75 59 39 16 7 24 35 35 29 26 25 24 24 25 25 22 15 9 20 30 32 32 29 19 12 28 41 39 28 17 7 1 8 12 11 8 8 9 23 40 56 69 71 58 37 16 5 2 2 2 0 1 1 2 2 2 2 2 1 1 0 0 0 0 0 0 0 0 0 
0 0 1 2 1 0 0 0 0 0 0 0 0 0 4 16 38 63 78 79 70 60 49 34 16 11 17 22 26 26 20 17 22 26 29 31 28 33 45 50 43 41 40 33 31 35 40 41 32 17 8 7 8 10 15 15 9 14 28 39 50 64 71 61 38 17 6 2 2 2 0 1 2 2 2 2 2 2 2 1 0 0 0 0 0 0 0 0 0 
0 0 0 1 2 1 0 0 0 0 0 0 0 0 3 14 34 58 74 75 65 57 52 48 39 25 16 23 28 22 14 17 24 31 36 42 48 59 66 59 45 44 41 38 44 47 45 41 33 21 16 17 14 12 11 10 19 31 39 41 48 64 72 60 36 15 5 2 2 2 0 2 2 0 0 0 0 0 2 2 0 0 0 0 0 0 0 0 0 
0 0 0 1 2 2 1 0 1 1 2 1 1 0 2 10 28 51 69 71 62 53 51 55 55 53 47 38 25 10 11 19 25 31 39 49 60 70 67 50 39 40 35 35 44 46 40 32 24 15 8 14 12 9 18 31 41 42 37 36 47 66 71 56 31 12 4 2 2 1 0 2 2 0 0 0 0 0 2 2 0 0 0 0 0 0 0 0 0 
0 0 0 0 1 2 2 2 2 2 2 2 2 1 1 6 22 44 63 68 61 50 47 52 58 62 60 48 30 14 9 10 11 15 24 36 47 48 35 25 33 32 18 17 26 25 18 8 12 17 20 27 33 38 46 50 43 26 16 28 51 70 69 48 24 9 3 3 2 1 0 2 2 0 0 0 0 0 2 2 0 0 0 0 0 0 0 0 0 
0 0 0 0 0 1 1 2 1 1 0 1 2 2 1 3 15 36 56 64 59 47 38 39 45 49 50 47 40 34 27 22 19 16 14 15 17 13 17 34 42 36 19 17 21 17 17 23 31 40 47 53 55 54 51 38 13 19 40 55 73 84 69 41 18 6 3 2 1 0 1 2 1 0 0 1 1 2 2 1 0 0 0 0 0 0 0 0 0 
0 0 0 0 0 0 0 0 0 0 0 0 1 2 1 1 10 27 47 59 58 45 31 25 27 31 35 41 45 48 49 48 48 46 46 48 51 56 62 65 59 46 34 33 36 36 36 39 43 49 53 56 54 46 30 11 40 69 77 87 108 109 79 39 15 5 2 1 0 0 1 2 1 0 0 1 2 2 1 1 0 0 0 0 0 0 0 0 0 
0 0 1 1 1 0 0 0 0 0 0 0 0 2 2 1 7 20 38 54 59 47 29 18 16 20 25 32 41 49 55 57 56 57 60 67 74 78 78 70 56 42 33 33 36 36 36 37 38 40 41 40 34 20 16 50 85 100 86 96 131 132 94 45 16 6 2 0 0 0 2 2 0 0 0 2 2 0 0 0 0 0 0 0 0 0 0 0 0 
0 1 2 1 1 0 0 0 0 0 0 0 0 2 2 0 4 14 29 49 60 52 33 16 11 13 17 22 29 35 40 43 44 47 52 59 65 67 63 53 42 31 25 27 31 31 31 31 30 28 25 19 5 23 59 93 112 100 65 90 139 144 106 55 20 6 2 0 0 0 2 2 0 0 0 1 2 2 2 2 2 1 1 0 0 0 0 0 0 
2 2 2 1 2 0 0 0 0 0 0 0 0 2 2 0 2 9 22 41 58 58 41 19 5 6 8 10 11 11 11 13 16 19 24 29 34 36 35 32 29 26 24 26 29 30 28 26 24 19 11 5 32 69 104 122 112 73 37 87 138 145 112 63 25 8 3 1 1 2 2 1 0 0 0 1 1 2 2 2 2 2 1 0 0 0 0 0 0 
2 1 1 2 2 0 0 0 0 0 0 0 0 2 2 0 1 5 15 32 52 61 51 28 5 3 3 6 13 20 25 30 31 30 27 24 19 14 6 3 11 16 20 23 25 25 21 17 15 10 9 34 73 112 131 119 80 30 40 91 130 138 112 68 29 10 3 2 2 2 1 1 0 0 0 0 0 0 0 0 0 2 2 0 0 0 0 0 0 
0 0 0 2 2 0 0 0 0 0 0 0 0 2 2 0 0 2 9 22 42 59 60 41 15 8 13 20 29 39 51 64 76 84 87 88 86 80 68 49 29 12 4 9 13 15 12 6 5 2 22 62 103 126 115 75 23 28 64 95 120 127 107 68 32 11 2 1 1 0 0 0 0 0 0 0 0 0 0 0 0 2 2 0 0 0 0 0 0 
0 0 1 2 1 0 0 0 0 0 0 0 0 2 2 0 0 1 5 14 32 52 64 54 31 13 16 24 33 44 57 72 87 101 114 124 131 131 120 99 71 45 26 13 6 10 9 4 5 2 29 74 109 106 65 17 46 76 95 106 116 117 98 64 31 11 2 0 0 0 0 0 0 0 0 1 1 1 1 0 0 1 2 2 1 1 0 0 0 
0 0 1 2 1 0 0 0 0 0 0 0 0 1 2 1 1 1 3 9 22 42 61 62 46 25 16 22 30 39 50 57 60 66 81 98 113 123 124 112 88 61 38 23 15 14 11 6 7 5 28 75 112 116 98 95 109 119 121 119 117 108 85 55 26 9 2 0 0 0 0 0 0 0 0 1 2 2 1 0 0 1 1 2 2 1 1 2 2 
0 0 2 1 1 2 2 2 1 1 0 0 0 1 1 2 2 1 1 5 15 33 53 62 56 38 23 21 26 34 45 53 49 39 32 34 39 53 78 93 85 61 36 20 11 8 5 4 14 17 28 68 112 141 151 150 146 141 133 122 111 93 68 40 19 7 1 0 0 0 0 0 0 0 0 2 2 2 2 0 0 0 0 0 1 1 2 2 2 
0 0 2 1 2 2 2 2 2 1 0 0 0 0 0 1 1 2 1 2 11 26 45 59 61 47 31 23 21 26 37 50 59 66 69 65 51 39 63 88 85 60 33 16 5 7 5 10 22 26 30 53 90 124 146 150 145 135 121 106 89 68 45 25 12 4 1 0 0 0 0 1 1 2 2 2 1 2 2 0 0 0 0 0 1 1 1 0 0 
0 1 2 1 2 0 0 0 2 2 0 0 0 0 0 0 0 2 2 2 9 23 42 59 67 57 40 29 23 21 22 28 44 63 81 93 93 85 85 88 77 50 26 12 14 19 18 22 32 34 32 39 58 80 100 110 110 101 88 72 56 40 25 14 7 2 1 0 0 0 1 2 2 2 2 1 1 1 2 1 0 0 0 0 0 0 0 0 0 
0 1 2 1 2 0 0 0 1 2 1 1 0 0 0 0 0 2 2 2 8 20 41 62 73 66 46 31 27 24 16 4 24 47 69 87 95 89 77 65 48 32 27 28 35 34 29 37 47 44 37 37 41 47 56 62 63 58 48 36 27 19 12 7 3 1 1 0 0 1 2 2 1 0 0 0 0 1 2 1 0 0 0 0 0 0 0 0 0 
0 1 2 1 2 0 0 0 1 1 2 1 0 0 0 0 0 2 2 2 7 17 38 63 78 73 51 30 18 12 4 20 36 49 63 78 85 80 62 39 18 21 34 42 42 34 34 54 63 54 41 38 36 34 32 31 29 25 20 14 11 7 5 3 2 1 2 0 1 2 2 1 0 0 0 0 0 0 2 2 0 0 0 0 0 0 0 0 0 
0 1 2 1 2 0 0 0 0 0 2 2 0 0 0 0 0 2 2 2 6 14 33 59 78 81 67 46 30 29 41 55 64 67 69 75 81 80 66 45 22 8 17 24 18 20 51 75 75 60 43 35 30 25 21 17 13 10 8 6 4 3 2 2 1 2 2 0 1 2 1 0 0 0 0 1 1 2 2 1 0 0 0 0 0 0 0 0 0 
0 0 2 0 2 0 0 0 0 0 2 2 0 0 0 0 0 2 2 1 4 11 25 48 72 86 88 82 77 79 85 88 86 81 75 75 79 82 80 70 58 45 33 28 37 61 84 92 79 57 39 29 22 17 13 8 6 4 2 2 1 1 2 2 0 1 2 1 2 2 0 0 0 0 0 1 2 2 1 1 1 0 0 0 0 1 1 2 2 
0 0 2 1 2 2 2 1 1 0 2 2 0 0 0 0 0 1 2 2 3 7 17 35 57 77 91 99 102 104 103 97 88 77 68 66 69 76 83 87 87 85 82 83 90 98 101 90 67 44 28 19 13 9 6 4 3 2 1 1 0 0 2 2 0 1 2 2 2 1 0 1 1 2 1 1 2 0 1 1 2 1 1 0 0 1 2 2 2 
1 1 2 1 1 2 2 2 2 2 2 1 0 0 0 0 0 1 1 2 3 5 10 21 37 55 71 83 90 91 86 76 66 56 49 46 49 57 69 80 90 97 102 105 106 101 88 67 45 27 17 10 6 4 3 2 1 1 1 1 1 1 2 1 0 0 1 1 1 1 1 2 2 2 2 1 1 1 1 1 1 2 2 1 0 2 2 0 0 
2 2 1 1 0 0 0 1 1 2 1 1 0 0 0 0 0 0 0 1 1 3 4 8 17 28 39 49 54 54 49 42 34 29 25 24 26 33 43 54 65 75 82 84 81 71 56 39 24 14 8 4 3 2 1 1 2 2 1 1 1 2 1 1 0 0 0 0 0 0 1 2 1 0 1 1 1 1 1 2 0 1 2 1 0 2 2 0 0 
1 1 0 0 0 0 0 0 0 0 0 0 0 0 0 0 0 0 0 0 1 2 1 1 5 9 13 17 18 18 17 14 12 10 8 8 9 13 18 26 33 40 44 46 43 35 26 18 11 7 3 1 2 1 0 1 2 1 0 1 2 1 0 0 0 0 0 0 0 0 2 2 0 0 0 1 1 1 1 2 0 0 2 2 0 1 2 1 1 
0 0 0 0 0 0 0 0 0 0 0 0 0 0 0 0 0 0 0 1 2 2 1 0 1 3 4 4 4 4 4 4 4 3 2 2 3 4 6 9 12 14 15 16 15 11 8 6 4 2 1 1 2 1 0 2 2 0 0 1 2 1 0 0 0 0 0 0 0 0 2 2 0 0 0 0 0 0 2 2 0 1 2 1 0 1 2 2 2 
0 0 0 0 0 0 0 0 0 0 0 0 0 0 0 0 0 0 0 1 2 1 0 1 2 2 2 2 2 2 2 2 1 1 0 1 1 2 2 2 3 4 4 4 2 2 2 2 2 2 2 2 2 1 0 2 2 0 0 2 2 0 0 0 0 0 0 0 0 0 2 2 0 0 0 0 0 1 2 1 0 1 2 1 0 0 1 1 1 
0 0 0 0 0 0 0 0 0 0 0 0 0 0 0 0 0 0 0 1 2 2 2 2 2 1 0 0 0 0 0 0 0 0 0 0 0 0 2 2 1 1 1 1 1 1 2 2 2 2 2 1 1 0 0 2 2 0 1 2 1 0 0 0 0 0 0 0 0 0 1 2 2 2 1 1 0 1 2 1 0 2 2 0 0 0 0 0 0 
0 0 0 0 0 0 0 0 0 0 0 0 0 0 0 0 0 0 0 1 1 2 2 1 1 0 0 0 0 0 0 0 0 0 0 0 0 0 2 2 0 0 0 0 1 2 1 1 0 0 0 0 0 0 0 2 2 0 1 2 1 0 0 0 0 0 0 0 0 0 1 1 2 2 2 1 0 2 2 0 0 2 2 0 0 0 0 0 0 
