P2
89 89
255
2 2 1 2 1 0 2 2 0 1 2 2 1 0 1 2 2 2 1 0 0 0 0 1 2 2 2 2 2 2 1 0 2 1 1 1 2 0 0 0 0 1 2 1 2 1 2 2 0 0 0 0 2 2 0 0 0 0 2 2 2 2 0 0 0 0 0 0 0 0 0 0 2 2 0 0 0 0 0 0 0 0 0 0 0 0 0 0 0 
2 2 1 2 2 2 2 0 0 1 1 1 1 0 1 0 2 0 1 0 0 0 0 1 0 2 2 2 2 0 1 0 1 1 2 1 1 0 0 0 0 0 2 1 2 2 2 0 0 0 0 1 2 0 0 0 0 0 0 2 2 0 0 0 0 0 0 0 0 0 0 0 0 2 2 0 1 1 0 2 2 2 2 2 2 2 2 2 2 
1 2 1 1 0 2 0 1 1 1 1 0 0 0 0 0 0 0 1 1 1 1 0 0 0 1 1 1 1 0 0 0 1 1 1 1 1 0 0 1 0 2 0 0 1 1 1 1 0 0 0 0 2 1 0 0 0 0 1 1 1 1 0 0 0 0 0 0 0 0 0 0 1 0 2 2 2 2 2 2 2 2 2 2 2 2 2 2 2 
1 2 0 0 0 0 1 2 2 2 2 1 0 0 0 0 0 1 2 2 2 2 2 2 2 2 2 2 1 0 0 0 0 0 0 1 0 2 2 2 2 0 1 0 0 0 0 0 0 0 0 2 0 1 1 0 0 0 0 0 1 1 2 1 1 0 0 0 1 1 1 0 0 0 0 1 1 1 1 0 0 0 0 0 0 0 0 0 0 
0 2 2 0 1 1 1 1 1 1 1 1 0 0 0 0 0 1 1 1 1 0 2 2 2 0 0 2 1 0 0 0 0 0 0 1 2 2 2 0 1 0 0 0 0 0 0 0 0 0 0 1 1 2 2 1 0 0 0 0 1 1 0 1 1 0 0 1 2 1 1 0 0 0 0 1 1 1 0 0 0 0 0 0 0 0 0 1 1 
0 0 2 2 2 1 1 1 2 2 1 1 0 0 0 0 0 1 1 2 2 0 0 0 0 0 2 0 1 0 0 0 0 0 0 1 2 0 0 0 0 0 0 0 0 0 0 0 0 0 0 1 1 0 2 0 0 0 0 0 1 1 2 1 1 0 0 0 2 0 2 0 0 0 0 1 1 1 0 0 0 1 1 1 1 0 0 0 2 
2 0 0 1 1 0 2 1 0 0 0 0 1 1 1 1 0 0 0 0 2 2 0 0 0 2 2 0 0 0 0 0 0 0 1 1 1 1 1 1 1 0 0 0 0 1 0 2 2 2 2 2 0 1 0 2 2 0 1 0 0 0 0 0 0 0 0 2 2 2 2 0 0 0 0 2 0 2 0 0 0 0 2 2 2 0 0 2 1 
2 2 2 0 0 2 2 0 0 1 1 1 1 2 2 2 1 0 1 0 2 0 0 0 0 2 2 0 0 0 0 0 0 0 1 1 1 1 1 1 2 1 0 0 0 1 2 2 2 2 2 2 2 0 1 0 2 2 2 1 1 2 2 2 2 0 1 0 2 0 2 0 0 0 0 2 1 2 1 0 0 2 2 0 2 2 2 2 1 
0 0 2 2 0 2 2 0 1 2 2 2 1 2 0 2 1 0 1 2 0 1 0 0 0 2 2 0 0 0 0 0 0 0 1 2 2 0 1 1 1 1 0 0 0 0 2 0 1 0 0 0 0 2 0 0 1 1 1 0 1 1 0 2 2 2 0 1 2 0 2 0 0 0 0 2 0 2 0 0 0 2 2 0 1 1 1 1 0 
2 0 2 2 1 2 2 0 0 2 0 1 1 1 0 2 1 0 1 2 2 0 1 0 0 2 2 0 0 0 0 0 0 0 0 0 0 0 0 0 0 0 17 17 17 0 0 0 0 0 0 0 0 3 0 2 2 2 0 1 1 2 0 0 0 2 2 0 2 0 2 2 0 0 0 2 2 0 2 2 2 2 0 0 1 0 2 0 1 
2 2 2 2 0 0 2 1 2 2 0 1 1 1 2 0 1 0 1 0 2 2 0 1 0 2 0 0 0 0 0 0 0 0 0 0 0 0 0 0 0 0 0 79 79 0 0 0 0 0 0 0 0 0 0 0 0 0 0 0 0 2 2 0 0 2 0 0 2 2 0 2 2 2 2 2 0 1 1 1 1 1 0 2 2 2 2 2 1 
1 0 2 0 2 0 2 1 2 2 0 0 0 1 2 0 1 0 0 0 0 2 2 0 0 0 0 0 0 0 0 0 0 0 0 0 0 0 0 0 0 0 0 173 173 0 0 0 0 0 0 0 0 0 0 0 0 0 0 0 0 0 0 0 0 0 1 0 2 2 0 1 0 2 2 0 1 0 1 2 2 2 2 2 0 1 0 2 2 
2 1 1 1 2 2 0 1 2 0 0 0 0 1 0 2 2 1 1 0 0 0 0 0 0 0 0 0 0 0 0 0 0 0 0 0 206 211 214 216 218 218 218 216 214 212 211 212 213 214 214 213 210 206 200 0 0 0 0 0 0 0 0 0 0 0 0 0 0 2 2 2 2 0 1 0 0 0 0 2 0 0 0 0 0 0 0 2 2 
2 0 1 0 1 1 1 1 1 1 0 0 0 0 0 1 1 1 1 0 0 0 0 0 0 0 0 0 0 0 205 212 214 212 207 200 0 0 0 0 0 0 0 0 0 0 0 0 0 0 0 0 0 0 0 199 207 212 213 208 0 0 0 0 0 0 0 0 0 0 0 2 2 2 2 2 2 2 2 0 0 0 0 0 0 0 0 0 2 
2 2 2 1 1 0 1 2 1 0 0 0 0 0 0 0 0 0 0 0 0 0 0 0 0 0 208 215 213 205 0 0 0 0 0 0 0 0 0 0 0 0 0 0 65 0 0 0 0 0 0 0 0 0 0 0 0 0 0 0 206 218 219 209 0 0 0 0 0 0 0 0 0 0 0 2 2 2 0 1 0 0 0 0 0 0 0 1 1 
1 1 1 1 1 0 1 2 0 0 1 1 1 1 0 0 0 0 0 0 0 0 0 213 220 214 0 0 0 0 0 0 0 0 0 0 0 0 0 0 0 0 0 202 202 200 0 0 0 0 0 0 0 0 0 0 0 0 0 0 0 0 0 0 219 222 208 0 0 0 0 0 0 0 0 0 0 0 0 0 0 0 0 0 0 0 0 0 0 
0 0 1 2 1 0 0 0 2 0 2 0 0 0 0 0 0 0 0 0 0 223 218 0 0 0 0 0 0 0 0 0 0 0 205 212 215 215 215 213 212 210 207 204 0 0 198 197 199 201 203 205 208 209 208 205 199 0 0 0 0 0 0 0 0 0 0 209 200 175 0 0 0 0 0 0 0 0 2 2 2 0 1 0 0 0 0 0 0 
2 0 1 2 0 0 0 0 2 0 0 0 0 0 0 0 0 0 225 231 214 0 0 0 0 0 0 0 0 202 210 211 206 197 0 0 0 0 0 0 0 0 0 0 0 0 0 0 0 0 0 0 0 0 0 0 0 198 208 212 208 0 0 0 0 0 0 0 0 0 183 183 0 0 0 0 0 0 0 4 4 4 3 0 1 0 0 0 0 
2 2 1 1 1 0 2 0 0 0 0 0 0 0 0 0 222 232 0 0 0 0 0 0 0 0 212 212 202 0 0 0 0 0 0 0 0 0 0 0 0 0 0 0 0 0 0 0 0 0 0 0 0 0 0 0 0 0 0 0 0 205 217 220 208 0 0 0 0 0 0 0 194 203 0 0 0 0 0 0 0 3 3 3 0 0 0 1 1 
0 1 1 1 0 2 0 0 0 0 0 0 0 0 192 205 0 0 0 0 0 0 0 215 214 201 0 0 0 0 0 0 0 0 0 0 0 0 0 0 0 0 6 6 6 0 7 0 0 0 0 0 0 0 0 0 0 0 0 0 0 0 0 0 0 212 209 187 0 0 0 0 0 0 215 0 0 0 0 0 2 0 3 3 2 0 1 2 2 
0 1 0 2 2 0 0 0 0 0 0 0 203 185 0 0 0 0 0 0 220 225 211 0 0 0 0 0 0 0 0 0 0 0 0 0 0 0 0 0 0 0 0 0 0 34 34 0 0 0 0 0 0 0 0 0 0 0 0 0 0 0 0 0 0 0 0 0 171 167 150 0 0 0 0 202 0 0 0 0 0 0 3 4 2 0 1 2 1 
1 2 2 2 0 0 0 0 0 0 231 213 0 0 0 0 0 0 229 227 0 0 0 0 0 0 0 0 0 0 0 0 0 0 0 0 0 0 0 0 0 0 0 0 0 0 77 0 0 0 0 0 0 0 0 0 0 0 0 0 0 0 0 0 0 0 0 0 0 0 0 159 0 0 0 0 186 0 0 0 0 0 0 3 2 0 1 2 1 
3 3 2 0 0 0 0 0 0 241 0 0 0 0 0 181 207 209 0 0 0 0 0 0 0 0 0 0 0 0 0 0 0 0 0 0 84 84 0 0 0 0 86 92 99 106 111 0 0 0 0 0 0 0 0 0 0 0 0 0 0 0 0 0 0 0 55 55 0 0 0 0 149 162 0 0 0 167 0 0 0 0 0 0 2 0 1 2 2 
4 3 2 3 0 0 0 0 236 0 0 0 0 194 198 181 0 0 0 0 0 0 0 0 0 0 0 0 0 0 0 0 0 0 116 115 109 101 93 89 87 86 86 0 0 0 111 114 110 102 93 88 91 96 100 101 0 0 0 0 0 0 0 0 0 0 81 81 74 61 0 0 0 0 157 0 0 0 183 0 0 0 0 0 0 0 0 1 1 
1 0 0 0 0 0 0 215 0 0 0 0 207 0 0 0 0 0 0 0 0 0 0 0 0 0 0 0 0 0 107 119 125 124 117 0 0 0 0 0 0 67 0 0 0 0 0 0 87 0 0 0 0 0 0 105 117 123 119 0 0 0 0 0 82 83 0 0 0 0 47 0 0 0 0 133 0 0 186 220 0 0 0 0 0 0 0 0 0 
0 0 0 0 0 0 0 204 0 0 0 190 0 0 0 0 60 0 0 0 0 0 0 0 0 0 0 0 98 101 0 0 0 0 0 0 0 0 0 0 0 34 34 0 0 45 0 0 0 59 0 0 0 0 0 0 0 0 119 111 91 77 76 78 0 0 0 0 0 43 0 0 70 0 0 0 158 0 0 0 239 0 0 0 0 0 0 0 0 
1 0 0 0 0 0 195 0 0 0 160 0 0 0 0 101 107 0 0 0 0 0 0 0 0 0 101 100 0 0 0 0 0 0 0 0 37 0 0 0 22 0 0 0 0 38 0 0 0 42 0 0 35 0 0 0 0 0 0 88 0 0 0 61 0 0 0 0 0 0 44 0 101 0 0 0 189 134 0 0 0 244 0 0 0 0 0 0 0 
3 0 0 0 0 211 0 0 0 124 0 0 0 78 91 0 110 119 121 115 103 92 89 97 105 105 0 0 0 0 0 0 48 48 0 0 38 41 0 19 32 0 0 0 0 40 0 0 0 28 0 0 31 0 0 24 0 0 0 66 0 0 43 0 0 0 0 0 0 0 0 0 0 0 200 203 0 0 0 0 0 0 247 0 0 0 0 0 1 
7 0 0 0 0 232 0 0 115 0 0 0 0 75 0 0 0 0 0 104 0 0 0 93 0 0 0 0 0 0 20 35 51 61 57 38 0 36 0 0 0 28 19 0 24 0 42 0 0 0 0 0 22 22 0 0 15 15 0 50 0 0 52 0 0 0 0 0 0 0 0 0 147 192 197 0 0 0 0 0 0 0 0 248 0 0 0 0 3 
22 0 0 0 249 0 0 0 154 0 0 91 0 0 0 0 0 0 0 0 63 0 0 61 0 0 0 0 20 14 0 0 0 0 38 0 0 0 32 0 0 0 19 20 0 0 44 42 0 0 0 14 0 0 0 0 15 0 0 0 59 67 63 53 41 30 0 0 0 31 0 0 0 133 0 0 0 0 36 0 0 0 0 0 245 0 0 0 7 
53 0 0 251 0 0 0 118 159 0 0 127 104 88 0 0 0 0 0 30 0 0 0 30 0 0 28 27 0 0 0 0 34 0 0 0 0 0 0 52 0 0 0 0 0 0 0 42 38 33 31 31 0 0 0 0 30 34 39 0 0 45 0 0 0 30 23 0 0 0 82 128 0 0 0 34 0 0 53 56 0 0 0 0 253 0 0 0 14 
94 0 250 0 0 0 0 0 0 144 141 127 0 88 0 0 0 0 26 0 0 0 15 0 0 0 33 0 0 0 0 48 55 59 57 49 40 40 53 68 73 0 0 0 0 0 0 0 30 0 0 0 32 31 0 34 0 0 23 0 0 7 0 0 0 0 0 18 0 0 0 134 142 0 0 49 54 43 0 65 72 0 0 0 0 255 0 0 28 
140 240 240 0 0 0 0 0 0 0 104 0 0 0 87 0 0 30 0 0 0 10 0 0 0 32 0 0 0 0 43 0 0 50 50 0 0 0 0 0 0 65 52 29 0 0 0 0 0 25 0 0 0 0 0 39 0 0 36 0 0 0 47 0 0 0 0 0 22 0 0 0 148 0 0 0 64 0 0 0 0 81 0 0 0 242 0 0 47 
172 244 0 0 0 0 0 0 0 41 0 0 0 0 99 0 55 0 0 0 10 0 0 22 25 0 0 0 0 46 0 0 0 0 0 0 0 0 25 0 0 50 0 29 0 0 0 0 0 0 80 0 0 0 0 0 0 0 54 47 42 45 50 52 49 42 0 0 0 27 0 0 138 0 0 0 72 0 0 0 0 0 88 0 0 0 245 0 67 
173 209 0 0 0 0 0 0 22 0 0 0 0 0 112 0 0 0 0 0 0 0 26 22 0 0 0 0 0 47 0 0 0 0 0 0 0 0 55 56 54 55 0 0 0 70 93 109 115 114 111 110 113 111 0 0 0 52 0 0 0 0 0 0 0 0 46 0 0 19 0 0 0 143 0 0 72 0 0 0 0 0 0 74 0 0 240 0 81 
146 152 0 0 0 13 0 0 27 22 10 0 0 0 122 0 0 0 0 0 0 34 0 0 0 0 0 0 54 47 0 0 0 0 0 59 53 49 51 51 0 0 0 0 0 0 0 0 112 0 0 0 0 106 100 0 0 0 0 0 0 0 19 0 0 0 0 55 0 0 0 0 0 149 0 0 0 76 0 0 0 0 0 66 0 0 231 0 91 
99 0 0 0 0 37 0 0 27 0 0 0 0 0 131 0 0 0 0 0 38 0 0 0 0 0 46 52 0 0 0 0 0 64 59 0 0 0 0 0 0 24 0 36 70 86 0 0 0 0 0 0 59 0 0 0 120 83 0 23 0 0 0 22 0 0 0 0 52 0 0 0 0 151 0 0 0 71 61 0 0 0 0 66 23 0 227 226 96 
49 0 0 0 51 51 47 0 0 0 0 0 0 107 140 0 0 0 0 38 0 0 0 0 0 0 42 0 0 0 0 0 69 0 0 0 0 0 27 22 18 30 0 0 0 107 116 0 0 0 0 25 0 0 0 128 126 0 0 0 22 0 0 0 22 0 0 0 45 38 28 27 0 151 0 0 0 61 0 0 54 53 51 54 0 0 229 0 95 
13 0 0 51 53 0 0 33 0 0 0 33 0 0 145 0 0 0 0 35 0 0 0 0 0 43 0 0 0 0 60 64 0 0 0 0 0 36 33 0 0 34 36 0 0 0 117 121 0 0 0 0 0 0 109 124 0 0 0 0 0 12 0 0 20 0 0 0 31 0 0 0 0 0 149 0 0 0 0 55 55 0 0 0 0 0 233 0 87 
26 0 35 49 0 0 39 33 18 13 0 42 0 0 142 0 0 0 0 35 0 0 0 32 42 42 0 0 0 49 54 0 0 0 24 27 32 32 0 0 0 0 38 0 0 0 0 0 105 88 0 0 0 0 106 0 0 0 31 17 0 0 20 23 22 17 9 0 0 27 0 0 0 0 149 0 0 0 0 0 50 0 0 0 0 0 225 0 70 
52 0 0 41 0 0 31 0 0 13 30 49 0 0 0 138 0 0 36 0 0 0 33 0 0 35 0 0 42 43 0 0 0 23 0 0 23 0 0 0 0 0 0 33 42 0 0 0 0 88 72 29 42 84 88 0 0 0 0 0 0 0 0 23 0 0 0 0 0 38 30 30 0 0 147 105 0 0 0 0 0 0 0 0 0 225 0 0 47 
87 0 0 32 0 0 31 0 0 0 0 48 0 0 0 139 0 0 0 0 0 47 46 31 0 0 35 39 0 0 0 0 14 14 0 0 0 0 0 19 0 0 0 0 0 0 0 0 0 76 0 0 0 0 90 0 0 0 0 0 30 0 0 0 0 0 0 0 36 38 0 0 0 0 144 105 0 0 0 0 0 0 0 0 217 0 0 0 25 
133 0 0 0 0 0 35 35 0 0 0 37 36 0 0 140 0 0 0 0 0 52 0 0 0 0 0 26 0 0 0 0 0 7 0 0 0 0 0 20 0 0 0 0 0 0 0 0 98 98 0 0 43 0 99 103 0 0 0 0 82 0 0 0 0 0 0 27 33 0 0 0 0 0 142 0 0 0 0 0 0 0 0 235 0 0 0 0 8 
167 183 0 0 0 0 43 0 35 37 0 0 31 0 0 0 140 0 0 0 48 0 0 38 0 0 0 0 0 0 5 0 0 0 0 0 28 0 0 0 0 0 0 67 0 0 0 0 123 111 81 53 43 0 0 108 114 0 0 127 121 0 0 0 0 0 19 0 25 0 0 0 0 0 149 0 0 0 0 0 0 0 244 0 0 0 0 0 2 
166 209 0 0 0 0 0 0 0 0 34 0 23 0 0 0 147 0 0 40 43 0 0 38 37 0 0 0 0 0 0 0 0 0 0 0 89 0 0 0 0 0 106 102 92 81 96 119 0 0 0 0 0 0 0 0 0 126 135 0 0 115 100 65 28 0 17 17 0 0 0 0 0 0 0 183 0 0 0 0 0 247 0 0 0 0 0 0 2 
126 0 205 204 0 0 0 0 0 0 26 0 0 0 0 0 143 107 0 0 31 0 0 0 0 42 43 0 0 0 0 0 0 0 0 115 130 140 143 0 136 130 119 0 0 0 0 98 0 0 0 0 51 0 0 0 0 85 0 0 0 123 100 0 0 0 19 0 0 0 0 0 94 148 199 226 234 235 239 245 240 0 0 0 0 0 0 2 2 
67 0 0 0 191 202 202 0 0 0 0 0 0 0 0 0 130 0 0 0 29 0 0 0 0 0 45 44 0 0 0 0 48 78 98 0 0 0 0 143 0 0 0 0 0 0 0 77 0 0 0 0 81 70 0 0 0 0 0 0 146 139 0 0 0 0 29 21 0 0 0 0 0 0 0 0 0 220 0 0 0 0 0 0 0 0 0 2 1 
23 0 0 0 0 0 217 229 0 0 0 0 0 0 0 0 129 0 0 0 38 0 0 0 0 0 0 42 42 38 30 29 0 0 83 0 0 0 0 79 79 0 0 0 38 0 0 0 84 0 51 85 88 0 66 86 0 0 0 0 162 0 0 0 0 38 31 0 0 0 0 88 0 0 0 0 0 138 0 0 0 0 0 0 0 0 2 0 1 
4 0 0 0 0 0 0 0 240 228 0 0 0 0 0 0 165 0 0 0 0 0 0 0 0 0 0 0 0 36 30 0 0 0 0 99 100 0 0 0 0 0 0 0 42 0 0 0 81 67 0 0 82 0 0 0 90 0 0 166 0 0 0 0 43 0 0 0 0 0 96 0 0 0 0 0 0 49 0 0 0 0 0 0 3 0 0 0 0 
2 0 0 0 0 0 0 0 0 0 231 225 217 211 209 208 190 144 97 0 0 0 0 0 38 0 0 0 0 21 0 0 0 0 0 0 120 130 0 0 0 0 0 0 0 51 0 0 62 62 0 0 76 0 0 0 0 112 146 0 0 0 41 43 0 0 0 0 103 102 0 0 0 0 0 0 0 5 5 0 0 0 0 0 2 0 0 0 0 
1 1 0 0 0 0 0 0 0 0 0 0 0 204 204 0 0 0 0 0 0 0 0 0 0 63 0 0 0 0 0 0 0 0 0 0 0 0 131 131 0 0 0 0 0 49 42 0 0 58 0 0 0 69 0 0 0 0 116 0 0 34 41 0 0 0 0 116 109 0 0 0 0 0 0 0 2 0 0 2 1 0 0 2 2 0 0 0 0 
1 1 0 2 0 0 0 0 0 0 0 0 0 0 130 0 0 0 0 91 83 57 40 48 59 69 72 67 0 0 0 0 0 0 0 0 0 0 0 0 126 120 0 0 0 0 0 0 0 56 0 0 0 61 0 0 0 90 0 0 18 34 0 0 0 0 123 0 0 0 0 0 0 0 0 1 2 2 1 2 0 0 0 2 2 0 0 0 0 
1 0 2 2 0 0 0 0 0 0 0 0 0 44 0 0 0 0 0 85 0 0 0 0 0 0 0 63 60 53 48 43 39 0 0 0 0 0 0 0 0 0 117 0 0 0 0 0 0 55 51 0 0 0 0 0 84 0 0 0 18 0 0 0 116 122 0 0 0 0 0 0 0 0 1 0 0 2 1 2 2 2 2 2 0 0 0 0 0 
0 2 2 0 0 0 0 2 2 0 0 0 4 4 0 0 0 0 0 80 0 0 0 0 0 0 0 41 41 0 0 0 0 35 33 0 0 0 0 0 0 0 0 108 0 0 0 15 0 0 50 35 0 0 0 89 84 0 0 0 0 0 0 107 113 0 0 0 0 0 0 0 0 0 1 0 2 2 1 0 2 2 2 0 1 0 0 0 0 
0 2 2 0 0 0 0 2 2 0 0 0 0 0 0 0 0 0 0 86 0 0 0 25 0 0 0 0 20 20 0 0 0 0 33 34 0 0 0 0 0 0 0 0 104 0 0 0 0 0 41 0 0 0 0 93 0 0 0 0 0 0 92 97 0 0 0 0 0 0 0 0 1 0 2 2 0 1 1 1 1 0 0 0 0 0 0 0 0 
0 2 2 0 0 0 0 2 2 0 0 0 0 0 1 0 0 0 0 100 0 59 43 44 0 0 0 0 0 0 0 0 0 0 0 0 35 35 32 0 0 0 0 0 0 106 0 0 0 0 44 0 0 0 0 89 0 0 0 0 0 80 84 0 0 0 0 0 0 0 0 1 0 2 2 0 0 0 1 0 1 0 0 0 0 0 0 0 0 
0 0 2 2 0 1 0 2 2 0 0 0 0 0 0 0 0 0 0 107 89 0 43 50 52 0 0 0 0 0 0 0 0 0 0 0 30 30 30 30 29 31 0 0 0 0 104 93 0 0 0 0 0 0 89 0 0 0 0 0 67 75 0 0 0 0 0 0 0 0 0 2 2 0 1 0 0 0 1 1 1 0 0 0 0 0 0 0 0 
1 0 0 2 2 0 0 0 2 1 1 1 1 0 0 0 0 0 98 107 0 0 0 0 53 51 0 0 0 0 0 0 0 0 0 0 0 0 0 0 0 0 0 0 0 0 0 84 81 80 83 87 91 92 0 0 0 0 35 0 0 67 0 0 0 0 0 0 1 0 2 2 0 0 0 0 0 0 0 0 0 0 0 0 0 0 0 0 0 
2 0 0 0 0 2 2 0 1 1 0 0 1 0 0 0 0 69 0 101 0 0 0 0 0 46 43 41 40 37 33 0 0 0 0 0 0 16 16 0 0 0 0 0 0 0 0 51 0 0 0 0 66 0 0 0 0 0 0 52 66 69 0 0 0 0 4 2 0 2 0 1 0 0 0 0 0 0 0 0 0 0 0 0 0 0 0 0 0 
1 2 0 1 1 0 2 2 2 1 1 1 1 0 4 0 0 69 0 93 0 0 0 0 0 0 0 41 0 0 0 30 25 0 0 0 0 8 0 0 0 12 0 0 0 0 40 0 0 0 0 0 0 26 0 0 0 0 0 0 0 73 0 0 0 0 0 2 2 2 0 0 0 0 0 0 0 0 0 0 0 0 0 0 0 0 0 0 0 
1 0 2 2 1 0 0 0 0 0 0 0 0 0 4 17 41 0 0 85 0 0 0 0 0 0 35 35 0 0 0 0 0 25 25 0 0 0 0 0 32 32 0 0 0 0 41 0 0 0 0 0 0 12 0 0 0 0 0 0 0 0 71 0 0 0 0 2 2 2 0 1 0 2 2 2 2 2 0 1 0 0 0 0 0 0 0 0 0 
0 0 0 2 0 0 0 0 0 0 0 0 0 0 4 0 0 0 0 79 0 60 0 0 0 0 0 0 26 26 0 0 0 0 0 31 0 0 0 50 0 0 0 0 0 0 0 41 0 0 0 0 0 0 15 15 0 0 0 0 0 0 71 61 38 17 6 2 2 2 0 0 2 2 2 2 2 2 2 0 0 0 0 0 0 0 0 0 0 
0 0 0 0 2 0 0 0 0 0 0 0 0 0 0 0 0 0 0 75 0 0 52 0 0 0 0 0 28 0 0 0 0 31 0 0 0 0 66 59 45 44 41 38 44 47 45 41 33 21 16 17 14 12 0 0 0 0 39 41 0 0 72 0 0 0 0 2 2 2 0 2 2 0 0 0 0 0 2 2 0 0 0 0 0 0 0 0 0 
0 0 0 1 2 2 0 0 1 0 2 0 1 0 0 0 0 0 0 71 0 0 0 55 55 0 0 0 0 0 0 19 25 31 39 49 60 70 67 0 0 40 0 0 44 46 0 0 0 0 0 14 0 0 0 0 0 42 0 0 0 0 71 0 0 0 0 0 2 0 0 2 2 0 0 0 0 0 2 2 0 0 0 0 0 0 0 0 0 
0 0 0 0 0 2 2 2 2 2 2 2 2 0 0 0 0 0 0 68 0 0 0 0 58 62 60 48 0 0 0 0 0 0 0 0 0 48 0 0 33 0 0 0 26 0 0 0 0 0 0 0 0 0 0 50 43 0 0 0 0 70 0 0 0 0 0 3 2 1 0 2 2 0 0 0 0 0 2 2 0 0 0 0 0 0 0 0 0 
0 0 0 0 0 1 0 2 0 1 0 0 2 2 1 0 0 0 0 64 0 0 0 0 0 0 50 0 0 0 0 0 0 0 0 0 17 0 0 0 42 0 0 0 21 0 0 0 0 0 0 0 55 54 51 0 0 0 0 0 0 84 0 0 0 0 3 0 0 0 1 2 0 0 0 1 0 2 2 0 0 0 0 0 0 0 0 0 0 
0 0 0 0 0 0 0 0 0 0 0 0 0 2 0 0 0 0 0 59 0 0 0 0 0 0 0 0 45 0 49 0 48 0 0 0 0 0 0 65 59 46 34 33 36 36 36 39 43 49 53 56 0 0 0 0 0 0 0 0 0 109 0 0 0 0 0 0 0 0 0 2 1 0 0 0 2 2 0 1 0 0 0 0 0 0 0 0 0 
0 0 1 1 1 0 0 0 0 0 0 0 0 2 2 1 0 0 0 0 59 0 0 0 0 0 0 0 0 49 55 57 56 57 60 67 74 78 78 70 0 0 0 33 36 36 36 0 0 0 41 0 0 0 0 0 0 100 86 96 0 132 0 0 0 6 2 0 0 0 2 2 0 0 0 2 2 0 0 0 0 0 0 0 0 0 0 0 0 
0 0 2 1 1 0 0 0 0 0 0 0 0 2 2 0 0 0 0 0 60 0 0 0 0 0 0 0 0 0 0 0 0 0 0 0 0 67 0 0 0 0 0 0 31 31 31 31 0 0 0 0 0 0 0 0 112 100 0 0 139 144 0 0 0 0 0 0 0 0 2 2 0 0 0 0 2 2 2 2 2 0 1 0 0 0 0 0 0 
2 2 2 0 2 0 0 0 0 0 0 0 0 2 2 0 0 0 0 0 58 58 0 0 0 0 0 0 11 11 0 0 0 0 0 0 0 36 0 0 0 0 0 0 0 30 0 0 0 0 0 0 0 0 0 122 112 0 0 0 0 145 112 0 0 0 3 0 0 2 2 0 0 0 0 1 0 2 2 2 2 2 0 0 0 0 0 0 0 
2 0 0 2 2 0 0 0 0 0 0 0 0 2 2 0 0 0 0 0 0 61 0 0 0 0 0 0 0 0 0 0 31 0 0 0 0 0 0 0 0 0 0 0 25 25 0 0 0 0 0 0 0 0 131 0 0 0 0 0 0 138 112 68 0 0 3 2 2 2 0 1 0 0 0 0 0 0 0 0 0 2 2 0 0 0 0 0 0 
0 0 0 2 2 0 0 0 0 0 0 0 0 2 2 0 0 0 0 0 0 0 60 0 0 0 0 0 0 0 0 0 0 0 0 88 0 0 0 0 0 0 0 0 0 15 0 0 0 0 0 0 0 126 0 0 0 0 0 0 0 127 0 68 32 11 0 0 1 0 0 0 0 0 0 0 0 0 0 0 0 2 2 0 0 0 0 0 0 
0 0 1 2 0 0 0 0 0 0 0 0 0 2 2 0 0 0 0 0 0 0 64 0 0 0 16 24 33 44 57 72 87 101 114 124 131 131 0 0 0 0 0 0 0 10 0 0 5 0 29 0 109 0 0 0 0 0 0 0 0 117 0 0 0 11 2 0 0 0 0 0 0 0 0 1 1 1 1 0 0 0 2 2 0 1 0 0 0 
0 0 0 2 1 0 0 0 0 0 0 0 0 0 2 0 1 1 0 0 0 0 0 62 0 0 0 0 0 0 0 0 0 0 0 0 0 0 124 112 88 61 38 23 15 14 11 6 7 0 0 75 112 116 0 0 0 0 121 0 117 0 0 0 0 0 2 0 0 0 0 0 0 0 0 0 2 2 0 0 0 1 0 2 2 1 0 2 2 
0 0 2 0 0 2 2 2 0 1 0 0 0 1 0 2 2 0 0 0 0 0 0 62 0 0 0 0 0 0 0 53 0 0 0 0 0 0 0 93 0 61 0 0 0 0 0 0 0 0 0 0 112 141 151 150 146 141 133 122 0 0 0 0 0 0 0 0 0 0 0 0 0 0 0 2 2 2 2 0 0 0 0 0 1 1 2 2 2 
0 0 2 1 2 2 2 2 2 0 0 0 0 0 0 1 0 2 0 0 0 0 0 0 61 0 0 0 0 0 0 0 59 66 69 0 0 0 0 88 85 0 0 0 0 7 0 0 0 0 0 0 0 0 0 150 0 0 0 0 0 0 0 0 0 0 1 0 0 0 0 1 0 2 2 2 0 2 2 0 0 0 0 0 1 1 1 0 0 
0 1 2 1 2 0 0 0 2 2 0 0 0 0 0 0 0 2 2 2 0 0 0 0 67 0 0 0 0 0 0 0 0 0 81 93 93 0 85 88 0 0 0 0 0 19 0 0 0 34 0 0 0 0 0 110 110 0 0 0 0 0 0 0 0 0 1 0 0 0 0 2 2 2 2 0 1 0 2 1 0 0 0 0 0 0 0 0 0 
0 1 2 1 2 0 0 0 0 2 0 1 0 0 0 0 0 2 2 2 0 0 0 0 73 0 0 31 27 24 0 0 0 0 0 0 95 89 0 0 0 0 0 0 35 34 0 0 47 0 0 0 0 0 0 0 63 0 0 0 0 0 0 0 0 0 1 0 0 0 2 2 0 0 0 0 0 1 2 0 0 0 0 0 0 0 0 0 0 
0 1 2 1 2 0 0 0 1 0 2 0 0 0 0 0 0 2 2 2 0 0 0 63 78 0 0 0 0 0 0 0 0 0 0 0 85 0 0 0 0 0 34 42 42 34 0 0 63 0 0 38 0 0 0 0 0 0 0 0 0 0 0 0 0 0 2 0 1 2 2 0 0 0 0 0 0 0 2 2 0 0 0 0 0 0 0 0 0 
0 1 2 1 2 0 0 0 0 0 2 2 0 0 0 0 0 2 2 2 0 0 0 0 78 81 0 0 0 0 0 0 0 0 0 0 81 0 0 0 0 0 0 24 0 0 0 75 75 60 43 0 0 0 0 0 0 0 0 0 0 0 0 2 0 2 2 0 0 2 0 0 0 0 0 1 0 2 2 0 0 0 0 0 0 0 0 0 0 
0 0 2 0 2 0 0 0 0 0 2 2 0 0 0 0 0 2 2 0 0 0 0 0 0 86 88 0 0 0 0 88 0 81 75 75 0 82 0 0 0 0 0 0 0 0 0 92 79 0 0 0 0 0 0 0 0 0 0 2 0 0 2 2 0 0 2 0 2 2 0 0 0 0 0 1 2 2 0 1 1 0 0 0 0 1 0 2 2 
0 0 2 1 2 2 2 0 1 0 2 2 0 0 0 0 0 0 2 2 0 0 0 0 0 0 91 99 102 104 103 97 88 0 0 0 0 0 83 87 87 0 0 0 0 0 101 0 0 0 0 0 0 0 0 0 0 0 0 1 0 0 2 2 0 1 2 2 2 0 0 1 0 2 0 1 2 0 1 1 2 0 1 0 0 0 2 2 2 
1 0 2 1 0 2 2 2 2 2 2 0 0 0 0 0 0 1 0 2 3 0 0 0 0 0 0 0 0 91 0 0 0 0 0 0 0 0 0 0 90 97 102 105 106 101 0 0 0 0 0 0 0 0 0 0 0 1 1 1 1 0 2 0 0 0 1 1 1 1 1 2 2 2 2 1 1 1 1 1 0 2 2 1 0 2 2 0 0 
2 2 0 1 0 0 0 1 0 2 0 1 0 0 0 0 0 0 0 1 0 0 0 0 0 0 0 0 54 54 0 0 0 0 0 0 0 0 0 0 0 0 0 84 0 0 0 0 0 0 0 0 0 0 0 0 2 2 1 1 0 2 0 1 0 0 0 0 0 0 0 2 0 0 1 1 1 1 1 2 0 0 2 0 0 2 2 0 0 
1 1 0 0 0 0 0 0 0 0 0 0 0 0 0 0 0 0 0 0 0 2 0 0 0 0 0 0 18 18 0 0 0 0 0 0 0 0 0 0 0 0 0 46 0 0 0 0 0 0 0 0 2 0 0 0 2 0 0 1 2 0 0 0 0 0 0 0 0 0 2 2 0 0 0 1 1 1 0 2 0 0 2 2 0 0 2 0 1 
0 0 0 0 0 0 0 0 0 0 0 0 0 0 0 0 0 0 0 1 2 2 1 0 0 0 4 4 4 4 4 4 4 0 0 0 0 0 0 0 0 0 0 16 0 0 0 0 0 0 0 0 2 1 0 2 2 0 0 0 2 1 0 0 0 0 0 0 0 0 2 2 0 0 0 0 0 0 2 2 0 1 2 0 0 1 2 2 2 
0 0 0 0 0 0 0 0 0 0 0 0 0 0 0 0 0 0 0 1 2 0 0 0 2 2 2 2 2 2 2 2 0 1 0 1 0 2 2 0 0 4 4 4 0 2 2 2 2 2 2 2 2 1 0 2 2 0 0 2 2 0 0 0 0 0 0 0 0 0 2 2 0 0 0 0 0 1 2 0 0 0 2 1 0 0 1 1 1 
0 0 0 0 0 0 0 0 0 0 0 0 0 0 0 0 0 0 0 1 2 2 2 2 2 0 0 0 0 0 0 0 0 0 0 0 0 0 2 2 0 1 1 1 1 0 2 2 2 2 2 0 1 0 0 2 2 0 1 2 0 0 0 0 0 0 0 0 0 0 0 2 2 2 0 1 0 0 2 1 0 2 2 0 0 0 0 0 0 
0 0 0 0 0 0 0 0 0 0 0 0 0 0 0 0 0 0 0 1 1 2 2 1 1 0 0 0 0 0 0 0 0 0 0 0 0 0 2 2 0 0 0 0 1 2 1 1 0 0 0 0 0 0 0 2 2 0 1 2 1 0 0 0 0 0 0 0 0 0 1 1 2 2 2 1 0 2 2 0 0 2 2 0 0 0 0 0 0 
