P2
89 89
255
0 0 0 0 0 0 0 0 0 0 0 0 0 0 0 0 0 0 0 0 0 0 0 0 0 0 0 0 0 0 0 0 0 0 0 0 0 0 0 0 0 0 0 0 0 0 0 0 0 0 0 0 0 0 0 0 0 0 0 0 0 0 0 0 0 0 0 0 0 0 0 0 0 0 0 0 0 0 0 0 0 0 0 0 0 0 0 0 0 
0 0 0 0 0 0 0 0 0 0 0 0 0 0 0 0 0 0 0 0 9 0 0 0 0 0 15 0 0 0 0 0 0 0 0 0 0 0 0 0 0 0 0 0 0 0 0 0 0 0 0 0 0 8 0 0 0 0 0 0 0 12 0 0 0 0 0 0 0 0 0 0 0 0 10 0 0 0 0 0 0 0 0 0 0 0 0 0 0 
0 0 0 0 0 16 0 0 0 0 0 0 0 10 13 12 0 11 0 0 8 0 0 8 0 0 17 0 0 10 0 0 0 0 0 15 0 0 11 0 0 0 0 0 0 0 0 0 0 0 0 0 0 9 0 0 0 0 0 0 0 14 13 0 0 0 0 0 0 0 14 0 0 0 8 0 7 10 0 0 19 15 0 0 0 13 0 0 0 
0 0 14 0 0 14 16 0 0 0 0 0 9 11 10 0 0 9 8 5 6 0 0 9 0 0 17 0 0 0 0 0 9 0 0 13 0 0 11 0 0 0 0 4 4 0 0 0 0 0 0 6 10 10 0 0 10 10 9 0 0 0 17 20 21 20 20 21 21 19 16 0 0 8 0 0 9 0 0 0 0 17 0 0 18 18 0 0 0 
0 0 15 0 0 0 16 0 0 0 0 10 9 0 0 0 0 6 6 0 0 0 0 9 0 0 17 0 0 0 13 0 10 13 17 0 0 0 14 0 0 0 6 5 0 0 0 0 0 0 0 0 8 0 0 0 0 0 0 8 0 0 0 0 0 0 0 0 0 0 0 0 0 11 0 0 0 0 0 0 0 14 0 22 21 0 19 0 0 
0 0 0 16 0 0 15 0 0 0 13 0 0 0 0 2 2 3 0 0 0 0 0 0 0 0 19 0 0 18 0 0 0 0 0 20 0 0 17 0 0 0 0 0 0 0 0 0 0 0 0 0 6 0 0 0 5 0 0 0 7 8 0 0 0 0 0 0 0 0 0 13 15 11 9 12 12 0 0 0 0 0 0 30 0 0 0 0 0 
0 0 0 16 0 0 12 0 8 12 0 0 0 0 0 0 0 0 0 0 0 6 10 13 13 0 21 0 12 20 23 0 0 0 0 23 0 0 19 0 0 0 0 0 0 12 11 8 7 0 0 0 5 0 3 7 7 5 0 0 0 0 0 0 0 0 0 0 0 0 0 15 13 0 0 0 12 11 0 0 0 0 0 29 0 0 0 0 0 
0 0 0 13 11 7 8 0 0 0 0 0 0 0 0 0 0 0 0 0 6 0 0 0 0 0 15 0 0 0 21 0 10 0 17 21 0 0 17 17 0 0 11 13 15 14 11 0 7 7 8 0 0 0 0 7 7 0 5 4 0 0 0 0 0 2 2 0 0 0 0 14 0 0 0 0 0 11 9 8 11 0 0 22 0 0 29 0 0 
0 0 0 10 8 0 0 0 6 5 0 4 0 0 0 0 0 0 0 0 7 0 0 0 0 0 16 19 0 0 16 0 0 0 14 0 10 0 9 0 12 12 0 0 0 0 0 0 0 0 0 9 9 7 0 8 0 0 0 0 0 0 5 0 0 0 0 0 0 0 0 13 0 0 9 7 0 0 0 0 0 0 0 18 0 0 28 0 0 
0 0 7 7 0 0 0 0 0 5 5 4 0 0 0 0 0 0 4 6 0 0 0 13 13 12 0 23 18 12 15 0 0 9 0 0 0 0 0 0 0 0 0 0 2 0 0 0 0 0 0 0 0 0 9 10 0 0 0 0 0 0 0 0 0 0 0 0 0 0 12 12 10 11 10 0 0 0 0 0 0 0 0 17 0 0 25 0 0 
0 0 0 0 0 0 0 0 0 0 0 0 0 0 0 0 0 4 5 0 0 0 15 15 0 0 0 0 15 0 13 0 0 12 10 13 18 20 19 0 0 0 0 0 7 9 0 0 0 0 0 0 0 0 8 0 0 4 0 0 0 0 7 0 0 0 0 0 0 0 9 0 0 0 0 0 3 0 0 0 9 9 0 17 0 0 24 0 0 
0 0 0 0 0 0 0 0 0 0 0 0 0 0 0 0 5 5 0 0 0 15 14 0 0 0 0 14 0 0 0 0 0 0 0 10 0 0 16 19 18 0 6 7 6 0 10 10 0 9 9 11 11 0 0 0 0 0 6 7 6 7 9 11 11 9 7 7 8 0 0 0 0 0 0 0 0 5 8 8 0 0 0 19 0 0 24 0 0 
0 0 13 12 11 9 9 10 10 10 11 10 0 0 0 0 0 0 0 0 14 13 0 0 0 0 0 0 17 9 15 15 0 6 0 0 0 0 0 0 18 15 0 0 0 0 0 0 9 0 0 0 10 10 11 10 0 0 4 0 0 0 0 0 0 9 0 0 0 11 13 13 13 13 12 10 9 0 0 0 0 0 0 20 0 0 24 0 0 
0 0 13 0 0 0 0 0 0 0 0 0 11 11 0 0 0 0 12 14 11 0 0 0 1 0 0 0 19 0 0 15 0 6 0 9 7 0 0 0 0 16 12 0 0 0 0 0 0 0 0 0 0 0 0 0 9 10 0 0 0 0 0 0 0 0 0 0 0 0 0 0 0 0 0 0 0 8 10 12 14 15 0 21 0 0 26 0 0 
0 0 0 0 0 0 2 0 0 0 0 0 0 0 11 0 0 13 14 0 0 0 0 0 0 0 0 0 20 0 11 0 0 6 0 10 0 0 0 0 0 0 15 0 2 0 8 0 0 0 0 0 0 0 7 0 0 11 0 6 10 8 8 7 6 8 9 7 9 10 0 0 0 0 0 0 0 0 0 0 0 0 21 22 14 0 27 0 0 
0 0 0 0 0 0 0 10 10 9 6 0 0 0 0 13 0 0 0 0 0 0 0 0 0 0 0 0 19 0 0 10 0 0 0 12 0 0 0 1 0 0 11 13 0 0 8 9 0 2 0 6 0 0 7 0 0 10 0 0 0 0 4 0 0 8 0 0 0 11 11 13 17 20 18 15 12 0 0 0 0 0 19 0 0 0 0 0 0 
0 0 14 17 16 14 11 0 0 0 0 0 8 7 0 15 19 0 0 0 0 0 0 0 0 0 0 0 14 10 0 6 7 0 0 12 0 0 0 0 0 0 0 10 11 0 0 11 12 0 0 7 0 0 8 0 0 10 0 0 5 8 10 8 0 10 0 0 0 0 0 0 0 0 0 0 0 13 14 15 17 22 27 0 0 0 19 0 0 
0 0 12 0 0 0 0 0 0 0 10 0 0 0 0 0 19 20 18 20 23 25 25 23 0 0 0 0 0 0 0 0 0 0 0 11 0 0 0 0 0 0 0 0 11 0 0 0 14 13 0 0 0 0 10 0 0 11 0 0 0 0 9 0 0 11 10 13 17 19 18 17 18 0 0 0 0 0 0 0 0 0 28 25 14 0 24 0 0 
0 0 0 0 0 0 0 0 0 11 8 0 7 6 0 0 0 0 0 0 0 0 0 0 23 24 22 17 11 0 0 0 0 0 0 11 0 0 4 5 4 0 0 0 11 0 0 0 0 0 0 0 0 0 0 0 0 0 9 0 0 0 0 0 0 0 0 0 14 0 0 0 19 17 13 10 9 8 7 0 0 0 24 0 0 19 22 0 0 
0 0 0 0 0 25 23 19 15 0 0 0 0 8 0 0 0 0 0 0 7 0 0 0 0 0 17 15 0 0 11 10 12 14 0 12 0 0 0 0 4 3 0 10 9 0 6 0 0 25 31 28 0 0 0 15 15 14 11 0 0 7 7 0 0 9 0 0 11 0 0 0 0 0 0 0 0 0 6 7 9 0 25 0 0 0 0 0 0 
0 0 0 0 33 30 0 0 0 0 0 0 0 0 10 12 13 11 9 11 13 13 12 0 0 0 0 0 0 0 10 0 0 19 21 16 0 0 0 0 0 0 0 10 0 0 0 0 24 23 0 23 22 0 0 0 0 0 0 0 0 7 0 0 0 0 0 0 15 18 0 0 19 15 0 0 0 0 0 0 0 0 23 0 0 20 19 0 0 
0 24 30 34 31 0 0 0 0 12 0 0 0 0 0 0 0 0 0 0 0 0 0 14 15 0 11 10 0 0 11 0 0 0 25 25 0 0 0 0 0 0 0 9 0 0 0 0 29 0 0 0 0 0 0 0 0 0 0 0 0 0 0 0 0 12 11 8 0 17 18 21 21 17 13 10 9 8 8 7 0 0 23 0 0 17 0 0 0 
0 0 0 0 0 0 0 21 20 14 11 0 0 0 0 0 0 0 0 0 0 0 0 0 12 12 11 0 6 0 15 15 0 0 0 28 25 0 0 0 0 0 0 8 0 7 0 0 27 31 0 0 22 20 0 11 11 0 0 0 0 11 0 5 0 12 0 0 0 0 0 0 0 0 0 0 0 0 0 0 0 0 24 0 0 0 0 0 0 
0 0 12 0 0 0 25 25 0 0 0 11 13 13 12 0 0 0 0 0 0 0 0 0 0 0 0 0 0 0 0 16 0 0 0 0 27 23 0 0 0 0 7 0 0 0 0 0 0 26 26 22 22 0 0 0 11 11 11 11 11 13 0 0 0 0 11 0 0 0 0 12 13 0 0 0 0 0 0 0 0 0 23 0 0 19 17 0 0 
0 0 19 19 21 22 21 0 0 0 0 0 11 0 0 11 11 0 0 0 0 0 0 0 0 0 0 0 0 0 0 0 14 0 0 0 0 25 24 0 0 0 7 0 0 0 8 0 0 0 0 0 0 0 0 0 0 0 0 0 0 0 12 0 5 0 13 12 0 0 0 0 15 16 14 0 0 0 0 0 11 0 21 0 0 22 0 15 0 
0 0 0 0 0 0 0 0 0 0 0 0 0 0 0 0 0 10 11 12 12 12 12 0 0 0 0 6 5 0 0 14 0 0 0 0 0 0 25 24 0 0 0 0 0 8 9 0 0 9 0 0 0 0 0 0 0 0 0 0 0 13 0 0 0 0 0 0 12 12 10 0 0 0 0 14 17 21 22 21 11 0 17 0 0 24 0 0 0 
0 0 0 0 0 0 0 10 13 14 14 0 0 0 0 0 0 0 0 0 0 0 0 11 11 10 0 0 0 0 0 13 0 8 7 0 0 0 0 26 26 0 0 7 4 0 11 0 0 8 0 0 9 0 0 0 0 0 0 0 0 0 0 0 0 0 0 0 0 0 0 0 0 0 0 0 0 0 0 17 0 0 13 0 20 22 0 0 0 
0 0 0 0 0 0 3 0 0 0 14 15 13 11 10 11 11 0 0 0 0 0 0 0 0 0 0 0 0 0 15 0 0 0 11 12 0 0 0 0 27 26 0 0 0 0 10 11 0 7 0 0 10 0 0 6 0 0 0 0 0 0 0 0 0 0 0 5 0 0 0 0 0 5 6 6 0 13 0 17 0 0 10 0 21 0 0 0 0 
0 0 0 0 0 3 0 0 0 0 0 0 0 0 0 0 0 10 10 11 11 11 10 0 0 0 0 0 0 0 20 0 0 0 0 18 19 0 0 0 0 20 19 0 0 0 0 12 0 9 0 0 11 0 0 8 0 0 0 0 28 30 28 27 25 0 0 0 0 0 5 5 0 0 0 0 0 0 16 14 0 12 0 0 21 0 0 0 0 
0 0 0 0 0 0 5 0 0 0 0 16 0 0 0 0 0 0 0 0 0 0 0 15 0 30 32 30 29 26 22 17 15 16 9 0 24 22 0 0 0 0 0 0 0 0 0 0 14 10 0 10 0 0 0 0 0 20 23 25 24 0 0 0 25 23 0 0 0 0 7 0 0 0 0 0 0 0 0 0 0 18 0 0 22 0 0 0 0 
0 12 0 0 0 0 6 0 0 0 23 19 13 0 0 0 0 0 0 0 0 0 0 0 22 25 0 0 0 0 0 0 0 21 0 0 0 22 21 16 10 14 18 0 0 7 8 0 0 10 0 0 0 0 0 27 27 25 0 0 0 0 0 0 0 20 0 0 9 10 0 0 0 0 0 19 0 0 0 0 18 19 0 0 23 0 0 9 0 
0 0 10 0 0 6 6 0 0 23 21 0 10 12 0 0 0 12 14 16 16 16 17 0 21 0 0 0 0 0 0 0 0 21 0 0 0 0 0 14 0 0 0 12 0 7 0 0 0 0 0 0 0 30 33 29 0 0 0 0 0 0 0 0 0 0 0 19 0 0 0 0 18 19 18 0 19 18 15 12 15 0 0 0 21 0 0 0 0 
0 0 0 9 9 0 0 0 18 22 0 0 0 17 0 0 16 12 0 0 0 0 0 25 29 31 33 35 35 0 0 0 0 23 0 0 0 0 12 0 0 0 0 16 0 0 0 0 0 0 19 23 26 25 0 0 0 0 0 0 31 32 32 34 0 0 0 27 0 0 0 18 14 0 0 0 0 0 0 0 0 0 0 0 20 0 0 0 0 
0 0 13 14 0 0 0 13 17 0 0 0 0 19 0 0 20 0 0 0 0 0 0 0 0 0 0 0 0 33 32 24 20 24 0 14 22 20 16 10 0 0 0 0 15 0 0 0 17 19 0 0 0 0 0 0 0 30 31 29 0 0 0 31 0 0 0 32 0 0 0 19 0 0 0 0 0 0 16 12 14 0 0 22 22 0 0 0 0 
0 0 17 0 0 0 13 13 0 0 0 0 0 19 0 0 21 0 0 0 0 0 0 0 0 0 0 0 0 0 25 0 0 0 0 0 32 0 0 0 0 0 0 0 0 0 0 22 0 0 0 0 0 0 29 31 30 0 0 0 0 0 0 0 33 0 0 0 0 0 0 20 20 23 25 25 24 23 19 0 13 0 0 21 0 0 10 9 0 
0 0 0 0 0 16 12 0 0 0 0 0 0 18 0 0 20 0 0 0 0 0 0 0 0 0 0 0 0 0 17 0 0 17 0 0 32 29 0 20 16 16 19 0 0 21 23 0 0 0 0 26 28 29 0 0 0 0 0 0 0 0 0 0 31 0 0 31 36 0 0 0 0 0 0 0 0 0 0 0 15 0 0 21 0 0 0 0 0 
0 0 0 0 21 16 0 0 0 12 0 0 0 18 0 0 20 0 0 0 0 0 0 0 0 0 0 0 0 0 17 0 0 16 0 0 0 24 20 0 0 0 22 27 0 17 0 0 0 27 27 26 0 0 0 0 0 0 0 0 0 0 0 0 0 32 0 0 46 0 0 0 0 0 0 0 0 0 0 0 20 0 0 21 0 0 0 0 0 
0 0 0 23 21 0 9 0 0 13 0 0 18 18 0 0 20 0 0 0 0 0 0 0 17 15 12 0 0 0 19 0 0 15 0 0 14 0 0 0 0 0 0 0 33 0 0 0 30 23 0 0 0 0 0 0 0 0 0 0 0 0 0 29 32 34 0 0 43 45 0 20 17 18 20 22 21 20 23 26 18 0 18 20 0 0 0 0 0 
0 0 0 25 0 0 13 0 0 14 0 0 18 0 0 0 19 0 0 0 0 0 20 20 0 0 14 15 0 0 19 0 0 14 0 0 19 15 10 0 0 0 0 0 38 0 0 0 29 0 0 0 0 0 0 0 0 0 0 0 27 29 30 27 0 0 21 0 0 37 31 0 0 0 0 0 0 0 21 0 0 0 20 0 0 0 0 0 0 
0 0 23 21 0 0 14 0 0 13 0 0 19 0 0 0 19 0 0 0 22 24 23 0 0 0 0 16 0 20 19 0 0 0 16 21 19 0 0 9 9 0 0 0 37 0 0 0 31 27 0 0 0 0 0 0 0 30 32 29 26 0 0 0 0 0 34 0 0 23 0 0 0 0 0 0 0 0 9 0 0 16 18 0 0 7 7 8 0 
0 0 20 0 0 0 14 0 0 12 0 0 22 20 0 0 20 19 20 22 21 0 0 0 0 0 0 15 19 22 0 10 0 0 0 0 0 0 0 0 11 0 0 0 33 37 0 0 0 29 26 0 0 0 0 34 36 34 0 0 0 0 0 0 23 29 38 43 36 0 0 0 0 0 9 11 12 0 14 0 0 18 0 0 0 0 0 0 0 
0 0 0 0 0 0 14 0 0 14 0 20 23 0 0 0 0 0 0 0 0 0 0 0 0 0 0 0 0 0 0 0 0 0 0 0 0 0 0 16 14 0 6 0 0 37 34 0 0 0 26 26 27 32 34 0 0 0 0 0 0 0 0 0 22 0 0 0 35 26 0 0 19 19 0 0 0 13 16 16 16 17 0 0 0 0 0 0 0 
0 0 0 0 0 0 0 18 13 15 20 0 0 0 0 0 0 0 0 0 0 0 0 0 0 0 0 0 8 0 0 0 0 0 0 0 9 11 14 15 0 0 0 0 0 0 39 33 0 8 0 0 0 0 0 0 0 0 0 0 0 0 0 0 24 0 0 0 0 24 19 0 0 24 27 0 0 0 0 0 0 0 0 10 11 10 10 9 0 
0 0 7 10 0 0 0 21 0 0 0 0 0 0 0 0 0 0 0 0 18 21 22 22 21 20 19 19 18 0 13 15 14 0 0 0 0 0 0 0 0 0 0 0 0 0 0 37 28 0 0 0 0 0 0 25 30 29 24 19 0 16 16 0 29 26 0 0 0 0 22 22 0 0 22 29 28 0 0 0 0 0 0 0 0 0 0 0 0 
0 0 8 0 0 0 22 21 0 0 0 0 0 0 0 0 0 0 19 19 17 0 0 0 0 0 0 0 18 15 0 15 0 11 10 9 0 0 0 10 12 0 0 0 0 0 0 0 27 22 0 0 0 0 32 32 0 0 0 24 0 0 0 0 0 0 16 0 0 0 0 18 20 0 0 0 29 31 0 0 0 0 0 0 0 0 0 0 0 
0 7 0 0 0 22 21 0 5 0 22 21 20 19 19 19 20 20 0 0 0 0 0 0 0 0 0 0 12 0 0 0 0 0 0 0 0 0 0 0 0 13 0 0 23 22 16 0 0 16 15 13 0 27 27 0 0 0 0 0 24 27 0 23 20 0 12 12 14 14 0 8 0 14 0 0 0 0 30 32 35 36 0 0 0 0 0 0 0 
0 0 0 0 22 21 0 0 0 23 22 0 0 0 0 0 0 0 0 0 0 0 0 0 0 0 0 0 15 0 0 0 0 0 0 0 0 0 11 10 0 0 16 20 0 0 0 0 0 0 0 0 15 20 0 0 0 12 0 0 0 28 29 0 0 0 0 0 0 0 15 13 0 0 13 0 0 0 0 0 0 34 38 35 0 0 0 0 0 
0 0 0 21 21 0 0 0 22 21 0 0 0 0 0 0 0 0 0 0 0 14 14 14 14 14 0 17 17 13 14 16 17 19 17 15 16 15 12 0 0 0 15 0 0 0 0 0 0 0 0 0 10 0 11 0 7 0 0 0 0 0 0 0 0 0 0 0 0 0 0 0 0 0 0 14 18 17 0 0 0 0 0 36 37 0 0 0 0 
0 20 20 19 0 0 0 23 20 0 0 0 0 0 0 0 0 0 0 0 17 14 0 0 0 0 15 16 0 0 0 0 0 0 0 0 0 0 0 0 0 0 11 0 0 0 14 11 9 12 14 12 0 0 9 0 0 0 0 0 0 0 0 0 0 0 0 0 0 0 0 0 0 0 0 0 0 19 23 26 0 0 0 0 0 36 33 28 0 
0 0 0 0 0 0 25 20 0 0 0 3 0 0 4 0 0 0 0 0 16 0 0 0 0 0 0 0 0 0 0 0 0 0 0 0 0 0 0 0 0 0 0 0 0 14 15 0 0 0 0 10 0 0 0 9 9 8 0 0 0 0 0 0 0 24 21 17 13 13 13 12 0 4 0 0 0 0 0 0 30 33 28 0 0 0 0 0 0 
0 0 0 0 0 25 21 0 0 0 0 3 0 0 0 0 0 0 0 16 15 0 0 0 0 0 0 0 0 0 0 0 0 22 22 22 23 25 26 25 23 22 0 0 0 15 0 0 0 0 0 7 0 0 0 0 0 0 0 0 0 22 21 23 25 0 0 0 0 0 0 10 0 0 0 0 0 0 0 18 0 0 33 27 0 0 0 0 0 
0 0 0 0 23 22 0 0 0 0 0 0 0 0 0 0 0 0 19 18 0 0 0 0 0 0 0 0 0 21 24 23 23 0 0 0 0 0 0 0 0 22 25 22 17 0 0 0 0 0 0 8 0 0 0 0 0 0 0 20 24 20 0 0 0 0 0 11 0 0 0 8 6 0 0 0 0 0 0 20 0 0 0 24 20 25 27 23 0 
0 0 0 0 23 0 0 0 0 0 0 0 0 0 0 0 0 24 23 0 0 0 0 21 23 23 22 19 19 20 0 0 0 0 0 0 0 0 0 0 0 0 0 17 0 0 12 12 11 10 0 0 0 0 13 15 17 0 16 21 0 0 0 0 0 0 0 12 0 0 0 0 6 0 0 0 17 0 0 0 18 0 20 0 0 0 0 0 0 
0 0 0 24 23 0 0 0 0 0 0 0 0 0 0 0 26 25 0 8 0 18 21 0 0 0 0 0 0 0 0 0 0 0 0 1 0 0 0 0 0 0 0 0 0 0 0 0 0 11 11 13 14 13 0 0 0 15 0 0 0 0 0 0 0 0 0 13 14 0 0 0 0 0 14 16 0 19 0 0 20 0 18 0 0 19 0 0 0 
0 0 13 19 21 19 0 0 20 18 17 17 18 20 22 24 22 0 0 0 21 19 0 0 0 0 7 0 0 0 14 0 0 0 0 0 0 0 0 0 0 0 0 0 0 0 0 0 0 0 0 0 0 0 0 0 0 10 0 0 15 11 0 2 0 0 0 0 14 0 0 0 0 0 13 0 0 19 0 0 15 15 15 0 0 21 0 0 0 
0 0 0 0 0 0 19 20 0 0 0 0 0 0 0 0 0 0 0 19 19 0 0 0 13 14 14 12 12 14 17 17 0 0 2 3 3 0 0 0 0 0 0 0 0 5 5 6 6 0 6 0 0 7 0 0 0 0 8 0 0 14 0 0 0 0 0 0 13 0 0 0 0 0 12 0 0 0 21 0 0 0 0 0 0 0 0 0 0 
0 0 15 0 0 0 0 0 0 0 0 0 0 0 0 0 0 0 20 16 0 7 9 11 0 0 0 0 0 0 0 16 15 0 0 2 0 0 0 0 28 28 29 25 0 6 7 0 0 7 7 0 0 9 0 0 8 0 8 0 1 10 12 9 0 0 0 10 11 0 0 0 0 0 11 0 0 0 17 17 0 0 9 9 0 22 22 21 0 
0 0 17 0 15 17 0 0 0 0 0 0 0 0 0 0 22 21 0 0 0 0 0 0 0 0 0 0 0 0 0 0 0 11 0 0 0 0 0 0 29 0 0 29 0 0 0 6 10 8 0 0 0 10 0 0 0 0 0 9 0 0 0 11 0 0 7 7 0 7 0 0 0 0 9 0 0 0 0 16 19 19 0 0 0 0 0 0 0 
0 0 20 0 0 20 22 23 22 21 20 21 22 22 18 17 18 0 0 6 0 0 0 0 0 0 0 0 0 10 10 6 0 13 0 0 0 0 0 0 27 0 0 25 0 0 0 0 0 0 0 0 0 0 10 0 0 9 0 0 10 8 0 0 12 11 0 0 0 0 10 12 12 12 11 0 0 0 0 0 0 24 0 0 0 0 0 0 0 
0 0 21 0 0 0 0 0 0 0 0 0 0 0 0 0 0 0 0 0 0 3 0 0 0 11 0 0 0 11 0 0 0 13 0 0 0 0 15 0 22 0 0 23 0 0 0 0 0 0 0 0 0 0 10 0 0 0 0 0 0 9 0 4 0 0 9 0 0 0 0 0 0 0 0 0 0 0 0 0 0 24 0 9 0 0 0 0 0 
0 0 22 0 0 0 0 0 0 0 0 0 0 0 0 0 0 0 0 0 0 0 0 0 16 15 10 0 19 18 0 0 0 0 19 19 17 16 14 0 0 0 15 17 0 0 0 12 15 15 14 0 0 0 10 8 0 0 10 0 0 9 0 0 0 0 0 9 10 10 0 0 0 0 0 0 8 0 0 0 0 23 0 0 0 25 24 22 0 
0 0 0 0 0 0 0 0 8 0 0 0 10 0 0 19 20 22 22 0 0 0 0 15 14 0 0 0 14 17 12 0 12 11 0 0 0 0 0 0 0 0 10 0 0 7 10 0 0 0 12 0 0 0 0 10 0 0 11 12 12 10 0 0 4 0 4 0 0 10 9 0 0 5 5 8 11 7 7 0 0 24 0 0 22 21 0 0 0 
0 0 0 0 0 0 12 12 9 8 8 9 0 0 0 20 0 0 24 0 0 0 14 0 0 0 0 0 0 0 0 0 0 10 0 0 0 0 0 0 0 0 0 0 0 0 5 0 0 0 0 15 0 0 0 11 0 5 0 0 0 0 0 0 0 5 6 0 0 0 0 0 0 0 0 0 8 0 0 0 22 25 13 0 25 0 0 0 0 
0 0 0 0 0 13 14 0 0 0 0 4 0 0 0 19 0 0 22 21 0 11 12 0 10 14 16 16 14 14 12 0 12 16 0 0 0 0 0 0 0 0 0 0 0 0 0 0 0 0 15 15 0 0 0 11 0 0 0 0 0 0 7 9 0 0 5 0 0 0 14 12 10 10 9 11 0 0 0 0 22 0 0 0 25 23 0 0 0 
0 0 0 0 0 14 13 0 0 0 10 0 0 0 0 19 0 0 14 18 16 14 0 0 0 0 0 0 0 0 0 11 14 18 20 19 16 0 0 0 19 18 16 16 14 14 16 18 17 16 15 0 0 0 8 10 0 0 5 0 0 8 0 10 0 0 0 0 0 0 13 0 0 0 0 13 0 7 8 0 25 0 0 11 0 21 19 0 0 
0 0 21 0 0 14 0 0 0 12 0 13 13 0 0 17 0 0 0 0 0 0 10 0 0 0 0 0 0 0 0 0 0 0 0 0 15 14 18 20 0 0 0 0 0 0 0 0 0 0 0 0 0 7 8 0 4 5 0 0 9 10 0 0 0 0 0 0 0 0 15 0 0 0 0 12 0 0 0 0 27 29 0 0 0 0 16 0 0 
0 0 0 18 0 0 13 0 0 17 0 0 0 0 0 18 0 0 0 0 0 0 0 11 12 14 14 14 15 17 15 0 0 0 0 8 0 0 0 0 0 0 0 0 0 0 0 0 0 0 0 0 9 9 0 0 0 0 0 10 11 0 0 0 11 0 0 5 0 0 16 0 0 0 0 11 0 0 6 0 0 26 25 0 0 0 0 0 0 
0 0 0 19 0 0 14 0 0 0 0 0 0 0 0 20 0 0 0 0 0 0 0 0 0 0 0 0 0 0 15 15 0 0 0 0 0 0 0 0 0 0 0 0 0 0 0 0 0 0 0 11 11 0 0 7 0 0 12 11 0 0 0 0 12 0 0 6 0 0 0 0 0 0 0 10 0 0 7 0 0 0 21 22 20 0 0 0 0 
0 0 0 17 19 0 11 0 0 20 20 0 0 0 0 22 0 0 0 0 0 0 0 0 0 0 0 0 0 0 0 0 18 19 17 14 12 13 0 0 0 0 0 0 0 8 9 11 0 0 11 13 0 0 10 0 0 0 13 0 0 0 0 0 12 0 0 7 0 0 0 15 0 0 0 11 0 0 0 0 0 0 0 0 19 21 0 0 0 
0 0 0 0 22 0 0 11 0 0 23 0 0 0 0 23 21 0 0 0 0 0 1 0 0 0 0 0 6 0 0 0 0 0 0 0 0 14 16 18 24 25 23 19 0 0 0 10 12 13 14 0 0 10 10 0 0 0 13 13 0 0 0 0 13 0 0 8 0 0 0 14 13 13 16 14 11 11 12 0 0 0 0 0 0 0 20 22 0 
0 0 0 0 19 21 0 10 0 0 22 22 0 0 0 0 22 0 0 0 0 0 0 1 1 0 0 5 5 0 0 6 0 0 0 0 0 0 0 0 19 0 0 19 0 0 0 0 0 0 0 0 0 12 0 0 0 0 0 13 14 12 0 9 12 0 0 8 0 0 0 0 0 0 0 0 0 0 11 11 12 11 10 0 0 0 0 0 0 
0 0 0 0 0 21 15 0 7 0 0 24 0 0 0 0 20 0 0 0 0 1 0 0 1 0 0 4 0 0 4 5 0 0 0 0 0 0 0 0 0 0 0 0 14 0 0 0 0 0 0 0 13 11 0 0 6 0 0 0 0 13 10 0 0 8 0 0 7 0 0 9 0 0 8 0 0 0 0 0 0 0 11 0 0 0 0 0 0 
0 0 17 0 0 0 17 0 0 0 0 22 22 0 0 0 19 0 0 0 0 1 0 0 1 0 0 3 3 3 4 0 0 0 0 0 0 0 0 0 0 6 7 9 9 8 8 0 0 0 15 16 13 0 0 0 8 6 0 0 0 0 10 0 0 7 0 0 5 0 0 0 0 5 10 11 8 0 0 7 0 0 12 0 0 0 0 0 0 
0 0 0 12 0 0 13 10 0 0 0 0 22 19 0 19 20 0 0 0 0 1 0 0 1 0 1 0 0 0 0 0 0 1 1 0 0 0 0 0 0 0 0 0 0 0 0 8 0 15 13 0 0 0 0 0 5 0 0 0 0 0 6 7 0 0 6 7 0 0 0 0 10 0 0 0 0 0 0 12 0 0 14 0 0 0 2 0 0 
0 0 0 0 7 0 7 8 4 4 0 0 0 20 20 21 0 0 0 0 0 1 0 0 0 0 0 0 0 0 0 0 0 0 0 0 1 0 0 0 0 0 0 0 0 0 0 0 0 0 0 0 0 0 0 0 0 0 0 0 0 0 0 6 7 0 0 0 8 7 7 11 14 0 0 0 0 0 15 15 8 0 16 0 0 0 0 0 0 
0 0 0 0 0 5 0 0 4 0 0 0 0 0 0 0 0 0 0 0 0 0 0 0 0 0 0 0 0 0 0 0 0 0 0 0 0 1 1 0 0 1 1 0 0 0 0 0 0 17 20 24 27 27 25 21 17 15 14 11 9 8 0 0 7 9 0 0 0 0 7 0 12 11 9 7 5 0 16 0 0 17 17 0 0 0 0 0 0 
0 0 0 0 0 0 0 0 0 0 0 0 0 0 0 0 0 0 0 0 1 0 0 0 0 0 0 1 1 1 1 0 0 0 0 0 0 0 0 1 0 0 0 1 0 0 0 0 0 0 0 0 0 0 0 0 0 0 0 0 0 0 0 0 0 9 11 0 0 0 0 7 0 0 0 0 0 0 14 0 0 16 0 0 7 7 6 0 0 
0 0 18 0 0 0 0 0 0 0 0 0 0 0 0 0 0 0 0 0 0 0 0 0 0 0 0 0 0 0 0 0 0 0 0 0 0 0 1 0 0 1 0 0 0 1 1 0 0 0 0 0 0 0 0 0 0 0 0 0 13 10 0 0 0 0 11 14 12 0 0 6 0 0 0 0 0 0 16 18 18 15 0 0 0 0 0 0 0 
0 0 20 18 0 0 0 0 1 0 0 0 0 0 0 0 0 1 0 0 0 0 0 0 0 0 1 1 1 0 0 0 0 0 0 0 0 0 0 0 0 0 0 1 0 0 0 0 0 0 0 0 0 0 0 0 13 12 15 18 17 12 0 0 0 0 0 0 14 12 0 5 0 4 0 0 10 10 0 0 0 0 0 4 0 0 0 0 0 
0 0 0 20 18 0 0 0 0 1 0 0 1 0 0 0 0 1 0 0 0 0 0 0 0 0 1 0 0 0 0 0 0 0 0 0 0 0 0 0 0 0 0 0 0 1 0 0 0 0 0 5 5 0 0 0 15 0 0 0 0 0 7 7 0 0 0 0 0 13 0 0 0 9 12 15 14 0 0 6 0 0 0 0 0 8 8 9 0 
0 0 0 0 21 0 0 0 0 0 1 0 0 1 0 0 0 1 1 0 0 0 0 0 0 0 1 0 0 5 6 8 8 8 8 8 7 6 0 0 0 0 0 0 0 0 0 1 0 0 0 0 0 0 0 0 19 23 21 0 0 0 0 8 8 6 0 0 0 10 11 9 0 0 0 19 19 0 0 0 0 0 0 0 0 7 0 0 0 
0 0 0 0 21 0 0 0 0 0 0 1 0 0 1 1 0 0 1 1 0 0 0 0 0 0 0 0 0 4 0 0 0 0 0 0 0 6 5 0 0 0 0 0 0 0 0 0 0 0 0 0 0 0 0 0 0 0 23 24 0 0 0 0 0 5 0 0 0 0 0 13 0 0 0 14 17 0 0 20 24 24 27 27 0 0 0 0 0 
0 0 0 0 0 20 0 0 0 0 0 0 1 0 0 1 1 0 0 1 1 0 0 0 0 0 0 0 0 5 5 0 0 0 0 0 0 0 0 0 0 0 0 0 0 0 0 0 0 0 0 0 0 0 0 0 0 0 0 24 28 28 0 0 0 0 0 0 0 0 0 0 17 0 0 0 0 0 0 17 0 0 0 25 24 18 0 0 0 
0 0 0 0 0 20 0 0 0 0 1 0 0 1 1 0 0 1 0 0 1 1 0 0 0 0 0 0 0 0 7 7 8 8 0 0 0 6 6 0 0 0 0 0 0 0 0 0 0 0 0 0 0 0 0 0 0 0 0 0 0 27 29 27 23 19 15 11 0 0 0 0 16 15 10 0 17 0 0 22 26 0 0 15 0 17 16 15 0 
0 0 0 0 0 20 0 0 0 0 0 0 0 0 1 1 0 0 0 0 0 1 1 0 0 0 1 0 0 0 0 0 0 0 8 8 8 6 0 0 0 0 0 0 0 0 0 0 0 0 0 0 0 1 1 0 0 3 0 0 0 0 0 0 0 0 0 0 0 0 0 0 0 14 0 0 17 0 0 0 27 30 25 0 0 0 0 0 0 
0 0 0 0 0 19 0 0 0 0 0 0 0 0 0 0 0 0 0 0 0 0 1 0 0 0 0 0 1 0 0 0 0 0 0 0 0 0 0 0 0 0 0 0 0 0 0 0 0 0 0 0 0 0 0 0 0 4 0 0 0 0 0 0 0 0 0 13 11 0 0 0 0 15 0 0 16 0 0 0 0 0 17 13 0 0 0 0 0 
0 0 0 0 0 18 0 0 0 0 0 0 0 0 0 0 0 0 0 0 0 0 1 0 0 0 0 0 0 0 0 0 0 0 0 0 0 0 0 0 0 0 0 0 0 0 0 0 0 0 0 0 0 0 0 0 0 0 5 7 8 10 11 11 0 14 16 15 0 0 0 0 0 15 0 0 14 12 11 0 0 0 0 0 0 0 0 0 0 
0 0 0 0 0 17 0 0 0 0 0 0 0 0 0 0 0 0 0 0 0 0 0 0 0 0 0 0 0 0 0 0 0 0 0 0 0 0 0 0 0 0 0 0 0 0 0 0 0 0 0 0 0 0 0 0 0 0 0 0 0 0 0 0 0 0 0 0 0 0 0 0 0 14 0 0 0 0 0 0 0 0 0 0 0 0 0 0 0 
0 0 0 0 0 0 0 0 0 0 0 0 0 0 0 0 0 0 0 0 0 0 0 0 0 0 0 0 0 0 0 0 0 0 0 0 0 0 0 0 0 0 0 0 0 0 0 0 0 0 0 0 0 0 0 0 0 0 0 0 0 0 0 0 0 0 0 0 0 0 0 0 0 0 0 0 0 0 0 0 0 0 0 0 0 0 0 0 0 
