P2
89 89
255
0 0 0 0 0 0 0 0 0 0 0 0 0 0 0 0 0 0 0 0 0 0 0 0 0 0 0 0 0 0 0 0 0 0 0 0 0 0 0 0 0 0 0 0 0 0 0 0 0 0 0 0 0 0 0 0 0 0 0 0 0 0 0 0 0 0 0 0 0 0 0 0 0 0 0 0 0 0 0 0 0 0 0 0 0 0 0 0 0 
0 4 7 6 0 0 13 0 0 8 11 10 5 0 0 8 10 7 4 5 2 0 0 7 9 10 10 9 8 6 8 0 2 0 0 0 1 4 4 5 5 4 0 0 2 1 0 0 0 3 2 3 0 3 3 0 4 0 0 0 0 0 2 6 6 2 1 1 0 5 4 4 0 0 0 0 0 0 0 0 0 0 0 0 0 0 0 0 0 
0 0 0 0 7 13 8 0 3 0 0 5 0 3 0 0 0 0 0 0 0 0 1 0 0 0 3 0 0 0 4 2 2 2 1 0 0 1 0 0 2 0 0 2 2 1 0 0 0 1 2 1 0 3 3 3 3 0 0 0 0 0 0 0 0 0 0 0 0 0 0 0 0 0 0 0 0 0 0 0 0 0 0 0 0 0 0 0 0 
0 0 0 3 0 0 0 0 0 2 2 0 0 0 2 0 0 0 0 0 0 0 0 0 0 0 0 2 2 0 0 2 2 0 3 0 0 0 0 0 0 0 0 0 0 0 0 0 0 0 0 0 0 1 0 0 5 6 6 8 11 12 13 13 10 7 5 4 4 0 0 6 7 4 1 0 0 0 0 2 5 4 0 0 6 7 6 5 0 
0 0 0 1 0 0 1 0 0 0 0 0 3 3 0 3 3 0 0 0 0 0 0 0 0 0 0 0 0 0 3 0 2 3 3 0 0 0 0 0 0 0 0 0 0 0 0 0 0 0 0 0 0 0 0 0 6 0 0 6 0 0 3 0 4 0 0 0 5 0 9 0 0 4 0 0 0 1 0 4 0 6 0 0 6 0 0 3 0 
0 0 0 0 0 0 0 0 0 0 1 1 3 3 0 4 4 0 0 0 0 0 0 0 0 0 0 1 0 0 4 0 0 2 1 0 0 0 0 0 0 0 0 0 0 0 0 0 0 0 0 0 0 0 0 0 7 7 6 10 11 12 13 13 10 7 7 0 0 0 0 0 6 4 0 0 1 3 0 0 0 7 0 4 8 7 6 5 0 
0 0 0 0 0 0 0 1 2 0 2 0 0 2 0 3 3 1 2 1 0 0 0 0 0 0 0 3 0 3 3 0 0 1 0 0 0 0 0 0 0 0 0 0 0 0 0 0 0 0 0 0 0 0 1 0 0 0 0 2 0 0 0 0 0 0 0 0 3 0 0 3 0 0 0 0 0 0 6 0 4 0 3 0 0 0 0 0 0 
0 0 0 0 0 0 0 3 0 3 2 0 2 2 2 1 1 2 0 2 0 0 0 0 0 0 0 0 6 10 4 0 0 1 2 0 0 0 0 0 0 0 0 0 0 0 0 0 0 0 0 0 0 0 0 0 0 0 0 0 0 0 0 0 0 0 0 3 3 0 4 4 0 4 0 0 0 0 7 4 5 0 0 0 0 0 0 0 0 
0 0 0 0 0 0 0 4 0 4 0 0 0 0 0 0 0 0 2 1 0 0 0 0 0 0 0 0 6 0 6 0 0 2 0 0 3 1 0 1 0 2 3 1 0 0 0 1 0 0 2 2 0 0 3 4 3 1 0 0 0 0 0 0 0 0 0 3 3 0 4 4 4 4 0 0 0 0 3 0 3 0 0 0 0 0 0 0 0 
0 0 0 2 3 2 0 0 4 4 4 0 0 0 2 2 2 2 1 0 0 1 0 0 0 1 0 5 8 9 0 0 0 7 8 0 0 2 0 2 0 3 2 1 0 0 0 2 0 5 4 0 2 2 2 0 3 0 0 0 0 0 0 0 1 2 0 2 2 2 2 0 0 0 1 0 0 1 0 0 1 0 0 0 0 0 0 0 0 
0 0 0 0 0 5 0 1 3 3 3 0 0 0 0 3 0 0 0 0 7 0 0 2 1 0 4 6 0 0 5 0 0 10 0 0 0 0 0 0 0 0 0 0 0 0 0 0 0 0 2 0 0 0 13 10 0 6 5 2 1 0 0 0 3 0 0 0 4 0 3 0 0 0 0 0 0 0 0 0 0 0 0 0 0 0 0 0 0 
0 0 17 14 4 4 0 2 0 0 1 0 0 0 3 0 3 0 0 7 0 5 0 0 3 0 0 0 4 0 6 6 0 0 0 0 0 0 0 0 0 0 0 0 0 0 0 0 0 0 0 0 0 0 0 0 0 0 0 0 2 0 0 0 0 7 10 0 6 0 3 0 0 0 0 0 0 1 3 0 0 0 0 0 1 0 1 0 0 
0 0 0 14 0 1 0 0 0 0 0 0 0 0 4 4 4 2 4 0 10 6 0 3 8 9 0 0 0 0 0 0 0 0 0 0 0 0 0 0 255 255 255 255 255 255 255 255 0 0 0 0 0 0 0 0 0 0 0 0 0 0 0 0 6 0 0 9 0 0 2 0 0 2 1 0 0 3 0 5 0 0 8 7 2 1 1 0 0 
0 10 17 0 0 0 0 0 0 1 3 4 3 3 0 4 0 0 3 0 0 0 0 0 0 0 0 0 0 0 0 0 0 255 255 255 255 255 255 255 0 0 0 0 0 0 0 0 255 255 255 255 255 255 255 255 255 255 0 0 0 0 0 0 0 0 0 7 0 0 4 0 0 0 2 0 0 0 0 10 0 0 0 6 0 0 0 0 0 
0 2 0 3 1 2 1 0 1 0 0 4 3 3 0 4 0 0 0 0 0 0 0 0 0 0 0 0 255 255 255 255 255 0 0 0 0 0 0 0 0 0 0 0 0 0 0 0 0 0 0 0 0 0 0 0 0 0 255 255 255 255 0 0 0 0 0 0 7 0 0 8 0 0 0 0 0 1 0 8 10 11 12 7 0 3 0 0 0 
0 1 2 0 3 0 3 0 3 0 4 4 3 5 0 4 0 7 0 0 0 0 0 0 255 255 255 255 0 0 0 0 0 0 0 0 0 0 255 255 255 255 255 255 255 255 255 255 255 255 255 255 255 255 0 0 0 0 0 0 0 0 255 255 255 0 0 0 0 0 0 11 0 13 8 0 0 0 0 0 0 0 0 0 5 0 0 0 0 
0 0 0 0 4 0 5 0 3 0 4 4 3 4 4 5 0 0 0 0 0 0 255 255 0 0 0 0 0 0 0 255 255 255 255 255 255 255 0 0 0 0 0 0 0 0 0 0 0 0 0 0 0 0 255 255 255 255 255 0 0 0 0 0 0 255 255 0 0 0 0 0 0 0 0 8 12 12 10 11 12 8 0 0 0 0 0 6 0 
0 0 0 0 7 0 5 0 0 2 0 0 0 0 5 0 0 0 0 255 255 255 0 0 0 0 0 255 255 255 255 0 0 0 0 0 0 0 0 0 0 0 0 0 0 0 0 0 0 0 0 0 0 0 0 0 0 0 0 255 255 255 255 0 0 0 0 0 255 255 255 0 0 0 0 0 0 0 0 0 0 0 0 0 5 0 11 0 0 
0 0 0 0 7 0 5 5 0 0 0 0 0 0 0 0 0 255 255 0 0 0 0 0 255 255 255 0 0 0 0 0 0 0 0 0 0 0 0 3 0 0 0 0 0 0 5 0 2 0 0 0 0 0 0 0 0 0 0 0 0 0 0 255 255 255 0 0 0 0 0 255 0 0 0 0 0 0 9 0 0 12 14 0 12 0 13 3 0 
0 0 4 0 11 0 11 0 8 0 0 0 0 0 0 255 0 0 0 0 0 0 255 255 0 0 0 0 0 0 0 0 0 0 0 0 3 0 0 0 0 5 0 0 0 5 0 0 0 0 2 0 0 0 0 0 0 0 0 0 0 0 0 0 0 0 255 255 255 0 0 0 0 255 0 0 0 0 0 8 0 0 0 12 12 0 10 0 0 
0 4 0 0 13 0 0 11 0 0 0 0 255 255 0 0 0 0 0 255 255 255 0 0 0 0 0 0 0 0 0 5 0 0 0 0 0 0 0 0 0 0 0 0 0 0 0 0 0 0 0 0 0 0 5 0 12 0 0 0 0 0 0 0 0 0 0 0 0 255 255 0 0 0 0 255 255 255 17 0 0 8 0 11 0 6 0 8 0 
0 10 10 11 0 9 0 0 106 0 0 255 0 0 0 0 0 255 255 0 0 0 0 0 0 0 7 0 0 0 0 0 0 0 0 0 0 0 0 0 0 0 0 0 0 0 0 0 0 0 0 0 0 0 0 0 10 0 13 0 0 5 4 0 0 0 0 0 0 0 0 0 255 0 0 0 255 0 0 0 0 13 0 0 0 6 0 12 0 
0 14 0 0 11 0 0 0 255 255 0 0 0 0 0 255 0 0 0 0 0 0 0 0 0 0 0 0 0 0 0 0 0 0 0 0 0 0 0 255 255 255 255 255 255 255 255 255 255 255 255 0 0 0 0 0 0 0 12 0 0 0 0 0 0 0 0 0 255 255 0 0 0 0 255 0 255 0 0 0 0 14 14 0 8 7 0 11 0 
0 0 0 0 0 0 43 0 0 0 0 0 0 0 0 0 0 0 0 0 3 0 5 0 0 9 0 0 0 0 0 0 0 0 255 255 255 255 255 0 0 0 0 0 0 0 0 0 0 0 0 255 255 255 255 0 0 0 0 0 0 0 0 0 0 0 255 255 255 0 0 164 0 0 0 0 0 0 0 0 0 0 20 0 0 0 0 0 0 
0 0 0 9 0 9 0 0 255 0 255 255 255 0 0 0 0 0 0 8 14 14 11 11 0 0 0 0 0 0 255 255 255 255 0 0 0 0 0 0 0 0 0 0 162 0 0 0 0 0 0 0 0 0 0 255 255 255 0 0 0 0 0 255 255 0 0 0 0 0 0 0 255 0 0 0 255 0 255 0 0 0 0 0 0 0 0 0 0 
0 0 0 0 8 0 0 255 0 0 0 0 0 0 0 0 0 0 0 0 0 0 0 0 0 0 0 0 0 255 0 0 0 0 0 0 58 0 0 0 0 169 141 0 151 0 0 0 0 218 0 0 110 0 71 0 0 0 255 255 255 255 255 0 0 0 0 0 0 0 164 0 255 0 0 0 255 0 247 0 0 0 0 17 14 5 0 0 0 
0 0 0 14 0 0 0 255 0 0 0 0 0 255 255 255 0 0 0 0 0 0 0 0 0 0 0 255 255 0 0 134 0 0 0 0 145 0 182 0 202 0 0 0 0 180 0 0 0 176 0 0 105 0 0 0 255 0 0 0 0 0 0 0 0 0 87 63 74 0 194 0 255 0 0 0 255 0 0 0 0 0 255 113 0 0 0 2 0 
0 7 0 0 182 0 255 0 0 0 0 0 0 0 0 0 255 255 255 255 255 255 255 255 255 255 0 0 0 0 145 227 0 0 0 0 199 0 0 0 228 0 0 113 0 208 0 0 0 135 0 121 133 0 142 0 255 0 0 255 0 0 0 0 0 0 43 0 0 0 0 0 0 0 255 255 255 0 0 0 0 0 255 0 0 0 11 7 0 
0 11 0 0 255 0 0 0 255 0 255 0 0 0 0 0 0 0 0 0 0 0 0 0 0 0 0 0 122 0 0 0 0 255 255 0 0 225 0 0 142 0 0 96 0 157 0 108 0 93 0 0 0 111 143 0 194 0 0 0 0 191 145 0 0 24 0 0 0 0 0 0 255 255 255 0 255 0 0 0 92 0 0 0 0 0 12 0 0 
0 0 0 0 0 0 0 0 255 0 255 0 255 0 0 0 75 0 0 0 0 0 0 0 0 0 0 0 100 0 0 87 69 0 0 0 0 0 0 101 0 0 0 49 0 0 0 0 0 0 0 94 0 0 106 0 0 208 0 0 0 0 0 0 0 0 0 0 0 0 0 255 0 0 0 0 0 242 0 0 79 0 0 0 0 0 0 0 0 
0 0 0 255 0 0 0 0 255 0 0 255 0 255 0 0 0 0 96 0 144 0 0 82 0 140 127 0 0 0 0 0 0 0 0 0 0 0 0 0 0 0 132 0 0 0 0 0 0 0 0 0 0 0 0 0 0 0 255 255 255 255 255 255 255 193 125 77 0 0 0 255 0 0 178 0 0 0 0 0 85 0 0 0 0 0 0 0 0 
0 0 0 0 0 0 0 0 255 255 255 255 248 255 0 0 0 0 0 150 127 0 68 0 0 0 110 0 0 0 0 255 255 255 255 255 255 234 229 0 0 0 0 0 83 0 0 152 182 170 162 190 188 168 0 255 255 255 0 0 0 0 0 0 0 0 0 0 0 80 0 0 255 0 193 0 188 0 255 192 241 0 0 0 0 255 0 0 0 
0 0 0 0 125 117 0 0 0 0 0 0 0 255 0 0 0 0 0 0 0 164 148 0 0 0 134 0 151 227 0 0 0 0 0 0 0 0 0 255 255 255 255 0 0 0 0 0 0 0 0 0 0 0 0 255 0 0 0 255 255 255 255 196 0 0 0 0 0 0 0 0 255 0 0 0 0 254 238 0 0 0 0 152 0 255 0 0 0 
0 255 0 0 0 0 0 0 0 0 0 0 0 0 255 0 0 0 0 0 186 0 0 170 221 207 121 0 146 0 0 205 219 204 198 191 158 0 0 255 0 255 0 0 0 0 0 0 0 0 0 0 0 0 0 0 255 255 0 0 0 0 0 0 0 0 0 0 129 0 183 0 255 0 0 0 0 255 0 0 0 0 0 255 0 0 255 0 0 
0 255 0 0 62 123 101 0 170 0 115 0 0 0 255 0 0 73 0 0 0 192 225 0 0 0 0 0 0 0 0 0 0 0 0 0 0 0 0 255 255 255 255 0 0 0 0 255 255 255 255 255 255 255 0 255 0 0 0 0 0 130 199 0 202 255 255 0 0 174 253 0 0 255 0 120 0 255 0 190 0 0 0 255 0 0 255 0 0 
0 255 0 0 0 0 0 0 172 0 102 0 0 0 255 0 0 0 0 0 0 0 0 0 174 205 193 182 198 227 250 213 0 0 0 255 255 240 210 0 0 0 0 0 255 255 255 255 0 0 0 0 0 0 255 0 0 0 0 154 0 161 0 224 0 0 0 0 255 0 0 0 0 255 0 0 0 255 0 0 0 251 0 0 255 0 255 0 0 
0 230 0 0 0 0 0 0 145 128 0 0 0 0 255 0 0 0 139 0 0 0 0 0 0 0 0 0 0 0 0 167 255 255 255 0 0 0 0 129 0 144 0 0 0 0 0 0 255 0 0 0 0 0 0 0 255 0 0 210 0 136 0 0 138 0 0 0 0 0 0 212 0 255 0 0 0 249 0 0 0 186 0 0 255 0 255 0 0 
0 136 0 156 239 172 166 0 0 0 151 0 0 0 255 0 0 0 160 0 0 0 0 0 81 0 108 159 0 0 0 0 0 0 0 0 202 188 172 173 0 0 190 0 255 255 0 0 0 0 0 0 0 199 0 255 255 0 0 0 202 215 0 0 116 0 70 0 151 0 0 0 0 255 0 0 0 221 0 0 0 165 178 0 255 0 255 0 0 
0 0 0 0 0 0 0 0 0 0 180 0 0 0 255 0 0 0 172 0 73 82 0 0 105 0 112 0 0 0 0 255 0 0 0 0 162 0 0 0 0 0 208 0 0 0 0 255 255 0 0 160 0 0 0 0 0 0 0 0 0 0 0 0 51 0 0 0 106 0 0 0 0 0 255 0 0 144 0 160 133 175 0 0 0 0 255 0 0 
0 0 0 0 0 0 0 222 0 0 181 0 0 0 255 0 0 0 191 0 0 0 0 0 0 152 0 0 135 0 192 0 88 0 0 0 0 0 127 119 136 0 153 0 0 0 0 0 0 0 157 0 0 0 0 0 255 255 191 133 93 0 0 76 103 91 62 53 0 0 0 114 0 0 255 0 0 0 0 0 0 0 0 0 0 0 255 0 0 
0 0 222 0 0 0 0 230 0 0 0 207 0 0 0 255 0 77 220 0 90 0 0 0 0 154 0 0 0 0 0 0 0 80 96 122 144 0 0 0 0 135 171 170 200 246 247 0 0 0 0 0 0 255 0 0 0 0 0 0 0 0 0 0 0 0 18 0 0 158 0 0 0 0 255 0 0 0 0 0 0 0 0 0 255 255 255 178 0 
0 0 255 0 0 0 203 0 0 0 0 221 0 0 0 255 0 0 195 0 0 0 0 0 0 0 200 213 157 96 0 0 0 0 0 0 0 0 0 0 0 0 0 0 0 0 0 0 0 0 255 0 0 255 0 0 0 0 145 142 0 0 0 0 46 0 0 93 0 172 126 0 0 0 255 0 0 24 0 0 0 0 0 255 0 0 0 11 0 
0 255 0 0 0 0 230 0 0 159 0 185 0 115 0 255 0 172 155 0 142 0 203 154 0 0 0 0 0 0 0 48 59 0 0 46 0 0 0 80 105 115 0 0 123 0 0 0 0 0 0 0 0 0 0 0 255 0 0 0 0 0 0 0 0 0 0 0 0 120 0 0 0 0 255 0 0 0 0 0 0 0 0 0 0 0 0 0 0 
0 255 0 0 0 119 213 0 151 177 0 0 131 0 0 255 0 0 0 0 241 0 0 194 0 0 0 0 0 49 0 0 0 0 57 0 0 0 85 0 0 0 0 0 0 0 0 255 255 255 255 0 133 0 0 0 255 0 0 255 255 255 255 192 0 0 0 0 116 192 208 195 0 255 0 0 0 0 0 0 0 0 255 0 0 0 10 0 0 
0 255 0 0 0 0 0 255 0 166 0 0 105 0 0 0 255 0 0 0 212 0 183 0 0 168 116 0 0 0 0 61 85 0 0 0 0 0 0 0 0 0 0 255 255 255 0 255 0 0 0 181 0 0 0 0 255 255 255 0 0 0 0 0 0 0 0 0 0 0 0 124 0 255 0 0 0 0 0 0 0 0 255 0 0 10 0 0 0 
0 255 255 255 255 0 0 255 0 0 0 0 0 104 0 0 255 0 0 0 186 0 151 148 176 0 0 0 101 68 0 0 0 0 0 255 255 255 255 255 255 255 0 0 0 0 0 255 0 0 0 158 0 0 0 0 0 0 0 0 0 0 0 0 0 0 0 48 0 0 0 0 0 255 255 255 255 0 255 255 255 0 255 0 0 12 0 0 0 
0 100 0 0 0 0 0 0 0 0 127 0 0 0 0 0 255 0 0 0 126 0 0 58 0 0 0 0 0 0 0 91 193 255 0 0 0 0 0 0 0 0 0 0 0 255 0 255 0 0 0 251 0 255 0 249 203 0 0 0 255 0 0 46 0 0 0 0 0 0 0 255 0 0 0 0 0 255 0 0 0 0 71 0 12 0 0 0 0 
0 0 0 0 0 0 0 0 0 0 0 118 0 107 142 0 0 255 0 137 0 114 0 83 0 0 160 174 151 89 83 0 0 0 0 0 0 0 0 0 0 0 0 0 154 0 0 0 0 148 0 255 0 0 0 0 0 0 0 0 0 0 0 0 0 0 173 159 0 0 0 0 0 0 0 0 0 0 0 0 0 0 0 9 7 1 1 0 0 
0 0 10 0 0 0 0 0 255 0 0 0 0 0 0 0 0 0 0 232 125 0 131 0 0 0 0 0 0 0 0 0 0 180 255 255 0 0 0 0 163 104 0 133 255 0 0 0 255 0 0 255 0 0 0 0 0 0 0 255 0 0 0 0 0 0 0 0 0 0 0 0 0 0 0 0 4 0 0 0 0 0 0 0 0 0 0 0 0 
0 3 0 0 11 0 0 0 0 255 255 255 255 0 0 255 255 255 0 243 0 0 127 0 0 0 0 0 101 0 86 63 0 0 0 0 0 255 0 0 0 0 0 0 137 0 255 0 255 0 125 0 255 0 0 255 255 255 0 0 0 116 0 0 0 0 0 0 255 255 232 103 29 0 0 0 3 0 4 4 9 11 8 0 2 0 0 0 0 
0 0 0 0 0 0 0 0 0 0 0 0 0 255 255 0 0 0 0 0 0 0 0 161 179 0 0 0 0 0 77 0 0 86 0 0 0 0 0 255 0 0 0 0 193 0 255 0 0 231 0 0 0 255 255 0 0 0 255 0 116 217 227 0 0 0 0 0 0 0 0 0 0 10 0 0 0 0 0 0 7 0 11 0 2 0 0 0 0 
0 0 0 0 0 0 0 7 0 0 0 0 0 0 0 0 0 0 0 0 0 0 0 0 0 223 253 239 215 209 199 157 0 0 0 90 0 0 0 0 0 255 0 0 0 201 255 0 250 0 0 0 173 0 0 0 0 255 0 0 0 0 0 0 0 0 0 0 0 0 0 0 0 0 0 4 0 2 0 0 10 13 8 0 0 2 1 0 0 
0 0 0 0 0 0 3 0 0 0 13 0 0 0 0 0 0 0 0 0 255 0 143 0 0 0 0 0 0 0 0 0 167 0 0 0 0 92 0 0 0 0 0 0 0 0 167 0 0 0 0 0 0 0 0 255 255 255 0 0 0 0 0 255 255 255 255 0 0 0 0 0 0 6 0 0 4 0 0 3 0 0 0 0 4 0 3 0 0 
0 0 0 1 0 0 1 0 0 7 10 0 8 0 0 0 0 0 0 227 0 0 0 0 0 0 0 0 0 0 0 0 0 0 162 143 0 0 0 0 0 0 0 0 0 0 0 0 0 255 255 255 255 245 0 0 0 166 0 0 0 0 0 0 0 0 0 0 18 0 11 10 7 0 2 4 4 0 0 3 3 3 0 0 5 0 3 0 0 
0 9 3 3 0 0 0 1 0 3 0 0 0 2 2 0 0 0 0 255 0 0 0 0 92 0 0 0 40 0 0 0 0 0 0 0 122 0 0 0 0 0 0 0 0 0 0 255 0 0 0 0 0 0 0 255 255 0 165 0 0 0 0 0 0 0 0 0 10 0 0 0 0 4 0 0 0 2 0 0 0 0 0 4 0 0 1 0 0 
0 8 0 3 0 0 0 0 0 2 0 2 0 2 2 0 0 0 0 255 0 223 164 0 0 0 0 38 0 0 38 52 0 0 0 0 0 147 138 88 0 0 19 0 255 255 255 0 0 255 255 255 0 0 0 255 0 0 0 104 0 0 0 0 0 0 0 0 0 7 0 0 0 2 1 2 0 0 0 0 0 0 2 0 2 0 0 0 0 
0 2 3 0 0 0 0 0 0 1 2 1 0 0 2 15 0 0 0 255 0 0 0 0 0 128 0 0 0 0 0 0 52 83 93 78 0 0 0 0 99 0 0 0 0 0 0 255 255 0 0 0 0 255 255 255 0 0 0 224 0 0 0 0 0 0 0 0 0 4 0 0 0 1 2 1 0 0 0 0 0 0 1 2 1 0 0 0 0 
0 0 0 0 0 0 0 0 0 0 0 0 0 0 0 14 0 0 0 255 0 0 0 0 156 157 123 101 0 0 0 0 0 0 0 0 0 0 0 0 0 122 144 145 0 0 0 0 0 255 255 255 255 0 0 0 0 0 0 168 0 0 145 0 0 0 0 0 0 1 0 0 0 0 0 0 0 0 0 0 0 0 0 0 0 0 0 0 0 
0 3 0 3 0 0 0 0 0 0 0 0 1 0 9 0 0 0 255 0 0 0 0 147 156 0 0 0 160 203 160 95 0 0 0 0 40 66 80 97 0 0 0 0 160 0 0 0 0 0 0 0 0 0 0 0 0 0 0 0 196 0 157 0 0 0 9 0 0 0 0 0 1 2 1 0 0 0 0 0 0 0 0 0 0 0 0 0 0 
0 3 0 3 0 0 0 0 0 0 0 1 0 0 8 0 0 0 255 0 0 0 0 0 152 0 0 0 0 0 125 0 0 80 81 48 0 0 0 0 0 0 78 0 0 0 155 0 0 0 0 0 0 147 161 140 0 0 0 137 203 0 179 0 0 0 0 0 0 0 1 1 0 1 2 0 0 0 0 0 0 0 0 0 0 0 0 0 0 
0 0 0 3 0 0 0 0 0 2 1 0 3 0 9 0 0 0 225 0 0 178 163 133 0 0 0 0 0 0 110 0 63 0 0 0 0 0 0 118 0 136 128 0 0 0 0 146 0 0 91 135 0 0 0 0 0 0 0 0 0 0 202 0 0 0 0 0 0 0 2 2 0 2 1 0 0 0 0 0 1 2 1 0 0 0 0 0 0 
0 0 3 0 7 6 5 0 3 0 3 1 0 0 10 0 0 0 218 0 0 0 0 0 0 152 172 163 0 0 0 0 0 0 82 0 0 0 0 234 0 0 0 0 0 0 0 144 0 94 0 0 0 0 136 150 124 0 0 0 0 0 222 0 0 0 0 7 0 0 0 2 2 0 0 0 0 0 0 0 3 2 3 0 0 0 0 0 0 
0 0 3 0 7 6 0 0 0 3 2 0 0 0 9 0 0 0 219 0 0 0 0 0 0 0 0 0 0 0 0 0 0 0 0 0 0 0 0 0 0 149 0 0 0 0 0 0 168 0 125 97 0 0 0 0 0 0 0 0 0 0 243 0 0 0 0 8 0 3 2 0 5 9 10 7 5 2 0 0 3 2 3 0 1 2 1 0 0 
0 0 1 0 0 6 0 0 0 2 0 0 0 0 7 0 0 0 210 0 0 0 0 0 0 0 242 189 0 0 0 0 100 0 0 0 0 221 255 0 211 0 130 128 164 209 218 149 0 0 84 125 82 0 0 0 0 199 145 0 0 0 249 0 0 0 0 0 0 4 0 0 0 8 0 0 0 5 0 0 1 2 1 0 2 0 2 0 0 
0 0 0 1 3 0 1 0 0 1 0 0 0 0 2 0 0 0 0 0 0 0 106 129 0 230 0 0 0 0 90 105 0 0 134 170 183 0 236 0 227 0 0 0 0 0 0 0 0 103 0 70 0 0 0 188 0 0 0 0 0 0 0 0 0 17 11 0 0 4 0 4 4 9 9 8 7 4 0 0 0 0 0 0 0 0 0 0 0 
0 0 0 0 0 0 0 0 1 2 1 0 0 0 0 0 0 0 0 174 0 0 0 0 0 0 0 0 0 0 0 0 0 0 0 0 0 0 0 0 182 0 0 0 0 0 0 0 0 0 0 0 207 196 171 0 0 0 0 0 0 238 0 0 0 0 0 3 0 4 0 5 0 0 0 0 0 0 0 0 0 0 0 1 3 3 0 0 0 
0 0 0 0 0 0 0 0 2 0 2 0 0 0 0 0 0 0 0 166 0 0 0 0 0 0 0 0 130 0 0 0 173 170 179 0 0 0 250 244 0 0 140 140 162 146 144 120 125 172 208 205 0 0 0 0 0 0 0 255 255 0 0 0 0 0 2 0 0 3 2 5 5 3 6 0 0 0 0 0 0 0 0 2 2 2 2 0 0 
0 1 0 0 0 0 0 0 1 2 1 0 0 0 0 0 0 0 0 0 168 0 0 38 45 0 0 0 0 0 175 182 0 0 0 232 255 244 0 0 0 0 0 0 0 0 0 0 0 0 0 0 0 0 0 68 255 255 0 0 255 0 0 0 0 0 0 2 0 1 2 0 6 0 8 0 2 0 0 0 0 0 0 1 3 3 1 0 0 
0 2 0 0 0 0 0 0 0 0 0 0 0 0 0 0 0 0 0 0 186 0 0 0 0 0 0 0 0 0 0 0 0 0 0 0 0 0 0 0 0 0 0 0 57 0 0 44 0 0 0 40 0 0 0 0 0 0 0 0 0 255 0 0 0 0 3 0 0 0 0 0 4 6 7 0 0 0 0 0 0 0 0 0 0 0 0 0 0 
0 2 0 0 0 0 0 0 0 0 0 0 0 0 0 0 0 0 0 0 0 199 0 0 0 41 52 50 0 0 0 0 0 73 0 0 0 0 0 0 65 0 0 0 0 0 0 0 0 0 0 0 0 0 0 0 0 0 0 0 0 255 0 0 0 0 0 0 0 0 0 0 1 0 0 4 6 2 0 0 0 0 0 0 0 0 0 0 0 
0 1 2 0 0 0 0 0 0 0 0 0 0 0 0 3 0 0 0 0 0 0 0 0 0 0 0 0 0 0 0 0 0 0 0 0 0 0 0 56 79 100 104 111 116 154 145 114 89 80 69 0 0 0 0 255 255 0 0 0 0 255 0 0 0 0 0 0 0 0 0 0 0 0 0 6 0 7 0 2 1 0 0 0 0 0 0 0 0 
0 2 0 0 0 0 0 0 0 0 0 0 0 0 0 3 1 0 0 0 0 0 232 0 0 91 0 0 111 158 184 0 0 0 0 0 0 0 0 0 0 0 0 0 0 0 0 0 0 0 0 119 255 0 0 0 0 0 0 0 0 255 0 0 0 0 0 0 0 0 0 1 0 1 0 4 6 5 0 0 3 0 0 0 0 0 0 0 0 
0 3 0 0 0 0 0 0 0 0 0 0 0 0 0 1 2 8 0 0 0 0 233 0 0 69 88 0 0 0 0 255 255 255 255 255 255 0 0 0 0 0 0 0 74 99 116 108 97 56 0 0 255 0 0 0 0 250 0 0 0 255 0 0 0 0 0 2 0 4 4 4 0 0 0 0 0 2 0 2 3 0 0 0 0 0 0 0 0 
0 1 0 0 0 0 0 0 0 0 0 0 0 0 0 0 0 7 8 0 0 0 0 0 0 39 0 0 0 0 0 225 0 0 0 0 0 255 255 255 255 0 147 88 0 0 0 0 0 0 0 0 0 0 0 0 0 0 0 0 0 0 0 0 0 0 0 0 0 0 0 0 0 1 0 0 1 1 0 0 0 0 0 0 0 0 0 0 0 
0 0 0 0 0 0 0 0 0 0 0 0 0 0 0 0 1 0 0 0 0 0 0 191 0 0 0 0 75 0 0 235 255 0 0 0 0 0 0 0 255 0 0 0 0 0 0 0 55 77 60 146 255 255 255 0 0 0 0 255 255 255 167 0 0 0 0 0 6 0 7 0 0 3 0 3 0 0 1 2 0 0 2 1 0 0 0 0 0 
0 0 0 0 0 0 0 0 0 0 0 0 0 0 0 0 0 0 0 0 0 0 0 164 164 0 0 0 0 0 90 135 0 0 246 0 0 0 0 255 255 0 69 70 0 34 0 0 0 0 0 0 0 0 0 255 255 255 255 0 0 0 73 24 17 0 0 0 4 5 0 1 0 3 0 3 0 1 3 0 3 3 0 3 0 0 0 0 0 
0 3 0 2 0 0 0 1 0 0 0 0 0 0 0 0 0 0 0 0 0 0 0 0 177 0 0 0 0 0 79 0 0 0 0 0 255 255 0 0 0 0 0 0 0 53 0 0 118 0 0 0 0 0 0 0 0 0 0 0 0 0 0 0 0 0 0 0 0 4 0 0 0 0 4 0 0 0 4 0 3 3 0 5 0 10 12 7 0 
0 0 6 2 5 0 0 4 0 0 0 0 0 0 0 0 0 0 0 0 0 0 0 0 220 0 0 80 96 106 119 59 0 0 0 0 0 0 0 0 0 0 0 0 0 0 0 0 154 0 0 92 0 0 0 0 0 0 0 0 0 22 17 10 5 0 5 0 0 5 0 0 0 0 0 2 2 1 3 3 0 0 0 0 0 11 0 6 0 
0 3 7 0 0 7 0 7 0 0 0 0 0 0 0 0 0 0 0 0 0 0 0 0 255 0 0 0 0 0 64 0 124 0 0 0 0 0 0 0 0 0 136 172 205 227 133 231 0 0 0 106 0 0 0 0 0 0 0 0 0 0 0 0 0 0 10 0 10 0 3 3 4 2 3 0 0 2 0 0 2 2 0 4 0 11 12 7 0 
0 0 5 2 0 8 0 7 2 2 0 0 1 0 0 0 0 0 0 0 0 0 0 0 251 0 0 0 0 0 0 0 0 0 0 0 0 0 0 0 0 0 0 0 0 0 0 255 0 0 0 91 0 0 0 0 0 0 0 0 0 10 0 0 0 0 8 0 8 0 0 2 0 0 3 0 0 0 0 0 0 2 0 0 0 0 0 0 0 
0 3 3 2 0 6 5 5 0 0 2 2 2 0 0 0 0 0 0 9 0 0 0 0 0 0 0 0 0 0 0 0 0 221 191 176 188 0 0 0 0 0 0 0 0 0 0 0 0 0 0 0 0 0 0 0 0 0 0 0 9 9 0 3 3 0 0 0 0 2 2 3 4 3 1 0 1 2 3 0 2 0 4 0 4 0 0 0 0 
0 4 0 0 0 2 0 0 0 2 0 0 1 0 0 0 0 0 0 7 12 15 25 64 138 221 255 255 255 255 255 255 255 0 0 0 0 228 255 255 0 0 0 0 0 0 255 254 0 0 0 0 0 0 0 0 0 0 0 0 0 2 0 0 0 0 0 0 0 0 0 0 0 0 0 0 2 0 3 0 0 2 5 0 6 0 1 0 0 
0 1 0 1 2 1 0 0 0 0 0 0 0 0 0 0 0 0 1 0 0 0 0 0 0 0 0 0 0 0 0 0 0 0 0 0 0 0 0 0 255 255 255 255 255 0 0 136 0 0 0 0 0 0 3 0 0 0 0 0 0 0 0 0 0 0 0 0 0 0 0 0 1 0 0 0 2 2 1 0 0 0 0 5 0 0 3 0 0 
0 0 1 0 1 2 0 0 0 0 0 0 0 0 0 0 0 0 0 0 0 0 0 0 0 0 0 0 0 0 0 0 0 0 0 0 0 0 0 0 0 0 0 0 0 0 0 0 0 0 0 0 0 3 3 0 0 0 0 0 0 0 0 0 0 0 0 0 0 0 0 0 0 5 4 0 3 0 0 0 3 3 0 0 0 4 4 0 0 
0 0 3 0 3 0 0 0 0 0 0 0 0 0 0 0 0 0 0 0 0 3 0 0 7 0 0 0 0 0 0 0 10 0 4 0 0 0 0 0 0 0 0 0 0 0 0 0 0 12 0 0 0 0 1 0 0 1 2 1 0 0 0 0 0 0 0 0 0 0 0 0 0 0 0 0 0 0 0 0 3 0 0 7 0 4 0 0 0 
0 0 3 2 3 0 0 0 0 0 0 0 0 0 0 0 0 0 0 0 1 3 0 4 0 0 0 0 0 0 0 0 7 3 5 3 0 0 0 0 0 0 11 0 6 0 0 0 0 8 0 0 0 0 0 0 0 3 0 3 1 0 0 0 0 0 0 0 0 0 0 0 7 0 0 8 9 4 0 0 1 4 0 7 0 0 0 0 0 
0 0 1 2 1 0 0 0 0 0 0 0 0 0 0 0 0 0 0 0 0 1 2 1 0 1 2 0 0 3 0 0 3 0 0 3 2 0 0 0 12 12 11 0 7 11 11 0 3 0 0 0 0 0 0 0 0 3 0 3 0 0 0 0 0 0 0 0 0 0 0 0 7 0 0 0 8 8 2 2 2 1 0 5 0 3 0 2 0 
0 0 0 0 0 0 0 0 0 0 0 0 0 0 0 0 0 0 0 0 0 0 0 0 0 0 0 0 0 0 0 0 1 3 4 0 0 1 1 0 4 0 0 5 0 0 2 0 1 0 0 0 0 0 0 0 0 1 0 0 1 0 0 0 0 0 0 0 0 0 0 0 4 9 10 10 11 7 0 0 0 3 1 3 0 4 0 0 0 
0 0 0 0 0 0 0 0 0 0 0 0 0 0 0 0 0 0 0 0 0 0 0 0 0 0 0 0 0 0 0 0 0 0 0 0 0 0 0 0 0 0 0 0 0 0 0 0 0 0 0 0 0 0 0 0 0 0 0 0 0 0 0 0 0 0 0 0 0 0 0 0 0 0 0 0 0 0 0 0 0 0 0 0 0 0 0 0 0 
