P2
89 89
255
40 39 40 40 42 42 42 41 41 42 42 42 42 42 42 42 42 42 41 42 42 41 40
41 41 41 42 42 42 43 42 41 42 42 42 42 41 42 42 43 41 43 42 44 41 42
42 42 43 42 42 42 43 43 42 44 41 42 43 41 41 43 44 43 42 43 43 43 44
44 42 43 43 42 43 43 41 41 41 41 40 40 40 40 40 40 39 39 40 40 40 41
42 40 41 40 43 42 42 42 41 43 42 41 42 42 43 43 42 41 41 41 42 40 41
42 41 41 42 41 42 41 41 41 40 43 42 42 42 42 42 42 42 42 42 42 43 42
42 43 42 43 43 42 43 42 43 42 42 42 42 43 44 43 43 43 43 43 44 44 42
43 43 42 43 41 42 43 42 41 41 40 41 41 39 40 39 41 40 40 41 41 40 40
41 42 42 42 42 42 43 42 42 40 42 42 41 42 42 42 42 42 42 42 42 41 41
41 42 42 41 41 42 42 42 42 42 43 42 43 43 42 42 43 42 44 42 43 42 43
43 42 42 43 42 42 43 44 43 42 42 44 43 43 43 44 43 43 44 43 42 43 43
44 42 44 42 43 42 41 43 41 41 40 40 41 40 39 40 40 41 41 40 42 41 41
42 40 41 41 42 42 42 42 41 42 42 43 41 41 43 42 42 41 41 42 41 40 41
43 41 42 43 41 42 42 42 43 44 42 43 42 42 43 43 43 44 42 42 42 43 42
44 43 43 43 43 43 42 43 44 43 43 43 43 43 44 44 45 44 44 43 44 42 42
43 42 42 42 42 41 41 42 41 41 41 40 40 40 39 41 41 41 41 42 41 43 42
43 43 43 43 43 41 42 42 43 41 42 42 41 41 41 41 41 41 41 43 42 42 42
42 43 42 41 44 42 42 42 43 42 44 44 43 44 44 43 44 44 44 43 44 43 43
42 44 43 45 43 43 44 44 44 44 44 44 45 44 44 44 44 44 43 43 44 44 44
44 42 44 42 43 42 43 43 40 40 40 42 41 42 42 43 42 43 42 42 41 44 43
44 43 42 43 42 42 43 43 42 42 43 42 43 42 43 43 43 41 43 43 42 42 43
44 43 44 43 43 43 45 43 44 43 45 43 43 43 43 44 43 46 45 44 43 43 45
43 44 44 43 44 44 44 44 44 44 44 44 45 44 44 44 44 45 44 43 43 44 43
44 42 44 44 42 41 41 42 42 41 42 42 43 43 43 43 43 43 43 43 43 43 42
44 44 43 43 43 44 43 43 43 44 43 43 43 43 44 44 44 44 44 44 44 43 45
44 44 45 45 45 44 45 44 44 46 45 45 45 46 44 44 44 45 45 44 44 44 46
44 44 45 45 45 45 45 46 46 45 46 46 44 45 45 44 44 44 44 44 44 44 44
44 44 42 42 43 42 41 44 42 42 44 42 42 42 45 42 43 44 44 44 44 45 44
43 45 45 43 43 45 45 44 45 43 44 44 44 44 43 44 44 45 44 44 46 45 45
46 47 44 45 46 45 44 44 46 45 45 46 45 45 44 44 45 46 46 45 47 46 46
47 47 48 47 47 47 46 47 46 47 48 47 47 46 46 46 45 45 45 45 45 44 41
41 43 42 44 43 44 43 43 45 44 44 44 45 45 45 44 44 45 43 45 45 44 45
45 44 44 45 44 43 45 45 45 45 46 45 45 45 45 44 45 46 46 44 46 45 47
47 46 47 46 46 46 46 46 46 47 46 47 47 48 46 47 47 47 48 48 48 48 49
48 48 48 48 48 49 48 48 49 48 47 48 47 48 46 47 46 46 46 43 43 43 43
43 44 44 45 45 45 44 45 45 44 46 46 44 44 45 45 45 46 46 45 47 45 46
47 45 44 45 46 45 45 45 45 46 45 46 46 45 45 46 47 47 46 46 47 47 48
47 47 49 48 47 48 47 48 48 47 48 47 49 49 49 48 50 49 49 49 50 50 50
49 50 50 50 50 50 49 51 49 48 48 49 48 47 49 47 44 44 45 44 45 46 45
45 46 45 45 45 46 47 45 46 46 46 45 46 46 46 46 46 46 47 47 48 46 46
45 47 48 48 47 46 47 48 46 46 48 48 47 47 48 48 47 48 49 48 48 49 48
48 49 50 49 48 49 49 49 49 50 50 51 50 50 51 51 50 51 51 51 50 52 51
51 51 51 50 50 50 51 50 50 50 50 50 50 44 44 46 45 45 47 46 45 46 46
48 46 46 46 46 47 47 47 47 47 48 47 47 48 47 48 48 47 47 46 48 47 47
48 48 47 47 48 49 48 47 48 48 50 49 49 50 49 50 50 50 50 51 50 49 49
52 50 50 51 51 50 51 51 51 51 51 52 51 51 52 51 51 52 51 53 50 52 51
52 50 51 52 50 51 52 52 51 51 45 46 46 46 45 48 46 47 48 49 47 47 48
48 49 48 48 48 49 47 49 48 48 49 49 48 49 49 48 48 47 47 50 47 48 48
49 50 49 49 49 50 51 49 50 51 51 50 52 50 51 51 53 52 52 52 51 51 51
50 52 52 52 52 51 53 52 53 53 53 52 52 54 53 53 53 53 54 53 53 53 52
52 53 53 53 53 51 52 46 47 48 47 48 48 48 49 50 48 49 48 48 49 49 50
49 49 49 48 48 49 50 49 50 50 50 49 49 50 49 49 49 50 50 50 51 50 50
50 50 50 51 52 51 52 53 52 52 52 53 52 54 53 52 54 54 53 53 53 53 52
54 54 55 54 54 55 56 54 54 55 55 55 55 55 55 56 54 56 55 55 55 55 55
55 55 55 54 48 48 49 48 49 49 50 50 50 51 49 52 51 50 50 50 50 52 50
50 50 51 50 50 50 50 50 50 51 51 51 50 51 50 50 50 50 51 51 52 51 51
51 52 53 52 53 53 54 54 53 54 55 56 55 54 56 54 55 55 55 56 56 55 56
56 58 56 58 59 58 57 56 57 56 57 57 57 57 57 55 57 56 58 57 56 57 56
57 50 50 50 50 51 51 50 50 52 52 51 51 52 53 51 51 52 53 51 53 52 51
52 52 52 52 51 53 52 52 53 50 52 53 52 52 52 54 53 54 53 54 53 55 54
54 54 55 55 54 55 55 57 57 57 57 57 57 56 58 56 57 58 58 58 58 59 59
59 60 58 58 58 58 59 59 59 59 58 59 58 59 59 59 60 59 58 58 58 51 52
52 51 52 52 52 51 52 52 52 53 52 53 53 54 53 54 54 54 53 53 52 54 55
54 54 54 53 53 54 52 55 54 53 53 54 54 56 54 55 55 55 56 55 55 56 57
56 58 57 58 57 59 58 59 60 59 59 59 59 59 59 60 60 59 60 60 60 61 60
59 60 61 60 60 60 59 60 60 62 60 60 60 60 61 60 61 61 53 53 52 54 54
54 53 54 53 54 53 54 54 53 54 55 55 55 54 54 53 54 53 55 54 55 54 54
55 54 55 54 54 54 55 56 55 57 55 55 57 57 56 55 58 58 58 58 58 60 59
59 59 60 59 60 61 60 60 60 60 62 61 62 62 61 62 63 62 62 63 64 62 62
62 64 63 63 63 64 62 63 64 63 62 63 62 62 63 54 55 54 54 55 56 56 54
55 55 56 55 56 56 55 56 56 55 56 55 56 57 56 56 59 53 48 49 55 57 56
56 56 57 57 57 57 57 58 59 58 59 60 59 59 59 59 59 60 60 60 62 61 61
61 61 61 62 62 64 64 64 66 64 64 64 64 65 64 65 64 66 64 64 65 65 66
67 65 64 66 66 65 67 64 65 67 65 66 57 55 57 57 57 57 57 58 57 58 58
57 57 57 58 59 58 58 59 58 58 59 59 59 56 112 98 88 71 53 49 56 59 58
57 60 58 59 59 59 58 60 60 61 60 61 62 61 62 61 63 63 64 64 65 65 64
65 65 66 67 65 66 67 66 68 66 69 67 68 66 67 69 66 68 67 66 68 68 67
68 68 68 67 65 68 68 66 67 58 58 59 59 60 59 60 59 58 60 59 60 59 60
59 60 60 59 60 61 60 60 59 60 49 94 106 106 120 119 104 71 48 56 61
60 60 60 61 62 61 61 61 61 62 63 63 64 64 63 66 65 66 65 66 66 68 67
68 69 68 69 67 68 69 69 68 68 69 69 69 69 68 70 69 69 70 69 69 69 70
69 70 69 70 68 69 68 69 61 60 61 60 60 60 60 62 62 61 62 60 62 59 61
60 61 60 60 60 62 60 61 60 60 74 119 117 119 120 123 138 129 85 51 56
63 61 62 63 63 64 64 65 64 64 65 65 66 66 66 69 69 68 68 70 69 69 71
70 71 71 70 71 71 71 71 72 72 71 71 71 72 71 72 72 72 72 72 71 72 72
70 72 71 73 71 73 71 63 62 63 63 63 64 64 63 62 63 64 63 64 64 64 63
64 64 64 63 63 64 63 62 64 54 126 119 130 130 132 134 132 145 140 85
49 65 66 65 65 65 65 68 67 66 68 67 68 70 68 70 70 70 71 71 72 73 73
73 72 74 74 73 74 74 76 73 74 73 75 73 73 74 73 74 74 74 73 74 73 74
75 74 73 74 74 73 74 64 64 65 65 65 65 65 66 66 67 67 65 66 66 66 65
66 66 66 66 65 67 65 65 65 54 110 135 132 138 146 145 141 146 142 163
129 62 59 69 67 67 68 68 68 69 69 71 72 71 73 73 73 73 74 74 75 74 75
75 76 77 76 77 78 76 78 76 79 76 79 76 77 76 79 76 77 77 77 77 76 79
77 77 77 76 76 77 77 65 66 66 66 66 67 67 67 67 67 69 68 68 68 69 68
68 69 67 68 69 67 66 67 68 65 85 153 142 146 154 156 157 157 156 152
152 158 90 55 71 70 71 70 72 71 73 73 73 75 74 75 75 75 77 77 79 78
79 80 78 79 79 80 79 79 79 78 80 80 80 80 80 80 80 81 79 81 79 80 82
81 80 79 80 81 79 79 79 69 70 68 70 70 70 69 70 70 71 70 69 71 70 69
71 70 70 71 70 70 69 70 71 69 70 59 153 150 151 159 162 163 169 163
163 161 156 169 120 56 72 73 73 74 73 76 75 77 76 77 79 79 79 79 80
80 80 81 82 81 83 82 82 82 83 83 84 81 82 83 83 83 83 82 82 84 82 82
82 83 82 82 81 82 81 83 82 82 70 70 71 71 71 72 71 73 73 72 73 72 73
73 71 78 78 72 68 66 70 72 73 73 71 71 58 132 154 157 166 170 172 175
176 170 172 166 159 167 141 58 74 75 76 76 79 79 79 78 80 82 80 82 82
83 83 83 84 84 84 86 85 86 86 85 88 85 85 85 87 86 85 87 85 85 86 86
85 85 85 85 85 87 84 85 85 85 85 73 72 73 73 73 73 74 74 74 74 74 74
74 75 73 89 117 107 105 95 78 75 68 77 80 74 68 105 175 166 172 178
177 188 186 185 181 177 170 167 158 156 61 78 79 79 79 82 82 81 82 82
83 83 85 84 85 86 87 87 87 87 88 88 88 87 88 89 88 87 87 88 88 88 88
88 87 88 88 88 86 88 87 87 88 86 87 88 87 76 76 76 76 76 77 78 76 77
77 76 76 77 76 78 77 111 104 106 107 95 91 82 61 61 77 95 82 183 169
178 184 183 191 194 193 189 194 173 169 170 160 158 62 82 82 83 83 84
85 84 86 85 86 87 88 88 88 90 89 90 89 90 90 91 90 90 91 91 90 90 90
91 90 90 90 91 90 91 90 90 91 90 90 89 89 89 90 89 76 76 77 77 77 78
78 78 77 78 78 79 79 78 79 73 115 111 115 116 121 98 97 80 54 27 25
63 176 171 181 193 195 200 201 204 201 199 192 178 183 159 156 148 66
86 84 85 86 87 86 88 87 88 88 88 89 88 89 88 87 87 88 87 86 86 85 83
92 93 93 93 92 93 92 92 93 92 92 92 93 94 93 93 93 92 92 92 92 79 80
78 79 80 80 80 81 80 80 80 81 81 79 79 73 116 125 129 132 131 132 104
99 68 51 34 0 123 183 182 193 197 203 203 206 207 207 201 191 178 175
158 167 121 65 73 75 74 75 78 80 85 93 102 110 117 132 137 141 147
150 150 154 155 156 158 166 98 96 97 96 95 96 95 95 94 94 95 95 96 94
97 95 95 95 95 95 94 81 79 98 93 81 83 85 83 83 81 78 77 78 81 84 78
106 144 141 143 149 146 134 104 87 54 31 6 68 199 190 205 213 217 223
223 224 223 225 223 214 210 207 198 212 160 157 160 161 162 165 163
161 160 156 152 144 128 117 113 115 115 116 111 108 105 100 100 93
100 98 98 98 98 98 97 98 97 98 98 98 98 99 97 97 97 97 97 96 83 77
139 151 111 119 112 116 112 112 114 106 97 88 76 76 102 154 156 163
186 192 192 177 172 143 132 108 108 213 210 214 217 216 218 218 219
215 211 205 201 183 173 172 153 157 71 80 77 76 76 79 80 80 73 82 103
126 146 161 170 175 179 175 172 163 157 137 130 91 99 99 99 99 99 100
100 100 100 100 99 101 99 101 98 100 100 98 99 85 87 81 77 123 113
115 118 118 123 121 117 115 101 89 54 16 177 171 181 187 177 164 158
117 100 53 26 8 193 191 201 208 215 214 215 216 214 214 208 199 195
181 169 165 157 140 77 90 92 93 85 85 112 144 165 174 167 167 169 166
173 174 170 170 171 167 173 102 99 103 102 103 102 104 103 103 103
101 103 103 103 103 103 103 102 103 103 101 88 86 88 82 111 126 125
129 132 133 134 134 130 122 116 76 5 165 183 192 203 187 172 167 152
119 91 72 15 156 202 207 212 214 215 216 217 212 213 210 204 194 185
175 160 161 169 95 92 85 84 120 153 160 155 155 163 168 172 176 181
181 176 178 180 176 187 105 101 106 104 106 106 105 105 105 105 104
104 105 105 104 105 104 105 103 104 103 103 90 90 90 91 89 141 134
139 145 151 152 150 149 146 115 74 30 138 196 203 208 195 181 169 172
104 135 75 23 113 212 208 214 218 221 220 216 216 214 210 203 194 185
175 169 151 165 142 70 114 151 155 152 156 166 176 180 188 189 192
195 194 193 192 183 181 172 60 117 107 108 108 108 107 110 108 106
107 106 108 107 108 108 108 109 106 107 105 104 92 92 91 91 82 130
145 144 152 161 169 162 176 131 92 115 62 123 212 209 211 198 185 189
135 153 152 112 40 85 226 217 219 226 226 229 223 220 215 213 209 201
193 187 174 174 151 152 129 144 152 156 162 165 171 177 183 187 191
193 194 191 193 186 180 198 56 111 101 101 100 99 101 100 102 106 108
111 109 109 108 108 110 109 108 107 108 108 107 93 95 95 95 94 94 161
155 158 167 175 193 138 101 141 135 104 100 225 215 213 206 194 184
115 183 166 141 54 56 219 210 215 218 227 218 215 212 204 199 194 190
175 167 169 136 133 111 110 120 128 148 152 157 165 172 183 188 192
194 197 193 189 183 176 140 41 110 100 101 101 100 98 100 102 103 104
106 109 111 112 110 108 106 107 108 108 105 109 97 98 97 98 96 84 142
158 168 170 191 149 110 162 168 155 135 100 223 218 219 207 202 142
166 172 169 160 85 39 198 212 216 221 221 219 213 209 200 194 186 180
171 166 129 124 117 105 115 112 110 114 132 134 140 149 153 159 166
170 171 168 174 172 186 14 105 89 95 97 102 104 106 108 110 109 108
100 100 104 111 117 124 128 127 127 139 147 111 98 97 98 98 98 98 101
173 160 182 151 112 160 183 181 169 153 109 214 222 215 200 183 112
168 151 154 158 107 35 138 181 182 189 186 182 181 169 165 156 150
147 145 102 103 108 111 92 108 116 117 112 127 147 149 157 164 169
171 175 180 185 137 145 137 80 114 97 96 105 107 108 110 105 97 108
126 141 153 165 165 168 167 160 161 172 48 111 109 100 101 98 99 98
97 93 140 157 148 118 138 186 179 178 180 161 127 193 224 212 207 126
156 161 153 159 168 150 79 117 196 189 193 194 195 186 182 177 167
164 164 109 120 130 122 124 104 119 123 124 126 108 134 148 151 158
158 157 166 165 162 150 128 134 151 149 148 135 114 91 93 104 134 158
169 165 159 155 154 155 155 151 153 142 2 101 108 104 102 99 96 96 96
116 61 41 174 135 127 198 189 188 190 193 184 162 179 223 208 190 125
179 164 156 165 176 175 125 98 199 192 195 196 198 193 189 177 180
172 106 129 146 140 140 138 120 135 137 138 144 150 108 156 172 172
174 174 172 165 152 153 151 151 144 142 149 150 158 159 124 172 164
154 156 157 159 160 159 155 144 160 100 0 110 116 113 113 103 99 97
107 107 86 0 11 161 157 106 23 46 101 175 213 208 178 134 223 208 140
173 174 168 167 173 179 186 162 80 191 185 187 186 182 177 164 171
141 84 122 127 119 115 114 107 91 112 116 116 122 125 137 89 143 146
146 146 145 140 133 149 6 156 137 138 140 144 148 136 133 146 152 151
152 154 152 153 150 139 163 61 0 103 118 113 117 116 104 89 52 26 3 6
59 24 77 75 33 10 90 95 81 69 99 198 75 205 178 147 198 189 192 185
180 177 182 175 64 171 180 181 175 174 162 169 149 127 167 149 138
134 136 140 136 123 138 137 141 146 149 150 161 107 156 159 153 146
142 142 79 17 123 152 143 142 146 131 142 141 118 153 145 149 146 149
140 142 162 32 0 86 118 106 108 105 105 105 0 0 2 1 4 11 50 9 25 38
38 24 22 65 83 60 176 70 184 176 127 2 16 29 64 97 131 166 181 65 135
176 175 170 165 176 151 79 14 52 94 129 134 127 107 88 79 89 88 93 87
85 89 85 86 42 81 73 68 63 71 2 56 24 86 82 87 77 80 92 96 82 83 117
112 112 108 115 132 14 1 12 112 64 70 76 78 81 109 104 8 27 30 25 28
48 43 46 48 41 59 53 37 17 17 81 100 170 179 97 115 96 103 39 3 0 0
117 98 93 172 164 162 175 128 41 2 20 12 8 0 10 36 58 50 44 40 34 17
50 68 53 50 47 67 83 95 95 96 97 72 90 52 82 137 126 126 137 138 142
137 123 133 137 135 135 138 14 10 14 7 55 101 100 106 106 108 119 116
55 73 76 62 44 51 38 45 46 46 49 43 53 57 48 36 25 36 84 59 19 38 74
89 56 75 24 44 130 68 183 158 173 109 28 35 61 37 53 51 42 56 47 35
92 61 58 93 134 151 164 178 185 186 184 193 200 203 200 217 203 197
195 185 206 207 191 198 188 181 196 221 220 221 219 221 198 192 198
193 193 192 197 203 215 212 210 95 86 54 73 61 50 45 59 42 51 51 48
54 38 43 44 33 45 33 44 25 24 54 46 48 39 62 32 61 65 126 95 137 162
96 41 60 92 129 89 83 93 117 110 117 114 138 146 187 210 227 232 225
224 222 220 216 212 213 210 211 205 203 205 204 205 203 203 204 199
199 195 186 198 206 204 196 169 144 139 133 112 114 115 120 112 124
148 164 39 19 26 51 71 55 52 70 44 56 59 56 66 78 83 103 94 120 126
134 144 108 91 118 169 172 171 175 157 170 168 177 173 171 178 188
188 175 170 181 181 192 185 195 189 191 189 190 190 200 205 203 205
204 203 202 206 209 207 206 200 196 192 190 185 187 185 182 178 174
167 164 163 161 181 175 163 137 147 146 128 161 121 123 128 130 91
131 168 57 37 42 50 37 39 48 61 43 54 54 53 50 64 71 35 24 38 55 121
74 115 127 108 92 101 109 108 152 125 125 139 149 145 147 149 146 197
207 182 204 187 214 192 190 181 180 181 179 184 187 188 189 189 188
199 200 200 195 195 184 194 177 182 192 171 158 155 153 160 161 157
150 147 153 147 133 127 128 121 112 89 88 89 85 126 95 74 59 33 47 48
46 61 46 29 44 60 66 82 71 91 85 88 90 102 119 94 118 134 122 131 122
143 89 106 110 121 141 145 139 147 143 146 142 148 137 137 142 142
153 156 160 172 150 147 148 139 147 148 150 152 151 152 152 150 153
148 148 149 142 144 143 138 144 141 142 142 136 136 133 132 125 110
141 130 141 110 90 89 95 80 77 111 85 71 72 120 101 46 55 46 106 71
61 48 29 130 40 72 82 113 114 84 101 81 124 80 85 85 90 145 84 41 54
65 112 82 89 87 94 118 78 79 84 96 124 98 102 106 114 136 137 114 126
124 151 121 127 128 126 139 129 130 134 133 134 135 135 137 140 144
145 148 153 157 155 164 158 155 156 156 149 194 181 183 198 190 156
149 171 156 59 54 69 66 48 81 52 54 22 26 55 47 49 62 100 37 25 51 78
71 63 78 70 72 89 94 86 91 91 66 106 72 208 111 127 138 143 139 144
122 129 136 133 154 150 160 203 168 187 225 180 183 185 180 176 171
171 161 159 162 166 165 165 164 166 164 163 166 163 164 158 155 147
144 144 141 140 134 134 129 127 133 114 108 162 95 86 69 81 57 49 49
66 62 33 38 30 40 36 94 95 101 121 109 118 128 105 131 152 158 170
178 175 182 185 189 195 204 200 197 200 207 182 182 178 180 180 172
166 174 184 185 186 189 190 187 203 201 202 201 212 215 215 210 216
221 209 193 195 198 205 209 208 200 194 195 183 196 184 190 199 200
196 195 196 193 189 193 197 189 188 190 187 167 177 174 175 173 176
185 189 179 170 74 69 79 77 91 169 178 178 177 181 177 169 190 196
193 194 189 192 199 192 191 190 188 190 185 181 179 179 185 190 201
206 208 209 214 235 237 239 240 240 241 241 238 238 236 235 233 237
235 234 232 230 234 238 239 239 239 239 237 239 240 240 239 235 236
233 230 227 226 222 220 218 215 213 214 211 212 209 208 206 202 198
196 194 193 184 182 173 157 4 4 7 6 8 13 17 17 22 29 21 31 38 52 56
50 47 55 66 63 74 76 83 90 87 98 102 129 133 142 160 163 167 172 174
173 170 168 173 178 176 178 185 185 190 189 190 190 193 195 194 194
195 198 198 196 198 197 196 196 196 195 193 192 188 188 188 186 183
184 183 179 177 176 174 172 169 169 165 162 154 150 147 149 152 133
127 129 131 44 44 44 51 60 58 59 63 74 94 84 91 103 138 138 141 155
158 170 168 171 166 169 172 164 165 172 191 193 195 199 198 202 204
201 197 197 196 199 201 200 200 203 205 205 204 205 202 202 200 198
199 200 200 198 198 199 197 197 194 192 192 187 187 186 185 185 183
180 178 177 177 175 175 174 174 173 170 165 157 150 136 140 141 140
138 141 144 148 21 21 28 35 36 38 44 43 42 41 49 48 49 45 44 44 42 43
42 40 48 42 45 46 50 55 68 94 113 125 146 159 168 173 169 164 163 160
166 168 168 171 179 180 178 175 178 179 180 184 185 189 191 194 195
196 198 200 198 200 201 201 201 200 199 198 197 196 194 193 192 188
187 184 180 178 173 170 164 159 154 135 129 127 127 113 107 105 107
25 20 22 20 22 20 19 17 14 13 11 11 12 10 12 10 10 13 17 18 21 20 20
27 31 30 36 42 57 61 76 108 138 152 156 150 150 152 151 149 148 149
154 156 159 158 163 165 171 174 172 170 170 170 172 173 171 169 167
166 165 162 161 156 151 148 150 146 142 136 131 127 122 118 115 112
108 102 90 82 64 43 34 29 21 17 17 15 15 21 18 18 16 18 17 16 18 17
18 17 15 16 18 17 16 18 18 16 21 15 15 16 12 11 11 11 7 7 6 6 6 6 7 6
5 5 4 2 2 2 2 2 1 3 4 5 5 5 6 7 8 9 10 10 9 10 9 9 9 7 7 7 4 5 6 5 5
4 2 2 1 2 2 1 2 1 2 2 2 3 5 6 7 9 11 11 11 10 18 21 24 24 21 20 18 17
19 17 17 17 17 19 17 16 19 15 16 16 15 16 16 17 15 16 16 18 19 24 22
27 32 36 38 43 50 56 57 59 63 65 66 67 66 64 65 64 63 63 59 58 58 58
55 57 60 60 61 63 61 60 57 59 60 60 59 56 55 55 55 54 57 55 57 58 57
55 51 48 46 38 35 28 25 21 22 22 20 21 20 24 19 18 18 17 17 13 17 16
16 16 13 14 13 12 14 13 15 14 13 11 10 12 12 12 15 18 22 28 45 52 51
49 52 51 52 53 52 53 53 56 59 59 64 67 72 80 87 92 96 102 102 107 112
114 114 113 113 110 109 108 105 103 101 96 95 91 88 82 81 78 76 74 71
68 63 60 58 55 51 44 32 24 16 18 20 22 38 41 38 27 26 22 18 19 20 19
16 15 17 20 19 20 19 18 15 19 15 14 14 14 13 18 18 14 14 16 19 13 9
10 7 7 5 3 3 3 3 2 1 1 0 3 12 13 2 2 1 3 4 4 4 4 3 3 3 4 4 3 3 3 4 3
3 3 3 3 6 2 2 4 8 8 10 9 7 7 7 9 13 16 16 15 17 22 21 22 22 23 29 23
29 29 23 18 10 12 13 10 12 9 4 5 7 4 8 5 5 5 3 7 6 5 8 2 4 2 2 1 2 1
3 4 8 10 13 22 47 65 69 61 77 50 14 7 8 8 0 2 1 5 2 0 0 1 0 0 5 4 0 1
2 6 3 16 14 53 31 31 29 8 17 10 10 15 10 15 18 17 23 22 23 20 17 24
27 22 26 26 54 44 43 38 57 63 50 55 58 59 83 83 97 98 108 92 86 88
111 76 72 67 55 48 79 67 112 90 87 146 116 171 129 158 153 133 113 79
83 93 122 85 122 118 138 83 143 149 101 123 90 105 112 130 127 120
112 77 80 105 98 91 96 95 70 50 45 60 39 28 97 47 49 69 69 88 51 52
54 25 21 20 7 17 8 25 30 32 38 38 42 55 55 51 62 59 69 89 135 138 129
150 162 182 181 204 203 177 183 194 165 139 173 210 221 207 208 216
214 215 216 227 217 216 232 223 242 245 248 239 245 238 233 220 222
199 207 208 193 203 212 205 196 204 190 205 198 209 187 190 193 190
188 198 218 189 210 209 214 193 180 216 186 191 209 204 210 192 186
192 207 205 170 151 37 29 31 35 34 34 43 34 41 49 43 77 128 140 135
165 189 180 199 190 128 116 161 126 102 127 176 212 167 130 113 182
213 226 243 233 225 208 243 226 241 233 224 227 235 227 224 196 195
241 241 220 217 216 239 238 241 211 234 220 194 212 215 201 192 237
242 229 216 201 219 219 230 215 219 204 222 206 208 179 213 214 221
208 201 202 209 201 224 42 37 41 39 51 56 42 50 62 80 82 65 70 79 102
90 79 95 101 104 96 102 106 86 103 127 93 60 145 157 182 138 160 133
127 139 164 166 165 197 178 190 157 131 162 189 213 239 227 232 206
204 216 208 217 157 166 171 186 200 210 207 180 174 165 202 218 191
186 171 227 214 191 213 181 204 244 232 227 230 201 223 228 219 224
210 208 203 189 23 28 26 36 36 36 47 37 40 35 37 38 43 41 69 66 85 81
74 81 89 67 107 108 76 64 70 46 29 36 87 95 90 97 121 161 194 156 174
177 176 168 155 156 166 147 141 195 213 181 231 225 195 202 200 188
217 222 228 242 245 236 248 228 238 227 239 224 205 215 186 176 174
154 151 138 168 188 163 187 209 186 196 174 182 157 186 166 135 29 24
23 24 27 33 31 32 38 45 53 70 76 61 63 53 42 43 50 56 66 66 62 76 68
81 75 90 63 103 52 38 46 71 42 55 96 85 126 142 142 144 104 94 99 143
194 196 166 153 127 150 180 207 191 186 121 93 123 130 152 193 175
180 185 169 112 108 159 158 195 197 224 196 217 214 196 206 162 207
212 212 187 200 211 169 223 194 206 30 34 30 32 37 34 42 39 32 31 37
33 30 38 47 58 57 56 49 76 51 53 44 54 64 68 86 96 87 66 78 72 61 45
66 63 65 132 104 79 90 65 138 86 79 87 167 111 106 85 112 74 156 127
128 126 202 165 197 173 191 155 147 194 184 153 177 122 155 108 110
90 99 74 45 74 71 97 86 97 145 107 82 110 53 66 94 115 57 38 33 30 29
26 28 28 25 28 28 28 34 42 40 35 36 33 38 41 49 41 49 66 62 52 51 50
48 53 46 44 54 58 46 56 95 105 77 76 123 121 101 93 94 81 76 80 82 77
72 74 68 80 110 88 139 163 142 140 152 166 121 151 147 177 172 189
136 156 173 155 127 118 143 96 52 59 57 59 51 73 71 100 137 172 118
106 79 81 22 25 28 32 32 33 31 30 32 31 29 25 23 26 28 29 36 45 49 49
46 51 59 48 34 49 51 59 41 35 32 31 47 48 40 33 34 48 75 68 87 96 75
76 57 78 79 109 88 89 100 158 132 97 88 91 63 109 138 135 100 130 158
170 94 117 91 54 71 64 47 56 39 56 112 99 52 62 49 32 18 54 97 100 39
58 65 50 79 39 30 29 31 29 28 29 30 31 33 33 39 38 31 28 36 40 41 34
27 38 40 48 42 41 34 29 24 28 30 26 23 36 54 50 57 58 51 71 73 85 87
96 100 65 72 78 79 69 43 58 46 68 78 87 97 76 79 100 45 27 44 62 62
84 60 61 84 46 27 37 21 29 30 68 78 71 41 35 58 75 73 51 47 40 38 60
76 75 27 32 28 24 23 23 21 36 43 49 38 31 35 47 46 43 38 34 46 38 38
26 29 38 41 39 34 43 44 46 48 48 46 48 53 78 106 87 89 70 70 64 70 74
61 41 56 79 66 61 46 45 41 38 65 63 70 115 120 115 115 63 52 93 132
85 96 71 75 60 65 94 118 110 48 49 49 65 64 39 47 72 39 22 49 88 82
130 94 49 41 33 27 24 26 28 29 28 30 37 38 40 51 48 47 49 43 35 33 34
34 38 37 49 53 40 38 40 61 42 36 48 51 60 66 48 42 42 31 56 64 41 36
39 40 36 41 63 79 86 118 100 78 65 75 96 89 165 154 105 69 140 135
145 127 76 55 25 62 120 152 174 156 162 161 73 60 37 42 65 65 72 47
32 20 12 24 22 33 29 28 28 29 27 27 27 29 32 29 29 35 34 34 37 38 38
44 54 62 64 50 48 50 56 55 52 58 60 63 80 87 77 72 73 52 49 44 48 35
42 44 46 66 45 52 58 32 36 74 70 68 86 94 71 67 30 33 19 26 77 54 75
69 71 58 47 92 77 36 45 130 125 89 59 51 49 53 46 18 32 22 24 17 23
21 17 25 28 24 25 27 29 25 23 26 24 23 24 28 30 29 29 27 30 35 32 28
24 23 21 21 22 26 24 32 26 30 38 46 57 65 65 72 74 72 68 58 51 48 44
39 30 48 47 52 55 50 47 50 57 82 114 121 115 83 85 131 203 217 153 78
53 36 33 56 44 63 45 55 45 38 36 68 74 82 53 37 54 48 58 48 50 17 18
21 25 16 16 18 16 18 21 22 23 25 18 22 24 25 26 28 24 24 21 23 25 23
32 33 39 32 22 30 34 36 31 43 41 41 45 51 44 31 22 30 50 41 28 27 51
61 49 61 61 42 27 24 39 32 35 37 61 104 92 124 146 72 47 48 39 28 39
42 32 36 46 45 68 61 96 73 42 63 76 67 56 74 90 60 36 52 76 75 50 48
23 22 24 25 24 24 23 24 27 34 32 26 28 26 25 27 27 36 35 31 26 36 49
38 33 26 29 24 28 32 27 33 39 43 36 42 38 42 42 37 40 44 51 41 43 41
29 30 44 60 65 54 44 32 30 26 24 34 56 85 86 83 79 62 41 49 57 67 55
30 58 47 68 71 87 81 88 70 85 69 54 65 69 81 101 114 77 80 60 24 23
27 25 22 21 20 23 24 19 25 30 29 25 26 27 23 26 24 24 20 23 23 24 29
36 37 46 55 49 41 40 41 36 39 49 63 72 63 58 55 54 49 42 38 52 51 44
44 46 50 51 94 100 57 54 51 60 82 84 91 112 119 91 68 64 71 49 80 80
65 63 34 27 34 48 77 107 114 81 107 129 142 87 86 94 69 50 40 26 28
26 25 24 19 23 23 20 23 23 22 25 30 30 25 27 31 29 26 26 24 24 26 33
34 35 40 43 36 41 38 35 34 41 32 29 40 52 46 46 46 35 33 30 24 40 36
28 35 45 89 65 47 41 30 43 27 26 20 34 63 133 101 90 66 60 65 49 43
46 37 47 37 34 45 51 82 90 117 101 103 64 77 76 77 61 39 22 28 27 23
24 26 26 24 24 22 19 25 27 29 29 26 25 24 22 21 22 23 30 29 26 28 29
34 25 23 29 36 36 39 48 44 38 33 26 19 17 31 33 31 32 44 48 37 42 42
44 49 59 55 121 153 124 95 62 58 52 44 21 7 26 78 120 97 51 73 148
119 127 106 76 112 128 77 64 51 39 58 78 127 138 162 114 92 99 164 19
20 24 27 29 28 29 23 24 24 21 24 26 28 31 40 37 44 43 36 38 33 31 38
31 25 26 29 34 35 44 39 39 41 53 52 42 35 33 42 32 32 32 37 41 71 85
59 45 31 29 39 54 51 60 93 81 75 57 68 89 110 123 71 34 30 38 51 82
128 149 164 117 107 83 75 55 47 38 53 81 54 99 153 179 101 87 80 60
22 20 18 19 21 24 28 27 23 23 23 23 24 27 27 27 33 39 40 39 34 30 27
24 26 30 32 29 28 24 22 27 31 36 35 37 42 38 39 43 52 50 45 33 37 45
53 49 60 54 49 45 43 35 34 37 37 54 42 45 32 55 64 39 37 36 39 27 38
75 100 96 84 56 104 114 64 129 105 84 68 82 62 70 48 66 37 21 41 20
18 20 24 23 24 25 22 27 26 29 34 36 40 40 45 44 37 37 35 31 25 23 27
32 28 30 29 24 25 25 21 20 23 34 39 36 40 33 33 29 29 27 32 32 37 31
29 27 27 27 27 31 31 28 33 44 45 87 69 68 79 88 88 67 56 81 61 44 37
25 20 14 27 19 29 49 79 94 55 54 52 68 45 37 17 29 41 31 22 24 22 25
26 23 24 25 27 27 25 23 23 21 21 20 22 26 30 31 30 36 39 41 41 36 36
30 26 28 30 38 44 41 42 52 61 54 35 25 27 28 22 24 26 31 35 38 31 27
25 28 35 41 37 44 45 37 31 27 27 36 38 57 50 54 58 55 37 26 36 33 39
38 26 26 21 16 22 42 46 33 22 25 33 40 39 31 28 18 19 20 21 21 23 25
25 28 26 25 23 26 28 29 25 21 24 23 24 22 20 21 20 20 21 21 23 25 27
32 34 36 43 44 40 29 31 39 34 31 32 38 37 33 33 34 36 34 24 20 38 39
61 66 46 59 54 71 75 93 105 60 39 46 58 31 29 41 49 44 40 36 31 27 31
30 36 30 27 26 30 34 29 32 52 60 57 48 21 24 25 24 25 25 27 26 23 23
24 25 24 26 30 31 35 33 34 34 29 28 30 29 27 24 25 29 31 34 32 36 34
36 34 30 26 25 23 22 22 21 22 25 35 36 61 55 62 49 38 29 26 35 30 45
44 47 39 30 44 41 30 32 38 54 43 49 80 62 52 78 58 45 52 49 48 31 30
33 29 21 19 18 15 13 14 20 28
