P2
89 89
255
154 149 149 140 121 91 73 69 64 57 50 47 46 47 48 44 41 40 42 44 44
41 36 39 41 40 39 43 44 43 45 45 46 45 45 44 44 46 44 42 45 45 47 53
61 64 72 65 63 58 48 48 42 40 34 32 33 33 31 29 29 29 37 61 136 177
213 193 192 196 194 192 196 193 194 197 195 189 193 194 193 192 193
189 183 185 181 176 172 141 135 120 83 66 60 59 61 57 59 52 52 49 49
47 46 44 42 42 38 41 40 35 37 40 42 42 45 43 45 47 46 42 44 43 42 45
45 41 44 45 42 38 38 42 42 50 57 70 73 73 73 53 47 42 36 35 33 29 27
30 27 22 15 3 14 88 174 207 202 195 190 185 193 184 191 194 189 192
195 193 193 191 187 182 182 178 177 174 136 99 64 62 62 67 63 59 57
58 51 44 46 47 46 47 44 40 40 38 36 39 39 40 41 41 43 44 43 44 42 47
43 43 40 39 48 42 40 43 46 43 38 42 41 45 47 45 50 59 71 71 65 61 46
43 36 36 38 34 25 25 30 28 26 28 27 49 153 190 213 189 188 191 189
189 194 191 190 193 193 191 190 187 184 182 178 174 170 77 55 59 64
69 61 58 51 49 42 44 41 42 43 41 43 42 41 42 42 33 36 39 39 36 40 41
43 44 44 46 47 44 45 43 40 44 42 40 37 38 44 45 44 41 42 42 48 52 53
65 68 74 78 69 62 53 48 44 44 38 31 26 27 21 24 22 7 5 30 138 196 203
190 192 188 190 191 189 189 187 188 189 186 181 180 176 173 167 69 70
70 70 62 53 56 56 50 45 45 41 41 38 42 46 45 45 43 40 36 36 35 32 35
35 36 40 40 39 41 42 43 47 48 43 44 40 39 38 38 40 41 42 41 42 42 46
57 63 73 75 81 79 84 77 58 47 42 42 42 40 35 33 27 24 23 25 27 24 25
87 194 200 194 190 190 191 186 187 188 188 188 185 180 180 175 172
168 61 62 67 70 65 53 59 49 48 46 42 40 43 44 41 40 45 46 44 41 42 43
43 44 42 39 42 45 45 45 47 43 43 43 43 40 44 42 42 42 40 44 42 40 39
42 39 42 54 61 75 78 89 73 56 76 80 73 63 52 42 39 39 40 33 31 30 23
22 22 24 0 41 110 192 198 186 192 190 189 192 189 186 186 180 179 175
170 165 60 61 65 68 61 67 68 49 43 47 45 44 43 43 43 39 39 45 43 41
40 46 46 44 43 41 41 42 47 48 48 47 46 42 41 40 44 42 40 44 40 42 40
41 39 40 47 50 51 52 65 72 88 88 70 49 53 66 71 62 48 44 38 34 34 36
33 34 31 31 25 28 19 22 102 177 214 193 188 183 185 190 185 185 183
178 171 169 165 59 63 62 61 58 64 76 69 58 53 49 49 47 44 43 40 37 36
37 36 41 43 36 37 43 42 43 44 43 44 44 43 46 46 45 42 46 46 43 42 40
43 46 45 43 43 46 54 58 66 75 68 77 87 84 68 45 43 47 50 42 43 43 42
34 31 29 29 31 28 26 29 26 19 7 21 90 162 193 197 190 187 184 180 175
175 171 168 162 62 65 67 66 60 64 86 81 70 62 56 57 54 53 53 48 41 39
40 41 44 46 42 42 42 45 50 46 44 41 45 45 44 46 46 48 45 43 47 45 41
42 46 48 46 50 48 47 57 65 79 90 82 83 90 76 46 48 34 35 38 41 41 39
35 33 28 27 32 30 27 22 29 27 24 19 11 38 134 180 212 186 184 178 173
170 166 164 157 60 56 58 64 61 74 90 90 97 91 84 78 75 71 63 64 61 59
57 49 47 46 45 46 42 45 47 46 46 46 48 50 48 47 44 42 42 44 46 48 47
48 48 50 52 55 68 69 72 70 69 64 79 77 79 86 69 65 53 43 36 40 39 40
38 39 34 30 32 35 34 25 26 26 27 26 21 6 1 15 106 176 190 183 173 169
166 162 153 60 60 60 62 56 71 85 94 104 101 98 92 86 88 94 98 95 88
83 76 67 59 62 59 51 53 56 59 54 53 47 46 46 45 45 44 45 46 49 53 51
50 47 48 49 50 64 71 82 89 84 78 83 78 78 71 65 61 52 40 40 39 36 33
35 39 36 34 31 32 35 35 29 24 25 27 25 24 25 17 11 45 145 180 187 168
160 158 151 61 61 56 56 58 71 84 97 112 125 141 140 154 170 188 181
171 165 160 155 147 134 122 117 108 101 96 90 79 71 63 63 58 56 51 47
51 48 47 48 51 53 52 50 50 52 59 60 70 79 82 90 88 75 67 70 60 58 53
41 41 39 35 33 32 37 32 32 30 28 23 38 35 24 26 25 21 21 24 26 20 5 5
44 143 172 157 154 149 55 56 58 57 56 64 80 93 100 121 151 158 179
193 200 202 204 201 198 191 186 176 166 155 147 139 132 115 108 92 77
73 69 66 63 59 57 50 46 46 48 54 54 55 57 58 62 64 77 85 92 81 81 76
67 69 59 52 50 47 43 37 34 33 27 38 34 35 32 30 28 30 35 30 27 24 22
21 22 24 23 22 22 16 45 137 185 155 146 54 50 54 56 62 71 89 107 128
156 177 195 212 216 222 226 230 230 230 231 227 228 224 217 216 211
207 197 188 175 160 141 119 111 99 90 73 66 69 67 58 54 59 71 73 77
81 74 77 87 96 86 82 74 66 61 57 54 46 41 36 36 31 34 29 29 29 31 30
30 28 28 31 30 28 25 21 26 26 23 24 18 25 28 18 9 105 157 146 54 53
57 63 67 79 90 115 146 179 202 208 211 211 217 220 223 223 227 227
224 223 224 225 225 225 222 223 225 219 206 196 175 166 145 133 106
85 73 61 59 61 57 59 72 69 75 80 78 79 87 86 96 84 78 71 52 46 48 43
35 37 33 34 31 31 29 32 28 27 28 29 29 29 28 27 26 23 27 21 21 21 18
19 22 20 24 92 160 54 62 65 71 77 106 132 160 186 195 202 205 212 213
220 224 224 224 225 225 223 225 224 228 229 234 234 231 230 233 235
234 231 226 215 212 199 185 169 134 85 68 59 61 85 80 66 68 73 72 72
78 80 72 69 68 59 46 40 39 35 31 31 34 33 32 31 29 26 26 27 27 26 24
26 25 23 22 23 22 25 20 21 18 23 25 19 12 94 49 57 62 79 101 135 154
166 178 188 199 206 213 214 218 222 223 223 227 225 225 224 224 226
232 232 231 233 234 230 233 230 230 229 226 226 221 215 210 200 172
133 78 59 51 69 64 63 64 66 70 83 91 76 60 59 59 53 41 40 36 33 35 40
35 30 29 31 25 28 26 25 23 24 23 23 22 22 21 23 27 29 22 20 20 15 23
18 42 47 56 65 95 127 151 164 175 185 190 203 211 216 217 224 223 225
224 224 222 225 225 227 226 229 230 230 230 232 230 232 231 231 233
238 237 238 237 224 205 207 216 203 171 89 50 45 46 51 56 54 47 61 73
67 63 54 55 47 38 32 35 36 33 32 30 29 29 26 28 26 25 22 24 21 21 22
21 21 20 23 23 27 26 24 19 16 15 22 43 55 65 103 137 154 169 174 185
191 205 207 216 217 218 221 220 224 221 221 219 220 222 225 227 227
228 230 235 236 240 240 240 235 237 233 233 224 190 169 127 117 112
108 101 68 40 33 38 42 43 45 45 60 59 56 53 49 46 39 36 37 34 34 31
29 29 29 26 27 23 24 27 27 24 22 22 22 23 20 20 23 21 23 23 21 14 14
14 36 53 90 131 162 166 177 182 189 195 203 207 215 215 215 219 219
222 223 221 221 221 221 222 224 224 230 233 239 246 242 247 242 246
240 231 202 171 124 108 85 94 119 151 175 191 172 146 77 49 34 37 36
33 47 49 46 43 42 37 37 36 32 34 32 28 29 31 32 30 24 26 26 28 23 21
21 22 24 21 20 20 24 24 25 23 17 19 18 31 56 101 135 165 170 180 187
190 196 207 209 213 216 217 219 223 220 223 222 221 222 223 226 229
229 231 233 239 246 243 244 249 250 222 188 116 83 79 97 135 168 197
210 212 209 207 197 164 125 59 38 30 31 36 43 49 41 42 38 37 36 31 32
31 30 31 28 28 27 26 26 21 24 22 20 22 20 19 20 18 16 18 21 25 21 19
17 17 34 67 113 144 164 173 182 186 192 199 204 208 213 215 220 220
220 219 225 225 224 224 225 227 231 230 233 233 235 242 240 238 226
165 78 51 78 152 212 238 243 224 211 186 169 158 150 131 128 107 81
74 50 43 39 38 43 41 41 40 38 34 33 35 28 30 29 26 28 28 28 25 26 21
19 22 21 18 17 18 13 15 17 19 19 22 21 21 19 38 77 117 146 157 170
177 185 191 201 209 210 215 216 221 222 220 220 222 221 224 224 226
230 230 231 230 231 235 238 241 205 114 71 72 137 189 210 209 203 174
127 88 88 66 63 56 56 101 112 94 58 38 49 41 42 35 39 42 37 43 36 30
32 28 28 27 26 27 26 22 24 28 21 18 19 18 16 17 15 14 16 16 18 17 20
19 20 15 33 84 122 140 150 166 173 187 194 204 208 210 214 217 221
223 224 223 225 224 229 228 228 230 230 229 232 231 225 190 126 70 77
154 192 194 194 162 118 89 62 114 154 69 44 58 82 52 52 159 202 145
80 65 62 52 37 34 36 35 36 34 34 33 31 30 29 29 26 26 27 26 24 25 24
20 20 18 16 14 21 22 12 17 18 18 17 21 20 20 59 116 129 146 161 174
187 202 204 205 209 216 217 220 221 224 226 225 229 237 231 228 230
230 227 234 231 185 128 92 111 159 179 185 181 158 123 90 95 158 221
235 123 31 25 25 36 82 159 185 159 132 106 90 82 54 36 27 33 34 32 33
29 31 30 29 29 27 26 24 21 22 24 26 23 22 21 18 14 19 16 12 17 16 16
16 15 14 11 21 70 118 143 160 175 192 206 207 210 215 217 219 222 222
222 220 221 224 228 226 229 229 229 230 224 198 142 139 164 182 178
169 173 156 135 120 122 169 238 235 253 255 225 190 159 156 180 163
169 169 174 195 180 149 116 88 43 33 31 32 29 31 28 28 26 27 24 23 22
18 21 22 20 21 25 27 22 18 16 11 13 12 13 16 15 14 14 21 16 23 106
145 161 182 196 209 210 213 218 218 217 220 224 222 222 229 222 223
227 227 226 227 226 219 186 175 184 190 186 164 162 164 152 140 137
157 178 176 188 196 196 182 164 146 143 144 148 173 185 198 205 206
191 161 120 77 44 23 26 34 32 26 31 26 25 21 22 24 23 25 20 22 19 21
21 17 17 13 12 16 15 21 17 13 16 14 19 13 4 54 113 142 170 179 195
201 207 211 216 217 221 223 223 225 227 216 214 218 221 218 221 226
228 228 224 226 224 215 198 192 195 204 188 175 158 154 152 142 139
137 133 142 149 165 178 194 208 213 220 217 219 225 225 215 169 120
62 42 36 39 29 29 29 27 25 25 23 20 19 17 19 18 20 20 17 17 16 17 17
15 21 16 13 13 14 19 13 1 25 72 105 114 123 128 141 148 155 166 177
183 192 199 210 208 213 212 216 218 220 227 229 237 237 234 235 229
223 219 198 192 198 195 186 182 165 156 153 156 158 161 170 178 179
187 193 206 212 217 221 221 227 232 235 220 183 94 54 27 34 34 32 27
25 29 23 22 22 20 16 17 17 24 22 18 15 16 18 17 15 10 12 16 12 12 22
15 14 69 60 34 29 38 42 41 52 60 71 74 81 77 70 74 80 82 101 123 170
194 217 225 236 236 231 225 220 227 224 220 206 199 196 198 206 209
194 194 195 197 196 203 211 212 211 215 215 223 227 230 231 233 238
236 236 238 178 124 50 37 35 29 33 27 25 24 24 21 23 23 17 19 23 25
23 18 15 15 12 16 18 16 13 14 12 21 15 10 18 25 50 113 144 167 172
168 145 120 80 58 56 63 63 42 55 83 81 107 153 201 220 241 232 229
216 214 223 224 225 223 219 211 209 209 218 222 224 226 222 222 225
223 222 222 223 225 222 227 229 232 234 241 242 232 234 222 177 84 37
26 31 30 29 29 24 23 21 24 25 20 20 19 26 23 16 13 13 13 14 16 13 11
15 17 27 20 16 16 10 71 146 135 133 98 65 77 143 165 70 33 47 43 36
89 122 103 91 94 124 172 232 245 242 231 210 212 214 213 222 225 226
232 227 231 232 232 231 228 226 229 226 226 221 223 228 228 231 230
234 236 238 236 233 231 229 228 168 92 40 36 34 29 27 25 22 21 22 25
20 20 16 17 18 20 14 14 15 14 10 12 14 10 15 29 23 17 17 7 54 93 79
82 60 57 116 198 215 202 117 78 77 105 132 135 118 109 108 113 142
184 241 248 244 219 214 210 211 217 222 225 224 228 228 227 232 230
220 217 222 221 221 228 224 226 228 231 231 234 235 238 237 234 230
228 225 203 142 46 36 33 28 30 27 23 21 19 22 23 23 19 19 18 19 14 14
16 15 9 9 10 9 15 30 24 22 19 11 10 13 20 27 30 33 78 131 145 165 174
162 158 147 143 141 139 147 145 131 134 135 172 238 242 236 223 213
214 210 203 201 201 210 213 213 213 213 213 213 210 217 219 223 224
225 228 229 230 234 235 234 234 236 230 230 224 223 208 100 50 38 33
25 22 25 24 19 23 19 20 15 17 19 18 15 12 12 15 15 10 11 12 15 31 25
24 21 15 11 17 19 18 19 15 38 92 102 124 132 138 140 144 148 147 145
154 155 145 147 141 146 194 233 240 236 223 217 208 200 198 195 196
199 196 199 199 206 205 207 203 209 211 217 224 229 230 231 234 234
237 234 232 228 227 225 220 210 148 71 25 37 27 25 22 22 18 19 21 20
16 19 17 20 14 14 15 13 16 14 15 11 14 32 25 21 18 13 11 16 19 18 16
7 14 44 105 146 156 163 165 164 162 161 174 184 184 174 164 149 141
164 199 234 237 233 227 224 220 208 204 197 188 188 181 188 184 187
190 193 193 214 217 222 228 227 229 230 230 235 234 230 227 225 219
212 214 184 120 34 37 35 34 23 25 22 22 20 26 17 11 16 14 15 14 10 13
13 14 13 14 15 32 27 18 21 14 9 11 16 18 16 14 17 17 89 156 167 173
175 176 176 178 192 194 191 187 174 157 145 143 173 226 234 236 236
238 233 225 216 210 203 202 217 216 209 204 191 176 184 211 217 226
223 223 230 231 231 232 232 232 229 226 217 205 207 193 136 42 32 34
33 25 24 29 24 16 29 16 12 18 12 17 15 11 13 18 16 15 16 14 34 29 21
23 18 12 8 14 19 17 15 16 9 37 108 157 168 177 187 193 197 203 207
205 203 199 182 161 150 178 216 221 237 241 250 247 248 242 229 222
209 177 168 191 205 183 160 192 227 230 226 222 223 226 229 227 226
223 223 218 210 211 206 206 208 168 86 46 37 34 26 21 26 20 15 30 18
13 13 14 13 14 14 10 16 19 19 15 11 33 28 27 23 19 13 10 14 16 18 14
18 19 11 42 137 178 184 196 198 203 210 202 201 206 204 191 168 159
185 202 219 235 238 250 252 251 246 232 210 141 81 104 148 159 159
177 213 229 229 225 220 219 215 218 225 219 222 216 209 200 206 207
207 202 179 107 59 34 32 25 24 23 18 17 23 26 12 12 14 14 14 10 9 15
18 18 15 15 33 28 26 26 23 19 16 16 14 16 17 21 16 16 5 24 88 143 182
183 195 195 204 204 209 206 189 167 164 175 183 203 225 230 237 239
236 219 197 165 144 182 199 187 184 198 224 223 225 222 212 212 220
227 229 227 218 213 204 201 197 195 202 203 202 192 133 86 37 34 30
26 23 20 16 14 21 14 15 14 18 14 11 14 19 16 17 17 32 32 30 29 28 26
23 21 16 14 16 17 19 21 16 11 5 7 56 134 185 199 201 208 204 207 209
193 163 148 159 171 197 228 228 229 228 226 208 195 177 188 210 211
210 209 214 222 219 218 205 211 216 224 224 230 229 215 206 203 201
205 201 205 205 201 194 144 100 38 30 34 27 24 20 15 17 16 19 14 17
15 14 12 14 18 16 17 23 47 33 34 33 31 29 25 22 19 12 14 18 16 20 18
12 12 9 4 8 27 115 163 188 188 194 195 202 184 172 150 138 136 149
163 168 158 157 163 164 186 207 211 214 212 214 212 210 207 211 211
216 216 217 215 222 204 174 190 207 202 197 199 200 202 193 192 163
125 48 31 34 24 26 21 21 23 16 18 14 17 20 18 15 14 21 21 23 23 66 32
33 31 32 32 25 23 21 14 12 14 18 16 14 15 14 10 9 11 4 3 40 122 167
204 210 218 205 198 171 147 149 137 140 148 155 168 183 191 202 216
214 213 211 214 210 209 206 208 211 212 215 218 218 190 133 146 191
205 201 194 199 202 201 187 187 167 129 56 36 29 24 19 20 19 18 17 20
17 16 17 15 15 8 26 17 24 31 64 32 32 31 30 33 28 26 26 15 15 16 15
14 13 15 13 12 12 15 13 5 0 1 7 29 57 107 140 164 173 164 163 169 173
173 175 175 184 199 200 198 190 197 200 193 194 192 194 193 188 173
148 134 125 117 148 193 204 198 193 193 197 196 196 186 179 165 137
69 47 34 35 18 19 16 16 16 20 16 12 15 16 20 33 67 51 62 74 82 30 31
32 31 33 27 26 26 23 19 14 14 13 12 12 12 12 11 10 7 5 9 6 5 2 1 0 12
41 108 160 192 195 169 170 175 177 179 197 204 209 202 196 185 171
170 149 151 137 118 103 100 133 150 154 161 187 197 195 184 192 194
195 193 186 180 166 141 80 54 34 32 22 21 21 19 20 17 17 17 15 7 23
52 88 73 83 112 129 30 32 33 30 32 31 28 27 27 23 20 20 16 16 20 23
21 16 15 13 9 13 6 7 7 10 10 2 0 0 17 91 177 183 167 160 159 155 141
137 143 146 148 143 122 114 98 96 97 103 128 163 181 151 153 187 195
196 193 193 196 193 193 191 188 187 173 160 99 62 31 31 20 19 19 19
20 21 22 17 20 19 56 136 146 134 135 154 160 28 30 31 28 28 32 31 30
29 27 21 18 16 19 21 26 30 28 19 15 11 7 5 4 5 8 8 8 6 6 2 1 54 137
161 151 139 128 130 122 118 106 101 93 87 112 128 129 131 145 169 169
140 152 185 202 199 193 198 199 191 190 197 196 198 197 181 169 106
58 28 27 22 22 18 15 16 16 20 16 20 19 100 167 170 163 157 160 164 22
30 32 28 30 29 31 31 31 28 22 19 16 20 25 28 34 40 41 37 32 19 20 15
10 11 9 8 2 5 3 6 0 5 33 59 105 111 115 123 136 145 137 125 127 124
136 139 143 137 133 139 158 185 189 192 197 197 205 201 198 195 198
207 202 194 184 170 98 48 30 31 28 25 23 20 20 22 33 30 33 49 158 180
174 173 169 165 162 15 29 31 28 28 27 28 32 31 28 25 22 21 18 23 28
32 36 41 43 25 26 41 39 25 9 5 10 9 10 5 7 5 3 2 6 41 83 107 122 133
133 133 113 136 121 121 125 130 132 148 155 167 176 179 192 203 203
210 209 211 211 207 208 201 198 183 146 78 56 33 35 31 25 22 18 18 14
37 43 39 73 163 166 170 170 169 172 164 19 26 31 30 29 30 33 31 33 34
29 24 21 23 24 30 32 37 44 44 23 42 66 63 53 32 11 12 8 9 8 7 9 10 7
8 3 18 45 76 97 120 136 144 145 150 149 167 180 182 193 190 195 197
201 208 215 217 219 219 213 209 199 192 198 181 134 99 73 62 32 40 26
25 32 26 29 39 85 85 72 116 172 164 172 174 170 173 161 23 24 30 31
35 33 27 31 34 32 27 25 20 24 26 32 31 41 51 36 40 52 68 64 68 43 27
19 8 9 9 7 14 9 10 7 14 22 47 78 82 92 117 142 160 174 195 197 202
204 202 203 205 206 209 214 218 221 223 218 206 202 192 192 156 134
113 105 95 71 41 47 27 28 31 27 32 73 140 135 122 153 177 175 179 184
175 157 150 19 18 20 28 30 29 27 29 31 31 28 26 22 24 25 30 38 67 59
56 60 68 80 74 68 46 55 58 26 18 16 13 14 9 8 13 17 42 68 78 97 102
100 99 122 133 172 188 201 199 196 201 207 203 206 206 205 204 201
190 178 171 157 148 133 134 135 128 114 73 53 51 37 29 38 60 86 148
198 194 192 185 187 186 189 176 161 171 183 21 17 16 26 32 25 26 30
33 33 32 28 24 25 20 31 63 72 68 67 64 79 85 79 69 46 66 67 27 26 29
25 17 17 10 16 24 43 76 79 88 103 112 117 118 120 138 146 173 185 191
193 198 192 182 182 180 175 167 167 166 166 153 145 143 144 138 131
99 83 78 57 30 34 75 101 142 190 202 197 193 192 193 181 187 170 171
189 192 23 21 17 19 23 26 26 27 28 30 33 32 28 24 20 49 74 65 71 69
75 92 85 73 60 52 61 55 41 49 63 65 52 51 41 44 59 83 102 103 100 90
107 114 131 131 132 130 132 132 145 151 156 165 168 177 180 181 180
180 175 169 161 160 159 156 151 144 135 140 113 93 66 96 146 154 191
196 200 201 202 199 174 172 191 195 195 194 190 23 21 19 21 22 25 26
27 28 30 30 29 29 27 27 60 68 53 72 72 68 77 83 71 53 75 50 45 64 62
85 74 68 62 48 48 67 113 138 125 112 105 96 99 115 133 132 134 134
133 140 163 177 195 200 197 198 196 191 188 182 177 174 174 167 165
162 157 154 144 127 103 125 156 175 183 200 201 201 187 184 190 182
195 204 207 196 197 202 24 21 21 20 18 21 23 32 29 29 30 29 35 32 35
52 54 51 58 69 70 77 77 61 53 72 47 71 76 79 98 79 60 57 51 64 67 107
157 158 161 164 163 146 135 145 166 180 199 194 183 175 195 199 206
213 217 210 201 201 195 195 185 176 171 174 173 178 180 178 174 175
187 187 186 187 192 196 196 198 209 206 207 211 208 210 207 207 207
22 19 21 20 17 21 22 28 27 30 34 31 34 33 40 42 45 44 53 56 69 75 69
55 49 63 63 79 75 76 90 79 64 61 54 65 74 115 162 163 170 171 170 178
166 166 159 165 183 190 196 190 195 200 208 216 219 215 212 207 203
203 198 189 181 183 179 184 189 196 203 210 202 195 196 191 200 211
209 206 214 205 209 209 209 213 210 212 209 24 22 21 19 18 15 20 25
27 31 31 30 30 34 36 34 35 32 45 46 67 66 58 44 42 49 65 63 83 76 80
67 58 58 59 57 72 133 161 176 191 186 184 190 191 196 193 192 192 189
188 191 192 197 209 217 225 219 222 220 222 221 220 215 207 204 196
190 186 196 212 202 186 201 197 210 214 213 215 218 218 218 214 213
217 216 217 213 216 25 26 24 21 21 16 19 18 24 27 28 27 32 36 31 34
35 32 38 51 65 58 47 45 40 40 67 66 73 77 77 65 64 61 55 55 81 136
168 190 200 196 191 196 200 197 201 200 204 204 204 209 200 198 193
197 202 205 214 215 225 226 220 202 200 197 188 180 175 194 205 195
190 204 206 211 210 209 210 218 220 217 216 218 216 217 217 210 205
24 23 26 26 27 24 25 20 20 28 31 33 30 31 29 30 31 34 40 53 54 52 44
38 35 44 50 55 53 58 53 52 53 59 58 66 94 139 182 179 200 204 206 201
208 203 203 205 209 213 215 218 220 218 215 214 221 218 214 208 190
184 196 203 200 204 195 196 207 223 218 210 211 211 217 221 222 221
220 217 221 221 220 221 213 213 203 199 205 30 20 26 27 27 25 26 26
24 31 31 31 29 28 31 29 28 31 43 55 52 46 39 30 33 40 49 50 55 54 48
46 54 57 60 72 110 137 175 166 186 195 203 205 209 207 210 209 210
213 216 218 217 223 224 227 233 234 234 214 204 223 221 224 228 222
212 206 214 217 216 215 215 214 215 219 222 222 221 222 222 221 221
222 220 220 215 217 223 33 25 26 28 28 26 25 27 33 33 24 24 30 26 28
32 31 35 52 52 43 40 38 29 38 42 53 54 49 43 44 46 56 58 62 76 134
155 177 179 188 189 192 193 198 198 204 205 208 211 217 216 220 225
233 229 228 231 228 224 224 234 221 225 225 223 216 213 218 218 222
222 224 218 216 217 218 219 221 221 224 225 225 226 225 222 226 223
223 30 28 27 29 31 27 26 30 29 30 27 33 37 38 28 27 31 35 44 42 37 40
34 29 41 41 48 51 47 38 37 42 51 53 65 76 137 160 181 190 196 193 196
197 195 194 197 196 199 198 205 217 227 228 238 235 236 230 232 230
221 224 220 227 228 230 216 219 221 228 223 221 224 217 214 216 220
222 229 229 227 225 227 226 223 222 224 218 219 34 34 28 32 32 28 29
34 30 31 26 35 45 43 38 36 40 41 44 35 35 37 33 38 39 43 43 39 41 50
48 57 52 60 83 108 156 169 178 187 197 197 198 202 207 204 199 195
198 195 197 211 226 227 231 231 233 233 235 233 221 229 229 233 230
229 226 220 219 222 221 220 226 225 228 226 230 227 222 224 219 219
218 216 214 216 218 213 214 32 31 28 35 36 28 28 26 24 25 26 37 49 34
35 39 45 45 41 33 32 32 36 40 40 39 34 31 34 48 55 60 51 58 93 132
167 174 182 187 201 201 200 201 203 202 206 200 202 200 203 212 220
222 225 228 228 228 232 233 226 230 230 233 231 230 228 228 220 220
223 220 223 224 222 224 225 221 223 221 216 214 216 212 213 212 214
213 213 31 28 20 25 25 26 24 19 20 27 33 34 36 24 25 37 45 36 34 35
29 29 35 37 42 40 36 44 50 75 78 72 57 64 115 150 174 185 203 198 210
210 206 205 203 207 208 206 210 207 207 211 215 217 220 221 224 228
231 231 226 231 228 229 228 229 229 232 216 212 215 217 217 214 218
218 214 213 220 215 213 214 215 213 214 209 209 210 212 43 28 21 21
20 22 22 24 27 31 38 32 23 22 25 31 32 30 25 29 28 28 36 38 41 36 44
61 73 108 111 95 65 62 128 168 190 199 201 205 211 213 213 214 213
213 209 208 213 208 207 207 212 214 216 222 225 227 223 227 227 227
225 229 225 228 228 226 221 220 214 215 214 218 216 214 213 216 214
214 215 214 212 215 216 213 209 212 213 68 51 44 39 31 29 25 28 35 43
38 27 23 24 29 27 23 27 28 29 24 31 38 37 36 54 94 113 131 138 142
121 81 81 125 165 202 217 211 206 213 217 217 221 219 218 215 212 215
212 212 212 214 215 214 218 223 221 219 216 221 223 224 224 221 223
225 226 229 227 219 215 217 220 219 218 214 215 210 213 216 215 215
216 219 218 214 215 214 79 74 66 56 49 35 29 34 44 52 43 24 24 23 21
25 24 25 26 27 26 35 34 33 37 83 124 146 171 166 147 131 93 110 147
168 197 212 223 214 216 216 220 220 220 223 222 220 221 218 221 220
220 218 216 216 214 213 216 216 218 225 221 217 217 218 219 218 224
220 219 218 218 220 215 216 213 213 212 215 213 213 213 218 223 222
219 219 218 75 71 72 67 58 42 36 42 54 69 38 24 24 26 23 24 28 25 25
26 27 37 31 35 89 133 165 168 180 176 172 153 98 154 205 185 205 207
224 225 222 223 223 226 224 224 225 225 225 223 226 226 223 221 219
219 218 221 222 228 221 221 219 223 221 224 225 220 222 214 219 218
222 219 219 217 216 210 215 217 219 216 220 223 220 222 218 221 217
73 70 69 66 56 52 48 46 43 36 34 27 22 21 24 25 23 24 25 29 36 31 32
65 127 164 184 181 189 188 188 151 118 176 220 214 217 214 225 231
232 228 229 224 230 228 225 229 228 226 232 229 224 225 224 226 226
225 224 225 225 221 223 224 223 224 223 225 224 224 224 218 221 215
211 218 217 212 214 217 221 220 219 219 222 220 225 217 212 74 73 70
67 59 57 55 50 40 36 35 30 20 28 33 29 22 23 25 29 29 40 51 98 163
177 193 193 199 200 191 147 139 191 230 225 232 228 235 236 232 230
229 230 233 232 233 231 229 228 232 230 229 229 226 230 232 230 230
229 228 227 228 228 229 228 228 226 226 227 228 221 222 221 219 216
222 220 217 212 219 220 221 224 223 222 218 219 217 76 74 71 68 63 66
54 42 45 43 35 23 36 55 53 25 14 18 19 22 23 48 98 131 175 193 201
201 209 211 190 144 171 212 231 230 233 228 232 231 228 232 229 234
231 229 230 231 228 225 225 229 232 231 227 224 226 227 231 229 228
228 229 228 227 229 230 226 224 224 227 225 228 227 224 221 225 224
227 220 217 221 223 221 224 219 215 221 224 73 72 71 71 66 64 63 60
57 52 68 121 134 106 63 39 23 23 31 38 59 117 152 158 180 192 205 205
214 221 199 174 199 221 232 232 235 235 238 237 234 234 234 234 233
229 228 229 234 233 235 231 230 230 230 230 229 227 231 232 230 229
227 228 227 226 227 228 227 227 226 226 229 226 221 221 222 219 224
225 222 223 221 219 223 223 223 220 222 76 73 72 74 72 66 65 63 64 61
73 143 155 118 107 80 40 37 51 70 108 155 170 178 177 180 201 217 231
231 214 204 213 222 234 233 237 237 238 238 238 236 236 237 235 232
230 232 235 236 233 231 234 234 231 231 230 228 229 230 233 226 227
229 227 226 228 228 227 224 226 223 226 222 222 221 221 216 221 223
224 225 220 218 226 224 225 222 222 77 74 73 71 75 68 61 65 62 65 55
101 161 157 151 133 119 117 122 145 173 180 177 181 187 187 188 206
231 232 237 236 235 235 239 238 243 241 239 236 241 239 240 238 237
236 233 235 234 233 234 234 236 232 234 232 232 228 231 230 232 226
230 230 228 223 223 222 223 221 222 221 226 225 229 226 226 224 225
223 227 223 221 220 224 222 224 223 225 81 72 74 72 73 70 66 66 60 61
61 103 163 156 161 165 154 156 173 178 188 186 184 181 183 188 188
192 200 225 238 242 239 237 240 241 244 247 245 238 240 239 242 241
239 239 236 235 235 236 234 234 235 229 228 232 233 230 234 230 233
232 233 228 226 226 223 221 224 226 226 224 226 224 227 225 225 225
225 227 226 224 224 225 222 219 219 228 228 79 73 73 74 70 69 68 65
64 65 70 98 161 154 160 167 163 173 179 181 184 189 192 186 182 183
190 197 194 198 211 224 238 238 240 238 239 243 243 241 240 245 241
242 242 240 240 239 237 235 233 231 233 233 233 234 234 230 235 230
232 231 234 231 230 231 227 227 227 229 228 228 233 227 225 227 230
225 226 228 231 229 226 222 226 227 224 212 185 79 74 75 72 68 69 67
62 64 74 74 93 161 156 166 170 173 182 182 186 189 188 190 191 193
191 192 194 197 198 197 198 207 217 228 234 242 244 246 247 248 246
243 242 241 238 238 240 239 239 236 235 234 234 232 231 231 231 234
229 231 228 233 230 229 230 230 229 228 226 227 228 231 230 235 229
230 230 231 230 233 233 232 233 228 211 192 179 184 79 75 73 74 71 66
66 66 67 80 76 100 163 161 164 167 174 177 181 187 190 190 195 195
198 198 193 194 198 197 200 201 202 198 197 204 210 217 230 232 237
239 240 242 240 237 237 234 237 235 235 234 231 229 230 230 230 229
229 230 233 226 227 229 228 227 224 226 229 225 226 228 230 231 232
227 228 230 231 227 227 225 218 204 188 180 189 198 198 76 77 72 74
70 66 66 67 75 85 78 102 162 162 166 170 175 179 181 187 189 189 192
193 197 198 197 199 200 198 197 200 199 198 198 192 194 195 195 200
206 215 221 225 231 236 235 240 238 238 235 233 234 234 235 234 234
232 231 232 232 229 228 227 227 226 228 230 232 230 228 230 230 232
230 232 234 231 224 216 203 181 183 186 190 194 196 193 190 74 74 72
71 71 71 68 76 83 89 83 94 159 160 170 170 174 179 182 185 187 189
193 195 196 200 198 202 204 207 205 203 205 200 206 201 200 200 202
200 196 195 191 193 197 198 200 202 200 200 206 210 212 212 213 212
209 212 214 212 213 213 213 211 210 209 209 207 210 214 216 215 214
217 206 197 191 189 181 185 187 192 198 198 200 194 193 189 190 74 75
72 72 72 74 67 80 90 91 90 96 146 173 172 172 174 179 180 184 184 187
192 192 198 198 201 200 203 202 208 208 208 205 205 203 201 202 203
201 197 200 198 198 195 194 193 191 191 182 181 182 184 182 180 178
177 174 172 169 170 167 167 165 162 164 162 165 168 169 170 168 172
174 181 180 187 189 192 194 197 200 193 193 194 194 195 194 190 79 77
76 77 76 75 79 93 97 98 94 90 117 159 171 172 174 178 182 186 187 189
191 192 200 198 200 199 201 202 207 205 205 204 201 203 206 202 203
201 202 204 202 201 202 201 198 198 201 201 200 201 196 197 200 198
198 197 200 199 190 189 190 193 193 191 190 191 192 196 198 199 201
199 200 197 197 196 193 193 192 190 193 197 196 195 196 197 197 78 76
78 80 73 74 79 97 101 100 98 95 93 142 176 169 175 172 182 185 184
192 197 193 196 195 201 197 203 203 206 203 203 204 208 205 205 204
205 204 203 205 207 203 205 203 199 201 201 198 201 200 196 200 200
201 202 201 201 199 200 201 203 201 198 201 200 198 201 202 203 199
198 195 199 198 195 197 195 195 196 194 197 196 200 198 195 192 195
82 81 78 77 77 85 95 103 107 101 101 98 89 107 155 172 172 176 178
183 183 186 190 189 194 196 203 197 204 204 206 202 204 204 204 205
204 204 207 205 204 206 208 205 205 202 204 204 204 205 201 199 198
201 200 201 201 200 200 198 199 200 198 196 196 198 197 201 199 197
195 195 199 195 198 199 195 201 199 200 200 198 198 195 197 197 199
197 194 83 84 80 78 78 90 99 106 106 107 106 105 99 93 115 166 171
178 178 180 184 185 187 189 196 196 199 198 200 201 204 204 205 204
204 206 206 204 205 207 206 204 202 201 203 204 205 204 204 204 201
202 202 201 201 201 201 200 201 203 200 198 198 198 198 197 202 202
203 201 201 198 199 199 201 200 199 198 198 197 197 197 198 200 196
197 200 200 196 87 85 82 84 87 108 105 107 105 110 110 108 107 98 87
126 166 171 176 177 182 184 189 190 191 193 194 195 195 196 196 200
200 202 204 203 206 202 205 205 203 203 205 205 204 205 203 202 203
204 202 202 203 201 200 201 203 201 202 206 204 199 200 198 199 197
200 199 200 199 198 198 199 201 199 199 198 198 199 198 199 199 199
197 198 197 199 200 196 88 86 84 89 98 109 105 102 107 107 106 107
110 100 90 92 143 177 185 185 182 184 188 186 188 189 190 191 194 196
196 198 199 198 201 198 201 203 205 202 201 205 207 206 205 205 204
202 205 204 202 200 200 201 201 202 204 202 203 201 203 202 202 201
201 199 200 202 202 198 197 198 200 203 200 198 200 199 196 198 199
199 202 201 199 202 202 199 198
