P2
89 89
255
255 255 255 255 255 255 255 255 255 255 255 255 255 255 255 255 255
255 255 255 255 255 255 255 255 255 255 255 255 255 255 255 255 255
255 254 255 255 255 255 255 255 254 255 255 255 255 255 255 255 255
255 255 255 255 255 255 255 255 255 255 255 255 255 255 254 255 255
255 255 255 255 255 255 255 255 255 255 255 255 255 255 255 255 255
255 255 255 255 255 255 255 255 255 255 255 255 255 255 255 255 255
255 255 255 255 255 255 255 255 255 255 255 255 255 255 255 255 255
255 255 255 255 254 254 255 255 254 255 255 255 255 255 255 255 255
255 255 255 255 255 255 255 254 255 255 255 255 254 255 255 255 255
255 255 255 255 254 255 255 255 255 255 255 255 255 255 255 255 255
255 255 255 255 255 255 255 255 255 255 255 255 255 255 255 255 255
255 255 255 255 255 255 255 255 255 255 255 255 255 255 255 255 255
255 255 255 255 255 255 255 254 255 255 254 255 255 255 255 255 255
255 255 255 255 255 255 255 255 255 255 255 255 255 255 255 255 255
255 255 255 254 255 254 255 255 255 255 255 255 255 255 255 255 255
255 255 255 255 255 255 255 255 255 255 255 255 255 255 255 255 255
255 255 255 255 255 255 255 255 255 255 255 255 255 255 255 255 255
255 255 255 255 255 255 255 255 255 255 255 254 255 255 255 255 255
255 255 255 255 255 255 255 255 255 255 255 255 255 255 255 255 255
255 254 255 254 255 255 254 253 255 251 255 255 255 255 255 255 255
255 255 255 255 255 255 255 255 255 255 255 255 255 255 255 255 255
255 255 255 255 255 255 255 255 255 255 255 255 255 255 255 255 255
255 255 255 255 255 255 255 255 255 255 255 255 255 255 255 255 255
255 255 251 254 255 255 254 255 255 252 255 255 255 255 254 254 255
255 254 255 254 254 255 255 255 254 255 255 233 111 255 254 255 255
255 254 254 255 255 255 255 255 255 255 255 255 255 255 255 255 255
255 255 255 255 255 255 255 255 255 255 255 255 255 255 255 255 255
255 255 255 255 255 255 255 255 255 255 255 255 255 255 255 255 255
255 255 255 255 254 255 255 198 187 153 249 85 146 254 255 255 254
255 255 254 193 193 255 255 255 255 255 255 255 255 255 255 212 65
215 255 255 255 255 255 255 255 255 255 255 255 255 255 255 255 255
255 255 255 255 255 255 255 255 255 255 255 255 255 255 255 255 255
255 255 255 255 255 255 255 255 255 255 255 255 255 255 255 255 255
255 255 255 255 255 255 255 255 254 255 255 85 66 95 255 223 88 86
202 227 255 255 255 255 242 255 250 255 255 254 255 255 255 255 255
254 144 60 173 255 255 255 255 255 254 255 255 255 255 255 255 255
255 255 255 255 255 255 255 255 255 255 255 255 255 255 255 255 255
255 255 255 255 255 255 255 255 255 255 255 255 255 255 255 255 255
255 255 255 255 255 255 255 255 255 255 253 255 255 253 254 254 215
234 188 91 61 62 63 83 130 138 157 103 230 255 254 255 255 255 255
255 255 255 239 63 64 69 255 253 254 255 255 255 255 255 255 255 255
255 255 255 255 255 255 255 255 255 255 255 255 255 255 255 255 255
255 255 255 255 255 255 255 255 255 255 255 255 255 255 255 255 255
255 255 255 255 255 255 255 255 255 255 255 254 253 255 254 252 250
77 61 63 61 62 62 61 62 62 62 62 62 64 150 255 255 255 255 255 255
255 255 255 226 62 62 62 195 255 255 255 255 255 255 255 255 255 255
255 255 255 255 255 255 255 255 255 255 255 255 255 255 255 255 255
255 255 255 255 255 255 255 255 255 255 255 255 255 255 255 255 255
255 255 255 255 255 255 255 255 255 254 252 250 254 254 254 255 97 61
62 62 62 62 62 62 62 62 62 64 61 76 255 253 255 255 255 255 255 255
255 255 199 62 62 62 102 255 255 255 255 255 255 255 255 255 255 255
255 255 255 255 255 255 255 255 254 255 253 255 255 255 255 255 255
255 255 255 255 255 255 255 255 255 255 255 255 255 255 255 255 255
255 255 255 255 255 251 255 254 255 255 254 255 254 254 225 68 61 62
61 62 62 62 62 62 62 62 62 152 255 244 252 255 254 255 255 255 255
255 253 148 62 62 62 78 255 255 255 255 255 255 255 255 255 255 255
255 255 255 255 255 255 255 255 255 254 255 255 255 255 255 255 255
255 255 255 255 255 255 255 255 255 255 255 255 255 255 255 255 255
255 255 255 253 255 255 212 221 72 207 254 255 253 253 78 62 62 62 62
62 62 62 62 62 62 62 61 116 149 110 255 255 255 255 255 255 255 255
255 119 61 62 62 68 252 244 255 253 255 255 255 255 255 255 255 255
255 255 255 255 255 255 255 251 254 255 255 255 255 255 255 255 255
255 255 255 255 255 255 255 255 255 255 255 255 255 255 255 255 255
255 255 255 225 118 78 70 87 59 204 254 255 216 62 62 62 62 62 62 62
62 62 62 62 62 68 246 241 217 255 255 255 254 255 255 255 255 255 150
63 62 61 61 137 64 217 255 253 255 255 255 255 255 255 255 255 255
255 255 255 255 254 249 251 254 255 255 255 255 255 255 255 255 255
255 255 255 255 255 255 255 255 255 255 255 255 255 255 255 255 252
255 126 63 95 63 73 85 66 159 128 154 64 62 61 62 62 62 62 62 62 62
62 62 127 255 255 255 254 255 254 255 255 255 255 255 255 159 62 61
62 64 62 61 63 212 255 255 255 255 255 255 255 255 255 255 255 255
255 254 255 255 255 254 255 255 255 255 255 255 255 255 255 255 255
255 255 255 255 255 255 255 255 255 255 255 255 255 255 255 116 66 96
61 90 64 64 62 62 62 62 63 61 62 62 62 62 62 62 62 62 62 64 61 90 244
249 255 254 255 255 255 255 255 255 255 142 62 62 62 62 62 62 61 132
255 255 255 255 255 255 255 255 255 255 255 255 251 255 254 255 255
253 255 255 255 255 255 255 255 255 255 255 255 255 255 255 255 255
255 255 255 255 255 255 255 255 255 250 64 87 62 86 62 67 62 62 62 62
61 62 62 62 62 62 62 62 62 62 62 62 62 62 61 64 65 246 255 252 255
255 255 255 254 255 89 61 61 62 62 62 62 62 116 255 255 255 255 255
255 255 255 255 255 255 254 252 253 253 252 252 255 255 255 255 255
255 255 255 255 255 255 255 255 255 255 255 255 255 255 255 254 255
252 252 236 82 179 73 81 64 85 74 61 62 62 62 62 62 62 62 62 62 62 62
62 62 62 62 62 62 62 63 62 60 69 215 255 253 244 232 255 254 255 66
62 62 62 62 62 62 62 81 255 253 255 255 255 255 254 255 255 255 253
253 251 253 255 253 255 255 255 255 255 255 255 255 255 255 255 255
255 255 255 255 255 255 255 255 255 255 252 255 72 233 108 86 82 80
79 73 65 62 62 62 62 62 62 62 62 62 62 62 62 62 62 62 62 62 61 62 62
62 62 62 63 142 230 177 205 254 255 199 70 63 62 62 62 62 62 62 62
194 255 255 255 255 255 255 254 255 253 255 255 255 255 255 254 255
255 255 255 255 255 255 255 255 255 255 255 255 255 255 255 255 255
255 255 255 255 255 130 60 107 154 70 61 77 62 61 61 62 62 62 62 62
62 62 62 62 62 62 62 62 62 62 62 62 62 62 62 62 62 62 64 62 64 180
255 252 255 80 63 68 61 62 62 62 62 62 62 67 254 254 255 255 255 255
255 254 254 254 254 254 255 255 255 255 255 255 255 255 255 255 255
255 255 255 255 255 255 255 255 255 255 255 255 255 255 255 87 69 86
79 88 65 61 62 62 62 62 62 62 62 62 62 62 62 62 62 62 62 62 62 62 62
62 61 62 62 62 62 62 62 62 64 63 106 217 127 61 63 62 68 62 62 61 61
62 62 63 217 255 255 255 255 255 253 255 255 255 254 255 255 255 255
255 255 255 255 255 255 255 255 255 255 255 255 255 255 255 255 255
255 255 255 255 251 255 180 87 61 72 75 66 62 62 62 62 62 62 62 62 62
62 62 62 62 62 62 62 62 62 62 62 62 61 62 62 62 62 62 61 62 62 64 62
62 62 65 62 62 62 69 62 62 62 62 62 63 208 254 254 254 255 254 253
255 253 254 252 255 255 255 255 255 255 255 255 255 255 255 255 255
255 255 255 255 255 255 255 255 255 255 255 255 255 183 62 84 70 84
64 61 62 62 62 62 62 62 62 62 62 62 62 62 62 62 62 62 62 62 62 62 62
61 62 62 62 61 62 62 62 61 62 62 62 62 62 62 62 62 62 67 62 61 62 62
62 102 255 255 255 255 254 254 253 255 255 255 255 255 255 255 255
255 255 255 255 255 255 255 255 255 255 255 255 255 255 255 255 255
255 255 252 252 63 63 62 87 68 61 62 61 62 62 62 62 62 62 62 62 62 62
62 62 62 62 62 62 62 62 62 62 62 62 62 61 62 62 61 62 62 62 62 62 62
61 62 62 62 62 62 64 62 62 62 62 80 253 255 253 255 255 254 254 255
255 255 255 255 255 255 255 255 255 255 255 255 255 255 255 255 255
255 255 255 255 255 255 255 255 254 255 96 61 62 62 61 62 62 62 62 62
62 62 62 62 62 62 62 62 62 62 62 62 62 62 62 62 62 62 62 62 62 62 62
62 62 62 61 62 62 62 62 62 62 61 62 62 62 62 62 62 61 62 62 61 62 136
255 255 253 255 255 254 255 255 255 254 255 255 255 255 255 254 255
255 254 255 255 255 255 255 254 253 255 254 250 236 226 170 76 61 64
62 62 62 62 62 62 62 62 62 62 62 62 62 62 62 62 62 62 62 62 62 62 62
62 62 62 62 62 62 62 62 62 62 62 62 62 62 62 62 62 62 62 62 62 62 62
62 62 62 61 64 78 79 62 80 221 255 251 254 255 255 255 255 255 255
255 255 255 254 254 255 255 254 255 255 254 255 255 255 255 235 189
82 92 70 74 101 75 61 61 62 62 62 62 62 62 62 62 62 62 62 62 62 62 62
62 62 62 62 62 62 62 62 62 62 62 62 62 62 62 62 62 62 62 62 62 62 62
62 62 62 62 62 62 62 62 62 62 70 89 70 84 101 65 62 110 255 255 255
255 255 255 255 255 255 255 255 255 255 255 255 254 255 253 255 251
77 112 154 66 62 92 67 62 62 71 101 65 62 62 61 62 62 62 62 62 62 62
62 62 62 62 62 62 62 62 62 62 62 62 62 62 62 62 62 62 62 62 62 62 62
62 62 62 62 62 62 62 62 62 62 61 62 62 62 62 63 94 62 65 61 85 93 63
64 241 253 255 255 255 255 255 255 255 255 255 255 255 255 255 254
253 255 223 66 61 63 62 62 64 97 61 89 72 67 99 75 61 62 62 62 62 62
62 62 62 62 62 62 62 62 62 62 62 62 62 62 62 62 62 62 62 62 62 62 62
62 62 62 62 62 62 62 62 62 62 62 62 62 62 62 62 62 62 62 73 89 61 100
62 81 97 64 62 142 255 254 255 255 255 255 255 255 255 255 255 255
254 255 255 250 144 62 63 62 62 62 62 63 97 77 87 66 90 96 72 62 62
62 62 62 62 62 62 62 62 62 62 62 62 62 62 62 62 62 62 62 62 62 62 62
62 62 62 62 62 62 62 62 62 62 62 62 62 62 62 62 62 62 62 62 61 62 61
72 99 74 87 68 93 95 64 64 63 226 255 254 255 255 255 255 255 255 255
255 255 255 184 210 67 61 63 62 62 62 62 62 61 85 98 84 91 93 93 61
62 62 62 62 62 62 62 62 62 62 62 62 62 62 62 62 62 62 62 62 62 62 62
62 62 62 62 62 62 62 62 62 62 62 62 62 62 62 62 62 62 62 62 62 62 62
62 62 63 95 96 81 97 95 81 61 62 61 141 255 254 254 254 255 255 254
255 255 255 255 255 84 84 62 62 62 62 62 62 61 62 62 61 86 96 90 89
63 62 62 61 61 62 62 62 62 62 62 62 62 62 62 62 62 62 62 62 62 62 62
62 62 62 62 62 62 62 62 62 62 62 62 62 62 62 62 62 62 62 62 62 62 62
62 61 61 62 62 65 92 94 90 82 61 62 62 62 72 76 125 230 255 255 255
255 254 255 255 255 255 107 62 64 62 62 61 62 62 62 62 62 62 62 65 64
62 62 62 62 62 62 62 62 62 62 62 62 62 62 62 62 62 62 62 62 62 62 62
62 62 62 62 62 62 62 62 62 62 62 62 62 62 62 62 62 62 62 62 62 62 62
62 62 62 62 61 62 62 61 65 62 62 62 62 62 62 62 62 63 212 255 255 255
255 255 255 255 254 255 110 62 62 62 62 62 62 61 62 61 62 62 62 62 62
62 62 62 64 62 62 62 62 62 62 61 62 62 61 62 62 62 62 62 62 62 62 62
62 62 62 62 62 62 62 62 62 62 62 62 62 62 62 62 62 62 62 62 62 62 62
62 63 61 62 62 62 62 62 62 62 62 62 61 64 62 62 62 63 176 254 254 254
255 255 255 255 254 239 62 62 62 61 62 65 81 90 64 62 62 62 61 62 62
62 62 62 62 65 64 61 62 62 62 62 62 62 62 62 62 62 62 62 62 62 62 62
62 62 62 62 62 62 62 62 62 62 62 62 62 62 62 62 62 61 62 61 62 62 61
71 83 88 61 62 62 62 62 62 62 62 62 62 62 67 62 62 64 63 200 255 250
255 255 255 254 255 165 61 62 62 61 61 73 79 74 79 62 62 62 62 62 62
61 62 62 62 62 66 64 62 62 62 62 62 62 62 62 62 62 62 62 62 62 62 62
62 62 62 62 62 62 62 62 62 62 62 62 62 62 62 62 62 62 62 62 62 61 61
80 71 80 71 61 62 62 62 62 62 62 62 62 62 62 67 62 62 61 63 168 255
252 255 254 255 255 204 62 62 62 64 84 75 82 84 66 62 62 62 62 61 62
62 62 61 62 62 62 66 64 61 62 62 62 62 61 62 62 62 62 62 62 62 62 62
62 62 62 62 62 62 62 62 62 62 62 62 62 62 62 61 62 62 62 62 61 71 84
76 84 81 61 62 62 62 62 62 62 62 62 62 62 62 62 67 62 62 62 62 224
255 240 254 255 254 255 88 62 61 83 71 85 64 61 61 62 61 62 62 62 62
62 61 62 62 62 62 62 66 64 62 62 62 62 62 62 62 62 62 62 62 62 62 62
62 62 62 62 62 62 62 62 62 62 62 62 62 62 62 62 61 62 62 62 63 83 73
84 61 61 62 62 62 62 62 61 62 62 62 62 62 62 62 61 67 62 62 61 72 253
131 255 254 255 253 214 63 79 71 87 80 64 62 62 62 62 62 62 62 62 62
62 62 62 62 62 62 62 66 64 61 62 62 62 62 62 62 62 62 62 62 62 62 62
62 62 62 62 62 62 62 62 62 62 62 62 62 62 62 62 62 61 69 70 84 81 80
62 62 62 62 62 62 62 62 62 62 62 62 62 62 62 62 62 67 62 63 60 63 204
255 255 198 154 232 126 84 61 68 64 61 62 62 62 62 61 62 62 61 62 62
62 62 62 61 62 62 62 66 64 62 62 62 62 62 62 62 62 62 62 62 62 62 62
62 62 62 62 62 62 62 62 62 62 62 62 62 62 62 61 71 71 78 61 71 62 62
62 61 62 62 62 62 62 62 61 62 62 61 62 62 62 61 61 67 62 62 68 248
254 253 253 129 202 99 67 84 61 62 62 62 62 61 62 62 62 62 62 61 61
62 62 62 62 62 62 62 62 66 64 61 62 62 62 62 62 62 62 62 62 62 62 62
62 62 62 62 62 62 62 62 62 62 62 62 62 62 61 68 93 62 79 72 62 62 62
62 62 62 61 62 61 62 62 62 62 62 62 61 62 61 61 62 61 67 62 65 241
255 255 253 251 58 83 70 62 62 62 62 62 62 62 62 62 62 62 62 62 62 62
62 62 62 62 62 62 62 62 65 64 62 62 62 62 62 61 62 62 62 62 62 62 62
62 62 62 62 62 62 62 62 62 62 62 62 61 71 89 61 90 63 62 62 62 62 62
62 62 62 62 62 62 62 62 62 62 62 62 62 61 61 62 62 62 67 63 223 255
255 255 254 206 60 67 62 62 62 62 62 62 62 62 62 62 62 62 62 62 62 62
62 62 62 62 62 62 62 61 67 64 61 62 62 62 62 62 62 62 62 62 62 62 62
62 62 62 62 62 62 62 61 62 62 62 66 81 63 83 61 65 61 62 62 62 62 62
62 62 62 62 62 62 62 62 62 62 62 62 61 62 62 62 62 62 69 213 255 250
255 251 253 69 61 62 61 62 62 62 62 62 62 62 62 62 62 62 62 62 62 62
62 62 62 62 62 62 62 61 66 64 61 62 62 62 62 62 62 62 62 62 62 62 62
62 62 62 61 62 62 62 62 61 66 68 80 68 93 67 62 61 62 62 62 62 62 62
62 62 62 62 62 62 62 62 62 62 62 62 61 61 62 62 62 61 82 247 253 255
255 253 74 62 62 62 62 62 62 62 62 62 62 62 62 62 62 62 62 62 62 62
62 62 62 62 62 62 62 62 65 64 62 62 62 62 62 61 62 62 62 62 62 62 62
62 62 62 62 62 62 62 70 84 81 80 75 70 62 62 62 62 62 62 62 62 62 62
62 62 62 62 62 62 62 62 62 62 61 62 62 62 62 62 63 66 255 255 255 253
255 194 62 62 62 62 62 62 62 62 62 62 62 62 62 62 62 62 62 62 62 62
62 62 62 62 62 62 62 62 66 63 61 62 62 62 62 62 62 62 62 62 62 62 62
62 62 62 62 62 61 78 65 62 74 62 62 62 62 62 61 62 62 62 62 62 62 62
62 62 62 62 62 62 62 62 62 62 62 62 62 62 62 61 62 207 254 255 255
252 254 85 63 62 62 62 62 62 62 62 62 62 62 62 62 62 62 62 62 62 62
62 62 62 62 62 62 62 62 61 65 64 62 62 62 62 62 62 62 62 62 62 62 62
62 62 62 62 73 85 79 85 64 61 61 62 61 62 62 62 62 62 62 62 62 62 62
62 62 62 62 62 62 62 62 62 62 62 62 62 62 62 63 64 225 252 255 255
255 255 194 62 62 62 62 62 62 62 62 62 62 62 62 62 62 62 62 62 62 62
62 62 62 62 62 62 62 62 62 62 66 64 62 62 62 62 62 62 62 62 62 62 62
62 62 62 68 84 61 77 71 64 62 61 62 62 62 62 62 62 62 62 62 62 62 62
62 62 62 62 62 62 62 62 62 62 61 62 62 62 62 62 86 255 255 255 255
255 255 229 63 62 62 62 62 62 62 62 62 62 62 62 62 62 62 62 62 62 62
62 61 62 62 62 61 62 62 62 62 62 66 64 62 62 62 62 62 62 62 62 62 62
62 62 62 61 85 70 85 61 61 62 62 62 62 62 61 61 62 62 62 62 62 62 62
62 62 62 62 62 62 62 62 62 62 62 62 62 62 62 61 121 255 255 255 255
254 255 247 64 62 62 62 62 62 62 62 62 62 62 62 62 62 62 62 62 62 62
62 62 62 62 62 61 62 62 61 62 62 61 66 64 62 61 62 62 62 61 62 61 62
62 62 62 62 61 90 64 62 62 62 62 62 62 62 62 62 62 62 62 62 62 62 62
62 62 62 62 62 62 62 62 62 62 61 62 62 62 62 62 161 255 255 255 254
254 255 255 77 62 62 62 62 62 62 62 62 62 62 62 62 62 62 62 62 62 62
62 62 62 62 61 62 62 62 62 62 62 62 61 67 65 62 61 62 62 62 62 62 62
62 62 62 62 62 61 62 62 62 62 62 62 62 62 62 62 62 62 62 62 62 62 62
62 62 62 62 62 62 62 62 62 62 62 62 62 62 62 63 231 254 255 255 255
255 255 255 130 61 62 62 62 62 62 62 62 62 62 62 62 62 62 62 62 62 62
61 62 62 61 62 61 62 62 61 62 62 62 62 62 65 64 61 62 62 62 62 62 62
62 62 62 62 62 62 61 62 62 62 62 62 62 62 62 62 62 62 62 62 62 62 62
62 62 62 62 62 62 62 62 62 62 62 62 62 62 62 67 246 255 255 255 255
255 255 255 230 63 62 62 62 62 62 62 62 62 62 62 62 62 62 62 62 62 62
62 61 62 62 62 62 62 62 62 62 62 62 62 62 62 66 64 62 63 62 62 62 62
62 62 62 62 62 62 62 62 62 62 62 62 62 62 62 62 62 62 62 62 62 62 62
62 62 62 62 62 62 62 62 62 62 62 62 62 62 62 73 254 255 255 255 255
255 255 254 255 110 62 62 62 62 62 62 62 62 62 62 62 62 62 62 62 62
62 62 62 62 61 62 62 62 62 62 61 74 120 134 153 174 212 99 63 61 62
62 61 62 61 62 62 62 62 62 62 62 62 62 62 62 62 62 62 62 62 62 62 62
62 62 62 62 62 62 62 62 62 62 62 62 62 62 62 62 62 61 123 255 255 255
255 255 255 255 255 255 155 62 62 62 62 62 62 62 62 62 62 62 62 62 62
62 62 62 62 62 62 61 62 62 62 66 92 179 254 255 255 255 255 254 255
185 189 87 63 62 65 62 62 61 62 62 61 62 62 62 62 62 62 62 62 62 62
62 62 62 62 62 62 62 62 62 62 62 62 62 62 62 62 62 61 62 62 63 63 234
254 255 255 255 254 255 255 255 255 138 62 62 62 62 62 62 62 62 62 62
62 62 62 62 62 62 62 62 61 63 91 217 219 224 243 255 255 253 255 255
255 254 255 254 255 255 255 242 135 62 61 62 62 62 62 65 62 63 62 62
62 62 62 62 62 62 62 62 62 62 62 62 62 62 62 62 62 62 62 62 62 62 62
62 62 63 60 95 254 254 255 255 255 255 255 255 255 255 98 62 62 62 62
62 62 62 62 62 62 62 62 62 62 62 62 66 62 86 190 254 254 255 255 255
255 255 254 255 255 255 254 254 255 255 255 255 254 236 64 64 62 62
62 62 61 118 69 62 62 62 62 62 62 62 62 62 62 62 62 62 62 62 62 62 62
62 62 62 62 62 62 61 62 62 61 84 250 253 255 255 255 255 255 255 255
253 255 112 62 62 62 62 62 62 61 62 62 62 62 62 62 62 62 63 61 168
255 255 253 255 255 255 255 255 255 255 255 255 255 255 255 255 255
254 255 255 249 145 66 62 62 62 61 77 248 62 62 62 62 62 62 62 62 61
62 62 62 62 62 62 62 62 62 62 62 62 62 62 62 62 62 62 63 64 250 254
254 255 255 255 255 255 255 255 250 139 62 62 62 62 62 61 62 62 63 62
62 63 62 62 63 62 63 71 255 254 255 255 255 255 255 255 255 255 255
255 255 255 255 255 255 255 255 255 255 255 255 111 64 63 61 63 206
176 63 62 62 62 62 62 62 62 62 62 62 62 62 62 62 62 62 62 62 62 62 62
62 62 62 61 62 61 141 255 254 255 255 255 255 255 255 255 255 243 63
63 62 62 62 61 62 62 63 61 145 184 191 204 207 187 159 156 246 254
255 254 255 255 255 255 255 255 255 255 255 255 255 255 255 255 255
255 255 255 255 255 250 67 60 76 239 255 66 62 65 62 62 62 62 62 62
62 62 62 62 62 62 62 62 62 62 62 62 62 62 62 62 62 62 64 63 224 255
255 255 255 255 255 255 255 255 255 255 179 74 61 63 62 62 65 61 78
162 255 255 255 254 255 255 255 255 255 254 255 255 255 255 255 255
255 254 255 255 255 255 254 255 255 255 255 255 255 255 255 255 255
72 65 241 255 237 60 132 61 61 62 62 62 62 62 62 62 62 62 62 62 62 62
62 62 62 62 62 62 62 62 62 62 62 133 254 253 255 255 255 255 255 255
255 255 255 252 254 252 90 62 62 62 63 146 255 255 249 255 255 255
255 255 255 255 255 255 255 255 255 255 255 255 255 255 255 255 255
255 255 255 255 255 255 254 255 254 255 255 255 170 79 255 255 169 87
251 62 62 61 62 61 62 62 62 62 62 62 62 62 62 62 62 62 62 62 62 62 62
62 62 62 62 181 254 254 255 255 255 255 255 255 255 255 255 255 255
252 255 212 197 169 204 255 253 254 255 255 255 255 255 255 255 255
255 255 255 255 255 255 255 255 255 255 255 255 255 255 255 255 255
255 255 255 255 255 255 255 250 255 255 253 179 81 213 252 63 62 62
62 62 62 62 62 62 62 62 62 62 62 62 62 62 62 62 62 62 62 62 62 62 63
233 255 255 255 255 255 255 255 255 255 255 255 255 255 255 255 255
255 255 255 254 255 255 255 255 255 255 255 255 255 255 255 255 255
255 255 255 255 255 255 255 255 252 252 255 255 255 255 255 255 255
255 255 255 255 254 253 255 255 244 211 232 157 104 63 61 62 62 62 62
62 62 62 62 62 62 62 62 62 62 62 62 62 62 62 62 62 61 175 255 254 255
255 255 255 255 255 255 255 255 255 255 255 255 255 255 255 255 255
255 255 255 255 255 255 255 255 255 255 255 255 255 255 255 255 255
255 255 255 255 253 255 255 253 255 255 255 255 255 255 255 254 255
255 255 255 255 250 75 71 136 255 255 223 63 64 62 62 62 62 62 62 62
62 62 62 62 62 62 62 62 62 62 62 62 62 63 243 254 255 254 255 255 255
255 255 255 255 255 255 255 254 255 255 255 255 255 255 255 255 255
255 255 255 255 255 255 255 255 255 255 255 255 255 255 255 255 255
254 254 255 250 252 255 255 255 255 255 255 255 255 255 255 255 255
255 254 255 255 255 255 252 255 152 60 62 62 62 62 61 62 62 62 62 62
61 62 62 62 62 61 62 62 62 62 88 255 254 255 255 255 255 255 255 255
255 255 255 255 255 255 254 255 255 255 255 255 255 255 255 255 255
255 255 255 255 255 255 255 255 255 254 255 255 255 255 254 255 253
255 255 255 255 255 255 255 255 255 255 255 255 255 255 255 255 254
255 255 255 255 255 254 227 63 62 62 61 62 62 62 62 62 62 62 61 62 62
62 62 62 62 62 62 62 130 255 255 255 255 255 255 255 254 254 255 255
255 255 255 255 255 255 255 255 255 255 255 255 255 255 255 255 255
255 255 255 255 255 255 255 255 255 255 255 255 255 253 254 253 255
255 255 255 255 255 255 255 255 255 255 255 255 255 255 255 255 255
255 255 254 255 189 61 62 62 62 62 62 62 62 62 62 62 62 62 62 62 62
62 62 62 62 62 142 255 255 255 255 254 254 254 254 255 254 255 255
255 255 255 255 255 255 255 255 255 255 255 255 255 255 255 255 255
255 255 255 255 255 255 255 255 255 253 253 255 255 255 255 255 255
255 255 255 255 255 255 255 255 255 255 255 255 255 255 255 255 255
255 255 254 252 74 61 62 62 61 62 62 62 62 62 62 62 62 62 62 62 62 62
61 62 62 164 255 255 255 255 255 252 252 254 255 255 254 255 255 255
255 255 255 255 255 255 255 255 255 255 255 255 255 255 255 255 255
255 255 255 255 255 255 252 254 255 255 254 255 255 255 255 255 255
255 255 255 255 255 255 255 255 255 255 255 255 255 255 255 255 255
255 254 236 66 61 64 62 62 62 62 62 63 65 61 62 62 62 63 63 87 126
141 194 255 252 255 255 255 255 253 251 255 255 255 255 253 255 255
255 255 255 255 255 255 255 255 255 255 255 255 255 255 255 255 255
255 255 255 255 255 254 255 250 254 254 254 255 255 255 255 255 255
255 255 255 255 255 255 255 255 255 255 255 255 255 255 255 255 255
254 255 255 246 158 63 75 62 62 64 61 63 220 62 63 62 63 63 206 255
255 255 255 254 254 255 255 255 253 253 255 253 255 255 255 255 254
255 255 255 255 255 255 255 255 255 255 255 255 255 255 255 255 255
255 255 255 255 255 254 255 254 255 252 255 255 255 255 255 255 255
255 255 255 255 255 255 255 255 255 255 255 255 255 255 255 255 255
255 255 255 255 254 255 247 255 214 86 62 81 244 226 133 62 61 63 223
255 252 255 255 255 255 255 255 255 254 254 255 254 255 255 255 255
255 255 254 255 255 255 255 255 255 255 255 255 255 255 255 255 255
255 255 255 255 255 255 252 254 255 255 254 253 255 255 255 255 255
255 255 255 255 255 255 255 255 255 255 255 255 255 255 255 255 255
255 255 254 255 255 254 255 254 255 255 255 255 206 251 252 254 255
236 71 215 255 253 255 255 255 255 255 255 252 252 253 255 255 255
255 255 255 255 255 255 255 255 255 255 255 255 255 255 255 255 255
255 255 255 255 255 255 255 255 255 253 254 255 254 255 251 255 255
255 255 255 255 255 255 255 255 255 255 255 255 255 255 255 255 255
255 255 255 255 255 255 255 255 255 255 255 255 255 255 255 254 254
255 253 255 253 255 255 255 252 255 255 254 255 255 255 251 254 250
253 255 252 255 255 255 255 255 255 255 255 255 255 255 255 255 255
255 255 255 255 255 255 255 255 255 255 255 255 252 252 254 255 249
255 254 255 255 255 255 255 255 255 255 255 255 255 255 255 255 255
255 255 255 255 255 255 255 255 255 255 255 255 255 255 255 255 255
255 255 255 255 201 246 255 255 255 255 254 255 237 237 254 255 255
253 252 250 255 252 254 255 255 255 255 255 255 255 255 255 255 255
255 255 255 255 255 255 255 255 255 255 255 255 255 255 255 253 250
253 255 255 254 255 255 255 255 255 255 255 255 255 255 255 255 255
255 255 255 255 255 255 255 255 255 255 255 255 255 255 255 255 255
255 255 255 255 255 254 254 255 138 242 255 255 255 255 255 255 221
74 255 255 252 253 254 255 252 255 255 255 255 255 255 255 255 255
255 255 255 255 255 255 255 255 255 255 255 255 255 255 255 255 255
255 253 253 254 255 252 255 255 255 255 255 255 255 255 255 255 255
255 255 255 255 255 255 255 255 255 255 255 255 255 255 255 255 255
255 255 255 255 255 255 255 255 255 255 254 253 255 253 241 255 253
255 255 254 255 96 234 255 252 255 255 255 255 255 255 255 255 255
255 255 255 255 255 255 255 255 255 255 255 255 255 255 255 255 255
255 255 255 255 253 255 255 251 255 254 255 255 255 255 255 255 255
255 255 255 255 255 255 255 255 255 255 255 255 255 255 255 255 255
255 255 255 255 255 255 255 255 255 255 255 255 255 255 255 254 255
255 67 208 255 254 255 255 242 231 254 253 255 254 253 254 255 255
255 255 255 255 255 255 255 255 255 255 255 255 255 255 255 255 255
255 255 255 255 255 255 254 255 255 251 255 255 255 255 255 255 255
255 255 255 255 255 255 255 255 255 255 255 255 255 255 255 255 255
255 255 255 255 255 255 255 255 255 255 255 255 255 255 255 255 255
254 255 255 255 254 72 62 100 211 171 106 67 75 255 253 255 252 255
255 255 254 255 255 255 255 255 255 255 255 255 255 255 255 255 255
255 255 255 255 255 255 255 255 255 255 255 255 255 249 255 255 255
255 255 255 255 255 255 255 255 255 255 255 255 255 255 255 255 255
255 255 255 255 255 255 255 255 255 255 255 255 255 255 255 255 255
255 255 255 254 255 255 255 255 114 63 61 63 62 61 62 72 251 255 255
255 255 255 255 255 255 255 254 255 255 255 255 255 255 255 255 255
255 255 255 255 255 255 255 255 255 255 255 255 255 255 255 255 255
255 255 255 255 255 255 255 255 255 255 255 255 255 255 255 255 255
255 255 255 255 255 255 255 255 255 255 255 255 255 255 255 255 255
255 255 255 255 255 255 255 255 255 255 227 63 62 61 62 61 62 70 249
255 255 255 255 255 255 255 255 255 255 255 255 255 255 255 255 255
255 255 255 255 255 255 255 255 255 254 254 254 253 255 255 255 255
255 255 255 255 255 255 255 255 255 255 255 255 255 255 255 255 255
255 255 255 255 255 255 255 255 255 255 255 255 255 255 255 255 255
255 255 255 255 255 255 255 255 255 255 255 253 255 98 75 86 87 69 61
87 255 255 255 255 255 255 255 255 255 255 255 255 255 255 255 255
255 255 255 255 255 255 255 255 255 255 254 255 254 253 254 255 255
255 255 255 255 255 255 255 255 255 255 255 255 255 255 255 255 255
255 255 255 255 255 255 255 255 255 255 255 255 255 255 255 255 255
255 255 255 255 255 255 255 255 255 255 255 255 255 255 255 149 79 62
70 101 75 177 254 255 255 255 255 255 255 255 255 255 255 255 255 255
255 255 255 255 255 255 255 255 255 255 255 255 255 253 254 251 254
255 252 255 255 255 255 255 255 255 255 255 255 255 255 255 255 255
255 255 255 255 255 255 255 255 255 255 255 255 255 255 255 255 255
255 255 255 255 255 255 255 255 255 255 255 255 255 255 255 254 254
228 59 78 62 83 85 216 255 255 255 255 255 255 255 255 255 255 255
255 255 255 255 255 255 255 255 255 255 255 255 255 255 252 255 255
253 249 255 255 247 255 255 255 255 255 255 255 255 255 255 255 255
255 255 255 255 255 255 255 255 255 255 255 255 255 255 255 255 255
255 255 255 255 255 255 255 255 255 255 255 255 255 255 255 255 255
255 255 248 255 127 96 62 76 183 220 255 255 255 255 255 255 255 255
255 255 255 255 255 255 255 255 255 255 255 255 255 255 255 255 255
254 255 255 254 254 255 255 253 255 255 255 255 255 255 255 255 255
255 255 255 255 255 255 255 255 255 255 255 255 255 255 255 255 255
255 255 255 255 255 255 255 255 255 255 255 255 255 255 255 255 255
254 255 255 255 255 252 255 255 105 83 177 255 255 255 255 255 255
255 255 255 255 255 255 255 255 255 255 255 255 255 255 255 255 255
255 255 255 255 255 254 255 254 255 255 255 255 255 255 255 255 255
255 255 255 255 255 255 255 255 255 255 255 255 255 255 255 255 255
255 255 255 255 255 255 255 255 255 255 255 255 255 255 255 255 255
255 255 255 255 255 255 255 254 255 255 255 255 255 255 255 251 255
255 255 255 255 255 255 255 255 255 255 255 255 255 255 255 255 255
255 255 255 255 255 255 255 255 254 255 253 255 254 254 255 255 255
255 255 255 255 255 255 255 255 255 255 255 255 255 255 255 255 255
255 255 255 255 255 255 255 255 255 255 255 255 255 255 255 255 255
255 255 255 255 255 255 255 255 255 255 255 255 255 255 255 254 255
255 253 255 254 255 255 255 255 255 255 255 255 255 255 255 255 255
255 255 255 255 255 255 255 255 255 255 255 255 255 254 255 255 255
255 255 255 254 255 255 255 255 255 255 255 255 255 255 255 255 255
255 255 255 255 255 255 255 255 255 255 255 255 255 255 255 255 255
255 255 255 255 255 255 255 255 255 255 255 255 255 255 255 255 255
255 255 255 255 255 255 255 255 255 255 255 255 255 255 255 255 255
255 255 255 255 255 255 255 255 255 255 255 255 250 250 255 255 255
255 255 255 255 255 255 255 254 255 255 255 255 255 255 255 255 255
255 255 255 255 255 255 255 255 255 255 255 255 255 255 255 255 255
255 255 255 255 255 255 255 255 255 255 255 255 255 255 255 255 255
249 251 255 255 255 255 255 255 255 255 255 255 255 254 255 255 255
255 255 255 255 255 255 255
