P2
89 89
255
255 255 255 255 255 255 255 255 255 255 255 255 255 255 255 255 255
255 255 255 255 255 255 255 255 255 255 255 255 255 255 255 255 255
255 255 255 255 255 255 255 255 255 255 255 255 255 255 255 255 255
255 255 255 254 244 254 255 255 255 255 255 255 255 255 255 255 255
255 255 255 255 255 255 255 255 255 169 20 30 68 123 110 109 110 108
102 109 107 255 255 255 255 255 255 255 255 255 255 255 255 255 255
255 255 255 255 255 255 255 255 255 255 255 255 255 255 255 255 255
255 255 255 255 255 255 255 255 255 255 255 255 255 255 255 255 255
255 255 255 255 255 252 255 39 246 254 255 255 255 255 255 255 255
255 255 255 255 255 255 255 255 255 255 255 255 165 24 47 32 74 126
111 115 105 110 109 100 255 255 255 255 255 255 255 255 255 255 255
255 255 255 255 255 255 255 255 255 255 255 255 255 255 255 255 255
255 255 255 255 255 255 255 255 255 255 255 255 255 255 255 255 255
255 255 255 255 255 255 255 255 254 190 41 121 255 255 255 255 255
255 255 255 255 255 255 255 255 255 255 255 255 255 255 255 172 26 35
52 29 87 124 111 113 120 108 106 255 255 255 255 255 255 255 255 255
255 255 255 255 255 255 255 255 255 255 255 255 255 255 255 255 255
255 255 255 255 255 255 255 255 255 255 255 255 255 255 255 255 255
255 255 255 255 255 255 255 255 255 254 255 79 72 36 239 251 254 255
255 255 255 255 255 255 255 255 255 255 255 255 255 255 255 255 216
18 53 43 48 29 117 115 120 112 110 135 255 255 255 255 255 255 255
255 255 255 255 255 255 255 255 255 255 255 255 255 255 255 255 255
255 255 255 255 255 255 255 255 255 255 255 255 255 255 255 255 255
255 255 255 255 255 255 255 255 255 255 255 254 217 40 43 70 90 255
254 255 255 255 255 255 255 255 255 255 255 255 255 255 255 255 255
255 247 15 102 54 43 44 33 138 116 113 132 59 255 255 255 255 255 255
255 255 255 255 255 255 255 255 255 255 255 255 255 255 255 255 255
255 255 255 255 255 255 255 255 255 255 255 255 255 255 255 255 255
255 255 255 255 255 255 255 255 255 255 255 254 255 95 66 25 39 38
222 253 254 255 255 255 255 255 255 255 254 253 255 255 255 255 255
255 255 240 13 83 131 30 47 42 59 132 124 38 37 255 255 255 255 255
255 255 255 255 255 255 255 255 255 255 255 255 255 255 255 255 255
255 255 255 255 255 255 255 255 255 255 255 255 255 255 255 255 255
255 255 255 255 255 255 255 255 255 255 255 255 253 232 29 49 41 23
68 62 255 253 255 255 255 255 255 255 255 253 253 254 255 255 255 255
255 255 240 13 75 134 106 28 50 30 88 39 39 25 255 255 255 255 255
255 255 255 255 255 255 255 255 255 255 255 255 255 255 255 255 255
255 255 255 255 255 255 255 255 255 255 255 255 255 255 255 255 255
255 255 255 255 255 255 255 255 255 255 255 254 255 120 48 71 168 9
33 45 188 254 254 255 255 255 255 255 255 236 190 255 255 255 255 255
255 254 254 34 80 121 142 70 40 45 38 37 11 61 253 255 255 255 255
255 255 255 255 255 255 255 255 255 255 255 255 255 255 255 255 255
255 255 255 255 255 255 255 255 255 255 255 255 255 255 255 255 255
255 255 255 255 255 255 255 255 255 255 255 253 245 26 36 123 187 90
18 59 43 255 252 255 255 255 255 255 255 229 126 255 255 255 255 255
255 254 254 39 73 134 121 148 27 43 40 19 125 135 252 255 255 255 255
255 255 255 255 255 255 255 255 255 255 255 255 255 255 255 255 255
255 255 255 255 255 255 255 255 255 255 255 255 255 255 255 255 255
255 255 255 255 255 255 255 255 255 255 255 255 153 41 52 17 227 57
18 31 50 152 255 255 255 255 255 255 255 229 37 255 254 255 255 255
255 255 255 85 63 141 135 45 42 29 47 47 78 138 245 255 255 255 255
255 255 255 255 255 255 255 255 255 255 255 255 255 255 255 255 255
255 255 255 255 255 255 255 255 255 255 255 255 255 255 255 255 255
255 255 255 255 255 255 255 255 255 254 251 255 26 40 122 129 46 50
145 8 47 37 251 248 252 255 255 252 255 135 18 155 255 249 255 255
255 255 255 86 60 124 34 39 44 67 34 46 24 101 255 255 255 255 255
255 255 255 255 255 255 255 255 255 255 255 255 255 255 255 255 255
255 255 255 255 255 255 255 255 255 255 255 255 255 255 255 255 255
255 255 255 255 255 255 255 255 255 255 254 178 36 17 175 216 38 135
205 33 26 51 112 255 252 255 255 244 190 92 130 82 62 255 253 255 255
255 255 79 45 46 27 67 147 139 39 45 47 21 255 255 254 254 255 255
255 255 255 255 255 255 255 255 255 255 255 255 255 255 255 255 255
255 255 255 255 255 255 255 255 255 255 255 255 255 255 255 255 255
255 255 255 255 255 255 255 254 253 255 53 54 68 189 198 17 51 214
144 3 39 22 239 251 250 253 197 6 70 22 43 33 45 215 234 254 253 255
117 32 28 111 138 125 125 108 29 44 43 246 254 255 255 255 255 255
255 255 255 255 255 255 255 255 255 255 255 255 255 255 255 255 255
255 255 255 255 255 255 255 255 255 255 255 255 255 255 255 255 255
255 255 255 255 255 254 254 253 202 44 21 157 194 91 131 84 138 208
58 18 55 87 255 253 205 16 98 93 70 69 66 58 7 255 255 254 254 183 12
136 128 126 125 122 133 63 38 42 232 254 254 255 255 255 255 255 255
255 255 255 255 255 255 255 254 255 254 255 255 255 255 255 255 255
255 255 255 255 255 255 255 255 255 255 255 255 255 255 255 255 255
255 255 255 255 252 255 76 55 33 192 215 7 207 213 1 205 158 1 34 17
225 255 131 78 75 54 59 51 39 95 173 255 255 254 254 194 8 133 123
127 128 120 119 136 29 40 131 255 255 255 255 255 255 255 255 255 255
255 255 255 255 255 226 251 254 255 255 255 255 255 255 255 255 255
255 255 255 255 255 255 255 255 255 255 255 255 255 255 255 255 255
255 254 253 223 19 32 123 192 143 72 212 201 125 76 213 80 11 53 59
255 239 152 110 118 144 176 120 240 208 254 255 255 255 218 4 131 128
128 126 123 117 124 108 23 86 255 253 255 255 255 255 255 255 255 255
255 255 255 252 254 242 254 254 255 255 255 255 255 255 255 255 255
255 255 255 255 255 255 255 255 255 255 255 255 255 255 255 255 255
255 252 255 103 56 21 143 183 39 136 190 195 239 28 193 198 15 26 16
195 255 172 199 188 255 238 115 230 191 254 255 255 254 228 2 126 133
126 126 123 122 121 135 49 23 248 253 255 255 255 255 255 255 255 255
255 255 255 253 247 198 233 254 255 255 255 255 255 255 255 255 255
255 255 255 255 255 255 255 255 255 255 255 255 255 255 255 255 255
255 252 247 19 47 44 77 39 39 15 11 28 10 20 25 62 30 17 45 40 255
199 245 144 255 232 148 214 241 255 255 255 254 223 0 118 127 127 126
121 124 118 114 133 7 221 254 253 255 255 255 255 255 255 255 255 255
254 252 221 255 176 254 254 254 255 255 255 255 255 255 255 255 255
255 255 255 255 255 255 255 255 255 255 255 255 255 255 253 253 255
139 45 10 190 220 207 210 223 140 5 154 174 140 100 105 12 26 18 167
247 217 145 201 140 91 220 248 253 255 255 255 227 2 101 130 126 122
124 122 121 122 123 33 182 225 255 255 255 255 255 255 255 255 255
253 255 209 255 229 211 191 255 252 255 255 255 255 255 255 255 255
255 255 255 255 255 255 255 255 255 255 255 255 255 255 255 249 255
198 30 47 63 231 99 22 125 219 151 0 170 189 189 195 195 93 8 36 24
255 171 61 174 115 7 137 254 254 255 255 254 243 7 99 129 124 126 109
121 113 120 124 34 66 255 254 255 255 255 255 255 255 255 255 255 207
209 204 214 196 149 219 255 255 255 255 255 255 255 255 255 255 255
255 255 255 255 255 255 255 255 255 255 255 254 251 255 139 34 50 12
133 205 158 80 146 206 215 61 208 184 185 180 172 187 14 25 16 137
254 132 92 91 111 255 249 254 255 255 254 249 15 95 128 120 116 112
115 115 123 120 24 31 255 254 255 255 255 255 255 255 255 255 255 143
119 126 124 133 141 139 255 255 255 255 255 255 255 255 255 255 255
255 255 255 255 255 255 255 255 255 255 255 247 255 107 20 76 53 31
193 213 97 23 179 199 207 67 201 183 181 180 177 178 106 5 37 6 246
173 183 88 178 255 255 255 255 254 255 255 39 81 132 119 111 119 116
115 122 124 34 16 221 254 249 254 255 255 255 255 255 255 254 192 135
137 150 138 163 117 255 255 255 255 255 255 255 255 255 255 255 255
255 255 255 255 255 255 255 255 255 254 255 67 9 85 49 25 114 179 212
117 43 107 217 209 63 201 183 182 182 179 173 186 17 23 34 99 255 23
0 161 242 230 255 255 255 252 255 40 65 125 115 111 116 115 108 119
116 52 25 149 251 247 248 255 255 255 255 255 254 255 184 122 135 143
142 133 146 255 255 255 255 255 255 255 255 255 255 255 255 255 255
255 255 255 255 255 255 250 248 39 45 42 126 47 10 184 174 209 131 36
104 223 194 1 188 186 183 179 180 176 173 124 3 34 1 243 194 0 56 41
51 70 67 119 16 23 13 68 124 116 109 114 116 112 115 132 39 14 107
255 253 255 255 255 255 255 255 255 255 170 124 128 124 119 136 168
255 255 255 255 255 255 255 255 255 255 255 255 255 255 255 255 255
255 254 255 233 15 50 9 76 37 35 97 209 194 214 145 21 77 241 40 4
180 183 182 183 184 177 174 190 37 17 25 80 248 178 254 167 157 247
79 121 145 160 43 44 122 112 113 111 110 119 130 79 28 25 29 255 253
253 253 254 255 255 250 255 255 157 121 130 125 130 142 157 255 255
255 255 255 252 254 253 252 255 255 255 255 255 255 255 255 254 254
218 5 53 18 14 136 41 18 46 71 81 128 126 141 173 143 22 83 168 217
210 206 207 206 200 189 168 2 37 1 223 255 253 255 160 156 147 139
127 202 17 44 120 114 103 110 134 81 24 30 25 29 4 238 254 254 253
254 254 253 255 159 255 142 141 138 152 140 120 95 238 255 255 255
254 253 255 253 254 255 255 255 255 255 255 255 255 255 252 185 2 17
9 133 33 45 41 164 106 68 58 36 26 29 3 178 119 17 37 37 45 49 52 75
61 62 19 15 37 53 255 254 250 255 116 110 212 161 249 3 41 115 105
131 99 32 16 34 40 16 27 9 159 255 202 220 253 254 255 142 144 183
151 125 127 124 138 141 102 228 255 255 254 253 255 176 212 255 254
255 255 255 255 255 255 255 254 255 11 25 18 22 79 39 9 145 178 188
202 204 205 237 22 94 223 102 49 111 101 103 101 100 12 67 70 54 7 25
6 195 254 253 252 255 181 112 91 120 28 46 124 105 38 15 39 31 43 33
37 31 15 101 238 169 202 247 216 200 158 140 162 153 111 110 142 102
115 95 255 255 255 255 255 212 139 130 227 255 255 255 255 255 255
255 255 254 188 1 20 5 59 37 35 27 186 173 175 179 182 212 32 35 220
186 104 79 212 200 198 199 227 8 196 197 196 54 12 30 5 241 252 255
252 252 255 225 255 49 32 52 12 31 37 37 27 14 7 29 23 25 38 254 254
253 216 174 161 146 148 118 136 239 247 246 246 241 221 206 252 213
230 214 159 172 165 148 227 250 234 235 249 247 245 250 242 27 0 6 90
35 33 7 111 175 173 176 177 199 142 0 194 182 183 143 35 201 182 183
180 198 10 157 175 162 168 5 21 28 33 255 251 253 253 252 254 255 143
4 28 32 34 28 14 11 13 7 15 20 25 2 229 250 220 242 116 167 117 189
105 174 131 255 254 255 254 254 254 247 255 250 161 180 132 123 144
149 254 237 219 239 226 190 215 127 21 238 43 36 31 45 17 189 165 174
173 182 161 0 140 198 182 178 176 42 202 180 180 179 198 8 154 179
170 170 80 5 26 17 86 255 253 254 253 254 255 128 6 29 28 18 12 12 10
10 11 25 34 27 4 185 254 253 165 153 175 212 155 204 151 137 220 254
251 241 240 248 249 254 174 133 167 141 137 162 153 205 249 247 228
193 249 255 157 255 167 17 38 38 48 85 184 174 174 179 208 15 66 217
178 178 178 165 43 206 179 181 179 205 18 155 176 172 160 172 8 17 28
1 186 255 254 254 254 255 125 23 29 10 8 8 4 13 22 28 19 21 12 35 52
161 160 84 127 122 132 106 138 161 166 91 255 252 244 238 239 250 183
123 153 200 180 171 180 124 131 250 225 121 128 209 150 80 187 13 43
1 144 0 171 170 173 174 212 48 21 220 177 180 179 180 171 19 208 179
177 176 208 25 159 176 171 170 168 85 9 19 33 0 237 251 255 254 255
137 1 4 7 10 12 23 24 18 5 24 18 48 151 71 117 122 119 134 128 126
132 107 174 195 137 192 147 250 254 184 165 131 148 177 115 140 156
160 169 155 213 59 129 113 188 133 134 28 41 5 162 67 62 198 181 182
200 105 0 181 183 181 181 180 176 201 6 197 178 178 180 206 32 136
181 173 167 169 178 15 19 21 23 24 255 250 255 255 145 8 19 12 14 27
18 11 6 25 46 16 4 88 155 153 132 124 137 126 112 135 105 157 125 157
255 172 229 255 215 236 236 116 124 142 140 139 146 176 172 219 142
96 94 221 223 37 34 17 52 125 12 104 126 129 129 133 3 96 191 169 176
179 192 194 211 4 209 199 204 208 233 43 125 203 187 184 183 182 125
3 15 24 14 79 255 253 255 133 6 23 15 12 14 7 24 53 57 62 11 15 1 114
141 119 146 208 184 131 132 131 166 196 128 229 242 234 228 239 243
246 123 240 255 255 255 255 255 255 255 237 239 220 219 56 24 27 13
18 14 39 8 5 6 7 6 23 9 1 15 6 5 2 2 1 6 4 12 28 27 66 31 53 88 101
104 99 97 127 29 16 14 30 1 178 255 254 243 102 79 77 56 28 9 52 54
69 66 18 6 49 76 139 132 124 141 117 112 121 99 156 172 151 120 116
120 127 127 97 138 214 71 83 79 76 61 87 139 172 160 200 210 35 62 5
27 34 42 7 34 172 160 164 173 173 174 173 187 4 194 201 197 200 196
236 225 187 40 118 76 78 62 48 42 40 16 18 7 27 23 15 17 4 141 255
255 255 255 255 255 200 99 25 74 86 83 75 0 65 68 30 144 116 125 115
119 123 127 123 126 132 134 192 181 186 136 158 118 98 86 148 135 147
144 146 156 138 116 113 107 76 13 17 12 34 39 30 12 127 173 177 174
170 177 180 178 205 10 158 47 14 48 206 11 17 211 51 216 197 192 195
195 197 211 29 53 39 43 22 14 14 61 255 252 255 255 255 251 245 129
144 23 88 87 99 106 45 45 4 15 122 147 118 130 121 113 124 117 115
144 122 191 180 180 143 135 72 153 132 151 148 160 156 160 149 164
151 154 187 31 40 10 9 15 42 28 22 141 172 168 171 172 176 172 174
206 29 161 91 19 31 225 0 0 189 46 198 172 176 170 167 174 184 98 37
24 49 11 1 24 5 245 255 255 255 255 252 214 183 161 24 95 88 89 99 75
3 20 11 36 240 153 113 124 134 131 136 117 135 117 147 143 164 99 112
96 129 123 158 131 136 167 158 140 150 155 158 147 5 23 10 32 13 14
48 30 140 171 169 164 171 170 172 172 197 68 101 199 137 160 217 170
184 238 28 180 169 167 165 168 168 181 113 14 28 9 0 176 13 156 255
255 255 255 255 255 154 255 183 24 100 93 99 80 93 4 20 16 29 126 127
109 136 116 126 107 138 188 219 246 231 238 222 195 197 206 159 140
139 159 135 142 121 127 146 131 94 24 9 31 38 34 30 61 27 139 176 162
171 168 167 163 168 192 61 100 161 21 102 238 29 7 244 20 178 171 173
169 167 163 173 121 11 15 4 157 184 16 210 253 255 255 255 255 249
113 70 79 62 105 99 100 84 122 26 19 13 25 115 98 130 105 119 109 140
95 252 254 255 255 255 255 255 254 255 255 255 252 255 251 246 235
221 209 160 3 29 6 19 49 27 42 69 18 139 168 171 164 171 165 171 174
194 62 97 182 27 78 247 63 0 229 24 171 170 161 164 166 165 169 144 2
36 36 12 127 220 255 252 255 255 255 255 253 62 96 110 59 69 76 99 64
142 49 15 18 6 89 120 106 121 119 111 101 83 60 77 107 126 123 178
222 221 235 238 253 255 255 255 254 255 252 235 219 1 13 6 8 18 53 39
73 22 139 172 164 169 167 173 169 165 196 65 85 220 148 165 208 173
175 222 26 174 169 167 165 167 167 167 146 2 54 32 176 255 251 251
254 255 255 253 255 255 137 58 108 66 74 101 105 109 164 42 24 21 5
94 233 123 129 120 116 126 73 136 91 105 98 89 79 105 138 92 129 177
149 156 171 189 189 178 251 32 26 8 40 38 31 53 46 76 25 144 171 172
170 170 166 169 167 192 59 79 160 54 54 219 32 13 178 35 151 173 168
169 166 164 169 148 16 51 46 37 204 254 255 237 178 201 255 255 255
125 87 91 70 63 93 93 101 96 91 53 19 11 22 154 138 150 135 117 110
65 111 119 129 110 136 80 92 53 86 40 72 48 93 75 66 118 121 47 24 6
11 31 18 53 61 46 93 32 146 173 171 173 170 173 172 171 187 89 55 150
60 41 233 49 5 156 41 149 173 164 169 168 166 170 148 83 122 209 65
46 187 106 72 97 104 255 254 255 127 100 137 70 70 108 109 105 146 74
70 11 21 2 163 213 96 97 119 106 58 143 100 111 117 112 75 67 157 56
160 96 165 48 69 95 80 86 24 17 25 27 4 48 55 65 53 101 46 130 172
160 148 146 171 174 167 196 101 39 231 182 184 208 186 182 209 63 134
182 175 172 175 174 170 156 3 48 217 255 190 190 64 106 137 63 243
252 255 144 164 249 56 81 107 101 101 167 74 86 49 19 6 94 251 157 39
97 89 68 143 82 123 81 87 69 96 172 41 169 63 216 37 135 134 92 123
20 12 10 26 28 60 57 70 54 129 49 9 6 6 9 7 5 4 5 4 12 23 5 5 4 2 10
21 20 5 69 104 98 97 93 102 102 76 18 33 3 42 141 226 246 76 148 135
174 254 241 185 175 37 104 53 104 109 101 169 48 67 77 16 15 36 195
152 207 93 100 40 149 231 235 235 142 123 72 201 158 193 93 222 47
135 144 68 35 8 34 16 39 40 65 60 79 87 60 23 142 191 178 183 186 182
185 185 194 106 46 236 200 179 172 169 150 153 84 72 121 120 118 122
116 113 124 24 49 58 16 8 17 71 195 201 158 117 255 233 11 15 105 111
67 118 101 84 169 109 104 85 22 15 1 141 174 254 255 255 215 75 255
249 252 255 243 116 162 61 186 106 175 220 108 205 128 5 23 5 24 47
41 72 62 113 19 115 43 131 169 171 165 163 167 164 162 179 99 34 193
167 165 166 165 168 177 82 94 178 167 168 165 163 209 14 36 49 80 150
123 38 4 1 71 155 92 243 249 245 135 114 99 65 106 110 115 141 116 83
57 56 22 104 90 255 251 238 236 248 149 227 250 254 255 240 253 168
60 184 77 203 136 239 84 1 28 4 37 44 51 47 72 92 45 76 136 51 110
177 166 167 170 168 170 165 176 96 33 188 162 166 162 163 157 167 95
96 165 158 158 157 175 109 33 46 60 131 127 182 104 167 66 190 125
131 151 254 245 126 125 98 35 113 113 77 103 92 125 48 110 33 255 255
247 247 249 255 255 255 44 57 41 64 96 118 71 131 132 181 126 81 177
2 13 26 32 20 67 55 47 94 65 75 93 141 45 103 177 162 167 162 161 165
165 173 106 36 188 161 164 163 161 158 167 94 90 172 164 166 159 191
0 179 11 38 98 91 159 144 148 98 162 154 157 77 249 235 122 114 96 47
105 112 23 191 62 111 45 132 37 8 13 8 11 19 29 29 32 71 37 69 55 53
48 50 47 36 28 32 43 9 34 5 40 30 34 14 59 62 68 52 129 94 147 50 106
177 165 164 165 169 163 163 169 115 28 190 162 164 162 157 157 170 92
86 173 165 163 182 94 60 188 5 19 155 154 174 110 171 66 149 126 128
80 116 219 174 155 86 47 109 112 110 183 69 87 75 62 55 25 18 33 39
31 28 28 36 41 101 104 109 101 107 96 135 113 119 84 82 7 10 30 51 41
67 24 66 45 62 128 122 100 146 47 109 177 166 168 163 155 161 168 170
126 28 188 167 159 156 163 161 172 94 65 176 158 161 184 0 189 174 12
17 122 144 180 121 182 73 73 102 130 112 240 216 134 123 121 47 106
97 42 171 202 20 79 115 75 71 104 30 81 67 43 32 169 159 116 121 128
130 129 146 71 136 72 158 128 109 95 18 54 16 79 31 83 71 120 124 132
103 149 53 109 178 165 161 164 172 163 160 163 152 20 186 164 161 161
161 163 174 95 46 179 157 181 59 84 179 173 14 15 137 123 183 141 168
115 65 33 64 149 122 103 147 154 166 44 103 114 24 152 175 162 42 93
154 100 113 82 75 116 82 58 205 169 115 129 128 137 127 154 94 149 72
149 124 131 143 71 103 30 92 37 94 77 133 118 131 105 164 40 107 177
161 159 160 160 160 160 163 149 28 195 165 163 159 159 157 162 124 34
187 158 177 3 189 152 178 13 24 95 90 126 100 205 151 25 67 68 125
108 133 180 164 154 45 108 97 45 2 173 208 62 102 144 130 117 56 159
173 102 51 186 178 115 132 131 136 131 168 21 130 13 166 126 131 123
43 118 33 110 22 109 79 143 114 144 133 49 24 100 176 162 162 163 158
154 158 161 149 22 181 160 159 159 163 163 164 143 29 188 195 43 103
172 161 182 17 25 112 140 121 114 76 94 47 62 44 142 90 110 61 16 93
56 119 117 62 10 23 208 198 19 146 119 96 84 96 97 89 51 165 174 119
133 138 141 134 171 6 122 0 161 130 139 101 10 113 36 39 31 117 88
142 126 131 16 132 61 89 207 185 184 180 185 182 181 183 183 11 209
179 182 180 178 175 183 169 20 215 156 17 215 176 178 212 29 30 103
98 149 130 124 145 93 66 64 114 146 135 44 103 154 48 101 111 99 13
13 66 239 117 124 141 66 107 85 117 116 35 172 174 112 135 134 137
131 151 189 183 163 173 131 130 160 132 60 33 163 35 120 91 171 65 40
149 146 71 35 56 53 51 49 40 38 35 40 29 25 22 22 28 23 30 44 56 43
18 33 18 21 29 29 20 47 24 26 16 19 47 70 106 94 87 47 94 107 71 104
26 231 180 43 105 110 137 59 14 2 115 207 78 56 124 39 120 92 45 93
160 174 109 136 135 139 134 167 56 149 31 145 131 136 119 103 165 34
149 35 123 107 43 99 147 131 146 70 20 31 31 32 30 37 28 32 33 30 7
172 156 149 114 103 110 117 87 29 154 21 121 103 101 106 109 40 12
119 147 67 37 26 26 109 95 106 125 105 115 66 25 77 57 103 82 133 104
44 23 4 148 197 206 85 159 169 139 179 64 168 176 109 138 136 138 132
174 80 170 76 167 131 136 127 80 159 35 156 41 126 107 132 131 127
130 150 63 25 33 31 32 32 31 31 33 30 38 8 169 162 162 172 169 163
164 147 40 32 79 188 170 161 162 191 30 52 40 86 154 96 100 129 38 20
13 85 98 143 84 15 84 54 93 113 123 122 23 66 8 12 236 223 100 149
241 240 173 66 183 172 90 103 113 127 133 119 125 119 139 126 149 144
132 149 147 15 153 42 129 122 132 132 127 129 157 63 27 32 35 33 33
37 31 34 32 33 8 168 168 155 152 158 152 160 148 2 73 63 173 147 155
157 182 32 59 50 202 167 76 95 127 60 31 20 93 118 80 66 22 77 64 70
107 124 124 16 104 90 17 18 23 29 28 34 41 32 46 21 49 57 88 64 74 69
72 83 62 95 60 63 47 48 96 170 26 34 66 127 131 132 131 130 131 156
58 28 37 34 33 33 33 33 32 30 34 12 142 128 131 126 121 121 109 112 0
192 51 172 147 153 147 176 38 4 148 0 51 103 93 90 55 40 39 79 118 94
184 7 76 85 88 119 91 143 17 123 109 27 8 4 13 13 15 6 15 8 86 102
107 137 136 143 148 113 110 147 69 149 124 129 120 128 178 6 157 7
109 132 131 133 132 134 155 58 30 35 35 36 34 38 36 36 32 34 15 95
114 128 131 140 131 157 63 13 199 61 175 150 149 153 175 42 1 134 5
39 125 96 116 55 31 32 71 86 204 153 11 66 99 77 103 61 62 22 123 94
64 90 113 97 90 108 104 66 98 153 130 100 138 111 57 57 127 17 183 0
166 125 144 39 119 25 21 154 8 94 138 134 130 127 131 152 58 29 36 36
37 35 36 35 35 35 32 30 21 203 163 163 162 154 162 0 29 207 62 174
155 157 158 178 39 7 105 20 42 133 103 117 42 29 43 42 84 118 104 22
71 111 70 114 131 89 16 111 116 69 94 114 101 90 127 100 63 95 160
136 101 136 125 44 44 137 42 186 23 157 127 145 43 124 155 25 32 13
110 134 134 131 133 133 157 55 28 34 35 35 37 32 34 33 33 33 10 122
72 179 159 160 183 36 111 3 203 58 172 152 150 150 185 40 18 118 29
31 128 112 125 37 26 42 28 68 146 88 20 63 116 57 123 110 118 25 55
37 72 94 110 79 74 122 85 82 65 170 135 104 136 112 89 66 123 57 181
33 151 125 135 70 117 138 8 145 5 125 134 130 132 127 133 156 55 28
33 32 35 34 36 33 33 34 30 4 177 25 159 157 161 144 18 204 5 202 53
166 149 147 153 174 47 16 81 46 29 130 106 97 68 66 41 43 60 220 147
14 62 109 59 108 106 123 20 135 112 64 95 110 78 78 113 84 75 69 168
135 100 136 130 77 73 133 57 186 29 143 124 138 77 64 136 13 118 10
112 134 138 128 133 133 156 50 31 30 32 36 34 33 32 35 37 32 9 134
174 11 188 184 13 143 158 12 207 48 178 152 149 147 164 52 25 43 50
37 111 92 123 48 11 34 51 23 255 233 7 64 98 59 118 105 119 18 122 98
59 91 103 90 91 113 88 52 97 158 137 101 131 129 78 68 150 23 190 109
135 126 125 71 89 129 13 121 16 109 131 135 135 128 131 153 54 24 31
33 31 31 37 35 32 33 34 4 139 168 96 95 125 46 194 164 18 222 49 178
160 166 164 188 69 41 52 56 25 122 93 97 113 178 108 45 27 184 185
104 135 85 71 100 105 126 16 124 101 56 73 83 81 81 88 71 57 73 167
132 94 133 119 103 115 109 10 190 164 122 119 124 81 113 102 21 115
14 131 133 130 131 131 133 152 60 29 30 34 36 37 27 32 34 32 36 21
100 122 126 18 20 99 95 107 19 124 23 111 94 78 75 66 22 38 40 73 64
89 78 97 8 75 198 178 231 240 243 248 255 78 57 105 63 116 16 129 102
102 117 130 79 76 125 112 127 33 174 128 97 125 123 133 129 136 145
137 198 139 121 114 139 134 100 19 126 32 122 86 134 130 138 132 147
62 7 5 8 8 6 8 6 3 4 6 9 5 10 14 24 24 31 32 29 49 34 45 30 52 46 46
69 49 67 24 115 47 49 67 57 80 103 155 126 143 157 174 97 255 91 49
103 72 38 38 29 19 221 221 247 141 127 253 234 248 50 172 150 96 141
127 129 131 119 115 116 102 112 122 124 134 52 16 43 13 58 43 32 150
146 140 146 147 111 91 106 115 98 98 120 102 120 112 112 118 115 149
130 117 145 140 118 138 138 124 143 129 101 118 103 93 92 120 50 35
89 96 101 122 124 104 135 120 165 192 140 84 145 109 50 107 108 107
13 126 80 70 89 95 65 55 92 82 83 133 135 127 40 110 151 165 160 163
155 165 163 159 157 163 167 79 84 27 99 32 39 47 88 73 79 55 69 79 70
59 67 74 94 71 58 112 75 67 96 51 80 33 37 120 44 68 104 95 105 125
116 42 51 121 73 70 10 79 80 106 128 106 144 126 128 121 141 179 170
139 144 162 124 55 109 146 182 87 82 187 75 98 70 100 94 58 75 57 24
58 105 12 21 160 149 134 125 121 95 95 83 78 105 89 100 63 42 80 74
39 50 80 77 62 49 46 73 87 67 66 90 106 115 101 107 94 99 121 87 110
103 99 105 120 117 129 120 103 71 108 34 47 95 60 78 70 73 43 114 129
120 133 137 134 147 141 167 170 153 145 103 112 59 104 125 171 98 87
229 54 46 57 52 46 55 68 62 46 43 79 48 53 30 87 144 185 176 231 190
213 194 203 182 74 75 39 97 63 64 49 79 89 66 58 56 77 79 98 117 129
142 109 106 90 129 70 73 104 103 91 119 72 65 121 95 90 93 39 103 44
44 96 47 61 64 85 54 46 132 150 121 119 140 153 145 161 168 172 135
141 105 53 109 115 120 52 47 80 39 175 128 100 95 101 90 77 82 96 101
139 151 199 205 169 146 129 121 78 86 78 83 82 85 50 40 80 56 36 47
79 86 78 51 54 32 41 59 138 139 143 125 129 93 118 118 108 114 110
111 107 71 68 100 100 125 106 116 90 73 80 82 55 63 71 77 59 42 58
156 137 131 121 148 149 132 161 162 164 144 114 57 110 85 59 104 37
38 93 122 96 105 94 93 89 152 188 214 189 157 125 92 82 91 101 98 103
108 110 113 141 179 117 38 54 64 49 33 50 76 70 91 60 52 47 60 112 85
53 61 93 109 79 109 110 73 128 89 117 108 65 57 94 86 97 83 62 24 3
199 32 49 46 53 68 65 57 30 131 136 147 139 167 182 190 167 166 130
125 116 51 109 103 76 79 35 42 49 51 82 76 89 107 154 171 91 86 95 96
97 99 115 96 105 119 103 115 117 113 106 59 49 49 44 38 62 33 38 65
71 91 64 53 92 119 95 99 120 125 104 111 95 117 81 121 125 110 97 114
102 124 88 104 86 83 92 45 124 150 43 61 88 29 82 61 33 77 164 140
155 175 162 190 191 169 126 142 124 111 49 100 94 69 98 119 102 90
104 105 82 74 88 77 95 99 98 93 112 109 88 103 124 129 88 123 110 99
101 81 97 77 60 8 45 37 32 35 71 65 50 48 43 69 86 80 85 89 120 87 67
115 110 92 101 69 97 96 83 82 106 87 88 56 44 71 28 175 116 88 59 60
53 72 69 47 89 157 120 139 147 147 156 169 123 118 131 136 114 47 92
69 69 71 45 79 109 95 75 86 98 108 122 112 97 88 116 129 118 97 107
101 116 60 75 103 112 92 113 75 71 56 48 45 35 15 31 68 72 63 48 38
55 154 133 105 132 87 83 68 101 96 80 76 84 87 73 87 80 60 83 67 47
47 48 34 33 20 28 75 56 34 36 46 57 85 168 191 175 172 179 164 123
150 151 113 142 107 43 85 82 96 105 105 108 112 101 91 84 101 108 99
65 101 115 115 123 105 129 117 111 116 91 46 65 128 83 119 76 91 57
85 45 27 24 26 61 46 62 48 34 48 125 96 110 122 88 69 79 88 70 68 75
52 76 91 46 67 68 45 36 43 46 28 35 49 32 40 38 54 48 29 18 35 32 100
124 172 175 146 147 124 129 160 148 141 115 41 41 94 79 70 87 95 116
78 71 96 118 108 103 106 86 120 111 119 86 123 106 157 112 94 94 45
46 139 93 109 111 98 69 69 53 16 40 32 55 67 53 38 42 59 103 103 64
73 64 48 37 35 81 61 63 80 40 72 59 43 66 62 47 18 45 37 53 13 47 15
40 38 21 21 10 25 71 104 143 129 156 171 128 135 179 136 145 121 49
62 77 88 92 91 104 109 49 72 109 108 89 97 81 92 110 146 119 124 98
124 108 101 114 110 102 53 14 128 86 66 108 96 74 73 66 62 67 37 52
37 68 106 86 70 60 81 60 70 50 54 38 40 43 48 50 29 54 26 33 31 34 37
51 49 19 11 43 28 63 35 55 107 54 75 85 127 117 122 164 135 158 141
176 123 141 150 133 59 96 80 79 99 87 105 89 57 82 104 113 111 124 87
98 94 124 117 140 108 125 109 107 115 110 96 88 62 13 65 136 85 87 85
72 79 66 68 79 96 51 92 84 67 53 77 83 61 62 41 40 38 31 29 29 28 48
43 33 43 48 53 61 50 44 62 80 66 71 59 61 87 60 97 84 91 92 133 155
177 186 112 155 123 164 144 126 100 69 95 93 99 96 109 126 47 70 96
101 126 119 111 112 103 95 150 117 117 134 125 109 90 124 126 103 102
81 76 35 11 87 104 90 77 78 71 60 50 52 50 74 84 81 36 27 26 35 32 26
38 37 41 57 46 35 34 44 50 54 62 72 35 66 67 48 51 62 66 74 79 72 78
74 69 112 105 92 92 122 113 164 159 133 158 169 124 89 64 92 100 91
101 106 124 47 62 98 113 114 122 96 91 115 93 111 111 130 157 119 110
122 100 132 116 141 93 96 77 62 16 43 99 100 62 93 72 67 82 36 58 48
74 31 68 56 52 66 65 68 74 60 61 74 74 83 61 63 60 63 75 78 53 54 54
60 72 72 78 64 56 46 86 64 64 92 117 141 131 131 169 169 146 162 137
92 84 61 91 67 86 87 122 100 45 88 95 87 120 105 119 93 81 117 76 105
134 102 128 106 128 117 133 67 98 119 85 101 74 75 39 11 71 125 116
118 98 94 83 43 81 46 69 64 86 78 67 67 60 62 92 78 80 65 52 70 71 60
60 63 84 55 56 66 61 67 56 69 56 81 61 61 78 78 79 89 152 144 145 146
125 139 141 105 114 81 59 93 63 87 120 119 67 73 76 101 102 142 90 91
120 76 93 125 117 95 134 116 110 98 114 108 99 105 87 107 83 95 70 81
57 33 9 21 23 34 63 120 100 74 87 65 81 65 42 76 80 71 66 52 65 88 75
91 47 64 82 64 82 60 58 68 70 73 73 70 57 55 54 59 60 63 77 149 151
142 158 151 112 179 140 172 186 173 54 55 95 90 114 122 123 45 73 93
117 94 109 137 98 113 89 115 104 99 116 132 129 94 158 143 100 117 68
79 94 77 93 108 86 83 87 67 73 75 102 86 68 45 82 76 64 83 94 93 87
99 86 77 76 71 58 73 64 69 67 70 80 68 63 74 71 63 65 57 62 62 56 98
88 118 137 131 137 158 173 167 158 186 175 171 147 148 119 59 47 83
100 103 91 113 30 79 79 108 92 124 118 100 108 98 76 84 110 69 131
105 98 84 109 97 73 90 117 83 129 112 80 82 92 83 92 61 52 83 85 90
93 76 137 123 86 99 63 69 66 73 54 84 69 76 74 80 75 78 77 63 68 70
69 70 66 72 60 65 90 89 104 141 133 137 186 179 163 141 162 169 133
144 142 120 69 113 58 48 60
