P2
89 89
255
255 255 255 255 255 255 255 255 255 255 255 255 255 255 255 255 255
255 255 255 255 255 255 255 255 255 255 255 255 255 255 255 255 255
255 255 255 255 255 255 255 255 255 255 255 255 255 255 255 255 255
255 255 255 255 255 255 255 255 255 255 255 255 255 255 255 255 255
255 255 255 255 255 255 255 255 255 255 255 255 255 255 255 255 255
255 255 255 255 255 255 255 255 255 255 255 255 255 255 255 255 255
255 255 255 255 255 255 255 255 255 255 255 255 255 255 255 255 255
255 255 255 255 255 255 255 255 255 255 255 255 255 255 255 255 255
255 255 255 255 255 255 255 255 255 255 255 255 255 255 255 255 255
255 255 255 255 255 255 255 255 255 255 255 255 255 255 255 255 255
255 255 255 255 255 255 255 255 255 255 255 255 255 255 255 255 255
255 255 255 255 255 255 255 255 255 255 255 255 255 255 255 255 255
255 255 255 255 255 255 255 255 255 255 255 255 255 255 255 255 255
255 255 255 255 255 255 255 255 255 255 255 255 255 255 255 255 255
255 255 255 255 255 255 255 255 255 255 255 255 255 255 255 255 255
255 255 255 255 255 255 255 255 255 255 255 255 255 255 255 255 255
255 255 255 255 255 255 255 255 255 255 255 255 255 255 255 255 255
255 255 255 255 255 255 255 255 255 255 255 255 255 255 255 255 255
255 255 255 255 255 255 255 255 255 255 255 255 255 255 255 255 255
255 255 255 255 255 255 255 255 255 255 255 255 255 255 255 255 255
255 255 255 255 255 255 255 255 255 255 255 255 255 255 255 255 255
255 255 255 255 255 255 255 255 255 255 255 255 255 255 255 255 255
255 255 255 255 255 255 255 255 255 255 255 255 255 255 255 255 255
255 255 255 255 255 255 255 255 255 255 255 255 255 255 255 255 255
255 255 255 255 255 255 255 255 255 255 255 255 255 255 255 255 255
255 255 255 255 255 255 255 255 255 255 255 255 255 255 255 255 255
255 255 255 255 255 255 255 255 255 255 255 255 255 255 255 255 255
255 255 255 255 255 255 255 255 255 255 255 255 255 255 255 255 255
255 255 255 255 255 255 255 255 255 255 255 255 255 255 255 255 255
255 255 255 255 255 255 255 255 255 255 255 255 255 255 255 255 255
255 255 255 255 255 255 255 255 255 255 255 255 255 255 255 255 255
255 255 255 255 255 255 255 255 255 255 255 255 255 255 255 255 255
255 255 255 255 255 255 255 255 255 255 255 255 255 255 255 255 255
255 255 255 255 255 255 255 255 255 255 255 255 255 255 255 255 255
255 255 255 255 255 255 255 255 255 255 255 255 255 255 255 255 255
255 255 255 255 255 255 255 255 255 255 255 255 255 255 255 255 255
255 255 255 255 255 255 255 255 255 255 255 255 255 255 255 255 255
255 255 255 255 255 255 255 255 255 255 255 255 255 255 255 255 255
255 255 255 255 255 255 255 255 255 255 255 255 255 255 255 255 255
255 255 255 255 255 255 255 255 255 255 255 255 255 255 255 255 255
255 255 255 255 255 255 255 255 255 255 255 255 255 255 255 255 255
255 255 255 255 255 255 255 255 255 255 255 255 255 255 255 255 255
255 255 255 255 255 255 255 255 255 255 255 255 255 255 255 255 255
255 255 255 255 255 255 255 255 255 255 255 255 255 255 255 255 255
255 255 255 255 255 255 255 255 255 255 255 255 255 255 255 255 255
255 255 255 255 255 255 255 255 255 255 255 255 255 255 255 255 255
255 255 255 255 255 255 255 255 255 255 255 255 255 255 255 255 255
255 255 255 255 255 255 255 255 255 255 255 255 255 255 255 255 255
255 255 255 255 255 255 255 255 255 255 255 255 255 255 255 255 255
255 255 255 255 255 255 255 255 255 255 255 255 255 255 255 255 255
255 255 255 255 255 255 255 255 255 255 255 255 255 255 255 255 255
255 255 255 255 255 255 255 255 255 255 255 255 255 255 255 255 255
255 255 255 255 255 255 255 255 255 255 255 255 255 255 255 255 255
255 255 255 255 255 255 255 255 255 255 255 255 255 255 255 255 255
255 255 255 255 255 255 255 255 255 255 255 255 255 255 255 255 255
255 255 255 255 255 255 255 255 255 255 255 255 255 255 255 255 255
255 255 255 255 255 255 255 255 255 255 255 255 255 255 255 255 255
255 255 255 255 255 255 255 255 255 255 255 255 255 255 255 255 255
255 255 255 255 255 255 255 255 255 255 255 255 255 255 255 255 255
255 255 255 255 255 255 255 255 255 255 255 255 255 255 255 255 255
255 255 255 255 255 255 255 255 255 255 255 255 255 255 255 255 255
255 255 255 255 255 255 255 255 255 255 255 255 255 255 255 255 255
255 255 255 255 255 255 255 255 255 255 255 255 255 255 255 255 255
255 255 255 255 255 255 255 255 255 255 255 255 255 255 255 255 255
255 255 255 255 255 255 255 255 255 255 255 255 255 255 255 255 255
255 255 255 255 255 255 255 255 255 255 255 255 255 255 255 255 255
255 255 255 255 255 255 255 255 255 255 255 255 255 255 255 255 255
255 255 255 255 255 255 255 255 255 255 255 255 255 255 255 255 255
255 255 255 255 255 255 255 255 255 255 255 255 255 255 255 255 255
255 255 255 255 255 255 255 255 255 255 255 255 255 255 255 255 255
255 255 255 255 254 255 238 186 140 115 107 106 113 134 178 227 255
255 254 255 255 255 255 255 255 255 255 255 255 255 254 255 255 255
255 255 255 255 255 255 255 255 255 255 255 255 255 255 255 255 255
255 255 255 255 255 255 255 255 255 255 255 255 255 255 255 255 255
255 255 255 255 255 255 255 255 255 255 255 255 255 255 255 255 255
255 255 255 255 255 252 255 232 116 69 90 143 182 202 206 207 202 187
150 99 69 104 211 255 254 255 255 255 255 255 255 255 255 255 254 180
236 253 255 255 255 255 255 255 255 255 255 255 255 255 255 255 255
255 255 255 255 255 255 255 255 255 255 255 255 255 255 255 255 255
255 255 255 255 255 255 255 255 255 255 255 255 255 255 255 255 255
255 255 255 255 255 252 255 217 68 88 195 214 194 190 189 189 189 189
189 189 189 193 211 204 106 59 195 255 252 255 255 255 255 255 255
255 255 60 4 218 254 255 255 255 255 255 255 255 255 255 255 255 255
255 255 255 255 255 255 255 255 255 255 255 255 255 255 255 255 255
255 255 255 255 255 255 255 255 255 255 255 255 255 255 255 255 255
255 255 255 255 255 255 253 249 74 98 217 195 188 189 189 189 190 205
202 199 193 189 189 189 189 189 192 221 119 57 245 252 255 255 255
255 255 252 255 68 100 41 255 255 255 255 255 255 255 255 255 255 255
255 255 255 255 255 255 255 255 255 255 255 255 255 255 255 255 255
255 255 255 255 255 255 255 255 255 255 255 255 255 255 255 255 255
255 255 255 255 255 255 253 255 189 41 209 195 188 189 189 189 189
189 183 106 117 117 130 167 209 194 189 189 189 189 192 217 46 185
255 254 255 255 252 255 67 100 41 153 255 255 255 255 255 255 255 255
255 255 255 255 255 255 255 255 255 255 255 255 255 255 255 255 255
255 255 255 255 255 255 255 255 255 255 255 255 255 255 255 255 255
255 255 255 255 255 255 255 255 251 255 105 109 217 187 189 189 189
189 189 189 189 191 208 206 207 192 152 112 121 206 192 189 189 189
188 213 108 125 255 253 255 255 76 119 41 219 255 254 255 255 255 255
255 255 255 255 255 255 255 255 255 255 255 255 255 255 255 255 255
255 255 255 255 255 255 255 255 255 255 255 255 255 255 255 255 255
255 255 255 255 255 255 255 255 255 255 251 255 53 171 198 189 189
189 189 189 189 189 189 189 189 189 189 189 189 189 203 198 107 140
210 188 189 189 189 202 145 107 255 254 255 65 40 255 253 254 255 255
255 255 255 255 255 255 255 255 255 255 255 255 255 255 255 255 255
255 255 255 255 255 255 255 255 255 255 255 255 255 255 255 255 255
255 255 255 255 255 255 255 255 255 255 255 255 251 255 36 199 191
189 189 189 189 189 189 189 189 189 189 189 189 189 189 189 189 189
188 203 172 96 212 187 189 189 189 199 139 138 254 255 58 97 255 255
255 255 255 255 255 255 255 255 255 255 255 255 255 255 255 255 255
255 255 255 255 255 255 255 255 255 255 255 255 255 255 255 255 255
255 255 255 255 255 255 255 255 255 255 255 255 255 255 251 255 34
206 188 189 189 187 188 202 208 193 188 189 189 189 189 189 189 189
189 189 189 189 189 189 205 86 213 187 189 189 190 204 90 204 252 45
136 255 255 255 255 255 255 255 255 255 255 255 255 255 255 255 255
255 255 255 255 255 255 255 255 255 255 255 255 255 255 255 255 255
255 255 255 255 255 255 255 255 255 255 255 255 255 255 255 255 251
255 42 203 187 189 189 194 157 129 118 107 123 201 197 188 189 189
189 189 190 196 203 207 204 200 193 184 197 94 202 197 202 207 204
224 39 255 23 174 255 255 255 255 255 255 255 255 255 255 255 255 255
255 255 255 255 255 255 255 255 255 255 255 255 255 255 255 255 255
255 255 255 255 255 255 255 255 255 255 255 255 255 255 255 255 255
255 253 255 65 189 189 189 189 189 189 190 192 196 209 193 110 116
213 190 206 203 174 141 126 107 116 121 126 130 137 138 146 133 128
123 119 117 116 143 87 5 236 255 255 255 255 255 255 255 255 255 255
255 255 255 255 255 255 255 255 255 255 255 255 255 255 255 255 255
255 255 255 255 255 255 255 255 255 255 255 255 255 255 255 255 255
255 255 255 255 255 114 160 193 189 189 189 189 189 189 189 189 189
187 206 206 75 141 113 120 147 180 183 158 204 198 194 193 193 192
191 192 194 196 201 205 205 205 49 132 255 255 255 255 255 255 255
255 255 255 255 255 255 255 255 255 255 255 255 255 255 255 255 255
255 255 255 255 255 255 255 255 255 255 255 255 255 255 255 255 255
255 255 255 255 255 255 255 253 179 111 200 189 189 189 189 189 189
189 189 189 211 177 119 109 161 193 208 196 189 193 126 194 189 189
189 189 189 189 189 189 189 189 189 189 188 185 25 128 255 255 255
255 255 255 255 255 255 255 255 255 255 255 255 255 255 255 255 255
255 255 255 255 255 255 255 255 255 255 255 255 255 255 255 255 255
255 255 255 255 255 255 255 255 255 255 253 228 55 213 188 189 189
189 189 189 189 193 210 139 105 142 203 203 189 189 189 189 189 213
106 206 189 189 189 189 189 189 189 189 189 189 189 189 216 73 164
116 255 255 255 255 255 255 255 255 255 255 255 255 255 255 255 255
255 255 255 255 255 255 255 255 255 255 255 255 255 255 255 255 255
255 255 255 255 255 255 255 255 255 255 255 255 255 252 255 28 223
187 189 189 189 189 189 193 209 125 107 179 209 189 189 189 189 189
189 189 189 152 166 189 189 189 189 189 189 189 189 189 189 189 189
192 130 202 102 151 238 255 255 255 255 255 255 255 255 255 255 255
255 255 255 255 255 255 255 255 255 255 255 255 255 255 255 255 255
255 255 255 255 255 255 255 255 255 255 255 255 255 255 255 255 254
255 57 205 186 189 189 189 189 189 197 135 106 192 203 188 189 189
189 189 189 189 189 188 213 97 208 189 189 189 189 189 189 189 189
189 189 189 186 208 63 236 127 192 182 255 255 255 255 255 255 255
255 255 255 255 255 255 255 255 255 255 255 255 255 255 255 255 255
255 255 255 255 255 255 255 255 255 255 255 255 255 255 255 255 255
255 255 255 255 139 153 188 189 189 189 189 189 190 180 171 204 188
189 189 189 189 189 189 189 189 188 211 96 203 187 189 189 189 189
189 189 189 189 189 189 187 223 32 255 144 211 239 122 255 255 255
255 255 255 255 255 255 255 255 255 255 255 255 255 255 255 255 255
255 255 255 255 255 255 255 255 255 255 255 255 255 255 255 255 255
255 255 255 255 255 255 255 254 255 36 220 187 189 189 189 189 189
189 190 189 189 189 189 189 189 189 189 189 188 211 110 180 189 190
189 189 189 189 189 189 189 189 189 188 216 50 229 255 75 255 255 94
255 255 255 255 255 255 255 255 255 255 255 255 255 255 255 255 255
255 255 255 255 255 255 255 255 255 255 255 255 255 255 255 255 255
255 255 255 255 255 255 255 255 255 255 255 252 252 25 222 186 189
189 189 189 189 189 189 189 189 189 189 189 189 189 189 201 102 180
192 189 189 189 189 189 189 189 189 189 189 188 217 62 208 251 228
117 254 255 92 255 255 255 255 255 255 255 255 255 255 255 255 255
255 255 255 255 255 255 255 255 255 255 255 255 255 255 255 255 255
255 255 255 255 255 255 255 255 255 255 255 255 255 255 255 255 251
251 26 211 189 189 189 189 189 189 189 189 189 189 189 189 189 189
189 188 199 189 189 189 189 189 189 189 189 189 189 189 186 222 50
208 253 254 98 240 254 255 103 251 255 255 255 255 255 255 255 255
255 255 255 255 255 255 255 255 255 255 255 255 255 255 255 255 255
255 255 255 255 255 255 255 255 255 255 255 255 255 255 255 255 255
255 255 255 255 252 255 46 171 203 188 189 189 189 189 189 189 189
189 189 189 189 189 189 189 189 189 189 189 189 189 189 189 189 189
191 210 31 231 252 252 252 80 255 255 255 130 235 255 255 255 255 255
255 255 255 255 255 255 255 255 255 255 255 255 255 255 255 255 255
255 255 255 255 255 255 255 255 255 255 255 255 255 255 255 255 255
255 255 255 255 255 255 255 255 251 255 125 78 222 189 189 190 189
189 189 189 189 189 189 189 189 189 189 189 189 189 189 189 189 189
189 187 215 137 62 254 252 255 255 94 234 253 255 255 158 214 255 255
255 255 255 255 255 255 255 255 255 255 255 255 255 255 255 255 255
255 255 255 255 255 255 255 255 255 255 255 255 255 255 255 255 255
255 255 255 255 255 255 255 255 255 255 255 255 253 255 222 51 133
219 191 189 189 189 189 189 189 189 189 189 189 189 189 189 189 189
189 189 188 208 184 48 174 255 252 255 252 228 99 255 255 255 255 188
188 255 255 255 255 255 255 255 255 255 255 255 255 255 255 255 255
255 255 255 255 255 255 255 255 255 255 255 255 255 255 255 255 255
255 255 255 255 255 255 255 255 255 255 255 255 255 255 255 255 255
252 255 189 58 117 212 205 189 188 189 189 189 189 189 189 189 189
189 189 189 195 217 166 61 125 254 253 254 255 254 255 43 255 253 255
255 255 203 171 255 255 255 255 255 255 255 255 255 255 255 255 255
255 255 255 255 255 255 255 255 255 255 255 255 255 255 255 255 255
255 255 255 255 255 255 255 255 255 255 255 255 255 255 255 255 255
255 255 255 255 254 254 255 204 94 72 128 192 213 208 199 197 195 195
197 203 212 209 163 89 72 156 252 254 253 255 255 255 254 132 197 253
255 255 255 255 219 153 255 255 255 255 255 255 255 255 255 255 255
255 255 255 255 255 255 255 255 255 255 255 255 255 255 255 255 255
255 255 255 255 255 255 255 255 255 255 255 255 255 255 255 255 255
255 255 255 255 255 255 255 255 255 255 255 255 202 128 91 80 87 93
101 97 91 82 81 103 163 237 255 255 254 255 255 255 255 252 211 101
255 255 255 255 255 255 226 145 255 255 255 255 255 255 255 255 255
255 255 255 255 255 255 255 255 255 255 255 255 255 255 255 255 255
255 255 255 255 255 255 255 255 255 255 255 255 255 255 255 255 255
255 255 255 255 255 255 255 255 255 255 255 255 255 255 255 255 255
255 251 242 237 240 245 254 255 255 255 254 255 255 255 255 255 255
252 249 40 255 254 255 255 255 255 255 229 140 255 255 255 255 255
255 255 255 255 255 255 255 255 255 255 255 255 255 255 255 255 255
255 255 255 255 255 255 255 255 255 255 255 255 255 255 255 255 255
255 255 255 255 255 255 255 255 255 255 255 255 255 255 255 255 255
255 255 255 255 255 255 255 255 255 255 255 255 255 255 255 255 255
255 255 255 252 255 20 255 251 255 255 255 255 255 255 227 143 255
255 255 255 255 255 255 255 255 255 255 255 255 255 255 255 255 255
255 255 255 255 255 255 255 255 255 255 255 255 255 255 255 255 255
255 255 255 255 255 255 255 255 255 255 255 255 255 255 255 255 255
255 255 255 255 255 255 255 255 255 255 255 255 255 255 255 255 255
255 255 255 255 255 255 252 255 20 254 251 255 255 255 255 255 255
255 222 149 255 255 255 255 255 255 255 255 255 255 255 255 255 255
255 255 255 255 255 255 255 255 255 255 255 255 255 255 255 255 255
255 255 255 255 255 255 255 255 255 255 255 255 255 255 255 255 255
255 255 255 255 255 255 255 255 255 255 255 255 255 255 255 255 255
255 255 255 255 255 255 255 255 255 252 250 21 252 252 255 255 255
255 255 255 255 255 213 161 255 255 255 255 255 255 255 255 255 255
255 255 255 255 255 255 255 255 255 255 255 255 255 255 255 255 255
255 255 255 255 255 255 255 255 255 255 255 255 255 255 255 253 255
243 189 138 120 130 163 194 226 254 255 254 254 255 255 255 255 255
255 255 255 255 255 255 255 255 255 255 255 254 254 223 34 255 252
255 255 255 255 255 255 255 255 255 198 178 255 255 255 255 255 255
255 255 255 255 255 255 255 255 255 255 255 255 255 255 255 255 255
255 255 255 255 255 255 255 255 255 255 255 255 255 255 255 255 255
252 255 219 68 30 60 83 88 85 74 60 40 36 74 167 251 255 253 255 255
255 255 255 255 255 255 255 255 255 255 255 252 255 153 86 255 251
255 255 255 255 255 255 255 255 255 255 178 198 255 255 255 255 255
255 255 255 255 255 255 255 255 255 255 255 255 255 255 255 255 255
255 255 255 255 255 255 255 255 255 255 255 255 255 255 255 255 255
252 255 81 38 99 95 92 92 93 93 93 93 93 95 98 68 26 101 248 253 254
255 255 255 255 255 255 255 255 255 254 253 250 54 178 255 252 255
255 255 255 255 255 255 255 255 255 255 145 222 255 255 255 255 255
255 255 255 255 255 255 255 255 255 255 255 255 255 255 255 255 255
255 255 255 255 255 255 255 255 255 255 255 255 255 255 255 255 252
251 24 88 94 92 93 93 93 93 93 93 93 93 93 93 92 97 91 19 144 255 251
255 255 255 255 255 255 255 252 255 159 55 247 253 254 255 255 255
255 255 255 255 255 255 255 255 255 119 242 255 255 255 255 255 255
255 255 255 255 255 255 255 255 255 255 255 255 255 255 255 255 255
255 255 255 255 255 255 255 255 255 255 255 255 255 255 252 254 16 99
92 93 93 93 93 93 93 93 93 93 93 93 93 93 93 93 97 68 46 255 252 255
255 255 255 253 255 205 49 187 255 252 255 255 255 255 255 255 255
255 255 255 255 255 255 255 97 255 255 255 255 255 255 255 255 255
255 255 255 255 255 255 255 255 255 255 255 255 255 255 255 255 255
255 255 255 255 255 255 255 255 255 255 255 253 255 37 99 92 93 93 93
93 93 93 93 93 93 93 93 93 93 93 93 93 93 93 96 19 250 252 255 254
255 203 61 148 255 253 254 255 255 255 255 255 255 255 255 255 255
255 255 255 255 255 89 255 255 255 255 255 255 255 255 255 255 255
255 255 255 255 255 255 255 255 255 255 255 255 255 255 255 255 255
255 255 255 255 255 255 255 255 255 255 127 73 92 93 93 93 93 93 93
93 93 93 93 93 93 93 93 92 96 91 93 93 92 99 22 254 254 164 63 153
255 254 254 255 255 255 255 255 255 255 255 255 255 255 255 255 255
255 255 252 101 255 255 255 255 255 255 255 255 255 255 255 255 255
255 255 255 255 255 255 255 255 255 255 255 255 255 255 255 255 255
255 255 255 255 255 255 253 243 21 97 93 93 93 93 93 93 93 93 93 93
93 93 93 93 93 98 47 99 93 93 96 99 82 35 102 194 255 254 254 255 255
255 255 255 255 255 255 255 255 255 255 255 255 255 255 255 255 220
143 255 255 255 255 255 255 255 255 255 255 255 255 255 255 255 255
255 255 255 255 255 255 255 255 255 255 255 255 255 255 255 255 255
255 255 255 255 107 90 92 93 93 93 93 93 93 93 93 93 93 93 93 93 93
93 98 49 100 96 75 49 44 66 62 192 253 254 255 255 255 255 255 255
255 255 255 255 255 255 255 255 255 255 255 255 255 254 165 206 255
255 255 255 255 255 255 255 255 255 255 255 255 255 255 255 255 255
255 255 255 255 255 255 255 255 255 255 255 255 255 255 255 255 255
255 255 32 97 92 93 93 93 93 93 93 93 93 93 93 93 93 93 93 93 98 43
52 51 73 96 98 93 100 24 254 254 255 255 255 255 255 255 255 255 255
255 255 255 255 255 255 255 255 255 255 255 103 251 255 255 255 255
255 255 255 255 255 255 255 255 255 255 255 255 255 255 255 255 255
255 255 255 255 255 255 255 255 255 255 255 255 255 255 255 206 52 93
93 93 93 93 93 93 93 93 93 93 93 93 93 93 93 93 93 67 84 96 93 92 93
93 93 74 153 254 255 255 255 255 255 255 255 255 255 255 255 255 255
255 255 255 255 255 255 255 82 255 255 255 255 255 255 255 255 255
255 255 255 255 255 255 255 255 255 255 255 255 255 255 255 255 255
255 255 255 255 255 255 255 255 255 255 255 137 82 93 93 93 93 93 93
93 93 93 93 93 93 93 93 93 93 93 92 98 47 65 95 93 93 93 93 99 48 255
255 255 255 255 255 255 255 255 254 254 255 206 131 97 71 57 53 60 77
125 96 244 255 254 255 255 255 255 255 255 255 255 255 255 255 255
255 255 255 255 255 255 255 255 255 255 255 255 255 255 255 255 255
255 255 255 255 255 96 94 93 93 93 93 93 93 93 93 93 93 93 93 93 93
93 93 93 93 92 98 81 50 97 93 93 93 94 35 237 255 255 255 255 255 255
255 251 255 169 35 49 86 94 97 96 97 98 96 68 65 30 63 195 255 253
255 255 255 255 255 255 255 255 255 255 255 255 255 255 255 255 255
255 255 255 255 255 255 255 255 255 255 255 255 255 255 255 77 97 93
93 93 93 93 93 93 93 93 93 93 93 93 93 93 93 93 93 93 93 93 95 92 93
93 93 92 65 180 255 255 255 255 255 255 252 254 49 63 99 92 93 93 93
93 93 93 97 46 99 94 99 56 44 226 254 254 255 255 255 255 255 255 255
255 255 255 255 255 255 255 255 255 255 255 255 255 255 255 255 255
255 255 255 255 255 255 75 98 93 93 93 93 93 93 93 93 93 93 93 93 93
93 93 93 93 93 93 93 93 93 93 93 93 93 93 84 135 255 255 255 255 255
252 254 23 95 93 93 93 93 93 93 93 93 93 99 50 95 93 93 93 100 26 160
255 254 255 255 255 255 255 255 255 255 255 255 255 255 255 255 255
255 255 255 255 255 255 255 255 255 255 255 255 255 255 89 95 93 93
93 93 93 93 93 93 93 93 93 93 93 93 93 93 93 93 93 93 93 93 93 93 93
93 93 90 117 255 255 255 255 253 255 42 96 92 93 93 93 93 93 90 92 92
92 70 79 93 93 93 93 93 98 57 118 255 254 255 255 255 255 255 255 255
255 255 255 255 255 255 255 255 255 255 255 255 255 255 255 255 255
255 255 255 255 120 89 92 93 93 93 93 93 93 93 93 93 93 93 93 93 93
93 93 93 93 93 93 93 93 93 93 93 92 88 122 255 255 255 255 254 134 73
92 93 93 93 93 93 93 96 34 101 97 46 99 92 93 94 96 93 93 95 58 151
254 255 255 255 255 255 255 255 255 255 255 255 255 255 255 255 255
255 255 255 255 255 255 255 255 255 255 255 255 178 66 93 93 93 93 93
93 93 93 93 93 93 93 93 93 93 93 93 93 93 93 93 93 93 93 93 93 93 77
152 255 255 255 253 248 21 97 93 93 93 93 93 93 93 92 90 34 95 61 95
96 100 58 79 93 93 93 97 31 221 252 255 255 255 255 255 255 255 255
255 255 255 255 255 255 255 255 255 255 255 255 255 255 255 255 255
255 255 239 33 94 93 93 93 93 93 93 93 93 93 93 93 93 93 93 93 93 93
93 93 93 93 93 93 93 93 92 53 204 255 255 255 255 125 84 93 93 93 93
93 93 93 93 93 92 97 40 51 61 55 43 80 96 93 93 93 92 101 37 255 254
255 255 255 255 255 255 255 255 255 255 255 255 255 255 255 255 255
255 255 255 255 255 255 255 255 255 255 52 99 93 93 93 93 93 93 93 93
93 93 93 93 93 93 93 93 93 93 93 93 93 93 93 93 93 96 32 251 255 255
255 255 41 98 93 93 93 93 93 93 93 93 93 93 92 96 97 90 94 98 93 93
93 93 93 93 92 59 184 254 255 255 255 255 255 255 255 255 255 255 255
255 255 255 255 255 255 255 255 255 255 255 255 255 255 255 254 169
66 92 93 93 93 93 93 93 93 93 93 93 93 93 93 93 93 93 93 93 93 93 93
93 93 93 98 77 255 255 255 255 228 38 94 92 93 93 93 93 93 93 93 93
93 93 93 93 92 93 93 93 93 93 93 93 93 93 99 64 255 255 255 255 255
255 255 255 255 255 255 255 255 255 255 255 255 255 255 255 255 255
255 255 255 255 255 254 255 27 101 93 93 93 93 93 93 93 93 93 93 93
93 93 93 93 93 93 93 93 93 93 93 93 93 47 206 254 255 255 255 181 65
93 93 93 93 93 93 93 93 93 93 93 93 93 93 93 93 93 93 93 93 93 93 93
93 94 33 246 255 255 255 255 255 255 255 255 255 255 255 255 255 255
255 255 255 255 255 255 255 255 255 255 255 255 255 254 188 50 94 93
93 93 93 93 93 93 93 93 93 93 93 93 93 93 93 93 93 93 93 93 92 99 51
255 255 255 255 255 148 79 93 93 93 93 93 93 93 93 93 93 93 93 93 93
93 93 93 93 93 93 93 93 93 93 93 49 211 255 255 255 255 255 255 255
255 255 255 255 255 255 255 255 255 255 255 255 255 255 255 255 255
255 255 255 254 255 76 87 92 93 93 93 93 93 93 93 93 93 93 93 93 93
93 93 93 93 93 93 93 98 21 234 253 255 255 255 255 140 83 93 93 93 93
93 93 93 93 93 93 93 93 93 93 93 93 93 93 93 93 93 93 93 93 93 66 180
255 255 255 255 255 255 255 255 255 255 255 255 255 255 255 255 255
255 255 255 255 255 255 255 255 255 255 255 251 255 30 97 91 93 93 93
93 93 93 93 93 93 93 93 93 93 93 93 93 93 93 95 54 167 254 255 255
255 255 255 154 77 93 93 93 93 93 93 93 93 93 93 93 93 93 93 93 93 93
93 93 93 93 93 93 93 92 68 174 255 255 255 255 255 255 255 255 255
255 255 255 255 255 255 255 255 255 255 255 255 255 255 255 255 255
255 255 255 251 254 31 88 94 93 93 93 93 93 93 93 93 93 93 93 93 93
93 93 93 96 59 119 255 254 255 255 255 255 255 191 59 93 93 93 93 93
93 93 93 93 93 93 93 93 93 93 93 93 93 93 93 93 93 93 93 93 63 188
255 255 255 255 255 255 255 255 255 255 255 255 255 255 255 255 255
255 255 255 255 255 255 255 255 255 255 255 255 255 252 255 70 56 101
92 92 93 93 93 93 93 93 93 93 93 93 93 92 100 40 133 255 252 255 255
255 255 255 255 239 36 94 93 93 93 93 93 93 93 93 93 93 93 93 93 93
93 93 93 93 93 93 93 93 93 93 43 222 255 255 255 255 255 255 255 255
255 255 255 255 255 255 255 255 255 255 255 255 255 255 255 255 255
255 255 255 255 255 255 252 255 182 25 72 100 93 93 93 93 93 93 93 93
93 92 98 82 20 202 255 252 255 255 255 255 255 255 255 255 48 99 93
93 93 93 93 93 93 93 93 93 93 93 93 93 93 93 93 93 93 93 93 93 93 95
35 254 255 255 255 255 255 255 255 255 255 255 255 255 255 255 255
255 255 255 255 255 255 255 255 255 255 255 255 255 255 255 255 255
254 253 255 146 38 45 84 96 97 95 95 97 97 92 56 28 125 254 253 254
255 255 255 255 255 255 255 255 254 141 79 92 93 93 93 93 93 93 93 93
93 93 93 93 93 93 93 93 93 93 93 93 93 93 98 79 255 255 255 255 255
255 255 255 255 255 255 255 255 255 255 255 255 255 255 255 255 255
255 255 255 255 255 255 255 255 255 255 255 255 255 254 254 255 213
131 76 49 42 41 46 63 108 191 254 254 253 255 255 255 255 255 255 255
255 255 255 253 248 25 99 93 93 93 93 93 93 93 93 93 93 93 93 93 93
93 93 93 93 93 93 93 92 54 200 254 255 255 255 255 255 255 255 255
255 255 255 255 255 255 255 255 255 255 255 255 255 255 255 255 255
255 255 255 255 255 255 255 255 255 255 255 255 255 255 255 255 254
253 255 255 255 255 254 255 255 255 255 255 255 255 255 255 255 255
255 255 254 137 74 92 93 93 93 93 93 93 93 93 93 93 93 93 93 93 93 93
93 93 93 93 101 42 255 255 255 255 255 255 255 255 255 255 255 255
255 255 255 255 255 255 255 255 255 255 255 255 255 255 255 255 255
255 255 255 255 255 255 255 255 255 255 255 255 255 255 255 255 255
255 255 255 255 255 255 255 255 255 255 255 255 255 255 255 255 255
253 255 34 98 92 93 93 93 93 93 93 93 93 93 93 93 93 93 93 93 93 93
93 95 38 212 253 255 255 255 255 255 255 255 255 255 255 255 255 255
255 255 255 255 255 255 255 255 255 255 255 255 255 255 255 255 255
255 255 255 255 255 255 255 255 255 255 255 255 255 255 255 255 255
255 255 255 255 255 255 255 255 255 255 255 255 255 255 255 255 252
246 15 101 92 93 93 93 93 93 93 93 93 93 93 93 93 93 93 93 93 94 70
120 255 254 255 255 255 255 255 255 255 255 255 255 255 255 255 255
255 255 255 255 255 255 255 255 255 255 255 255 255 255 255 255 255
255 255 255 255 255 255 255 255 255 255 255 255 255 255 255 255 255
255 255 255 255 255 255 255 255 255 255 255 255 255 255 255 255 253
234 14 100 92 93 93 93 93 93 93 93 93 93 93 93 93 93 93 94 77 71 255
253 255 255 255 255 255 255 255 255 255 255 255 255 255 255 255 255
255 255 255 255 255 255 255 255 255 255 255 255 255 255 255 255 255
255 255 255 255 255 255 255 255 255 255 255 255 255 255 255 255 255
255 255 255 255 255 255 255 255 255 255 255 255 255 255 255 255 253
247 35 71 98 92 93 93 93 93 93 93 93 93 93 93 92 98 51 92 255 251 255
255 255 255 255 255 255 255 255 255 255 255 255 255 255 255 255 255
255 255 255 255 255 255 255 255 255 255 255 255 255 255 255 255 255
255 255 255 255 255 255 255 255 255 255 255 255 255 255 255 255 255
255 255 255 255 255 255 255 255 255 255 255 255 255 255 255 255 252
255 139 24 76 99 94 93 93 93 93 93 93 94 99 73 23 183 255 252 255 255
255 255 255 255 255 255 255 255 255 255 255 255 255 255 255 255 255
255 255 255 255 255 255 255 255 255 255 255 255 255 255 255 255 255
255 255 255 255 255 255 255 255 255 255 255 255 255 255 255 255 255
255 255 255 255 255 255 255 255 255 255 255 255 255 255 255 255 255
253 254 253 144 52 33 58 78 86 87 79 60 35 51 155 254 254 254 255 255
255 255 255 255 255 255 255 255 255 255 255 255 255 255 255 255 255
255 255 255 255 255 255 255 255 255 255 255 255 255 255 255 255 255
255 255 255 255 255 255 255 255 255 255 255 255 255 255 255 255 255
255 255 255 255 255 255 255 255 255 255 255 255 255 255 255 255 255
255 255 255 254 255 255 238 197 152 132 129 148 190 240 255 254 254
255 255 255 255 255 255 255 255 255 255 255 255 255 255 255 255 255
255 255 255 255 255 255 255 255 255 255 255 255 255 255 255 255 255
255 255 255 255 255 255 255 255 255 255 255 255 255 255 255 255 255
255 255 255 255 255 255 255 255 255 255 255 255 255 255 255 255 255
255 255 255 255 255 255 255 255 255 255 255 255 255 255 255 255 255
255 255 255 255 255 255 255 255 255 255 255 255 255 255 255 255 255
255 255 255 255 255 255 255 255 255 255 255 255 255 255 255 255 255
255 255 255 255 255 255 255 255 255 255 255 255 255 255 255 255 255
255 255 255 255 255 255 255 255 255 255 255 255 255 255 255 255 255
255 255 255 255 255 255 255 255 255 255 255 255 255 255 255 255 255
255 255 255 255 255 255 255 255 255 255 255 255 255 255 255 255 255
255 255 255 255 255 255 255 255 255 255 255 255 255 255 255 255 255
255 255 255 255 255 255 255 255 255 255 255 255 255 255 255 255 255
255 255 255 255 255 255 255 255 255 255 255 255 255 255 255 255 255
255 255 255 255 255 255 255 255 255 255 255 255 255 255 255 255 255
255 255 255 255 255 255 255 255 255 255 255 255 255 255 255 255 255
255 255 255 255 255 255 255 255 255 255 255 255 255 255 255 255 255
255 255 255 255 255 255 255 255 255 255 255 255 255 255 255 255 255
255 255 255 255 255 255 255 255 255 255 255 255 255 255 255 255 255
255 255 255 255 255 255 255 255 255 255 255 255 255 255 255 255 255
255 255 255 255 255 255 255 255 255 255 255 255 255 255 255 255 255
255 255 255 255 255 255 255 255 255 255 255 255 255 255 255 255 255
255 255 255 255 255 255 255 255 255 255 255 255 255 255 255 255 255
255 255 255 255 255 255 255 255 255 255 255 255 255 255 255 255 255
255 255 255 255 255 255 255 255 255 255 255 255 255 255 255 255 255
255 255 255 255 255 255 255 255 255 255 255 255 255 255 255 255 255
255 255 255 255 255 255 255 255 255 255 255 255 255 255 255 255 255
255 255 255 255 255 255 255 255 255 255 255 255 255 255 255 255 255
255 255 255 255 255 255 255 255 255 255 255 255 255 255 255 255 255
255 255 255 255 255 255 255 255 255 255 255 255 255 255 255 255 255
255 255 255 255 255 255 255 255 255 255 255 255 255 255 255 255 255
255 255 255 255 255 255 255 255 255 255 255 255 255 255 255 255 255
255 255 255 255 255 255 255 255 255 255 255 255 255 255 255 255 255
255 255 255 255 255 255 255 255 255 255 255 255 255 255 255 255 255
255 255 255 255 255 255 255 255 255 255 255 255 255 255 255 255 255
255 255 255 255 255 255 255 255 255 255 255 255 255 255 255 255 255
255 255 255 255 255 255 255 255 255 255 255 255 255 255 255 255 255
255 255 255 255 255 255 255 255 255 255 255 255 255 255 255 255 255
255 255 255 255 255 255 255 255 255 255 255 255 255 255 255 255 255
255 255 255 255 255 255 255 255 255 255 255 255 255 255 255 255 255
255 255 255 255 255 255 255 255 255 255 255 255 255 255 255 255 255
255 255 255 255 255 255 255 255 255 255 255 255 255 255 255 255 255
255 255 255 255 255 255 255 255 255 255 255 255 255 255 255 255 255
255 255 255
