P2
89 89
255
85 85 85 86 86 87 87 87 87 87 87 88 86 86 86 86 83 99 87 89 85 83 80
93 86 75 80 75 79 76 78 78 78 78 79 77 75 75 79 80 78 77 78 76 77 84
85 83 94 133 101 94 95 94 93 93 88 130 121 123 125 123 113 123 115
129 125 74 38 102 152 66 49 81 88 98 92 67 105 142 96 59 80 91 98 71
81 80 79 85 84 86 85 86 87 86 86 87 87 87 87 87 86 86 86 87 87 82 107
78 82 81 79 78 78 89 76 75 77 78 79 78 79 79 76 75 78 75 77 77 78 77
72 85 86 89 95 110 108 93 96 95 94 96 98 88 109 128 130 114 118 122
115 104 126 105 113 86 64 48 92 48 57 61 43 81 87 73 70 82 88 79 80
70 75 78 78 78 81 84 86 81 83 84 88 85 86 87 87 86 86 86 86 85 87 87
86 75 87 75 81 81 81 82 78 81 85 84 80 79 79 80 79 77 78 77 76 77 78
77 76 115 82 88 91 92 99 92 95 96 95 96 98 93 92 96 116 102 120 113
113 118 112 101 96 99 126 107 72 48 48 52 97 105 69 73 78 79 76 75 77
77 77 77 76 75 76 94 96 84 85 84 88 95 85 85 87 84 83 84 82 84 85 86
88 88 84 88 83 74 79 82 83 86 86 85 84 81 79 77 78 76 76 76 75 76 79
74 69 145 119 79 89 91 94 92 94 96 98 96 96 94 90 119 121 114 87 114
131 112 110 97 121 87 69 77 119 142 74 75 83 110 100 79 71 75 77 78
79 78 77 78 77 77 78 79 121 107 121 135 127 113 97 87 84 84 80 85 82
81 83 85 84 84 84 77 78 86 79 77 72 74 76 75 77 77 72 81 89 65 79 77
77 78 81 77 81 109 119 82 91 92 95 95 94 95 98 99 97 96 86 130 137
135 135 120 121 110 126 123 128 96 105 91 78 104 106 99 81 86 101 77
82 90 80 80 80 80 81 79 79 79 79 82 77 125 132 134 126 98 74 90 81 78
81 80 81 78 81 78 81 74 81 78 75 74 78 72 76 80 81 78 85 81 93 81 93
120 116 72 80 78 80 87 92 93 92 85 96 93 95 97 97 96 96 96 96 97 96
96 100 115 112 105 101 106 137 125 116 115 99 91 94 115 81 85 88 93
101 59 75 84 102 84 87 85 87 88 88 85 84 80 77 76 111 136 123 129 124
117 122 116 91 88 87 72 76 71 93 95 124 84 93 116 99 94 111 88 104 83
74 74 82 90 77 110 112 84 86 86 88 89 91 93 93 93 96 96 96 96 97 96
96 96 96 96 97 97 97 94 91 93 95 97 94 91 138 133 122 120 103 143 87
88 88 88 89 90 105 83 80 99 97 85 85 87 95 80 83 81 77 77 78 91 86 80
90 75 97 106 101 129 96 111 93 97 104 112 117 105 73 80 98 89 89 88
74 72 77 79 98 120 95 75 85 87 94 93 93 94 94 94 93 93 96 97 97 97 96
96 97 96 97 97 97 97 97 97 97 97 98 98 97 98 94 97 109 104 108 123
105 91 88 87 88 89 84 92 118 90 90 111 88 101 85 79 101 89 81 78 79
77 69 69 70 70 73 70 71 74 75 73 78 81 88 100 88 60 67 98 106 71 74
77 77 77 82 76 111 153 106 88 95 93 92 95 96 95 95 95 95 95 95 95 95
96 96 95 96 96 96 96 97 97 95 97 97 97 97 97 97 98 98 98 97 98 92 95
88 90 89 87 87 87 88 87 81 92 92 85 95 119 104 82 91 88 74 78 78 76
78 73 74 75 75 75 75 75 75 74 74 73 73 74 73 74 78 80 108 125 124 73
79 78 82 78 92 105 112 84 94 95 96 96 96 95 95 95 96 96 95 95 95 96
89 94 97 96 96 97 95 96 96 94 95 97 97 97 97 96 97 98 98 99 97 94 98
97 83 85 86 86 86 85 85 85 83 92 91 87 105 126 96 75 87 79 75 78 78
78 72 73 74 75 76 75 75 75 75 75 75 75 75 76 75 76 76 65 90 86 85 79
88 81 94 96 94 85 93 96 96 97 96 95 96 95 95 97 94 93 97 91 94 124 95
88 92 97 97 96 95 95 94 102 95 96 97 96 96 98 98 98 98 98 99 137 78
86 86 86 86 86 85 85 85 82 83 82 84 85 90 109 88 73 81 77 77 76 78 72
73 73 73 73 73 73 73 74 77 76 77 77 76 75 74 75 77 68 71 86 83 92 79
89 86 91 92 94 95 95 96 96 96 96 95 95 93 104 135 139 149 107 113 119
128 107 83 90 90 88 92 112 114 93 97 97 96 96 98 98 97 98 97 101 135
99 88 88 87 86 86 86 86 85 83 83 85 83 81 82 82 92 82 80 80 81 83 76
73 73 73 73 73 73 74 74 76 76 77 75 76 76 76 76 76 75 81 84 83 87 86
87 86 92 93 94 95 95 95 96 96 97 97 97 97 97 96 102 115 116 97 93 142
145 149 136 123 125 116 107 147 120 90 96 98 98 98 97 97 96 99 91 124
111 113 85 88 87 86 86 86 86 84 83 84 84 84 83 82 83 81 81 82 82 82
82 77 74 73 72 71 73 73 74 75 76 77 77 77 76 76 76 77 76 79 84 85 83
86 88 89 92 93 94 95 97 95 95 96 96 97 96 96 96 97 93 103 126 144 147
156 164 156 152 159 145 135 154 144 153 111 88 96 98 98 98 96 96 97
95 107 148 132 128 94 88 87 86 85 85 86 86 85 84 84 84 84 83 84 82 82
81 80 81 79 82 73 71 71 70 74 73 73 74 76 76 77 76 76 76 76 76 76 77
81 84 87 90 88 91 93 94 95 96 96 95 95 96 96 96 96 98 97 96 101 145
156 148 147 144 157 161 160 162 166 153 138 134 135 87 94 96 98 98 98
97 96 97 92 112 112 135 129 101 86 88 86 86 85 86 87 86 84 83 83 84
84 84 84 84 83 83 83 81 79 70 71 71 71 72 73 75 76 77 78 77 77 77 77
77 77 77 79 83 85 88 90 90 91 93 95 95 96 97 96 95 92 88 95 98 97 99
84 122 152 151 157 162 162 164 167 170 171 140 153 178 134 89 95 93
96 97 98 98 96 96 97 88 114 149 140 140 104 85 88 87 87 86 86 86 86
84 84 85 85 85 85 84 82 82 82 82 82 80 71 70 71 72 73 74 76 76 77 78
77 77 77 77 77 77 76 81 87 87 88 90 91 93 94 94 96 97 95 90 91 128
145 94 94 98 91 110 163 159 147 156 158 162 171 183 149 144 155 152
157 85 141 105 90 95 97 98 98 96 96 96 94 135 149 149 154 111 74 88
88 89 85 85 84 84 85 85 85 85 85 85 84 82 82 82 82 82 81 72 71 73 74
76 76 77 77 78 77 77 77 77 77 77 77 78 84 85 87 90 92 93 94 94 94 95
95 88 101 145 176 167 161 90 86 87 129 152 151 158 162 164 167 170
167 166 163 165 159 110 91 97 97 93 95 97 98 98 97 97 97 92 130 155
152 159 120 119 134 95 88 90 88 88 87 86 85 87 86 84 84 83 82 82 83
83 82 82 71 71 73 75 77 77 77 77 77 77 77 76 77 77 77 78 81 86 88 92
94 95 94 94 94 95 95 85 117 150 168 162 160 171 133 139 146 132 158
153 159 163 161 161 166 166 170 167 178 159 75 91 98 97 96 96 97 97
97 96 96 97 87 127 165 154 150 154 154 145 125 87 92 92 92 92 89 85
84 84 84 85 83 82 83 83 82 82 82 72 72 73 76 77 77 78 78 77 77 77 77
77 77 76 77 85 91 91 94 94 94 94 94 94 91 89 101 152 163 177 178 165
168 170 187 166 166 151 157 168 162 164 174 167 158 164 174 171 177
163 101 80 90 99 97 97 97 97 97 97 96 87 140 176 156 153 161 162 149
109 95 91 93 93 94 95 92 86 81 84 84 84 83 84 84 82 82 82 74 74 75 76
77 77 78 78 78 77 77 77 77 77 76 85 93 92 93 94 94 94 95 95 92 99 117
154 151 176 177 174 171 172 189 201 175 160 176 183 178 164 172 179
171 165 158 166 169 177 175 168 164 115 82 97 96 96 94 97 97 98 93
160 177 154 159 158 158 154 111 97 94 94 95 95 94 93 94 88 85 85 85
83 84 84 81 82 82 74 74 75 76 76 77 78 78 77 77 76 77 77 77 79 91 93
93 92 94 94 96 91 84 100 116 158 162 157 171 174 178 181 173 188 185
190 183 185 182 172 174 185 177 174 171 169 158 158 164 176 184 167
188 144 75 88 96 99 98 97 86 121 179 165 166 166 158 160 159 117 99
93 95 96 96 94 94 95 94 87 83 85 84 84 83 82 82 82 75 74 75 75 75 75
77 76 77 75 75 74 75 76 82 91 92 93 93 94 94 89 98 124 92 134 133 178
174 168 169 173 172 168 173 172 176 187 189 183 169 167 175 191 178
180 178 177 168 158 167 167 167 166 192 178 120 82 138 105 94 88 164
167 176 167 157 163 171 153 131 104 89 94 95 96 96 96 96 95 91 86 86
86 84 82 82 82 82 75 74 74 78 82 81 79 78 77 76 75 77 79 85 93 92 93
95 95 94 93 92 136 157 96 165 174 172 167 157 163 168 172 189 183 187
186 185 186 174 175 175 169 172 176 180 178 184 189 185 186 168 162
173 171 194 211 160 91 87 75 133 190 197 191 170 161 166 173 146 126
130 98 91 96 95 95 95 95 95 94 92 86 84 84 82 83 83 83 75 73 75 83 88
87 86 89 89 87 86 90 92 92 91 92 93 95 95 94 91 104 144 148 174 188
176 184 184 188 184 169 169 190 197 183 184 178 158 163 189 174 185
183 186 182 186 190 195 194 195 204 175 172 171 197 193 202 191 117
133 188 175 189 198 195 184 191 166 145 131 89 115 89 96 95 95 95 96
95 95 92 90 87 88 87 84 83 84 75 75 76 84 90 89 90 91 91 91 91 93 92
91 92 92 93 95 94 95 95 83 143 158 181 167 177 186 180 186 181 176
185 190 207 205 149 131 178 201 184 195 199 197 180 199 198 192 192
194 202 208 218 198 180 197 196 186 179 208 221 193 184 190 188 187
183 173 157 141 130 101 105 91 96 96 95 95 94 93 92 92 90 91 91 88 84
81 87 75 74 74 86 90 90 91 91 90 91 90 92 91 91 93 93 93 94 95 96 78
130 181 180 191 204 186 189 195 195 188 193 189 197 194 186 164 179
200 209 191 198 201 190 187 186 188 193 207 201 206 211 205 217 218
197 189 185 168 174 201 221 202 192 174 172 175 180 163 141 136 120
118 87 94 95 95 94 94 93 92 92 90 92 91 91 99 101 80 75 79 80 88 89
91 90 90 90 91 91 93 92 92 94 94 93 95 96 80 98 186 185 193 196 182
191 202 198 172 180 196 187 187 204 188 194 195 195 194 197 195 191
185 189 186 186 190 201 196 203 203 201 208 206 211 214 178 167 203
199 192 207 187 170 177 186 174 157 151 140 124 110 81 95 96 95 95 93
93 92 92 90 91 90 92 92 82 90 85 89 87 87 89 89 90 90 91 92 93 95 94
93 94 90 85 81 70 106 202 203 196 197 195 187 183 182 192 180 182 187
190 196 196 202 198 190 190 200 198 193 182 183 178 189 194 192 194
197 197 192 199 202 204 226 227 209 214 197 216 218 212 198 177 173
193 160 165 149 147 143 138 131 93 87 96 95 95 94 93 92 91 91 92 90
83 99 95 79 89 89 88 89 89 89 90 91 91 93 92 93 94 79 93 121 141 167
216 201 193 194 193 184 187 193 184 164 179 198 200 191 191 188 196
197 200 198 194 183 173 191 195 187 174 188 206 202 202 192 192 193
197 192 207 211 219 203 210 200 216 221 207 184 166 185 172 172 163
158 172 141 140 169 99 89 95 96 95 94 93 92 91 89 91 89 87 91 80 89
88 89 88 87 85 91 91 93 84 78 78 80 137 202 207 216 207 195 188 189
187 186 188 187 194 189 186 199 203 193 188 202 197 189 197 199 193
175 178 192 199 194 179 185 187 209 206 196 185 200 186 181 187 192
203 207 200 199 223 207 214 214 201 169 161 188 182 175 149 159 163
138 141 158 107 92 95 95 94 93 89 114 112 86 89 88 86 89 87 88 89 89
87 88 91 91 71 113 169 148 178 181 158 171 204 203 197 194 192 191
188 195 192 200 188 195 197 184 168 185 198 199 197 195 190 185 179
195 191 193 198 175 199 211 191 181 191 192 192 195 194 184 201 210
210 203 203 217 213 201 215 210 200 211 204 190 166 142 170 186 186
146 120 161 111 93 93 94 93 91 99 96 88 89 88 88 89 85 87 90 90 91 91
88 74 130 179 185 186 185 162 172 178 154 177 179 190 186 173 178 182
185 189 193 193 183 181 176 184 191 188 188 185 191 196 197 195 195
192 202 173 189 187 172 181 192 194 196 193 198 196 211 215 216 203
198 215 221 219 203 212 210 210 204 186 188 130 154 184 184 172 132
164 108 89 93 93 93 93 93 90 90 88 88 89 81 84 86 88 91 83 88 84 156
189 163 178 172 165 179 182 177 177 169 164 169 175 170 168 180 186
182 190 182 190 194 191 179 182 175 176 184 184 182 189 187 190 181
177 183 159 168 186 188 178 187 191 194 197 203 215 223 219 221 222
213 219 206 200 217 207 203 210 177 203 204 157 173 198 201 148 115
110 87 94 95 95 94 95 92 90 89 88 87 74 74 82 87 81 115 78 162 182
169 177 167 174 168 160 164 158 168 175 179 165 170 178 177 177 172
173 176 185 193 189 183 183 183 184 183 186 177 178 180 182 172 162
166 182 163 165 165 175 177 182 189 190 206 199 215 223 233 234 231
220 197 191 211 213 209 212 197 201 213 207 194 194 178 200 164 135
137 79 88 93 94 94 94 92 89 90 89 86 74 74 85 89 76 131 149 169 163
176 171 177 167 188 160 155 149 152 154 168 185 172 162 168 175 176
183 180 179 183 188 197 186 186 193 189 171 180 196 177 176 181 181
188 173 170 163 165 165 168 170 178 178 210 223 216 219 200 196 225
210 197 217 199 182 207 206 202 215 202 192 201 173 188 204 185 127
165 136 108 96 95 96 95 93 91 90 89 88 72 84 90 89 74 135 172 160 194
167 183 172 183 187 158 153 159 154 157 159 152 155 166 180 184 175
166 173 176 178 184 171 165 178 178 179 173 174 188 169 177 187 177
180 184 182 186 190 175 179 184 177 186 202 222 223 194 180 176 221
211 189 222 188 176 196 192 189 187 184 212 226 175 170 206 203 162
138 183 129 95 95 96 95 94 95 90 85 84 82 90 88 88 78 132 169 164 166
170 174 159 167 143 157 158 172 175 166 164 161 151 172 177 172 177
167 168 174 168 179 173 170 161 175 165 177 188 184 189 172 173 180
176 179 173 181 180 182 175 190 179 177 208 220 220 210 183 200 221
225 194 197 213 161 186 192 184 203 224 203 216 153 162 222 194 113
156 161 158 106 86 97 96 96 95 83 86 81 85 89 88 85 99 181 172 164
179 177 162 152 140 154 156 151 155 164 175 167 157 167 170 168 173
185 181 176 181 167 162 178 172 169 182 188 180 187 191 197 186 175
169 171 175 177 170 174 173 172 176 173 188 204 201 221 204 197 210
212 206 203 210 213 185 195 212 200 208 199 153 192 160 189 205 171
153 181 161 148 140 85 93 96 95 89 83 83 80 86 88 89 84 97 177 165
190 192 185 163 156 157 160 155 155 158 154 160 172 169 168 163 179
187 185 176 179 179 167 177 181 182 188 187 192 178 169 175 173 172
174 172 184 179 173 173 175 167 170 167 185 207 199 195 212 202 207
210 236 213 226 222 193 220 192 175 179 195 154 185 196 174 195 189
164 161 176 168 143 158 127 88 97 91 85 81 81 80 88 88 89 86 89 160
173 167 179 190 178 180 175 160 156 170 171 172 163 179 177 165 168
174 180 163 190 189 174 166 170 182 179 181 184 175 179 171 177 172
161 165 173 159 167 185 190 180 198 176 189 205 201 201 208 199 221
229 218 241 229 213 241 213 200 218 195 187 182 186 195 188 160 187
160 152 157 145 174 171 162 169 106 85 96 86 86 83 80 89 89 89 88 80
90 178 187 188 190 196 183 173 155 153 163 168 177 169 179 183 188
176 171 182 182 195 185 185 185 175 178 182 184 175 178 173 173 168
162 167 171 164 174 176 190 184 181 186 176 188 202 202 210 201 219
250 245 244 243 218 194 193 197 209 181 196 196 173 160 167 140 150
158 149 116 139 164 181 179 148 169 124 109 96 85 85 83 81 89 87 89
86 109 93 122 195 189 192 198 176 163 156 161 151 169 177 174 183 175
187 182 176 180 182 178 177 181 174 180 183 180 170 176 175 175 176
172 178 181 162 167 181 169 175 172 180 185 171 181 199 198 203 207
249 245 240 251 230 211 232 201 218 215 167 175 195 176 154 167 157
131 135 103 139 124 162 177 170 126 145 132 135 85 83 82 82 83 88 88
89 85 101 131 135 188 186 195 182 167 169 171 183 164 170 177 179 170
173 179 180 177 177 170 164 181 169 166 166 168 167 177 181 178 181
172 168 160 159 172 160 161 163 166 169 173 186 176 216 224 193 210
225 251 248 233 245 203 227 239 219 216 213 185 175 191 191 168 179
186 158 159 138 154 176 160 158 147 142 118 126 137 78 82 83 80 82 88
89 89 89 79 139 185 180 191 179 165 167 161 153 161 168 164 171 165
166 159 173 173 169 174 178 174 177 181 167 169 172 169 175 173 176
177 170 169 162 163 171 170 192 194 179 160 154 167 188 239 250 226
211 251 250 250 253 215 217 203 226 219 206 211 190 158 182 186 180
184 185 174 174 157 163 182 149 136 176 139 130 132 109 77 83 83 82
83 76 86 90 89 84 97 136 130 167 160 166 165 162 148 142 149 169 166
162 170 162 154 158 174 167 181 179 181 175 175 170 170 168 169 172
175 172 173 178 180 174 167 158 161 170 186 187 185 193 201 187 239
247 244 246 251 253 240 212 232 245 244 208 200 211 215 205 198 172
175 182 165 168 153 178 179 191 174 164 175 130 127 145 121 74 85 83
82 80 74 75 89 89 91 79 116 134 149 143 149 183 175 174 163 145 153
162 154 156 166 162 163 161 176 171 158 167 179 169 176 180 173 176
178 175 176 180 182 183 192 183 169 164 155 163 182 204 226 249 233
240 250 246 243 243 244 224 242 251 251 233 197 206 228 232 235 215
184 188 170 160 162 173 157 173 180 162 152 154 122 134 151 107 75 85
84 83 79 77 74 79 88 89 89 88 138 151 160 144 169 183 171 173 174 146
163 172 153 144 162 165 159 168 172 163 161 170 173 181 180 180 181
180 175 177 176 184 191 190 184 184 181 169 166 182 198 213 219 248
238 216 237 230 209 205 230 253 251 249 229 204 211 192 188 212 195
187 174 167 160 162 173 161 185 177 171 155 142 132 120 115 125 82 84
85 84 82 75 75 74 79 87 90 82 115 138 154 163 143 189 182 168 173 146
145 157 169 154 143 165 166 164 164 169 169 170 166 171 177 180 182
178 182 184 173 175 186 194 192 189 181 181 171 155 175 177 175 194
209 211 238 237 219 189 230 240 252 253 210 187 203 195 219 222 198
188 161 160 172 168 168 194 190 187 167 166 147 143 92 119 127 83 83
84 83 82 74 75 76 73 75 86 87 95 124 135 155 164 167 184 184 165 158
164 180 135 163 163 150 159 148 144 164 171 170 170 175 179 180 187
183 187 180 173 174 165 181 180 183 178 176 163 164 164 174 179 165
181 247 248 252 208 171 221 239 249 249 210 198 210 233 224 197 198
179 166 153 181 170 162 169 174 159 172 166 153 139 130 134 94 78 85
83 82 82 75 75 75 74 75 78 85 82 129 128 138 175 161 163 169 151 133
158 167 138 141 166 153 155 143 155 162 168 176 177 185 186 184 189
188 186 187 188 172 169 170 176 180 186 176 164 163 166 173 206 176
171 239 245 209 160 166 207 245 248 250 218 194 234 241 187 183 176
175 165 158 168 173 154 133 156 154 148 139 122 116 104 94 90 81 85
83 83 82 75 76 76 75 76 77 82 80 120 137 125 159 163 167 167 142 136
117 123 158 152 140 158 170 139 145 161 175 176 175 181 184 186 181
187 189 181 162 168 180 172 174 178 185 185 181 161 162 186 189 193
165 183 175 158 160 169 209 226 230 214 205 212 230 175 153 164 150
185 166 157 154 168 147 133 118 142 139 137 108 104 88 76 84 82 85 84
83 82 75 76 77 77 77 77 74 80 95 143 136 147 138 167 162 166 117 129
137 130 161 154 148 175 170 142 180 176 166 174 181 182 175 182 180
186 173 165 151 143 163 180 180 175 181 188 178 143 214 217 190 175
156 160 180 170 170 207 184 188 208 205 203 184 169 152 160 191 184
156 162 165 152 134 135 129 135 147 157 147 102 80 91 85 82 84 84 82
81 75 76 77 77 78 77 77 74 81 130 163 127 122 161 157 179 196 145 130
139 127 151 163 156 170 182 179 170 170 168 169 173 171 186 170 125
99 91 80 73 90 144 148 141 182 192 175 170 157 209 193 202 162 168
178 162 165 211 208 192 185 205 208 182 165 161 165 170 175 172 166
144 132 144 155 136 142 143 130 71 73 95 106 77 83 84 83 81 81 75 76
77 78 77 77 77 77 75 91 130 137 145 133 180 171 147 172 133 114 152
128 162 183 161 170 179 169 169 165 155 160 136 115 93 78 91 95 94 93
91 82 83 84 81 125 158 149 150 181 202 188 146 179 142 172 139 211
222 192 175 178 174 169 165 180 193 164 170 173 141 147 154 142 141
141 131 133 176 147 99 89 91 80 83 83 82 81 79 76 76 76 77 77 76 78
77 80 80 107 142 138 146 179 174 159 151 140 126 131 165 143 166 135
146 155 171 139 93 88 102 86 80 89 92 93 94 94 95 94 95 96 95 93 96
106 146 154 158 151 144 179 124 92 174 154 208 185 167 162 165 152
165 180 185 181 175 163 141 133 144 145 157 158 156 145 114 139 148
101 93 82 83 83 83 81 80 79 76 76 75 76 77 76 77 77 83 87 105 129 141
142 160 163 163 163 144 143 132 150 160 117 133 157 146 96 78 90 92
89 89 88 88 87 87 89 91 93 93 95 96 96 96 94 92 116 131 160 173 164
166 84 149 166 148 195 184 165 203 198 171 163 180 164 180 182 167
144 146 156 156 170 176 155 133 101 143 110 99 82 84 83 83 83 82 79
78 74 74 74 76 76 74 74 83 88 83 112 126 130 178 166 169 177 170 152
147 144 149 142 134 144 154 95 83 91 88 87 85 85 85 85 85 85 84 85 86
86 89 93 94 95 96 96 90 113 116 151 159 100 102 145 145 163 165 159
139 185 211 173 169 170 161 156 184 167 165 158 163 142 138 142 137
124 83 87 94 78 83 84 83 83 82 82 80 80 74 74 76 75 76 75 83 86 83
106 101 109 115 167 169 168 168 140 148 150 117 116 112 123 144 108
86 88 86 83 84 85 85 85 85 85 85 85 85 85 85 85 85 86 88 91 94 93 110
111 141 86 79 120 124 129 142 118 126 155 174 189 182 162 158 165 161
152 169 171 166 155 118 112 137 79 87 108 89 84 80 83 83 83 83 81 81
79 78 75 75 75 75 75 76 88 86 86 107 104 130 128 144 166 137 129 138
91 78 77 78 80 86 79 75 81 84 86 85 83 84 86 86 86 85 85 85 85 85 85
85 85 85 85 85 88 93 100 142 103 87 107 129 96 125 116 127 158 151
153 159 195 170 158 162 159 162 157 180 150 133 132 152 125 92 98 95
95 80 83 84 83 83 82 81 80 79 77 75 75 77 75 75 74 78 85 86 89 113
127 139 139 140 137 99 68 73 80 82 81 82 81 80 83 83 84 83 84 84 85
86 86 86 86 85 85 85 85 85 85 85 85 85 86 86 88 91 113 96 93 95 99 96
115 117 133 148 152 149 146 170 188 167 163 162 167 175 141 128 129
135 135 124 115 88 100 85 84 84 83 83 83 82 79 79 79 80 75 75 76 75
75 75 74 75 76 80 88 96 103 122 119 98 76 76 78 79 80 81 82 81 83 83
83 84 83 84 85 84 85 86 86 86 85 85 85 85 85 84 84 84 84 85 85 82 87
84 87 106 107 95 97 102 140 116 129 160 159 160 146 161 199 181 176
196 150 117 139 137 136 123 97 73 77 90 82 83 83 84 83 83 82 83 80 80
78 75 75 75 75 75 75 75 75 75 76 74 72 74 86 83 73 80 80 79 78 79 81
81 80 82 81 82 85 85 85 85 85 85 85 85 85 84 84 84 85 85 83 83 83 83
83 83 84 84 85 87 110 127 104 87 89 104 121 126 144 102 159 192 165
178 152 173 144 120 150 110 126 128 104 120 74 96 85 83 83 84 84 83
83 82 83 81 80 81 75 75 75 75 75 75 75 75 75 76 77 77 77 74 76 78 77
77 77 78 79 81 81 81 82 82 82 85 85 85 85 85 85 85 85 85 84 84 84 85
85 83 83 83 83 83 83 83 83 81 84 86 83 92 94 94 87 106 129 125 105
127 165 142 135 150 124 99 125 117 98 92 112 108 91 84 91 82 83 84 84
84 83 84 83 80 80 80 81 74 74 75 75 75 75 75 75 75 75 75 75 76 77 78
78 77 79 78 79 79 81 81 80 82 82 83 85 85 85 85 85 85 85 85 85 84 84
84 85 85 83 84 84 84 83 85 84 84 82 79 79 83 87 87 89 88 116 147 181
180 184 141 121 148 154 145 132 120 98 86 68 67 74 70 102 81 84 84 84
84 84 84 81 81 81 80 80 80 75 75 75 76 75 75 75 76 77 76 76 76 78 78
78 78 78 78 78 79 81 82 81 81 81 81 83 83 84 83 83 83 83 84 84 84 84
84 84 84 84 84 83 83 83 83 84 84 84 83 81 80 83 84 83 86 85 113 126
124 161 147 136 127 73 102 136 107 117 96 68 68 74 48 71 92 82 84 82
83 83 83 82 81 80 81 80 80 80 76 76 76 75 77 77 76 76 77 77 77 77 78
78 78 78 78 78 78 80 81 82 81 81 81 81 83 83 83 83 83 83 84 84 84 84
84 84 84 84 84 84 83 83 83 83 84 84 84 84 83 82 82 83 83 83 84 83 118
115 132 108 132 110 76 111 107 76 98 94 65 106 81 80 73 89 84 84 81
82 83 83 82 81 81 81 80 80 80 76 75 76 76 76 77 77 78 80 78 78 78 78
79 79 79 79 79 79 80 80 81 81 81 81 81 82 83 83 83 83 83 84 85 84 84
84 84 84 84 84 84 84 84 84 83 84 84 84 84 84 83 84 85 85 85 85 81 86
95 105 127 118 109 108 111 122 82 55 100 110 89 98 90 91 85 83 81 80
82 83 83 82 81 81 81 80 80 80 76 76 76 76 77 77 77 77 78 78 78 78 79
79 79 79 79 79 79 80 80 80 81 82 82 82 82 82 83 83 83 84 84 84 83 84
84 84 84 84 84 84 84 84 84 84 84 84 84 84 84 84 84 84 85 85 82 81 81
83 89 87 98 90 98 84 93 131 122 111 93 85 85 86 85 85 83 82 80 82 82
82 82 81 81 81 80 80 80 77 77 77 77 78 78 78 77 78 77 77 78 78 79 79
79 80 80 80 80 80 80 81 83 83 83 82 82 83 83 84 84 83 82 83 84 84 84
83 84 84 84 84 85 85 85 84 84 84 84 84 84 83 83 83 83 81 82 82 83 85
88 88 90 88 92 86 90 103 90 87 88 85 85 83 83 84 85 81 82 82 82 82 81
81 81 81 80 79 77 77 77 76 78 78 78 78 79 77 76 78 78 80 80 80 81 81
81 81 81 81 82 83 83 83 82 83 84 83 83 84 84 84 83 84 84 83 83 84 84
84 85 85 85 85 84 84 84 84 84 84 83 83 83 83 82 83 83 83 82 86 90 87
90 90 90 89 87 90 90 87 86 85 84 83 83 83 83 82 82 82 81 81 81 81 81
80 79 77 77 77 77 78 78 78 78 78 78 78 79 79 80 80 80 81 81 81 81 81
81 81 83 83 83 82 83 83 84 83 83 84 83 84 84 84 83 83 84 84 85 84 85
85 85 85 84 84 84 84 84 84 83 83 83 83 83 83 82 80 83 87 91 109 88 91
91 91 88 90 87 85 84 83 83 83 83 83 82 82 82 82 81 81 81 81 80 80 77
76 77 77 78 78 78 78 78 78 78 81 80 80 80 80 81 81 81 81 81 81 81 82
81 82 84 84 84 84 84 83 83 85 85 85 85 85 85 85 85 85 85 85 84 84 85
85 86 83 83 83 84 84 84 83 83 83 83 83 81 81 85 86 88 85 90 92 92 88
84 94 82 84 84 83 83 83 83 83 83 84 83 82 82 82 81 81 81 76 77 77 77
78 78 78 78 78 78 79 80 80 80 80 80 81 81 81 81 81 81 81 82 82 82 84
84 84 84 83 83 84 85 85 85 85 85 85 85 85 85 85 85 85 85 85 85 86 83
83 83 83 83 83 83 83 83 83 82 82 82 82 85 80 121 105 86 85 82 92 105
81 84 84 84 83 83 83 83 83 83 81 82 82 82 81 81 81 76 78 78 76 78 78
78 78 78 77 78 80 80 80 80 80 81 81 81 81 81 81 81 82 83 83 84 84 84
84 83 84 85 85 85 85 85 85 85 85 85 85 85 85 85 85 85 85 83 82 83 83
83 83 83 83 83 83 83 82 83 82 81 84 85 97 113 123 121 122 139 99 78
83 84 84 84 84 84 84 84 84 83 82 82 82 81 81 81 76 76 76 77 77 78 79
79 78 79 79 81 81 81 81 81 81 81 81 82 82 82 82 82 83 84 84 84 84 84
84 83 84 85 85 85 85 85 85 85 85 85 85 85 85 84 83 83 83 82 83 83 83
83 83 83 82 82 82 82 82 82 82 82 83 90 55 107 117 125 95 79 84 83 83
83 83 83 84 84 84 82 83 82 82 83 82 82 81 76 75 76 77 77 78 79 79 79
79 79 81 81 81 81 81 81 81 81 82 82 82 82 82 83 83 84 84 84 84 84 84
85 85 85 85 85 85 85 85 85 85 85 85 85 84 83 83 84 83 83 83 83 83 83
83 82 82 82 82 82 82 82 81 81 92 95 66 81 76 84 85 83 83 83 83 84 84
84 84 84 81 82 82 82 83 83 82 81 76 76 76 77 78 79 79 79 79 79 79 81
81 81 81 81 81 81 81 82 82 82 83 84 82 82 83 82 83 84 84 84 84 85 85
85 85 85 85 85 85 85 86 85 85 84 83 84 83 84 84 84 83 83 83 83 82 82
82 82 82 82 82 81 82 83 103 99 106 113 74 90 82 84 83 83 84 84 83 84
84 82 82 82 82 82 83 82 81 76 76 77 77 78 78 79 79 79 79 79 81 81 81
81 81 81 81 81 82 82 82 83 84 84 82 82 82 82 84 84 84 84 85 85 85 85
85 85 85 85 85 85 84 84 84 83 84 83 83 84 84 83 83 83 83 82 82 82 82
82 82 82 81 82 80 92 76 93 81 87 83 83 83 83 83 83 84 84 83 82 82 82
82 82 82 82 82 81 76 77 77 77 78 78 79 79 79 79 79 81 81 81 81 81 81
81 82 82 82 82 83 84 84 83 83 82 82 83 84 84 84 85 85 85 85 85 85 85
85 85 84 83 83 83 84 84 84 84 84 84 84 84 83 83 83 83 83 83 83 83 82
81 81 81 82 93 74 87 89 85 83 82 83 83 83 84 84 82 82 82 82 82 82 82
82 81 81 76 77 77 76 78 78 79 79 79 79 79 81 81 81 81 81 81 81 82 82
82 82 83 84 83 84 82 83 82 84 84 83 85 85 85 85 85 85 85 85 85 85 85
84 84 84 84 84 84 84 84 84 83 83 83 83 82 83 83 83 82 80 81 82 82 81
79 80 82 82 85 84 83 82 83 83 84 84 84 82 82 82 82 82 82 82 81 80 80
76 77 77 76 78 78 79 79 79 79 79 81 81 81 81 81 81 81 82 82 82 82 83
84 83 84 82 83 82 84 84 84 84 85 85 85 85 85 85 85 85 85 84 83 83 83
84 84 84 84 84 84 84 83 83 83 83 83 84 83 83 80 82 82 81 82 81 79 79
78 79 82 83 82 83 84 83 84 83 82 82 82 82 82 82 82 81 80 80 74 77 78
78 78 78 78 79 80 80 80 79 80 81 83 83 83 83 83 82 82 82 83 83 84 84
83 84 84 84 85 85 85 86 86 86 85 85 85 85 85 85 85 84 84 84 84 84 84
84 84 84 84 84 84 84 85 85 86 85 85 83 82 82 79 80 83 84 79 78 79 81
82 82 83 84 81 81 82 82 82 82 81 81 81 81 81 80 79 75 76 78 78 78 78
78 79 81 81 81 81 81 81 83 83 83 83 83 82 82 82 83 84 84 84 83 85 88
83 85 85 85 86 86 86 86 86 87 85 85 85 85 85 85 85 84 84 84 83 84 84
84 83 84 83 85 85 85 85 85 85 83 81 80 80 85 86 86 87 81 77 80 82 83
84 82 82 82 82 82 82 81 81 81 81 81 81 79 76 76 77 78 78 78 78 79 81
82 81 81 81 81 83 83 83 83 82 83 83 83 83 84 84 84 83 83 82 85 85 85
85 86 86 86 85 85 85 85 85 85 85 86 86 86 84 83 83 84 84 84 84 84 84
84 85 85 85 85 84 85 84 81 80 80 84 87 87 89 86 77 80 82 84 84 82 82
82 82 82 82 81 80 81 81 81 80 79 77 77 78 79 79 79 79 79 81 81 81 80
81 83 83 83 83 83 83 82 83 82 83 84 84 84 84 84 84 86 86 86 86 86 86
86 85 86 85 86 86 86 86 86 85 85 84 84 84 84 84 84 84 84 84 84 85 85
85 85 85 85 85 83 81 80 83 86 87 88 90 85 79 83 82 82 82 82 82 81 81
81 81 82 81 81 81 80 79 77 77 78 79 79 79 79 80 81 81 81 80 81 83 82
82 82 83 83 83 83 82 83 84 84 84 84 84 84 84 84 84 85 86 86 86 86 86
86 86 86 86 86 86 85 85 85 85 84 84 84 84 84 84 84 84 85 85 85 85 85
85 86 85 83 77 78 84 88 85 87 88 79 83 82 82 82 82 82 81 81 81 81 82
81 80 81 80 79 77 77 78 79 78 78 79 79 81 81 81 81 81 81 82 82 83 83
83 83 82 83 84 84 84 84 84 84 84 83 83 84 84 85 85 85 86 86 87 86 86
86 86 86 85 85 85 85 84 85 85 85 85 85 85 85 85 85 85 85 85 85 86 86
84 79 78 82 87 82 80 81 80 83 82 82 82 82 82 81 81 81 81 81 80 80 80
79 78 77 77 78 80 79 79 79 79 80 79 79 80 81 81 81 81 82 82 83 82 82
83 84 84 83 83 84 84 84 83 83 83 85 83 84 83 85 85 85 85 85 86 86 86
85 85 85 85 85 85 85 85 85 85 85 85 85 85 85 84 84 84 85 86 85 82 79
81 84 81 80 81 81 82 82 82 82 82 82 81 81 81 81 81 80 80 80 79 78
