P2
89 89
255
230 216 208 233 235 241 244 240 240 240 243 237 234 245 244 240 232
249 246 241 242 248 199 252 240 240 203 192 246 241 212 210 253 244
243 241 201 218 246 237 249 246 242 237 249 226 222 157 206 228 230
234 229 251 193 230 228 227 227 228 232 240 250 240 252 254 240 253
248 253 239 250 239 238 238 240 204 213 235 229 232 160 244 225 210
205 184 209 147 225 221 217 201 226 246 238 242 240 243 233 238 248
244 242 253 241 228 237 235 236 236 205 248 243 244 247 169 250 242
248 190 215 252 245 248 218 189 231 227 214 230 222 233 226 226 235
199 231 231 232 231 237 247 190 235 228 235 242 243 230 171 163 159
149 170 201 142 174 175 133 223 246 243 245 237 191 254 245 237 238
165 238 248 249 243 209 199 219 234 230 196 213 203 232 244 243 240
227 242 246 246 246 251 204 223 242 244 242 240 222 212 245 243 242
239 188 210 246 235 250 197 195 250 244 211 186 211 234 219 229 233
222 229 232 228 235 228 231 231 226 237 248 188 236 229 225 240 242
242 214 194 221 213 207 223 222 198 218 216 226 234 231 245 183 242
242 245 240 251 199 143 242 248 220 230 166 254 241 241 238 208 209
212 229 239 233 243 245 247 232 227 233 179 197 237 225 242 239 219
217 245 240 236 239 217 178 251 231 239 251 227 182 227 228 193 247
225 230 231 223 233 228 230 229 229 229 229 226 236 241 244 188 237
229 231 242 243 240 247 248 235 251 241 243 244 251 234 247 244 240
250 203 220 239 235 228 238 241 234 238 143 231 215 172 201 246 241
237 238 245 196 214 216 240 243 242 247 231 223 227 225 237 232 225
222 236 250 210 226 244 243 244 236 243 175 254 235 240 238 243 240
182 215 182 250 223 231 224 227 244 246 229 229 229 229 228 236 204
222 219 199 223 228 208 226 229 226 244 238 236 241 232 239 237 241
228 243 239 240 233 193 254 242 241 242 231 247 233 244 253 150 210
158 255 252 237 235 238 209 199 211 220 240 244 250 241 223 227 226
226 226 226 226 226 220 249 203 234 232 243 238 246 245 173 250 230
243 243 237 224 235 174 177 242 228 225 229 228 245 246 233 228 228
229 229 229 211 212 206 202 202 209 221 202 195 203 233 224 237 242
231 243 240 246 228 246 242 252 187 240 232 244 249 252 229 239 242
229 250 198 112 227 225 186 239 235 238 246 211 205 218 240 246 218
224 226 226 226 226 226 227 226 226 227 231 203 251 245 251 251 247
237 173 236 233 240 238 244 239 249 211 173 221 225 228 229 227 238
248 237 231 241 232 231 229 229 246 227 202 236 232 230 230 232 231
225 221 245 239 232 244 238 241 231 227 205 198 199 199 212 207 197
219 247 233 245 247 194 221 122 199 201 236 237 237 242 244 209 202
221 240 239 145 203 231 226 227 227 227 227 227 227 227 233 183 229
238 203 197 218 171 134 223 237 250 250 251 251 252 182 191 226 241
240 227 229 228 230 240 224 199 205 212 225 236 239 209 209 229 227
228 226 227 227 227 223 239 240 229 242 237 241 232 242 229 190 235
223 218 223 219 238 247 230 253 205 171 206 164 255 248 239 242 241
241 241 232 212 235 245 228 229 231 226 227 227 227 227 227 227 227
227 225 229 199 186 209 231 215 216 207 158 193 192 192 200 212 218
164 199 176 248 243 235 237 235 214 177 197 225 216 208 198 188 249
210 214 229 228 229 226 227 227 227 225 241 239 230 246 235 239 234
250 212 201 210 209 201 214 228 248 251 237 181 198 230 215 159 221
238 244 246 249 229 235 247 214 238 227 225 227 227 227 227 227 227
227 227 227 227 226 229 236 177 230 249 244 243 250 232 189 255 246
243 234 199 194 218 204 189 175 194 187 185 186 192 228 228 232 235
230 231 215 201 200 229 227 231 227 227 227 227 226 227 239 236 221
223 240 234 238 244 221 198 211 218 216 229 230 242 186 191 238 252
251 195 175 251 241 240 236 227 226 228 225 216 246 222 227 227 227
227 227 227 227 227 227 227 226 235 213 175 245 234 238 242 239 242
245 178 252 238 240 246 202 220 255 242 255 226 171 238 232 236 237
220 181 197 193 189 210 199 191 189 192 240 227 226 227 227 227 224
233 243 235 237 237 241 231 234 243 208 231 244 244 254 241 195 184
224 254 228 229 239 172 202 240 240 241 247 235 227 230 233 209 228
232 227 227 227 227 226 227 227 227 227 226 237 195 192 252 238 235
227 243 239 241 242 178 236 238 240 241 194 245 244 230 227 243 230
169 238 229 230 227 235 229 229 234 233 231 245 206 222 193 230 233
227 227 226 224 242 247 235 242 238 245 230 243 250 202 239 248 248
203 186 232 254 233 247 224 228 237 166 227 240 242 242 243 246 232
236 233 237 217 208 227 230 226 232 231 226 227 226 228 233 181 215
251 236 243 243 241 231 247 238 239 182 220 239 241 235 204 249 240
232 245 235 249 223 171 238 228 231 234 227 230 228 229 230 227 192
249 224 202 186 227 236 237 213 196 203 220 232 235 251 234 254 255
204 255 214 174 233 247 242 240 234 246 234 233 238 160 197 240 242
243 211 229 215 213 201 202 213 206 186 202 199 204 197 228 226 233
223 178 239 249 242 235 240 237 244 235 238 240 245 195 199 245 239
235 222 249 238 218 243 237 241 248 222 174 238 236 236 233 229 230
227 225 238 193 247 250 254 244 175 194 191 201 230 225 181 212 194
192 195 181 192 186 167 198 201 245 238 252 248 241 250 249 248 249
193 176 246 235 235 215 196 208 206 213 219 227 231 214 226 213 194
211 230 236 199 185 248 238 232 244 238 243 243 241 246 228 234 213
141 185 254 254 201 183 250 236 237 239 237 243 236 249 220 176 243
245 236 228 224 232 239 235 199 253 234 225 249 223 202 247 238 242
242 196 254 247 250 235 247 233 194 224 194 192 177 179 177 180 196
201 216 230 229 200 189 254 244 249 253 255 186 185 203 194 189 189
197 200 217 227 213 192 175 209 236 228 243 235 240 239 240 241 243
231 238 240 244 228 176 247 238 206 185 249 235 241 245 236 238 236
240 241 229 172 248 248 227 230 241 239 228 200 246 226 224 240 226
215 247 234 247 230 198 249 237 236 233 243 231 205 250 247 249 251
241 240 226 218 204 176 159 168 176 169 219 224 229 231 172 220 252
251 255 203 243 229 219 209 203 187 211 213 200 243 248 242 241 238
243 243 239 231 248 240 241 242 241 179 231 250 222 226 244 225 232
243 236 243 239 241 233 248 227 181 252 227 239 237 241 218 209 246
225 221 248 210 236 243 230 240 221 210 248 239 231 235 239 216 212
242 237 238 236 233 239 236 240 250 254 240 191 158 163 171 172 172
181 248 250 239 243 251 199 250 239 247 255 241 223 212 184 199 197
244 234 235 241 234 234 216 250 224 243 233 238 232 194 205 235 212
214 233 232 228 245 243 244 237 234 231 242 253 206 172 246 235 239
243 210 222 248 244 241 251 206 190 207 216 237 208 226 248 249 233
238 249 209 223 239 239 239 236 236 242 232 241 240 240 251 207 181
227 249 245 242 252 235 236 235 237 242 199 254 247 187 174 166 175
193 192 190 181 165 182 187 160 177 214 210 217 209 199 191 195 213
225 171 214 200 193 187 245 249 225 247 242 238 242 236 247 214 190
234 175 252 246 251 206 225 247 245 244 247 232 231 218 205 197 184
191 196 198 211 219 234 202 237 249 246 246 237 238 242 231 242 238
242 252 210 174 231 226 235 231 235 231 236 237 236 226 228 190 154
197 246 238 216 210 203 193 213 233 249 240 202 185 172 171 181 200
226 248 254 253 249 171 251 242 210 253 245 236 224 223 242 234 234
235 237 178 252 251 219 203 220 240 191 241 239 244 246 249 232 243
235 241 254 201 240 240 240 231 165 158 151 159 125 181 209 210 227
234 237 250 248 248 249 198 193 235 223 230 241 219 236 228 231 246
223 132 212 249 205 195 207 213 197 208 219 181 209 193 195 202 204
228 247 213 146 182 172 177 175 182 200 203 242 203 240 239 226 221
230 223 242 232 245 222 207 235 242 239 111 157 193 197 216 236 213
239 235 207 234 230 214 234 183 236 219 238 230 252 247 190 251 227
234 232 217 206 203 202 199 200 206 216 169 161 231 240 252 241 232
246 247 245 201 163 246 193 170 189 236 231 200 234 250 218 236 245
252 239 231 225 209 204 188 155 211 231 248 236 204 186 97 231 198
244 241 241 237 236 227 231 227 239 204 215 243 243 225 169 152 181
195 193 189 198 170 186 186 171 208 177 194 185 188 190 187 243 243
241 200 248 244 241 242 232 247 249 234 249 242 233 210 195 173 220
207 207 207 223 211 139 173 139 170 139 203 208 228 217 183 192 197
193 207 207 221 220 235 223 234 242 247 245 242 215 204 198 199 189
229 227 163 139 244 248 243 244 245 235 241 231 246 197 229 233 234
223 178 185 195 169 253 244 234 253 244 243 249 234 244 235 196 242
237 237 230 243 238 201 248 240 240 244 234 242 236 235 247 246 242
220 200 175 225 221 219 219 164 188 142 149 188 149 192 216 232 246
240 208 252 254 231 220 209 208 202 196 195 189 195 199 209 218 224
237 251 250 233 196 181 228 212 142 224 253 240 238 228 232 227 246
188 239 241 246 236 244 253 208 200 239 235 236 234 221 237 232 227
244 234 195 235 229 223 237 243 227 207 243 238 238 239 231 241 235
238 239 247 238 204 210 178 226 210 208 214 244 246 248 255 202 235
253 188 252 238 206 238 250 228 244 240 245 252 251 246 246 246 234
225 210 202 192 194 191 203 222 253 246 154 195 239 153 198 252 241
229 236 231 239 191 236 230 231 228 237 244 189 236 238 242 244 239
226 241 224 229 240 220 195 235 239 227 252 249 215 219 230 250 248
244 242 240 242 252 246 238 253 199 200 182 247 241 242 246 201 199
201 181 189 248 232 209 247 237 208 237 235 239 236 233 243 239 214
218 225 223 225 230 235 240 240 243 240 229 201 189 188 191 195 182
244 163 215 245 227 235 238 244 194 250 243 243 229 233 241 189 235
229 229 230 236 233 240 242 234 251 223 182 195 183 177 179 225 196
206 186 188 184 189 188 252 194 175 202 241 255 197 188 208 248 234
245 248 243 251 231 205 229 190 176 224 245 224 220 243 236 232 229
232 237 236 241 240 238 233 228 221 214 213 221 218 217 218 232 240
175 197 170 225 177 248 141 226 224 238 231 233 179 240 229 232 231
241 247 184 252 243 238 237 235 225 233 229 227 238 198 221 222 226
214 229 254 206 246 232 238 233 237 225 246 162 252 162 246 249 197
174 216 245 233 249 230 235 227 184 196 228 253 205 184 189 190 231
253 254 253 250 248 245 245 244 245 246 246 246 246 245 235 225 215
232 237 231 207 191 250 229 173 185 172 239 134 211 196 246 254 219
171 238 236 235 230 226 193 248 237 235 239 239 240 254 245 242 250
191 235 232 226 204 210 176 174 200 201 191 201 197 189 251 164 159
171 250 244 208 186 239 242 234 244 234 236 174 254 182 247 220 173
217 252 204 169 174 194 207 218 232 242 248 254 254 253 250 247 245
244 248 255 249 238 246 237 174 205 246 213 181 192 191 184 201 225
194 170 207 253 234 178 244 247 240 226 201 251 246 234 228 192 189
187 196 209 225 185 227 232 241 222 228 222 196 220 189 216 217 208
212 233 216 217 221 234 229 217 172 252 244 235 243 246 168 248 224
174 255 190 190 255 205 169 216 234 226 211 199 189 181 178 178 184
195 206 220 233 246 239 166 171 203 168 180 190 182 190 212 254 223
137 161 192 162 131 191 223 187 255 216 186 251 248 212 211 248 244
231 238 253 247 253 219 205 203 167 142 175 191 197 198 217 199 247
254 254 255 246 253 240 243 248 246 243 217 217 163 250 233 233 242
238 241 242 191 223 244 173 254 239 160 223 254 247 247 250 254 255
248 248 242 228 218 205 193 185 193 189 175 157 157 164 240 190 185
213 251 245 254 236 156 200 220 172 247 250 208 203 255 197 214 193
178 237 245 237 239 239 247 224 225 172 179 171 137 151 139 187 218
211 195 189 176 173 176 188 208 225 220 236 245 248 255 213 187 188
252 244 236 244 241 243 234 181 255 206 222 251 171 180 245 241 242
242 236 213 220 239 245 245 246 249 250 254 246 190 203 179 191 190
196 154 166 185 176 185 225 235 227 242 181 226 169 213 232 255 191
216 189 175 227 231 242 248 243 233 199 190 170 176 139 167 197 213
221 166 162 220 239 235 249 235 243 248 167 165 139 157 182 167 169
178 184 173 202 219 225 233 249 249 243 224 251 255 187 255 180 203
207 246 244 244 247 234 192 194 245 244 244 244 244 244 244 247 164
169 180 168 181 164 187 159 183 233 227 184 178 230 242 237 160 245
157 250 206 187 185 255 180 230 235 222 229 201 164 190 148 153 189
207 243 247 231 241 207 163 218 229 239 233 225 229 237 217 227 241
250 248 255 232 233 188 174 192 215 203 206 200 197 240 220 246 238
206 191 206 244 204 249 244 244 246 234 196 201 246 244 244 244 244
244 244 244 255 254 250 255 255 248 242 218 175 231 246 254 241 175
150 251 229 175 228 117 216 254 187 252 215 200 219 196 179 160 145
173 189 240 248 232 229 230 247 242 169 162 174 150 239 243 216 109
137 138 148 162 152 156 122 222 247 212 172 238 239 231 243 247 248
236 222 234 202 183 200 252 220 217 247 244 244 246 234 196 202 248
244 244 244 244 244 244 245 244 237 245 248 237 224 246 239 167 246
240 246 237 133 178 156 218 171 181 215 159 254 206 213 188 149 174
154 175 192 222 254 229 231 234 238 244 226 241 233 219 148 168 219
252 243 224 228 229 227 218 226 225 241 236 231 246 214 181 255 244
234 246 241 241 236 228 239 182 167 245 244 209 237 245 244 244 246
232 196 205 248 244 244 244 244 244 244 243 239 250 236 228 235 245
242 242 167 244 240 244 246 158 111 214 208 254 184 204 167 186 174
162 153 147 189 221 246 246 225 233 234 234 243 236 238 231 232 247
245 197 153 199 238 226 225 230 230 231 225 245 240 238 245 229 232
209 169 252 242 235 246 243 243 207 214 205 177 251 248 243 200 235
246 244 244 247 232 196 207 248 244 244 244 244 244 246 239 239 229
239 246 242 242 250 211 184 250 245 240 237 236 243 246 247 224 254
160 228 136 146 154 198 229 215 241 224 244 243 239 242 228 240 236
243 246 243 205 210 227 148 174 225 228 227 229 229 230 225 243 237
239 239 239 231 192 191 248 237 236 246 241 242 230 199 167 244 246
245 243 202 226 247 244 244 247 231 196 209 249 244 244 244 245 244
231 232 244 243 220 246 244 244 251 195 207 253 239 237 230 248 244
219 193 230 223 215 164 182 130 228 205 245 183 251 235 235 241 237
240 229 242 247 216 202 179 203 242 241 138 75 193 227 234 240 239
237 231 253 240 244 239 241 238 158 186 245 230 234 243 240 240 230
178 208 254 243 244 248 209 217 248 244 244 247 230 196 211 250 244
245 244 239 238 246 244 213 196 191 214 249 244 252 177 219 233 244
252 236 211 198 196 216 245 221 242 178 142 116 218 189 253 197 222
242 226 242 238 241 234 219 184 188 225 252 228 169 113 197 128 82
167 141 142 144 152 182 219 223 244 252 254 161 181 247 243 237 231
234 232 229 170 209 210 253 244 244 249 216 207 249 244 244 247 229
196 213 250 243 239 241 250 241 213 195 201 199 213 245 246 248 231
177 228 242 241 214 197 201 202 224 244 213 228 226 239 181 165 163
219 225 239 188 250 231 241 229 228 233 248 248 248 199 175 128 145
172 167 184 68 202 253 234 229 214 190 165 165 148 144 136 155 249
244 244 235 240 240 242 236 177 252 200 253 244 244 248 223 199 248
244 243 250 232 195 212 248 244 251 240 210 196 201 205 196 242 250
244 241 242 221 187 241 211 192 198 203 202 205 212 188 194 234 224
230 216 142 186 177 194 215 190 238 226 222 244 253 241 187 181 144
164 164 147 207 225 224 198 163 142 177 220 252 239 231 237 239 240
242 246 182 198 197 199 204 217 226 241 236 241 230 210 249 244 244
244 245 193 246 244 250 228 205 203 201 196 230 212 193 198 200 200
200 200 202 200 197 195 197 187 190 209 202 197 197 200 201 198 199
220 238 240 219 230 202 153 110 178 158 132 215 209 253 222 192 179
133 124 169 181 175 152 180 234 234 243 232 212 198 151 170 199 242
224 227 229 229 234 248 189 254 247 243 225 219 205 204 196 252 216
220 246 244 244 244 243 195 216 250 214 196 204 203 201 199 190 192
200 201 203 202 204 202 196 195 196 199 204 182 207 232 242 239 226
209 198 214 244 245 237 231 223 240 248 216 186 142 164 245 250 180
189 132 134 164 161 182 191 224 239 236 235 232 209 203 232 232 220
201 149 170 182 238 225 228 229 229 229 194 249 238 241 234 248 247
254 240 251 208 233 245 244 244 248 231 197 202 197 198 201 198 192
203 223 234 231 220 239 237 238 238 236 232 231 227 223 217 179 206
192 193 207 226 241 241 251 234 236 239 241 217 220 232 239 218 172
168 153 194 136 160 159 190 219 214 231 248 179 183 165 170 165 235
232 203 228 229 227 208 156 160 177 229 232 228 228 217 204 248 243
244 235 245 239 242 235 235 195 244 244 244 243 247 212 202 200 200
193 201 220 246 222 196 176 210 172 232 236 240 240 241 238 235 235
239 233 193 255 246 228 209 194 190 202 219 237 242 237 238 223 244
252 254 216 178 165 137 164 155 197 193 227 248 241 251 213 109 120
121 125 119 181 191 229 206 229 226 234 209 172 153 174 198 229 248
218 206 245 241 242 237 246 244 239 235 216 211 249 243 248 249 239
199 200 196 206 236 246 226 179 201 242 245 249 254 244 235 245 244
244 243 243 247 252 203 213 227 234 238 247 248 235 214 196 191 203
225 246 227 227 207 186 198 229 235 216 204 184 201 253 231 249 245
192 186 187 184 147 174 175 227 227 187 204 216 235 233 240 215 186
168 147 177 195 175 236 251 250 234 237 241 242 238 239 253 251 243
249 217 218 199 198 199 229 248 247 225 247 250 251 244 245 244 243
252 242 251 250 247 250 244 247 255 184 243 252 235 247 239 233 231
242 242 222 196 197 194 209 172 191 235 242 236 237 229 185 250 195
239 229 219 194 192 237 237 243 235 220 240 204 216 223 197 188 198
197 206 225 220 219 183 157 182 159 169 193 217 241 234 238 241 237
241 251 245 245 241 196 198 199 197 242 245 243 248 232 246 244 244
244 244 244 248 223 201 210 210 220 208 222 225 211 189 233 200 226
203 218 225 250 222 169 235 234 217 215 178 166 198 158 166 180 139
183 173 172 188 241 249 177 177 188 201 196 185 195 223 178 171 173
184 189 204 177 180 188 168 165 183 175 155 152 149 188 122 149 237
247 242 241 232 244 220 242 249 209 199 201 197 239 244 244 244 246
234 242 244 244 244 244 245 250 234 197 209 213 203 226 201 214 223
180 228 216 213 216 202 196 231 146 230 175 230 234 245 221 168 194
197 212 221 202 216 167 203 230 189 194 228 252 237 235 235 240 242
200 183 190 183 192 198 203 203 185 200 237 230 221 214 211 195 190
210 183 149 144 232 227 239 232 248 199 201 224 197 201 196 235 244
245 244 244 245 236 234 245 244 244 244 236 236 232 233 229 237 235
233 240 228 236 188 173 203 189 190 185 199 203 165 169 182 165 162
161 194 182 233 247 254 252 254 242 240 188 254 188 193 251 255 209
174 180 161 172 187 192 185 195 234 220 213 207 193 180 183 188 200
222 234 237 194 255 234 207 135 141 158 161 182 187 200 214 210 199
196 232 248 244 240 245 245 243 228 234 245 244 244 244 235 208 186
198 185 209 216 200 175 176 176 194 220 200 228 192 204 246 243 243
227 243 247 235 222 176 198 163 164 185 220 234 230 255 209 188 233
195 202 178 170 184 220 253 251 254 236 243 245 225 234 238 238 230
221 207 206 212 183 171 226 200 252 248 207 242 164 166 153 212 190
209 229 195 197 230 248 244 244 242 243 238 238 240 235 245 244 244
244 252 250 254 242 208 174 170 171 223 204 255 203 247 252 247 253
248 246 238 234 249 240 244 242 253 197 236 248 222 219 187 169 181
213 207 185 211 174 162 214 205 199 246 242 241 248 233 232 241 178
200 200 181 206 186 198 190 193 198 194 170 214 248 240 244 206 190
255 206 199 252 181 204 203 209 248 244 244 244 248 239 243 248 244
235 245 245 249 248 204 237 213 165 188 234 248 251 213 194 208 201
252 244 244 244 245 238 246 242 228 247 238 241 240 253 180 240 235
228 239 248 236 181 194 180 212 233 230 182 224 247 240 239 241 245
226 242 230 242 237 219 238 235 204 217 211 234 231 215 174 224 243
240 249 183 197 249 247 227 182 208 173 187 240 246 244 244 248 231
234 231 232 227 238 246 243 231 192 194 176 167 233 251 237 245 243
253 224 213 253 243 244 244 244 240 244 240 243 240 231 249 239 241
230 237 180 246 248 237 245 218 202 255 213 225 244 239 224 179 243
242 244 238 247 225 249 227 225 227 201 194 208 189 194 199 217 245
243 189 182 254 238 242 180 182 251 236 239 249 205 201 176 191 252
248 246 237 213 212 206 211 232 227 230 215 192 226 175 190 227 248
242 234 246 244 242 251 253 252 253 243 242 240 239 246 242 240 247
246 233 241 229 241 240 216 203 251 247 228 192 245 239 230 189 244
235 251 199 202 251 241 240 244 223 248 246 240 233 225 225 235 226
235 229 222 242 247 210 177 197 252 218 195 171 225 234 242 239 199
200 225 199 164 236 250 219 221 207 218 230 227 223 216 191 215 172
214 205 253 238 246 235 249 254 253 224 214 203 179 241 243 244 245
240 249 240 238 234 233 224 230 227 245 253 192 230 241 184 250 232
225 247 169 245 237 234 247 170 229 248 241 247 225 246 244 250 227
193 207 198 209 202 213 226 249 246 217 178 182 222 228 209 180 243
232 240 239 201 200 217 238 220 166 200 197 201 207 200 190 196 194
202 192 181 194 196 211 253 253 242 234 207 190 176 198 197 231 219
216 250 242 237 234 227 232 237 242 243 217 218 248 238 240 254 192
186 242 222 241 231 247 200 213 241 223 238 245 166 243 247 233 224
235 245 245 237 238 231 225 223 225 227 235 247 248 202 242 182 185
190 221 189 255 235 240 254 200 199 226 240 232 236 195 181 196 205
213 198 204 180 177 196 236 252 253 181 220 182 185 187 214 235 235
242 237 219 189 198 243 234 238 240 239 235 247 239 184 158 143 231
254 246 207 192 248 241 225 246 232 232 235 183 254 234 241 245 229
174 233 244 244 214 234 210 195 215 196 215 217 208 206 219 249 248
198 253 234 189 180 198 164 205 220 233 199 201 197 234 243 233 229
235 227 214 202 196 200 215 245 177 238 243 244 248 224 225 244 253
254 243 231 198 190 191 202 234 194 231 248 242 242 239 233 229 224
192 153 141 213 200 185 220 248 237 245 228 229 237 231 252 170 237
235 227 223 244 245 174 205 253 249 230 223 222 222 221 219 214 227
215 216 227 243 201 252 248 248 182 193 171 181 178 168 178 201 200
240 239 245 248 246 243 240 239 238 235 247 245 233 175 244 247 249
254 247 233 210 198 195 193 212 254 237 251 242 250 180 252 241 239
248 229 220 246 219 185 174 213 228 245 247 236 232 232 237 232 249
226 248 213 207 240 231 243 239 240 252 210 165 239 251 227 254 243
244 245 243 245 245 246 242 233 204 238 234 241 194 206 195 238 214
220 247 200 204 244 240 240 245 243 248 246 246 249 244 241 242 253
200 253 228 206 195 195 202 219 237 248 198 153 150 155 250 243 249
211 181 251 233 199 238 235 233 237 180 238 251 241 206 225 229 230
232 243 215 244 220 229 242 172 244 228 238 237 247 248 190 235 173
213 210 214 255 246 244 241 239 241 243 243 225 213 247 244 233 194
181 214 244 244 246 245 197 211 245 240 239 244 247 228 249 243 237
239 232 243 249 218 188 192 228 246 248 248 237 245 250 239 250 239
246 235 245 242 229 188 144 230 203 164 183 193 194 188 176 182 242
199 192 192 179 185 151 210 230 245 232 252 197 229 240 235 249 215
180 238 248 231 180 234 169 186 204 218 234 244 251 250 251 213 228
241 244 217 199 180 219 234 237 238 244 196 207 244 240 239 243 252
207 188 201 191 204 192 186 191 248 165 170 221 244 235 242 220 120
143 137 143 165 161 164 135 223 226 251 205 217 255 225 246 225 193
245 227 255 242 242 223 240 249 230 254 247 225 244 233 240 227 195
252 200 190 209 241 231 226 237 192 253 190 243 225 209 200 195 199
202 215 194 230 242 252 207 216 184 250 234 244 241 242 195 201 243
240 240 243 248 240 249 250 237 253 254 229 251 228 126 135 208 233
227 231 236 229 220 222 227 232 216 242 223 247 204 164 181 155 177
201 165 159 191 190 156 172 156 221 177 162 187 160 168 214 237 238
237 228 255 183 187 218 241 222 207 217 231 234 197 231 206 218 249
249 253 254 250 240 235 191 207 197 184 165 165 187 206 239 249 250
248 196 198 239 240 241 232 198 193 219 253 180 196 188 201 199 247
215 211 217 230 226 231 223 229 249 244 235 240 235 237 242 235 235
243 227 249 225 193 194 243 238 218 243 240 246 244 236 236 233 229
242 245 233 229 241 245 203 203 237 226 232 201 202 197 217 231 221
200 239 195 253 244 244 244 244 244 250 199 255 251 243 142 184 178
226 200 196 202 194 200 196 230 242 240 239 198 200 219 249 243 247
245 239 242 233 214 195 202 200 199 201 197 211 210 216 235 212 227
231 235 227 232 245 242 240 252 205 205 243 240 228 230 235 245 236
236 238 242 241 229 228 237 223 254 190 212 238 225 226 232 206 202
201 213 231 237 190 255 188 252 244 244 244 244 244 240 202 247 238
247 203 194 198 176 210 255 243 236 216 198 202 245 239 245 211 197
223 249 244 244 241 242 232 213 197 204 204 203 204 203 204 202 201
213 225 198 197 192 237 252 233 230 246 242 228 186 254 234 221 235
243 226 231 244 241 238 240 222 236 241 246 247 180 234 236 227 233
232 236 207 207 199 220 228 236 194 240 197 233 245 244 244 244 245
223 212 246 240 239 234 188 201 229 177 174 214 253 217 195 198 220
244 243 225 198 200 247 244 244 240 248 227 193 204 204 204 204 204
204 204 204 204 202 201 204 204 195 241 236 237 243 230 242 184 243
239 246 239 235 227 226 239 236 243 249 229 244 237 237 254 182 214
253 235 226 209 201 202 198 227 200 225 230 231 210 213 228 203 250
244 244 244 245 214 222 243 239 246 213 248 216 201 197 234 172 172
244 200 200 199 240 241 240 198 201 210 249 244 239 245 250 206 202
204 204 204 204 204 204 204 204 204 203 204 204 206 232 191 198 203
226 226 185 251 246 242 237 239 243 234 215 205 217 212 244 240 236
252 191 197 236 242 246 217 198 202 204 203 204 203 228 230 229 230
195 251 188 253 244 244 244 249 202 236 241 239 251 214 243 247 243
211 203 201 224 235 237 194 192 212 246 244 207 203 198 248 244 240
242 246 240 195 204 204 204 204 204 204 204 204 204 204 204 201 222
217 202 204 203 197 209 218 188 206 226 254 208 182 250 238 235 213
230 238 247 248 206 188 254 234 227 250 229 223 206 198 203 202 205
231 229 229 237 190 247 189 242 247 249 249 254 199 248 239 237 244
213 251 235 230 244 252 213 196 237 209 227 152 198 228 246 221 199
201 208 250 244 239 243 245 214 200 204 204 204 204 204 204 204 204
204 204 197 232 203 204 204 204 204 203 199 221 220 200 200 145 187
180 234 218 225 211 225 232 217 178 241 241 233 231 227 226 229 234
224 203 200 208 231 229 229 233 200 222 205 211 230 193 214 228 198
254 248 250 244 222 249 247 228 241 241 243 245 244 211 232 180 187
198 237 236 197 204 195 231 247 245 237 238 242 199 204 204 204 204
204 204 204 204 204 204 198 235 196 204 204 204 204 204 204 201 197
224 239 170 131 230 233 198 209 210 217 201 186 218 214 235 243 240
221 227 227 228 231 234 206 198 227 230 229 229 222 193 233 198 251
224 205 193 186 172 200 177 203 184 231 241 230 249 248 243 240 241
234 206 212 174 198 201 247 200 203 204 200 249 244 242 237 244 230
198 204 204 204 204 204 204 204 204 203 212 226 199 204 204 204 204
204 204 204 204 201 197 213 236 184 219 229 235 243 229 181 246 241
232 236 240 238 236 221 229 229 227 229 235 206 204 232 230 230 236
190 255 187 251 239 243 229 211 253 243 224 224 180 220 233 226 234
234 234 239 200 227 208 206 197 161 198 212 230 200 204 198 220 249
246 247 235 205 202 204 204 204 204 204 204 204 204 204 203 199 204
204 204 204 204 204 204 204 204 204 203 203 201 226 197 177 198 197
181 243 243 241 233 244 237 242 240 228 228 229 226 227 229 235 204
203 230 227 237 194 241 199 227 242 245 221 215 242 238 255 221 246
240 240 231 235 234 237 234 204 201 221 198 207 198 179 202 227 212
203 204 195 244 241 211 197 203 204 204 204 204 204 204 204 204 204
204 204 204 204 204 204 204 204 204 204 204 204 204 204 204 204 199
209 225 200 176 241 246 243 233 242 239 242 237 242 241 222 229 229
228 230 228 235 204 205 218 225 207 216 229 202 252 249 210 225 240
240 183 195 219 232 236 236 223 239 241 241 198 203 203 214 203 204
205 201 201 203 204 204 202 208 199 201 204 204 204 204 204 204 204
204 204 204 204 204 204 204 204 204 204 204 204 204 204 204 204 204
204 204 204 204 203 198 219 213 186 229 243 245 253 249 252 253 246
251 248 231 236 225 228 228 228 235 201 198 201 223 193 250 182 239
250 207 245 251 228 130 172 174 206 242 237 240 240 236 242 217 199
202 203 212 209 203 200 201 204 204 204 204 202 203 204 204 204 204
204 204 204 204 204 204 204 204 204 204 204 204 204 204 204 204 204
204 204 204 204 204 204 204 204 204 204 201 203 218 190 206 199 165
185 175 157 216 174 187 179 176 237 228 228 230 230 230 198 200 221
184 206 187 207 204 185 202 208 226 219 214 255 254 236 245 239 238
248 196 243 224 199 203 201 206 206 204 201 201 204 204 204 204 204
204 204 204 204 204 204 204 204 204 204 204 204 204 204 204 204 204
204 204 204 204 204 204 204 204 204 204 204 204 204 204 204 204 201
209 205 174 167 200 189 186 208 228 196 192 196 230 229 227 228 228
230 224 197 208 188 240 214 219 255 203 245 229 213 206 200 199 201
205 216 226 240 252 237 250 246 222 198 204 203 203 204 204 201 200
204 204 204 204 204 204 204 204 204 204 204 204 204 204 204 204 204
204 204 204 204 204 204 204 204 204 204 204 204 204 204 204 204 204
204 204 204 204 204 202 211 200 198 242 255 246 246 249 251 250 236
220 231 228 228 227 233 217 195 200 205 244 191 252 195 252 240 245
244 218 253 246 223 217 206 199 198 205 236 238 249 214 200 204 204
204 204 204 202 201 204 204 204 204 204 204 204 204 204 204 204 204
204 204 204 204 204 204 204 204 204 204 204 204 204 204 204 204 204
204 204 204 204 204 204 204 204 204 204 203 206 207 178 203 247 244
240 242 236 243 240 218 231 229 229 227 231 227 229 181 255 188 233
202 243 234 239 250 213 249 243 230 243 244 253 250 242 194 250 242
244 219 199 204 204 204 204 204 202 201 203 204 204 204 204 204 204
204 204 204 204 204 204 204 204 202 206 206 207 205 205 204 204 205
203 204 204 204 204 204 204 204 204 204 204 204 204 204 204 204 202
210 199 180 226 252 239 244 236 241 244 220 230 228 229 227 230 233
191 206 215 197 215 244 237 235 234 213 237 235 238 243 239 241 241
241 199 240 238 247 230 201 204 204 204 204 204 204 202 201 203 204
204 204 204 204 204 204 204 204 204 204 204 204 207 187 187 188 195
198 202 205 199 213 204 204 204 204 204 204 204 204 204 204 204 204
204 204 204 204 203 203 210 177 194 246 244 238 242 243 247 219 229
228 229 228 224 236 196 180 171 212 231 244 247 254 223 168 240 214
241 241 242 238 240 210 228 241 245 239 203 203 204 204 204 204 204
204 203 201 202 204 204 204 204 204 204 204 204 204 204 204 204 206
196 186 177 173 171 169 176 161 167 200 205 204 204 204 204 204 204
204 204 204 204 204 204 204 204 204 204 202 207 199 169 222 252 241
244 237 243 222 232 228 230 227 222 235 226 179 198 184 182 181 207
153 154 163 151 239 235 232 245 242 215 216 239 240 241 212 200 204
204 204 204 204 204 204 202 201 201 204 204 204 204 204 204 204 204
204 204 204 203 205 206 209 209 209 208 206 205 188 204 204 204 204
204 204 204 204 204 204 204 204 204 204 204 204 204 204 204 201 212
239 184 197 254 249 244 254 246 236 236 226 227 222 229 226 176 241
250 243 237 224 206 149 219 213 254 252 251 245 240 234 210 247 242
244 213 200 204 204 204 204 204 204 204 204 203 201 201 204 204 204
204 204 204 204 204 204 204 204 204 204 204 204 204 204 204 204 207
204 204 204 204 204 204 204 204 204 204 204 204 204 204 204 204 204
204 204 210 165 195 182 168 147 200 208 153 193 175 209 249 232 223
219 253 178 219 247 242 244 241 247 253 197 183 187 188 206 223 237
187 202 234 235 236 202 203 204 204 204 204 204 204 204 204 204 203
201 201 204 204 204 204 204 204 204 204 204 204 204 204 204 204 204
204 204 204 204 204 204 204 204 204 204 204 204 204 204 204 204 204
204 204 204 204 204 204 208 183 191 196 206 195 142 218 197 199 190
219 241 233 229 240 244 190 201 251 243 239 242 243 247 244 242 206
222 207 188 180 252 245 240 235 227 241 200 204 204 204 204 204 204
204 204 204 204 203 202 201 204 204 204 204 204 204 204 204 204 204
204 204 204 204 204 204 204 204 204 204 204 204 204 204 204 204 204
204 204 204 204 204 204 204 204 204 204 202 210 206 209 216 228 240
179 248 245 253 248 214 233 248 248 230 211 186 249 244 253 247 242
242 238 235 212 229 240 252 251 249 243 242 241 237 235 218 201 203
203 203 199 203 204 204 204 202 207 220 200 203 204 204 204 204 204
204 204 204 204 204 204 204 204 204 204 204 204 204 204 204 204 204
204 204 204 204 204 204 204 204 204 204 204 204 204 204 204 204 202
202 202 208 239 226 185 255 235 220 241 229 247 242 226 220 195 230
234 176 202 236 230 246 229 220 220 232 242 243 194 245 241 237 243
226 219 204 205 209 206 225 208 203 204 204 208 193 164 208 200 204
204 204 204 204 204 204 204 204 204 204 204 204 204 204 204 204 204
204 204 204 204 204 204 204 204 204 204 204 204 204 204 204 204 204
204 204 203 212 210 202 201 206 242 191 231 225 247 244 245 228 248
209 232 216 204 249 234 223 192 195 169 240 215 221 234 246 245
